<svg class="main-svg" xmlns="http://www.w3.org/2000/svg" xmlns:xlink="http://www.w3.org/1999/xlink" width="700" height="500" style="" viewBox="0 0 700 500"><rect x="0" y="0" width="700" height="500" style="fill: rgb(255, 255, 255); fill-opacity: 1;"/><defs id="defs-a7e659"><g class="clips"><clipPath id="clipa7e659xyplot" class="plotclip"><rect width="639.1999999999999" height="464"/></clipPath><clipPath id="clipa7e659xy2plot" class="plotclip"><rect width="639.1999999999999" height="464"/></clipPath><clipPath class="axesclip" id="clipa7e659x"><rect x="10" y="0" width="639.1999999999999" height="500"/></clipPath><clipPath class="axesclip" id="clipa7e659y"><rect x="0" y="26" width="700" height="464"/></clipPath><clipPath class="axesclip" id="clipa7e659xy"><rect x="10" y="26" width="639.1999999999999" height="464"/></clipPath><clipPath class="axesclip" id="clipa7e659y2"><rect x="0" y="26" width="700" height="464"/></clipPath><clipPath class="axesclip" id="clipa7e659xy2"><rect x="10" y="26" width="639.1999999999999" height="464"/></clipPath></g><g class="gradients"/><g class="patterns"/></defs><g class="bglayer"/><g class="layer-below"><g class="imagelayer"/><g class="shapelayer"/></g><g class="cartesianlayer"><g class="subplot xy"><g class="layer-subplot"><g class="shapelayer"/><g class="imagelayer"/></g><g class="minor-gridlayer"><g class="x"/><g class="y"/><g class="y2"/></g><g class="gridlayer"><g class="x"/><g class="y"/><g class="y2"/></g><g class="zerolinelayer"/><g class="layer-between"><g class="shapelayer"/><g class="imagelayer"/></g><path class="xlines-below"/><path class="ylines-below"/><g class="overlines-below"><path class="xy2-x"/><path class="xy2-y"/></g><g class="xaxislayer-below"/><g class="yaxislayer-below"/><g class="overaxes-below"><g class="xy2-x"/><g class="xy2-y"/></g><g class="overplot"><g class="xy" transform="translate(10,26)" clip-path="url(#clipa7e659xyplot)"><g class="barlayer mlayer"><g class="trace bars" style="opacity: 1;"><g class="points"><g class="point"><path d="M0.64,464V41.63H3.2V464Z" style="vector-effect: none; opacity: 1; stroke-width: 0px; fill: rgb(247, 37, 133); fill-opacity: 1;"/></g><g class="point"><path d="M7.03,464V42.43H9.59V464Z" style="vector-effect: none; opacity: 1; stroke-width: 0px; fill: rgb(247, 37, 133); fill-opacity: 1;"/></g><g class="point"><path d="M13.42,464V59.67H15.98V464Z" style="vector-effect: none; opacity: 1; stroke-width: 0px; fill: rgb(247, 37, 133); fill-opacity: 1;"/></g><g class="point"><path d="M19.82,464V62.07H22.37V464Z" style="vector-effect: none; opacity: 1; stroke-width: 0px; fill: rgb(247, 37, 133); fill-opacity: 1;"/></g><g class="point"><path d="M26.21,464V56.06H28.76V464Z" style="vector-effect: none; opacity: 1; stroke-width: 0px; fill: rgb(247, 37, 133); fill-opacity: 1;"/></g><g class="point"><path d="M32.6,464V34.02H35.16V464Z" style="vector-effect: none; opacity: 1; stroke-width: 0px; fill: rgb(247, 37, 133); fill-opacity: 1;"/></g><g class="point"><path d="M38.99,464V45.64H41.55V464Z" style="vector-effect: none; opacity: 1; stroke-width: 0px; fill: rgb(247, 37, 133); fill-opacity: 1;"/></g><g class="point"><path d="M45.38,464V35.22H47.94V464Z" style="vector-effect: none; opacity: 1; stroke-width: 0px; fill: rgb(247, 37, 133); fill-opacity: 1;"/></g><g class="point"><path d="M51.78,464V41.63H54.33V464Z" style="vector-effect: none; opacity: 1; stroke-width: 0px; fill: rgb(247, 37, 133); fill-opacity: 1;"/></g><g class="point"><path d="M58.17,464V37.63H60.72V464Z" style="vector-effect: none; opacity: 1; stroke-width: 0px; fill: rgb(247, 37, 133); fill-opacity: 1;"/></g><g class="point"><path d="M64.56,464V46.44H67.12V464Z" style="vector-effect: none; opacity: 1; stroke-width: 0px; fill: rgb(247, 37, 133); fill-opacity: 1;"/></g><g class="point"><path d="M70.95,464V58.46H73.51V464Z" style="vector-effect: none; opacity: 1; stroke-width: 0px; fill: rgb(247, 37, 133); fill-opacity: 1;"/></g><g class="point"><path d="M77.34,464V42.43H79.9V464Z" style="vector-effect: none; opacity: 1; stroke-width: 0px; fill: rgb(247, 37, 133); fill-opacity: 1;"/></g><g class="point"><path d="M83.74,464V26.41H86.29V464Z" style="vector-effect: none; opacity: 1; stroke-width: 0px; fill: rgb(247, 37, 133); fill-opacity: 1;"/></g><g class="point"><path d="M90.13,464V57.66H92.68V464Z" style="vector-effect: none; opacity: 1; stroke-width: 0px; fill: rgb(247, 37, 133); fill-opacity: 1;"/></g><g class="point"><path d="M96.52,464V29.21H99.08V464Z" style="vector-effect: none; opacity: 1; stroke-width: 0px; fill: rgb(247, 37, 133); fill-opacity: 1;"/></g><g class="point"><path d="M102.91,464V52.05H105.47V464Z" style="vector-effect: none; opacity: 1; stroke-width: 0px; fill: rgb(247, 37, 133); fill-opacity: 1;"/></g><g class="point"><path d="M109.3,464V34.82H111.86V464Z" style="vector-effect: none; opacity: 1; stroke-width: 0px; fill: rgb(247, 37, 133); fill-opacity: 1;"/></g><g class="point"><path d="M115.7,464V23.2H118.25V464Z" style="vector-effect: none; opacity: 1; stroke-width: 0px; fill: rgb(247, 37, 133); fill-opacity: 1;"/></g><g class="point"><path d="M122.09,464V43.64H124.64V464Z" style="vector-effect: none; opacity: 1; stroke-width: 0px; fill: rgb(247, 37, 133); fill-opacity: 1;"/></g><g class="point"><path d="M128.48,464V48.05H131.04V464Z" style="vector-effect: none; opacity: 1; stroke-width: 0px; fill: rgb(247, 37, 133); fill-opacity: 1;"/></g><g class="point"><path d="M134.87,464V38.43H137.43V464Z" style="vector-effect: none; opacity: 1; stroke-width: 0px; fill: rgb(247, 37, 133); fill-opacity: 1;"/></g><g class="point"><path d="M141.26,464V62.87H143.82V464Z" style="vector-effect: none; opacity: 1; stroke-width: 0px; fill: rgb(247, 37, 133); fill-opacity: 1;"/></g><g class="point"><path d="M147.66,464V57.26H150.21V464Z" style="vector-effect: none; opacity: 1; stroke-width: 0px; fill: rgb(247, 37, 133); fill-opacity: 1;"/></g><g class="point"><path d="M154.05,464V41.23H156.6V464Z" style="vector-effect: none; opacity: 1; stroke-width: 0px; fill: rgb(247, 37, 133); fill-opacity: 1;"/></g><g class="point"><path d="M160.44,464V37.63H163V464Z" style="vector-effect: none; opacity: 1; stroke-width: 0px; fill: rgb(247, 37, 133); fill-opacity: 1;"/></g><g class="point"><path d="M166.83,464V50.05H169.39V464Z" style="vector-effect: none; opacity: 1; stroke-width: 0px; fill: rgb(247, 37, 133); fill-opacity: 1;"/></g><g class="point"><path d="M173.22,464V45.24H175.78V464Z" style="vector-effect: none; opacity: 1; stroke-width: 0px; fill: rgb(247, 37, 133); fill-opacity: 1;"/></g><g class="point"><path d="M179.62,464V51.65H182.17V464Z" style="vector-effect: none; opacity: 1; stroke-width: 0px; fill: rgb(247, 37, 133); fill-opacity: 1;"/></g><g class="point"><path d="M186.01,464V41.63H188.56V464Z" style="vector-effect: none; opacity: 1; stroke-width: 0px; fill: rgb(247, 37, 133); fill-opacity: 1;"/></g><g class="point"><path d="M192.4,464V25.6H194.96V464Z" style="vector-effect: none; opacity: 1; stroke-width: 0px; fill: rgb(247, 37, 133); fill-opacity: 1;"/></g><g class="point"><path d="M198.79,464V62.87H201.35V464Z" style="vector-effect: none; opacity: 1; stroke-width: 0px; fill: rgb(247, 37, 133); fill-opacity: 1;"/></g><g class="point"><path d="M205.18,464V43.24H207.74V464Z" style="vector-effect: none; opacity: 1; stroke-width: 0px; fill: rgb(247, 37, 133); fill-opacity: 1;"/></g><g class="point"><path d="M211.58,464V39.63H214.13V464Z" style="vector-effect: none; opacity: 1; stroke-width: 0px; fill: rgb(247, 37, 133); fill-opacity: 1;"/></g><g class="point"><path d="M217.97,464V28.01H220.52V464Z" style="vector-effect: none; opacity: 1; stroke-width: 0px; fill: rgb(247, 37, 133); fill-opacity: 1;"/></g><g class="point"><path d="M224.36,464V48.45H226.92V464Z" style="vector-effect: none; opacity: 1; stroke-width: 0px; fill: rgb(247, 37, 133); fill-opacity: 1;"/></g><g class="point"><path d="M230.75,464V54.46H233.31V464Z" style="vector-effect: none; opacity: 1; stroke-width: 0px; fill: rgb(247, 37, 133); fill-opacity: 1;"/></g><g class="point"><path d="M237.14,464V44.44H239.7V464Z" style="vector-effect: none; opacity: 1; stroke-width: 0px; fill: rgb(247, 37, 133); fill-opacity: 1;"/></g><g class="point"><path d="M243.54,464V62.07H246.09V464Z" style="vector-effect: none; opacity: 1; stroke-width: 0px; fill: rgb(247, 37, 133); fill-opacity: 1;"/></g><g class="point"><path d="M249.93,464V57.66H252.48V464Z" style="vector-effect: none; opacity: 1; stroke-width: 0px; fill: rgb(247, 37, 133); fill-opacity: 1;"/></g><g class="point"><path d="M256.32,464V25.2H258.88V464Z" style="vector-effect: none; opacity: 1; stroke-width: 0px; fill: rgb(247, 37, 133); fill-opacity: 1;"/></g><g class="point"><path d="M262.71,464V37.63H265.27V464Z" style="vector-effect: none; opacity: 1; stroke-width: 0px; fill: rgb(247, 37, 133); fill-opacity: 1;"/></g><g class="point"><path d="M269.1,464V36.42H271.66V464Z" style="vector-effect: none; opacity: 1; stroke-width: 0px; fill: rgb(247, 37, 133); fill-opacity: 1;"/></g><g class="point"><path d="M275.5,464V57.66H278.05V464Z" style="vector-effect: none; opacity: 1; stroke-width: 0px; fill: rgb(247, 37, 133); fill-opacity: 1;"/></g><g class="point"><path d="M281.89,464V37.63H284.44V464Z" style="vector-effect: none; opacity: 1; stroke-width: 0px; fill: rgb(247, 37, 133); fill-opacity: 1;"/></g><g class="point"><path d="M288.28,464V30.01H290.84V464Z" style="vector-effect: none; opacity: 1; stroke-width: 0px; fill: rgb(247, 37, 133); fill-opacity: 1;"/></g><g class="point"><path d="M294.67,464V24.4H297.23V464Z" style="vector-effect: none; opacity: 1; stroke-width: 0px; fill: rgb(247, 37, 133); fill-opacity: 1;"/></g><g class="point"><path d="M301.06,464V42.43H303.62V464Z" style="vector-effect: none; opacity: 1; stroke-width: 0px; fill: rgb(247, 37, 133); fill-opacity: 1;"/></g><g class="point"><path d="M307.46,464V56.06H310.01V464Z" style="vector-effect: none; opacity: 1; stroke-width: 0px; fill: rgb(247, 37, 133); fill-opacity: 1;"/></g><g class="point"><path d="M313.85,464V32.02H316.4V464Z" style="vector-effect: none; opacity: 1; stroke-width: 0px; fill: rgb(247, 37, 133); fill-opacity: 1;"/></g><g class="point"><path d="M320.24,464V45.24H322.8V464Z" style="vector-effect: none; opacity: 1; stroke-width: 0px; fill: rgb(247, 37, 133); fill-opacity: 1;"/></g><g class="point"><path d="M326.63,464V38.83H329.19V464Z" style="vector-effect: none; opacity: 1; stroke-width: 0px; fill: rgb(247, 37, 133); fill-opacity: 1;"/></g><g class="point"><path d="M333.02,464V25.6H335.58V464Z" style="vector-effect: none; opacity: 1; stroke-width: 0px; fill: rgb(247, 37, 133); fill-opacity: 1;"/></g><g class="point"><path d="M339.42,464V53.25H341.97V464Z" style="vector-effect: none; opacity: 1; stroke-width: 0px; fill: rgb(247, 37, 133); fill-opacity: 1;"/></g><g class="point"><path d="M345.81,464V46.04H348.36V464Z" style="vector-effect: none; opacity: 1; stroke-width: 0px; fill: rgb(247, 37, 133); fill-opacity: 1;"/></g><g class="point"><path d="M352.2,464V48.45H354.76V464Z" style="vector-effect: none; opacity: 1; stroke-width: 0px; fill: rgb(247, 37, 133); fill-opacity: 1;"/></g><g class="point"><path d="M358.59,464V33.62H361.15V464Z" style="vector-effect: none; opacity: 1; stroke-width: 0px; fill: rgb(247, 37, 133); fill-opacity: 1;"/></g><g class="point"><path d="M364.98,464V28.41H367.54V464Z" style="vector-effect: none; opacity: 1; stroke-width: 0px; fill: rgb(247, 37, 133); fill-opacity: 1;"/></g><g class="point"><path d="M371.38,464V43.64H373.93V464Z" style="vector-effect: none; opacity: 1; stroke-width: 0px; fill: rgb(247, 37, 133); fill-opacity: 1;"/></g><g class="point"><path d="M377.77,464V54.86H380.32V464Z" style="vector-effect: none; opacity: 1; stroke-width: 0px; fill: rgb(247, 37, 133); fill-opacity: 1;"/></g><g class="point"><path d="M384.16,464V46.44H386.72V464Z" style="vector-effect: none; opacity: 1; stroke-width: 0px; fill: rgb(247, 37, 133); fill-opacity: 1;"/></g><g class="point"><path d="M390.55,464V36.02H393.11V464Z" style="vector-effect: none; opacity: 1; stroke-width: 0px; fill: rgb(247, 37, 133); fill-opacity: 1;"/></g><g class="point"><path d="M396.94,464V51.65H399.5V464Z" style="vector-effect: none; opacity: 1; stroke-width: 0px; fill: rgb(247, 37, 133); fill-opacity: 1;"/></g><g class="point"><path d="M403.34,464V26.81H405.89V464Z" style="vector-effect: none; opacity: 1; stroke-width: 0px; fill: rgb(247, 37, 133); fill-opacity: 1;"/></g><g class="point"><path d="M409.73,464V47.24H412.28V464Z" style="vector-effect: none; opacity: 1; stroke-width: 0px; fill: rgb(247, 37, 133); fill-opacity: 1;"/></g><g class="point"><path d="M416.12,464V61.27H418.68V464Z" style="vector-effect: none; opacity: 1; stroke-width: 0px; fill: rgb(247, 37, 133); fill-opacity: 1;"/></g><g class="point"><path d="M422.51,464V58.86H425.07V464Z" style="vector-effect: none; opacity: 1; stroke-width: 0px; fill: rgb(247, 37, 133); fill-opacity: 1;"/></g><g class="point"><path d="M428.9,464V44.04H431.46V464Z" style="vector-effect: none; opacity: 1; stroke-width: 0px; fill: rgb(247, 37, 133); fill-opacity: 1;"/></g><g class="point"><path d="M435.3,464V48.45H437.85V464Z" style="vector-effect: none; opacity: 1; stroke-width: 0px; fill: rgb(247, 37, 133); fill-opacity: 1;"/></g><g class="point"><path d="M441.69,464V55.66H444.24V464Z" style="vector-effect: none; opacity: 1; stroke-width: 0px; fill: rgb(247, 37, 133); fill-opacity: 1;"/></g><g class="point"><path d="M448.08,464V44.04H450.64V464Z" style="vector-effect: none; opacity: 1; stroke-width: 0px; fill: rgb(247, 37, 133); fill-opacity: 1;"/></g><g class="point"><path d="M454.47,464V61.27H457.03V464Z" style="vector-effect: none; opacity: 1; stroke-width: 0px; fill: rgb(247, 37, 133); fill-opacity: 1;"/></g><g class="point"><path d="M460.86,464V52.45H463.42V464Z" style="vector-effect: none; opacity: 1; stroke-width: 0px; fill: rgb(247, 37, 133); fill-opacity: 1;"/></g><g class="point"><path d="M467.26,464V44.84H469.81V464Z" style="vector-effect: none; opacity: 1; stroke-width: 0px; fill: rgb(247, 37, 133); fill-opacity: 1;"/></g><g class="point"><path d="M473.65,464V39.63H476.2V464Z" style="vector-effect: none; opacity: 1; stroke-width: 0px; fill: rgb(247, 37, 133); fill-opacity: 1;"/></g><g class="point"><path d="M480.04,464V58.06H482.6V464Z" style="vector-effect: none; opacity: 1; stroke-width: 0px; fill: rgb(247, 37, 133); fill-opacity: 1;"/></g><g class="point"><path d="M486.43,464V26.81H488.99V464Z" style="vector-effect: none; opacity: 1; stroke-width: 0px; fill: rgb(247, 37, 133); fill-opacity: 1;"/></g><g class="point"><path d="M492.82,464V62.87H495.38V464Z" style="vector-effect: none; opacity: 1; stroke-width: 0px; fill: rgb(247, 37, 133); fill-opacity: 1;"/></g><g class="point"><path d="M499.22,464V36.02H501.77V464Z" style="vector-effect: none; opacity: 1; stroke-width: 0px; fill: rgb(247, 37, 133); fill-opacity: 1;"/></g><g class="point"><path d="M505.61,464V28.81H508.16V464Z" style="vector-effect: none; opacity: 1; stroke-width: 0px; fill: rgb(247, 37, 133); fill-opacity: 1;"/></g><g class="point"><path d="M512,464V62.87H514.56V464Z" style="vector-effect: none; opacity: 1; stroke-width: 0px; fill: rgb(247, 37, 133); fill-opacity: 1;"/></g><g class="point"><path d="M518.39,464V27.21H520.95V464Z" style="vector-effect: none; opacity: 1; stroke-width: 0px; fill: rgb(247, 37, 133); fill-opacity: 1;"/></g><g class="point"><path d="M524.78,464V62.47H527.34V464Z" style="vector-effect: none; opacity: 1; stroke-width: 0px; fill: rgb(247, 37, 133); fill-opacity: 1;"/></g><g class="point"><path d="M531.18,464V26.81H533.73V464Z" style="vector-effect: none; opacity: 1; stroke-width: 0px; fill: rgb(247, 37, 133); fill-opacity: 1;"/></g><g class="point"><path d="M537.57,464V32.42H540.12V464Z" style="vector-effect: none; opacity: 1; stroke-width: 0px; fill: rgb(247, 37, 133); fill-opacity: 1;"/></g><g class="point"><path d="M543.96,464V36.42H546.52V464Z" style="vector-effect: none; opacity: 1; stroke-width: 0px; fill: rgb(247, 37, 133); fill-opacity: 1;"/></g><g class="point"><path d="M550.35,464V53.66H552.91V464Z" style="vector-effect: none; opacity: 1; stroke-width: 0px; fill: rgb(247, 37, 133); fill-opacity: 1;"/></g><g class="point"><path d="M556.74,464V26.81H559.3V464Z" style="vector-effect: none; opacity: 1; stroke-width: 0px; fill: rgb(247, 37, 133); fill-opacity: 1;"/></g><g class="point"><path d="M563.14,464V24.8H565.69V464Z" style="vector-effect: none; opacity: 1; stroke-width: 0px; fill: rgb(247, 37, 133); fill-opacity: 1;"/></g><g class="point"><path d="M569.53,464V29.21H572.08V464Z" style="vector-effect: none; opacity: 1; stroke-width: 0px; fill: rgb(247, 37, 133); fill-opacity: 1;"/></g><g class="point"><path d="M575.92,464V61.67H578.48V464Z" style="vector-effect: none; opacity: 1; stroke-width: 0px; fill: rgb(247, 37, 133); fill-opacity: 1;"/></g><g class="point"><path d="M582.31,464V57.66H584.87V464Z" style="vector-effect: none; opacity: 1; stroke-width: 0px; fill: rgb(247, 37, 133); fill-opacity: 1;"/></g><g class="point"><path d="M588.7,464V46.44H591.26V464Z" style="vector-effect: none; opacity: 1; stroke-width: 0px; fill: rgb(247, 37, 133); fill-opacity: 1;"/></g><g class="point"><path d="M595.1,464V42.84H597.65V464Z" style="vector-effect: none; opacity: 1; stroke-width: 0px; fill: rgb(247, 37, 133); fill-opacity: 1;"/></g><g class="point"><path d="M601.49,464V61.67H604.04V464Z" style="vector-effect: none; opacity: 1; stroke-width: 0px; fill: rgb(247, 37, 133); fill-opacity: 1;"/></g><g class="point"><path d="M607.88,464V52.45H610.44V464Z" style="vector-effect: none; opacity: 1; stroke-width: 0px; fill: rgb(247, 37, 133); fill-opacity: 1;"/></g><g class="point"><path d="M614.27,464V42.43H616.83V464Z" style="vector-effect: none; opacity: 1; stroke-width: 0px; fill: rgb(247, 37, 133); fill-opacity: 1;"/></g><g class="point"><path d="M620.66,464V48.05H623.22V464Z" style="vector-effect: none; opacity: 1; stroke-width: 0px; fill: rgb(247, 37, 133); fill-opacity: 1;"/></g><g class="point"><path d="M627.06,464V52.05H629.61V464Z" style="vector-effect: none; opacity: 1; stroke-width: 0px; fill: rgb(247, 37, 133); fill-opacity: 1;"/></g><g class="point"><path d="M633.45,464V24H636V464Z" style="vector-effect: none; opacity: 1; stroke-width: 0px; fill: rgb(247, 37, 133); fill-opacity: 1;"/></g></g></g><g class="trace bars" style="opacity: 1;"><g class="points"><g class="point"><path d="M3.2,464V463.6H5.75V464Z" style="vector-effect: none; opacity: 1; stroke-width: 0px; fill: rgb(114, 9, 183); fill-opacity: 1;"/></g><g class="point"><path d="M9.59,464V449.17H12.14V464Z" style="vector-effect: none; opacity: 1; stroke-width: 0px; fill: rgb(114, 9, 183); fill-opacity: 1;"/></g><g class="point"><path d="M15.98,464V445.57H18.54V464Z" style="vector-effect: none; opacity: 1; stroke-width: 0px; fill: rgb(114, 9, 183); fill-opacity: 1;"/></g><g class="point"><path d="M22.37,464V460.39H24.93V464Z" style="vector-effect: none; opacity: 1; stroke-width: 0px; fill: rgb(114, 9, 183); fill-opacity: 1;"/></g><g class="point"><path d="M28.76,464V446.37H31.32V464Z" style="vector-effect: none; opacity: 1; stroke-width: 0px; fill: rgb(114, 9, 183); fill-opacity: 1;"/></g><g class="point"><path d="M35.16,464V447.97H37.71V464Z" style="vector-effect: none; opacity: 1; stroke-width: 0px; fill: rgb(114, 9, 183); fill-opacity: 1;"/></g><g class="point"><path d="M41.55,464V463.6H44.1V464Z" style="vector-effect: none; opacity: 1; stroke-width: 0px; fill: rgb(114, 9, 183); fill-opacity: 1;"/></g><g class="point"><path d="M47.94,464V447.17H50.5V464Z" style="vector-effect: none; opacity: 1; stroke-width: 0px; fill: rgb(114, 9, 183); fill-opacity: 1;"/></g><g class="point"><path d="M54.33,464V446.37H56.89V464Z" style="vector-effect: none; opacity: 1; stroke-width: 0px; fill: rgb(114, 9, 183); fill-opacity: 1;"/></g><g class="point"><path d="M60.72,464V453.58H63.28V464Z" style="vector-effect: none; opacity: 1; stroke-width: 0px; fill: rgb(114, 9, 183); fill-opacity: 1;"/></g><g class="point"><path d="M67.12,464V451.58H69.67V464Z" style="vector-effect: none; opacity: 1; stroke-width: 0px; fill: rgb(114, 9, 183); fill-opacity: 1;"/></g><g class="point"><path d="M73.51,464V457.59H76.06V464Z" style="vector-effect: none; opacity: 1; stroke-width: 0px; fill: rgb(114, 9, 183); fill-opacity: 1;"/></g><g class="point"><path d="M79.9,464V451.98H82.46V464Z" style="vector-effect: none; opacity: 1; stroke-width: 0px; fill: rgb(114, 9, 183); fill-opacity: 1;"/></g><g class="point"><path d="M86.29,464V449.17H88.85V464Z" style="vector-effect: none; opacity: 1; stroke-width: 0px; fill: rgb(114, 9, 183); fill-opacity: 1;"/></g><g class="point"><path d="M92.68,464V457.99H95.24V464Z" style="vector-effect: none; opacity: 1; stroke-width: 0px; fill: rgb(114, 9, 183); fill-opacity: 1;"/></g><g class="point"><path d="M99.08,464V444.36H101.63V464Z" style="vector-effect: none; opacity: 1; stroke-width: 0px; fill: rgb(114, 9, 183); fill-opacity: 1;"/></g><g class="point"><path d="M105.47,464V457.99H108.02V464Z" style="vector-effect: none; opacity: 1; stroke-width: 0px; fill: rgb(114, 9, 183); fill-opacity: 1;"/></g><g class="point"><path d="M111.86,464V455.58H114.42V464Z" style="vector-effect: none; opacity: 1; stroke-width: 0px; fill: rgb(114, 9, 183); fill-opacity: 1;"/></g><g class="point"><path d="M118.25,464V448.37H120.81V464Z" style="vector-effect: none; opacity: 1; stroke-width: 0px; fill: rgb(114, 9, 183); fill-opacity: 1;"/></g><g class="point"><path d="M124.64,464V446.37H127.2V464Z" style="vector-effect: none; opacity: 1; stroke-width: 0px; fill: rgb(114, 9, 183); fill-opacity: 1;"/></g><g class="point"><path d="M131.04,464V463.2H133.59V464Z" style="vector-effect: none; opacity: 1; stroke-width: 0px; fill: rgb(114, 9, 183); fill-opacity: 1;"/></g><g class="point"><path d="M137.43,464V461.6H139.98V464Z" style="vector-effect: none; opacity: 1; stroke-width: 0px; fill: rgb(114, 9, 183); fill-opacity: 1;"/></g><g class="point"><path d="M143.82,464V448.77H146.38V464Z" style="vector-effect: none; opacity: 1; stroke-width: 0px; fill: rgb(114, 9, 183); fill-opacity: 1;"/></g><g class="point"><path d="M150.21,464V460.39H152.77V464Z" style="vector-effect: none; opacity: 1; stroke-width: 0px; fill: rgb(114, 9, 183); fill-opacity: 1;"/></g><g class="point"><path d="M156.6,464V453.58H159.16V464Z" style="vector-effect: none; opacity: 1; stroke-width: 0px; fill: rgb(114, 9, 183); fill-opacity: 1;"/></g><g class="point"><path d="M163,464V460.79H165.55V464Z" style="vector-effect: none; opacity: 1; stroke-width: 0px; fill: rgb(114, 9, 183); fill-opacity: 1;"/></g><g class="point"><path d="M169.39,464V453.18H171.94V464Z" style="vector-effect: none; opacity: 1; stroke-width: 0px; fill: rgb(114, 9, 183); fill-opacity: 1;"/></g><g class="point"><path d="M175.78,464V463.6H178.34V464Z" style="vector-effect: none; opacity: 1; stroke-width: 0px; fill: rgb(114, 9, 183); fill-opacity: 1;"/></g><g class="point"><path d="M182.17,464V452.78H184.73V464Z" style="vector-effect: none; opacity: 1; stroke-width: 0px; fill: rgb(114, 9, 183); fill-opacity: 1;"/></g><g class="point"><path d="M188.56,464V458.79H191.12V464Z" style="vector-effect: none; opacity: 1; stroke-width: 0px; fill: rgb(114, 9, 183); fill-opacity: 1;"/></g><g class="point"><path d="M194.96,464V463.6H197.51V464Z" style="vector-effect: none; opacity: 1; stroke-width: 0px; fill: rgb(114, 9, 183); fill-opacity: 1;"/></g><g class="point"><path d="M201.35,464V459.59H203.9V464Z" style="vector-effect: none; opacity: 1; stroke-width: 0px; fill: rgb(114, 9, 183); fill-opacity: 1;"/></g><g class="point"><path d="M207.74,464V445.17H210.3V464Z" style="vector-effect: none; opacity: 1; stroke-width: 0px; fill: rgb(114, 9, 183); fill-opacity: 1;"/></g><g class="point"><path d="M214.13,464V458.79H216.69V464Z" style="vector-effect: none; opacity: 1; stroke-width: 0px; fill: rgb(114, 9, 183); fill-opacity: 1;"/></g><g class="point"><path d="M220.52,464V454.38H223.08V464Z" style="vector-effect: none; opacity: 1; stroke-width: 0px; fill: rgb(114, 9, 183); fill-opacity: 1;"/></g><g class="point"><path d="M226.92,464V452.78H229.47V464Z" style="vector-effect: none; opacity: 1; stroke-width: 0px; fill: rgb(114, 9, 183); fill-opacity: 1;"/></g><g class="point"><path d="M233.31,464V451.18H235.86V464Z" style="vector-effect: none; opacity: 1; stroke-width: 0px; fill: rgb(114, 9, 183); fill-opacity: 1;"/></g><g class="point"><path d="M239.7,464V460.39H242.26V464Z" style="vector-effect: none; opacity: 1; stroke-width: 0px; fill: rgb(114, 9, 183); fill-opacity: 1;"/></g><g class="point"><path d="M246.09,464V460.79H248.65V464Z" style="vector-effect: none; opacity: 1; stroke-width: 0px; fill: rgb(114, 9, 183); fill-opacity: 1;"/></g><g class="point"><path d="M252.48,464V451.58H255.04V464Z" style="vector-effect: none; opacity: 1; stroke-width: 0px; fill: rgb(114, 9, 183); fill-opacity: 1;"/></g><g class="point"><path d="M258.88,464V460.39H261.43V464Z" style="vector-effect: none; opacity: 1; stroke-width: 0px; fill: rgb(114, 9, 183); fill-opacity: 1;"/></g><g class="point"><path d="M265.27,464V448.37H267.82V464Z" style="vector-effect: none; opacity: 1; stroke-width: 0px; fill: rgb(114, 9, 183); fill-opacity: 1;"/></g><g class="point"><path d="M271.66,464V460.79H274.22V464Z" style="vector-effect: none; opacity: 1; stroke-width: 0px; fill: rgb(114, 9, 183); fill-opacity: 1;"/></g><g class="point"><path d="M278.05,464V447.17H280.61V464Z" style="vector-effect: none; opacity: 1; stroke-width: 0px; fill: rgb(114, 9, 183); fill-opacity: 1;"/></g><g class="point"><path d="M284.44,464V462H287V464Z" style="vector-effect: none; opacity: 1; stroke-width: 0px; fill: rgb(114, 9, 183); fill-opacity: 1;"/></g><g class="point"><path d="M290.84,464V460.79H293.39V464Z" style="vector-effect: none; opacity: 1; stroke-width: 0px; fill: rgb(114, 9, 183); fill-opacity: 1;"/></g><g class="point"><path d="M297.23,464V447.97H299.78V464Z" style="vector-effect: none; opacity: 1; stroke-width: 0px; fill: rgb(114, 9, 183); fill-opacity: 1;"/></g><g class="point"><path d="M303.62,464V445.97H306.18V464Z" style="vector-effect: none; opacity: 1; stroke-width: 0px; fill: rgb(114, 9, 183); fill-opacity: 1;"/></g><g class="point"><path d="M0,0Z" style="vector-effect: none; opacity: 1; stroke-width: 0px; fill: rgb(114, 9, 183); fill-opacity: 1;"/></g><g class="point"><path d="M316.4,464V447.97H318.96V464Z" style="vector-effect: none; opacity: 1; stroke-width: 0px; fill: rgb(114, 9, 183); fill-opacity: 1;"/></g><g class="point"><path d="M322.8,464V455.99H325.35V464Z" style="vector-effect: none; opacity: 1; stroke-width: 0px; fill: rgb(114, 9, 183); fill-opacity: 1;"/></g><g class="point"><path d="M329.19,464V462H331.74V464Z" style="vector-effect: none; opacity: 1; stroke-width: 0px; fill: rgb(114, 9, 183); fill-opacity: 1;"/></g><g class="point"><path d="M335.58,464V447.17H338.14V464Z" style="vector-effect: none; opacity: 1; stroke-width: 0px; fill: rgb(114, 9, 183); fill-opacity: 1;"/></g><g class="point"><path d="M341.97,464V462.4H344.53V464Z" style="vector-effect: none; opacity: 1; stroke-width: 0px; fill: rgb(114, 9, 183); fill-opacity: 1;"/></g><g class="point"><path d="M348.36,464V454.38H350.92V464Z" style="vector-effect: none; opacity: 1; stroke-width: 0px; fill: rgb(114, 9, 183); fill-opacity: 1;"/></g><g class="point"><path d="M354.76,464V459.19H357.31V464Z" style="vector-effect: none; opacity: 1; stroke-width: 0px; fill: rgb(114, 9, 183); fill-opacity: 1;"/></g><g class="point"><path d="M361.15,464V449.97H363.7V464Z" style="vector-effect: none; opacity: 1; stroke-width: 0px; fill: rgb(114, 9, 183); fill-opacity: 1;"/></g><g class="point"><path d="M367.54,464V449.57H370.1V464Z" style="vector-effect: none; opacity: 1; stroke-width: 0px; fill: rgb(114, 9, 183); fill-opacity: 1;"/></g><g class="point"><path d="M373.93,464V444.77H376.49V464Z" style="vector-effect: none; opacity: 1; stroke-width: 0px; fill: rgb(114, 9, 183); fill-opacity: 1;"/></g><g class="point"><path d="M380.32,464V451.18H382.88V464Z" style="vector-effect: none; opacity: 1; stroke-width: 0px; fill: rgb(114, 9, 183); fill-opacity: 1;"/></g><g class="point"><path d="M386.72,464V448.77H389.27V464Z" style="vector-effect: none; opacity: 1; stroke-width: 0px; fill: rgb(114, 9, 183); fill-opacity: 1;"/></g><g class="point"><path d="M393.11,464V461.6H395.66V464Z" style="vector-effect: none; opacity: 1; stroke-width: 0px; fill: rgb(114, 9, 183); fill-opacity: 1;"/></g><g class="point"><path d="M399.5,464V455.58H402.06V464Z" style="vector-effect: none; opacity: 1; stroke-width: 0px; fill: rgb(114, 9, 183); fill-opacity: 1;"/></g><g class="point"><path d="M405.89,464V463.6H408.45V464Z" style="vector-effect: none; opacity: 1; stroke-width: 0px; fill: rgb(114, 9, 183); fill-opacity: 1;"/></g><g class="point"><path d="M412.28,464V461.6H414.84V464Z" style="vector-effect: none; opacity: 1; stroke-width: 0px; fill: rgb(114, 9, 183); fill-opacity: 1;"/></g><g class="point"><path d="M418.68,464V453.98H421.23V464Z" style="vector-effect: none; opacity: 1; stroke-width: 0px; fill: rgb(114, 9, 183); fill-opacity: 1;"/></g><g class="point"><path d="M425.07,464V447.97H427.62V464Z" style="vector-effect: none; opacity: 1; stroke-width: 0px; fill: rgb(114, 9, 183); fill-opacity: 1;"/></g><g class="point"><path d="M431.46,464V446.37H434.02V464Z" style="vector-effect: none; opacity: 1; stroke-width: 0px; fill: rgb(114, 9, 183); fill-opacity: 1;"/></g><g class="point"><path d="M437.85,464V450.78H440.41V464Z" style="vector-effect: none; opacity: 1; stroke-width: 0px; fill: rgb(114, 9, 183); fill-opacity: 1;"/></g><g class="point"><path d="M444.24,464V447.57H446.8V464Z" style="vector-effect: none; opacity: 1; stroke-width: 0px; fill: rgb(114, 9, 183); fill-opacity: 1;"/></g><g class="point"><path d="M450.64,464V451.18H453.19V464Z" style="vector-effect: none; opacity: 1; stroke-width: 0px; fill: rgb(114, 9, 183); fill-opacity: 1;"/></g><g class="point"><path d="M457.03,464V452.78H459.58V464Z" style="vector-effect: none; opacity: 1; stroke-width: 0px; fill: rgb(114, 9, 183); fill-opacity: 1;"/></g><g class="point"><path d="M463.42,464V460.39H465.98V464Z" style="vector-effect: none; opacity: 1; stroke-width: 0px; fill: rgb(114, 9, 183); fill-opacity: 1;"/></g><g class="point"><path d="M469.81,464V449.17H472.37V464Z" style="vector-effect: none; opacity: 1; stroke-width: 0px; fill: rgb(114, 9, 183); fill-opacity: 1;"/></g><g class="point"><path d="M476.2,464V449.57H478.76V464Z" style="vector-effect: none; opacity: 1; stroke-width: 0px; fill: rgb(114, 9, 183); fill-opacity: 1;"/></g><g class="point"><path d="M482.6,464V449.97H485.15V464Z" style="vector-effect: none; opacity: 1; stroke-width: 0px; fill: rgb(114, 9, 183); fill-opacity: 1;"/></g><g class="point"><path d="M488.99,464V450.38H491.54V464Z" style="vector-effect: none; opacity: 1; stroke-width: 0px; fill: rgb(114, 9, 183); fill-opacity: 1;"/></g><g class="point"><path d="M495.38,464V461.6H497.94V464Z" style="vector-effect: none; opacity: 1; stroke-width: 0px; fill: rgb(114, 9, 183); fill-opacity: 1;"/></g><g class="point"><path d="M501.77,464V443.96H504.33V464Z" style="vector-effect: none; opacity: 1; stroke-width: 0px; fill: rgb(114, 9, 183); fill-opacity: 1;"/></g><g class="point"><path d="M508.16,464V444.36H510.72V464Z" style="vector-effect: none; opacity: 1; stroke-width: 0px; fill: rgb(114, 9, 183); fill-opacity: 1;"/></g><g class="point"><path d="M514.56,464V461.6H517.11V464Z" style="vector-effect: none; opacity: 1; stroke-width: 0px; fill: rgb(114, 9, 183); fill-opacity: 1;"/></g><g class="point"><path d="M0,0Z" style="vector-effect: none; opacity: 1; stroke-width: 0px; fill: rgb(114, 9, 183); fill-opacity: 1;"/></g><g class="point"><path d="M527.34,464V448.37H529.9V464Z" style="vector-effect: none; opacity: 1; stroke-width: 0px; fill: rgb(114, 9, 183); fill-opacity: 1;"/></g><g class="point"><path d="M533.73,464V444.36H536.29V464Z" style="vector-effect: none; opacity: 1; stroke-width: 0px; fill: rgb(114, 9, 183); fill-opacity: 1;"/></g><g class="point"><path d="M540.12,464V453.58H542.68V464Z" style="vector-effect: none; opacity: 1; stroke-width: 0px; fill: rgb(114, 9, 183); fill-opacity: 1;"/></g><g class="point"><path d="M546.52,464V450.78H549.07V464Z" style="vector-effect: none; opacity: 1; stroke-width: 0px; fill: rgb(114, 9, 183); fill-opacity: 1;"/></g><g class="point"><path d="M552.91,464V461.6H555.46V464Z" style="vector-effect: none; opacity: 1; stroke-width: 0px; fill: rgb(114, 9, 183); fill-opacity: 1;"/></g><g class="point"><path d="M559.3,464V459.19H561.86V464Z" style="vector-effect: none; opacity: 1; stroke-width: 0px; fill: rgb(114, 9, 183); fill-opacity: 1;"/></g><g class="point"><path d="M565.69,464V460.79H568.25V464Z" style="vector-effect: none; opacity: 1; stroke-width: 0px; fill: rgb(114, 9, 183); fill-opacity: 1;"/></g><g class="point"><path d="M572.08,464V451.18H574.64V464Z" style="vector-effect: none; opacity: 1; stroke-width: 0px; fill: rgb(114, 9, 183); fill-opacity: 1;"/></g><g class="point"><path d="M578.48,464V462.4H581.03V464Z" style="vector-effect: none; opacity: 1; stroke-width: 0px; fill: rgb(114, 9, 183); fill-opacity: 1;"/></g><g class="point"><path d="M584.87,464V457.99H587.42V464Z" style="vector-effect: none; opacity: 1; stroke-width: 0px; fill: rgb(114, 9, 183); fill-opacity: 1;"/></g><g class="point"><path d="M591.26,464V462.4H593.82V464Z" style="vector-effect: none; opacity: 1; stroke-width: 0px; fill: rgb(114, 9, 183); fill-opacity: 1;"/></g><g class="point"><path d="M597.65,464V448.77H600.21V464Z" style="vector-effect: none; opacity: 1; stroke-width: 0px; fill: rgb(114, 9, 183); fill-opacity: 1;"/></g><g class="point"><path d="M604.04,464V449.17H606.6V464Z" style="vector-effect: none; opacity: 1; stroke-width: 0px; fill: rgb(114, 9, 183); fill-opacity: 1;"/></g><g class="point"><path d="M610.44,464V462.8H612.99V464Z" style="vector-effect: none; opacity: 1; stroke-width: 0px; fill: rgb(114, 9, 183); fill-opacity: 1;"/></g><g class="point"><path d="M616.83,464V451.98H619.38V464Z" style="vector-effect: none; opacity: 1; stroke-width: 0px; fill: rgb(114, 9, 183); fill-opacity: 1;"/></g><g class="point"><path d="M623.22,464V452.38H625.78V464Z" style="vector-effect: none; opacity: 1; stroke-width: 0px; fill: rgb(114, 9, 183); fill-opacity: 1;"/></g><g class="point"><path d="M629.61,464V457.99H632.17V464Z" style="vector-effect: none; opacity: 1; stroke-width: 0px; fill: rgb(114, 9, 183); fill-opacity: 1;"/></g><g class="point"><path d="M636,464V455.58H638.56V464Z" style="vector-effect: none; opacity: 1; stroke-width: 0px; fill: rgb(114, 9, 183); fill-opacity: 1;"/></g></g></g></g></g><g class="xy2" transform="translate(10,26)" clip-path="url(#clipa7e659xy2plot)"><g class="scatterlayer mlayer"><g class="trace scatter trace2bce92" style="stroke-miterlimit: 2; opacity: 1;"><g class="fills"/><g class="errorbars"/><g class="lines"><path class="js-line" d="M3.2,336.4L9.59,301.6L15.98,423.4L22.37,223.3L28.76,275.5L35.16,101.5L41.55,23.2L47.94,58L54.33,240.7L60.72,388.6L67.12,310.3L73.51,266.8L79.9,84.1L86.29,118.9L92.68,118.9L99.08,440.8L105.47,92.8L111.86,127.6L118.25,153.7L124.64,127.6L131.04,240.7L137.43,414.7L143.82,188.5L150.21,406L156.6,336.4L163,362.5L169.39,58L175.78,145L182.17,136.3L188.56,153.7L194.96,84.1L201.35,31.9L207.74,319L214.13,145L220.52,336.4L226.92,49.3L233.31,292.9L239.7,336.4L246.09,205.9L252.48,319L258.88,136.3L265.27,110.2L271.66,432.1L278.05,118.9L284.44,40.6L290.84,31.9L297.23,40.6L303.62,397.3L310.01,319L316.4,440.8L322.8,66.7L329.19,371.2L335.58,84.1L341.97,110.2L348.36,188.5L354.76,310.3L361.15,40.6L367.54,232L373.93,84.1L380.32,266.8L386.72,162.4L393.11,118.9L399.5,171.1L405.89,371.2L412.28,440.8L418.68,40.6L425.07,232L431.46,319L437.85,336.4L444.24,223.3L450.64,284.2L457.03,249.4L463.42,345.1L469.81,284.2L476.2,66.7L482.6,136.3L488.99,371.2L495.38,179.8L501.77,371.2L508.16,127.6L514.56,84.1L520.95,188.5L527.34,110.2L533.73,371.2L540.12,292.9L546.52,327.7L552.91,371.2L559.3,379.9L565.69,136.3L572.08,49.3L578.48,301.6L584.87,145L591.26,345.1L597.65,301.6L604.04,432.1L610.44,188.5L616.83,240.7L623.22,205.9L629.61,301.6L636,31.9" style="vector-effect: none; fill: none; stroke: rgb(58, 12, 163); stroke-opacity: 1; stroke-width: 2px; opacity: 1;"/></g><g class="points"/><g class="text"/></g></g></g></g><path class="xlines-above crisp" d="M0,0" style="fill: none;"/><path class="ylines-above crisp" d="M0,0" style="fill: none;"/><g class="overlines-above"><path class="xy2-x crisp" d="M0,0" style="fill: none;"/><path class="xy2-y crisp" d="M0,0" style="fill: none;"/></g><g class="xaxislayer-above"/><g class="yaxislayer-above"/><g class="overaxes-above"><g class="xy2-x"/><g class="xy2-y"/></g></g><g class="subplot xy2"/></g><g class="polarlayer"/><g class="smithlayer"/><g class="ternarylayer"/><g class="geolayer"/><g class="funnelarealayer"/><g class="pielayer"/><g class="iciclelayer"/><g class="treemaplayer"/><g class="sunburstlayer"/><g class="glimages"/><defs id="topdefs-a7e659"><g class="clips"/></defs><g class="layer-above"><g class="imagelayer"/><g class="shapelayer"/></g><g class="infolayer"><g class="g-gtitle"/></g></svg>