<svg class="main-svg" xmlns="http://www.w3.org/2000/svg" xmlns:xlink="http://www.w3.org/1999/xlink" width="700" height="500" style="" viewBox="0 0 700 500"><rect x="0" y="0" width="700" height="500" style="fill: rgb(255, 255, 255); fill-opacity: 1;"/><defs id="defs-ee8011"><g class="clips"><clipPath id="clipee8011xyplot" class="plotclip"><rect width="639.1999999999999" height="464"/></clipPath><clipPath id="clipee8011xy2plot" class="plotclip"><rect width="639.1999999999999" height="464"/></clipPath><clipPath class="axesclip" id="clipee8011x"><rect x="10" y="0" width="639.1999999999999" height="500"/></clipPath><clipPath class="axesclip" id="clipee8011y"><rect x="0" y="26" width="700" height="464"/></clipPath><clipPath class="axesclip" id="clipee8011xy"><rect x="10" y="26" width="639.1999999999999" height="464"/></clipPath><clipPath class="axesclip" id="clipee8011y2"><rect x="0" y="26" width="700" height="464"/></clipPath><clipPath class="axesclip" id="clipee8011xy2"><rect x="10" y="26" width="639.1999999999999" height="464"/></clipPath></g><g class="gradients"/><g class="patterns"/></defs><g class="bglayer"/><g class="layer-below"><g class="imagelayer"/><g class="shapelayer"/></g><g class="cartesianlayer"><g class="subplot xy"><g class="layer-subplot"><g class="shapelayer"/><g class="imagelayer"/></g><g class="minor-gridlayer"><g class="x"/><g class="y"/><g class="y2"/></g><g class="gridlayer"><g class="x"/><g class="y"/><g class="y2"/></g><g class="zerolinelayer"/><g class="layer-between"><g class="shapelayer"/><g class="imagelayer"/></g><path class="xlines-below"/><path class="ylines-below"/><g class="overlines-below"><path class="xy2-x"/><path class="xy2-y"/></g><g class="xaxislayer-below"/><g class="yaxislayer-below"/><g class="overaxes-below"><g class="xy2-x"/><g class="xy2-y"/></g><g class="overplot"><g class="xy" transform="translate(10,26)" clip-path="url(#clipee8011xyplot)"><g class="barlayer mlayer"><g class="trace bars" style="opacity: 1;"><g class="points"><g class="point"><path d="M0.64,464V36.45H3.2V464Z" style="vector-effect: none; opacity: 1; stroke-width: 0px; fill: rgb(247, 37, 133); fill-opacity: 1;"/></g><g class="point"><path d="M7.03,464V47.69H9.59V464Z" style="vector-effect: none; opacity: 1; stroke-width: 0px; fill: rgb(247, 37, 133); fill-opacity: 1;"/></g><g class="point"><path d="M13.42,464V45.68H15.98V464Z" style="vector-effect: none; opacity: 1; stroke-width: 0px; fill: rgb(247, 37, 133); fill-opacity: 1;"/></g><g class="point"><path d="M19.82,464V33.64H22.37V464Z" style="vector-effect: none; opacity: 1; stroke-width: 0px; fill: rgb(247, 37, 133); fill-opacity: 1;"/></g><g class="point"><path d="M26.21,464V41.27H28.76V464Z" style="vector-effect: none; opacity: 1; stroke-width: 0px; fill: rgb(247, 37, 133); fill-opacity: 1;"/></g><g class="point"><path d="M32.6,464V48.09H35.16V464Z" style="vector-effect: none; opacity: 1; stroke-width: 0px; fill: rgb(247, 37, 133); fill-opacity: 1;"/></g><g class="point"><path d="M38.99,464V48.49H41.55V464Z" style="vector-effect: none; opacity: 1; stroke-width: 0px; fill: rgb(247, 37, 133); fill-opacity: 1;"/></g><g class="point"><path d="M45.38,464V42.47H47.94V464Z" style="vector-effect: none; opacity: 1; stroke-width: 0px; fill: rgb(247, 37, 133); fill-opacity: 1;"/></g><g class="point"><path d="M51.78,464V40.06H54.33V464Z" style="vector-effect: none; opacity: 1; stroke-width: 0px; fill: rgb(247, 37, 133); fill-opacity: 1;"/></g><g class="point"><path d="M58.17,464V60.13H60.72V464Z" style="vector-effect: none; opacity: 1; stroke-width: 0px; fill: rgb(247, 37, 133); fill-opacity: 1;"/></g><g class="point"><path d="M64.56,464V34.84H67.12V464Z" style="vector-effect: none; opacity: 1; stroke-width: 0px; fill: rgb(247, 37, 133); fill-opacity: 1;"/></g><g class="point"><path d="M70.95,464V49.7H73.51V464Z" style="vector-effect: none; opacity: 1; stroke-width: 0px; fill: rgb(247, 37, 133); fill-opacity: 1;"/></g><g class="point"><path d="M77.34,464V53.31H79.9V464Z" style="vector-effect: none; opacity: 1; stroke-width: 0px; fill: rgb(247, 37, 133); fill-opacity: 1;"/></g><g class="point"><path d="M83.74,464V45.68H86.29V464Z" style="vector-effect: none; opacity: 1; stroke-width: 0px; fill: rgb(247, 37, 133); fill-opacity: 1;"/></g><g class="point"><path d="M90.13,464V54.92H92.68V464Z" style="vector-effect: none; opacity: 1; stroke-width: 0px; fill: rgb(247, 37, 133); fill-opacity: 1;"/></g><g class="point"><path d="M96.52,464V34.44H99.08V464Z" style="vector-effect: none; opacity: 1; stroke-width: 0px; fill: rgb(247, 37, 133); fill-opacity: 1;"/></g><g class="point"><path d="M102.91,464V48.49H105.47V464Z" style="vector-effect: none; opacity: 1; stroke-width: 0px; fill: rgb(247, 37, 133); fill-opacity: 1;"/></g><g class="point"><path d="M109.3,464V52.91H111.86V464Z" style="vector-effect: none; opacity: 1; stroke-width: 0px; fill: rgb(247, 37, 133); fill-opacity: 1;"/></g><g class="point"><path d="M115.7,464V60.94H118.25V464Z" style="vector-effect: none; opacity: 1; stroke-width: 0px; fill: rgb(247, 37, 133); fill-opacity: 1;"/></g><g class="point"><path d="M122.09,464V28.42H124.64V464Z" style="vector-effect: none; opacity: 1; stroke-width: 0px; fill: rgb(247, 37, 133); fill-opacity: 1;"/></g><g class="point"><path d="M128.48,464V31.63H131.04V464Z" style="vector-effect: none; opacity: 1; stroke-width: 0px; fill: rgb(247, 37, 133); fill-opacity: 1;"/></g><g class="point"><path d="M134.87,464V33.24H137.43V464Z" style="vector-effect: none; opacity: 1; stroke-width: 0px; fill: rgb(247, 37, 133); fill-opacity: 1;"/></g><g class="point"><path d="M141.26,464V45.28H143.82V464Z" style="vector-effect: none; opacity: 1; stroke-width: 0px; fill: rgb(247, 37, 133); fill-opacity: 1;"/></g><g class="point"><path d="M147.66,464V45.68H150.21V464Z" style="vector-effect: none; opacity: 1; stroke-width: 0px; fill: rgb(247, 37, 133); fill-opacity: 1;"/></g><g class="point"><path d="M154.05,464V50.9H156.6V464Z" style="vector-effect: none; opacity: 1; stroke-width: 0px; fill: rgb(247, 37, 133); fill-opacity: 1;"/></g><g class="point"><path d="M160.44,464V29.62H163V464Z" style="vector-effect: none; opacity: 1; stroke-width: 0px; fill: rgb(247, 37, 133); fill-opacity: 1;"/></g><g class="point"><path d="M166.83,464V56.12H169.39V464Z" style="vector-effect: none; opacity: 1; stroke-width: 0px; fill: rgb(247, 37, 133); fill-opacity: 1;"/></g><g class="point"><path d="M173.22,464V60.94H175.78V464Z" style="vector-effect: none; opacity: 1; stroke-width: 0px; fill: rgb(247, 37, 133); fill-opacity: 1;"/></g><g class="point"><path d="M179.62,464V41.27H182.17V464Z" style="vector-effect: none; opacity: 1; stroke-width: 0px; fill: rgb(247, 37, 133); fill-opacity: 1;"/></g><g class="point"><path d="M186.01,464V38.05H188.56V464Z" style="vector-effect: none; opacity: 1; stroke-width: 0px; fill: rgb(247, 37, 133); fill-opacity: 1;"/></g><g class="point"><path d="M192.4,464V42.07H194.96V464Z" style="vector-effect: none; opacity: 1; stroke-width: 0px; fill: rgb(247, 37, 133); fill-opacity: 1;"/></g><g class="point"><path d="M198.79,464V34.04H201.35V464Z" style="vector-effect: none; opacity: 1; stroke-width: 0px; fill: rgb(247, 37, 133); fill-opacity: 1;"/></g><g class="point"><path d="M205.18,464V56.92H207.74V464Z" style="vector-effect: none; opacity: 1; stroke-width: 0px; fill: rgb(247, 37, 133); fill-opacity: 1;"/></g><g class="point"><path d="M211.58,464V47.69H214.13V464Z" style="vector-effect: none; opacity: 1; stroke-width: 0px; fill: rgb(247, 37, 133); fill-opacity: 1;"/></g><g class="point"><path d="M217.97,464V42.47H220.52V464Z" style="vector-effect: none; opacity: 1; stroke-width: 0px; fill: rgb(247, 37, 133); fill-opacity: 1;"/></g><g class="point"><path d="M224.36,464V38.05H226.92V464Z" style="vector-effect: none; opacity: 1; stroke-width: 0px; fill: rgb(247, 37, 133); fill-opacity: 1;"/></g><g class="point"><path d="M230.75,464V50.5H233.31V464Z" style="vector-effect: none; opacity: 1; stroke-width: 0px; fill: rgb(247, 37, 133); fill-opacity: 1;"/></g><g class="point"><path d="M237.14,464V26.81H239.7V464Z" style="vector-effect: none; opacity: 1; stroke-width: 0px; fill: rgb(247, 37, 133); fill-opacity: 1;"/></g><g class="point"><path d="M243.54,464V38.05H246.09V464Z" style="vector-effect: none; opacity: 1; stroke-width: 0px; fill: rgb(247, 37, 133); fill-opacity: 1;"/></g><g class="point"><path d="M249.93,464V26.81H252.48V464Z" style="vector-effect: none; opacity: 1; stroke-width: 0px; fill: rgb(247, 37, 133); fill-opacity: 1;"/></g><g class="point"><path d="M256.32,464V40.06H258.88V464Z" style="vector-effect: none; opacity: 1; stroke-width: 0px; fill: rgb(247, 37, 133); fill-opacity: 1;"/></g><g class="point"><path d="M262.71,464V23.2H265.27V464Z" style="vector-effect: none; opacity: 1; stroke-width: 0px; fill: rgb(247, 37, 133); fill-opacity: 1;"/></g><g class="point"><path d="M269.1,464V58.53H271.66V464Z" style="vector-effect: none; opacity: 1; stroke-width: 0px; fill: rgb(247, 37, 133); fill-opacity: 1;"/></g><g class="point"><path d="M275.5,464V45.68H278.05V464Z" style="vector-effect: none; opacity: 1; stroke-width: 0px; fill: rgb(247, 37, 133); fill-opacity: 1;"/></g><g class="point"><path d="M281.89,464V49.29H284.44V464Z" style="vector-effect: none; opacity: 1; stroke-width: 0px; fill: rgb(247, 37, 133); fill-opacity: 1;"/></g><g class="point"><path d="M288.28,464V39.26H290.84V464Z" style="vector-effect: none; opacity: 1; stroke-width: 0px; fill: rgb(247, 37, 133); fill-opacity: 1;"/></g><g class="point"><path d="M294.67,464V27.62H297.23V464Z" style="vector-effect: none; opacity: 1; stroke-width: 0px; fill: rgb(247, 37, 133); fill-opacity: 1;"/></g><g class="point"><path d="M301.06,464V38.86H303.62V464Z" style="vector-effect: none; opacity: 1; stroke-width: 0px; fill: rgb(247, 37, 133); fill-opacity: 1;"/></g><g class="point"><path d="M307.46,464V25.61H310.01V464Z" style="vector-effect: none; opacity: 1; stroke-width: 0px; fill: rgb(247, 37, 133); fill-opacity: 1;"/></g><g class="point"><path d="M313.85,464V61.74H316.4V464Z" style="vector-effect: none; opacity: 1; stroke-width: 0px; fill: rgb(247, 37, 133); fill-opacity: 1;"/></g><g class="point"><path d="M320.24,464V36.45H322.8V464Z" style="vector-effect: none; opacity: 1; stroke-width: 0px; fill: rgb(247, 37, 133); fill-opacity: 1;"/></g><g class="point"><path d="M326.63,464V51.7H329.19V464Z" style="vector-effect: none; opacity: 1; stroke-width: 0px; fill: rgb(247, 37, 133); fill-opacity: 1;"/></g><g class="point"><path d="M333.02,464V48.09H335.58V464Z" style="vector-effect: none; opacity: 1; stroke-width: 0px; fill: rgb(247, 37, 133); fill-opacity: 1;"/></g><g class="point"><path d="M339.42,464V35.65H341.97V464Z" style="vector-effect: none; opacity: 1; stroke-width: 0px; fill: rgb(247, 37, 133); fill-opacity: 1;"/></g><g class="point"><path d="M345.81,464V50.1H348.36V464Z" style="vector-effect: none; opacity: 1; stroke-width: 0px; fill: rgb(247, 37, 133); fill-opacity: 1;"/></g><g class="point"><path d="M352.2,464V45.68H354.76V464Z" style="vector-effect: none; opacity: 1; stroke-width: 0px; fill: rgb(247, 37, 133); fill-opacity: 1;"/></g><g class="point"><path d="M358.59,464V44.48H361.15V464Z" style="vector-effect: none; opacity: 1; stroke-width: 0px; fill: rgb(247, 37, 133); fill-opacity: 1;"/></g><g class="point"><path d="M364.98,464V54.51H367.54V464Z" style="vector-effect: none; opacity: 1; stroke-width: 0px; fill: rgb(247, 37, 133); fill-opacity: 1;"/></g><g class="point"><path d="M371.38,464V28.02H373.93V464Z" style="vector-effect: none; opacity: 1; stroke-width: 0px; fill: rgb(247, 37, 133); fill-opacity: 1;"/></g><g class="point"><path d="M377.77,464V34.04H380.32V464Z" style="vector-effect: none; opacity: 1; stroke-width: 0px; fill: rgb(247, 37, 133); fill-opacity: 1;"/></g><g class="point"><path d="M384.16,464V38.86H386.72V464Z" style="vector-effect: none; opacity: 1; stroke-width: 0px; fill: rgb(247, 37, 133); fill-opacity: 1;"/></g><g class="point"><path d="M390.55,464V62.14H393.11V464Z" style="vector-effect: none; opacity: 1; stroke-width: 0px; fill: rgb(247, 37, 133); fill-opacity: 1;"/></g><g class="point"><path d="M396.94,464V60.54H399.5V464Z" style="vector-effect: none; opacity: 1; stroke-width: 0px; fill: rgb(247, 37, 133); fill-opacity: 1;"/></g><g class="point"><path d="M403.34,464V54.92H405.89V464Z" style="vector-effect: none; opacity: 1; stroke-width: 0px; fill: rgb(247, 37, 133); fill-opacity: 1;"/></g><g class="point"><path d="M409.73,464V48.49H412.28V464Z" style="vector-effect: none; opacity: 1; stroke-width: 0px; fill: rgb(247, 37, 133); fill-opacity: 1;"/></g><g class="point"><path d="M416.12,464V24H418.68V464Z" style="vector-effect: none; opacity: 1; stroke-width: 0px; fill: rgb(247, 37, 133); fill-opacity: 1;"/></g><g class="point"><path d="M422.51,464V33.24H425.07V464Z" style="vector-effect: none; opacity: 1; stroke-width: 0px; fill: rgb(247, 37, 133); fill-opacity: 1;"/></g><g class="point"><path d="M428.9,464V40.86H431.46V464Z" style="vector-effect: none; opacity: 1; stroke-width: 0px; fill: rgb(247, 37, 133); fill-opacity: 1;"/></g><g class="point"><path d="M435.3,464V44.08H437.85V464Z" style="vector-effect: none; opacity: 1; stroke-width: 0px; fill: rgb(247, 37, 133); fill-opacity: 1;"/></g><g class="point"><path d="M441.69,464V26.81H444.24V464Z" style="vector-effect: none; opacity: 1; stroke-width: 0px; fill: rgb(247, 37, 133); fill-opacity: 1;"/></g><g class="point"><path d="M448.08,464V34.04H450.64V464Z" style="vector-effect: none; opacity: 1; stroke-width: 0px; fill: rgb(247, 37, 133); fill-opacity: 1;"/></g><g class="point"><path d="M454.47,464V36.45H457.03V464Z" style="vector-effect: none; opacity: 1; stroke-width: 0px; fill: rgb(247, 37, 133); fill-opacity: 1;"/></g><g class="point"><path d="M460.86,464V23.6H463.42V464Z" style="vector-effect: none; opacity: 1; stroke-width: 0px; fill: rgb(247, 37, 133); fill-opacity: 1;"/></g><g class="point"><path d="M467.26,464V59.73H469.81V464Z" style="vector-effect: none; opacity: 1; stroke-width: 0px; fill: rgb(247, 37, 133); fill-opacity: 1;"/></g><g class="point"><path d="M473.65,464V38.05H476.2V464Z" style="vector-effect: none; opacity: 1; stroke-width: 0px; fill: rgb(247, 37, 133); fill-opacity: 1;"/></g><g class="point"><path d="M480.04,464V56.12H482.6V464Z" style="vector-effect: none; opacity: 1; stroke-width: 0px; fill: rgb(247, 37, 133); fill-opacity: 1;"/></g><g class="point"><path d="M486.43,464V54.11H488.99V464Z" style="vector-effect: none; opacity: 1; stroke-width: 0px; fill: rgb(247, 37, 133); fill-opacity: 1;"/></g><g class="point"><path d="M492.82,464V59.73H495.38V464Z" style="vector-effect: none; opacity: 1; stroke-width: 0px; fill: rgb(247, 37, 133); fill-opacity: 1;"/></g><g class="point"><path d="M499.22,464V40.46H501.77V464Z" style="vector-effect: none; opacity: 1; stroke-width: 0px; fill: rgb(247, 37, 133); fill-opacity: 1;"/></g><g class="point"><path d="M505.61,464V49.29H508.16V464Z" style="vector-effect: none; opacity: 1; stroke-width: 0px; fill: rgb(247, 37, 133); fill-opacity: 1;"/></g><g class="point"><path d="M512,464V44.48H514.56V464Z" style="vector-effect: none; opacity: 1; stroke-width: 0px; fill: rgb(247, 37, 133); fill-opacity: 1;"/></g><g class="point"><path d="M518.39,464V42.87H520.95V464Z" style="vector-effect: none; opacity: 1; stroke-width: 0px; fill: rgb(247, 37, 133); fill-opacity: 1;"/></g><g class="point"><path d="M524.78,464V44.88H527.34V464Z" style="vector-effect: none; opacity: 1; stroke-width: 0px; fill: rgb(247, 37, 133); fill-opacity: 1;"/></g><g class="point"><path d="M531.18,464V30.02H533.73V464Z" style="vector-effect: none; opacity: 1; stroke-width: 0px; fill: rgb(247, 37, 133); fill-opacity: 1;"/></g><g class="point"><path d="M537.57,464V55.72H540.12V464Z" style="vector-effect: none; opacity: 1; stroke-width: 0px; fill: rgb(247, 37, 133); fill-opacity: 1;"/></g><g class="point"><path d="M543.96,464V57.73H546.52V464Z" style="vector-effect: none; opacity: 1; stroke-width: 0px; fill: rgb(247, 37, 133); fill-opacity: 1;"/></g><g class="point"><path d="M550.35,464V31.63H552.91V464Z" style="vector-effect: none; opacity: 1; stroke-width: 0px; fill: rgb(247, 37, 133); fill-opacity: 1;"/></g><g class="point"><path d="M556.74,464V28.82H559.3V464Z" style="vector-effect: none; opacity: 1; stroke-width: 0px; fill: rgb(247, 37, 133); fill-opacity: 1;"/></g><g class="point"><path d="M563.14,464V42.87H565.69V464Z" style="vector-effect: none; opacity: 1; stroke-width: 0px; fill: rgb(247, 37, 133); fill-opacity: 1;"/></g><g class="point"><path d="M569.53,464V23.2H572.08V464Z" style="vector-effect: none; opacity: 1; stroke-width: 0px; fill: rgb(247, 37, 133); fill-opacity: 1;"/></g><g class="point"><path d="M575.92,464V39.66H578.48V464Z" style="vector-effect: none; opacity: 1; stroke-width: 0px; fill: rgb(247, 37, 133); fill-opacity: 1;"/></g><g class="point"><path d="M582.31,464V28.42H584.87V464Z" style="vector-effect: none; opacity: 1; stroke-width: 0px; fill: rgb(247, 37, 133); fill-opacity: 1;"/></g><g class="point"><path d="M588.7,464V33.24H591.26V464Z" style="vector-effect: none; opacity: 1; stroke-width: 0px; fill: rgb(247, 37, 133); fill-opacity: 1;"/></g><g class="point"><path d="M595.1,464V40.46H597.65V464Z" style="vector-effect: none; opacity: 1; stroke-width: 0px; fill: rgb(247, 37, 133); fill-opacity: 1;"/></g><g class="point"><path d="M601.49,464V54.11H604.04V464Z" style="vector-effect: none; opacity: 1; stroke-width: 0px; fill: rgb(247, 37, 133); fill-opacity: 1;"/></g><g class="point"><path d="M607.88,464V46.89H610.44V464Z" style="vector-effect: none; opacity: 1; stroke-width: 0px; fill: rgb(247, 37, 133); fill-opacity: 1;"/></g><g class="point"><path d="M614.27,464V38.46H616.83V464Z" style="vector-effect: none; opacity: 1; stroke-width: 0px; fill: rgb(247, 37, 133); fill-opacity: 1;"/></g><g class="point"><path d="M620.66,464V37.65H623.22V464Z" style="vector-effect: none; opacity: 1; stroke-width: 0px; fill: rgb(247, 37, 133); fill-opacity: 1;"/></g><g class="point"><path d="M627.06,464V54.11H629.61V464Z" style="vector-effect: none; opacity: 1; stroke-width: 0px; fill: rgb(247, 37, 133); fill-opacity: 1;"/></g><g class="point"><path d="M633.45,464V26.01H636V464Z" style="vector-effect: none; opacity: 1; stroke-width: 0px; fill: rgb(247, 37, 133); fill-opacity: 1;"/></g></g></g><g class="trace bars" style="opacity: 1;"><g class="points"><g class="point"><path d="M3.2,464V457.18H5.75V464Z" style="vector-effect: none; opacity: 1; stroke-width: 0px; fill: rgb(114, 9, 183); fill-opacity: 1;"/></g><g class="point"><path d="M9.59,464V457.98H12.14V464Z" style="vector-effect: none; opacity: 1; stroke-width: 0px; fill: rgb(114, 9, 183); fill-opacity: 1;"/></g><g class="point"><path d="M15.98,464V455.97H18.54V464Z" style="vector-effect: none; opacity: 1; stroke-width: 0px; fill: rgb(114, 9, 183); fill-opacity: 1;"/></g><g class="point"><path d="M22.37,464V455.57H24.93V464Z" style="vector-effect: none; opacity: 1; stroke-width: 0px; fill: rgb(114, 9, 183); fill-opacity: 1;"/></g><g class="point"><path d="M28.76,464V445.13H31.32V464Z" style="vector-effect: none; opacity: 1; stroke-width: 0px; fill: rgb(114, 9, 183); fill-opacity: 1;"/></g><g class="point"><path d="M35.16,464V457.18H37.71V464Z" style="vector-effect: none; opacity: 1; stroke-width: 0px; fill: rgb(114, 9, 183); fill-opacity: 1;"/></g><g class="point"><path d="M41.55,464V457.58H44.1V464Z" style="vector-effect: none; opacity: 1; stroke-width: 0px; fill: rgb(114, 9, 183); fill-opacity: 1;"/></g><g class="point"><path d="M47.94,464V451.55H50.5V464Z" style="vector-effect: none; opacity: 1; stroke-width: 0px; fill: rgb(114, 9, 183); fill-opacity: 1;"/></g><g class="point"><path d="M54.33,464V463.2H56.89V464Z" style="vector-effect: none; opacity: 1; stroke-width: 0px; fill: rgb(114, 9, 183); fill-opacity: 1;"/></g><g class="point"><path d="M0,0Z" style="vector-effect: none; opacity: 1; stroke-width: 0px; fill: rgb(114, 9, 183); fill-opacity: 1;"/></g><g class="point"><path d="M67.12,464V459.18H69.67V464Z" style="vector-effect: none; opacity: 1; stroke-width: 0px; fill: rgb(114, 9, 183); fill-opacity: 1;"/></g><g class="point"><path d="M73.51,464V459.58H76.06V464Z" style="vector-effect: none; opacity: 1; stroke-width: 0px; fill: rgb(114, 9, 183); fill-opacity: 1;"/></g><g class="point"><path d="M79.9,464V453.16H82.46V464Z" style="vector-effect: none; opacity: 1; stroke-width: 0px; fill: rgb(114, 9, 183); fill-opacity: 1;"/></g><g class="point"><path d="M86.29,464V463.6H88.85V464Z" style="vector-effect: none; opacity: 1; stroke-width: 0px; fill: rgb(114, 9, 183); fill-opacity: 1;"/></g><g class="point"><path d="M0,0Z" style="vector-effect: none; opacity: 1; stroke-width: 0px; fill: rgb(114, 9, 183); fill-opacity: 1;"/></g><g class="point"><path d="M99.08,464V445.53H101.63V464Z" style="vector-effect: none; opacity: 1; stroke-width: 0px; fill: rgb(114, 9, 183); fill-opacity: 1;"/></g><g class="point"><path d="M105.47,464V451.96H108.02V464Z" style="vector-effect: none; opacity: 1; stroke-width: 0px; fill: rgb(114, 9, 183); fill-opacity: 1;"/></g><g class="point"><path d="M111.86,464V444.33H114.42V464Z" style="vector-effect: none; opacity: 1; stroke-width: 0px; fill: rgb(114, 9, 183); fill-opacity: 1;"/></g><g class="point"><path d="M118.25,464V461.59H120.81V464Z" style="vector-effect: none; opacity: 1; stroke-width: 0px; fill: rgb(114, 9, 183); fill-opacity: 1;"/></g><g class="point"><path d="M124.64,464V450.35H127.2V464Z" style="vector-effect: none; opacity: 1; stroke-width: 0px; fill: rgb(114, 9, 183); fill-opacity: 1;"/></g><g class="point"><path d="M131.04,464V463.6H133.59V464Z" style="vector-effect: none; opacity: 1; stroke-width: 0px; fill: rgb(114, 9, 183); fill-opacity: 1;"/></g><g class="point"><path d="M137.43,464V456.77H139.98V464Z" style="vector-effect: none; opacity: 1; stroke-width: 0px; fill: rgb(114, 9, 183); fill-opacity: 1;"/></g><g class="point"><path d="M143.82,464V459.18H146.38V464Z" style="vector-effect: none; opacity: 1; stroke-width: 0px; fill: rgb(114, 9, 183); fill-opacity: 1;"/></g><g class="point"><path d="M150.21,464V446.34H152.77V464Z" style="vector-effect: none; opacity: 1; stroke-width: 0px; fill: rgb(114, 9, 183); fill-opacity: 1;"/></g><g class="point"><path d="M156.6,464V462.8H159.16V464Z" style="vector-effect: none; opacity: 1; stroke-width: 0px; fill: rgb(114, 9, 183); fill-opacity: 1;"/></g><g class="point"><path d="M163,464V454.77H165.55V464Z" style="vector-effect: none; opacity: 1; stroke-width: 0px; fill: rgb(114, 9, 183); fill-opacity: 1;"/></g><g class="point"><path d="M169.39,464V457.18H171.94V464Z" style="vector-effect: none; opacity: 1; stroke-width: 0px; fill: rgb(114, 9, 183); fill-opacity: 1;"/></g><g class="point"><path d="M175.78,464V459.58H178.34V464Z" style="vector-effect: none; opacity: 1; stroke-width: 0px; fill: rgb(114, 9, 183); fill-opacity: 1;"/></g><g class="point"><path d="M182.17,464V449.15H184.73V464Z" style="vector-effect: none; opacity: 1; stroke-width: 0px; fill: rgb(114, 9, 183); fill-opacity: 1;"/></g><g class="point"><path d="M188.56,464V463.6H191.12V464Z" style="vector-effect: none; opacity: 1; stroke-width: 0px; fill: rgb(114, 9, 183); fill-opacity: 1;"/></g><g class="point"><path d="M194.96,464V448.34H197.51V464Z" style="vector-effect: none; opacity: 1; stroke-width: 0px; fill: rgb(114, 9, 183); fill-opacity: 1;"/></g><g class="point"><path d="M201.35,464V444.33H203.9V464Z" style="vector-effect: none; opacity: 1; stroke-width: 0px; fill: rgb(114, 9, 183); fill-opacity: 1;"/></g><g class="point"><path d="M207.74,464V445.93H210.3V464Z" style="vector-effect: none; opacity: 1; stroke-width: 0px; fill: rgb(114, 9, 183); fill-opacity: 1;"/></g><g class="point"><path d="M214.13,464V446.34H216.69V464Z" style="vector-effect: none; opacity: 1; stroke-width: 0px; fill: rgb(114, 9, 183); fill-opacity: 1;"/></g><g class="point"><path d="M220.52,464V447.14H223.08V464Z" style="vector-effect: none; opacity: 1; stroke-width: 0px; fill: rgb(114, 9, 183); fill-opacity: 1;"/></g><g class="point"><path d="M226.92,464V445.53H229.47V464Z" style="vector-effect: none; opacity: 1; stroke-width: 0px; fill: rgb(114, 9, 183); fill-opacity: 1;"/></g><g class="point"><path d="M233.31,464V452.76H235.86V464Z" style="vector-effect: none; opacity: 1; stroke-width: 0px; fill: rgb(114, 9, 183); fill-opacity: 1;"/></g><g class="point"><path d="M239.7,464V453.96H242.26V464Z" style="vector-effect: none; opacity: 1; stroke-width: 0px; fill: rgb(114, 9, 183); fill-opacity: 1;"/></g><g class="point"><path d="M246.09,464V460.79H248.65V464Z" style="vector-effect: none; opacity: 1; stroke-width: 0px; fill: rgb(114, 9, 183); fill-opacity: 1;"/></g><g class="point"><path d="M252.48,464V453.16H255.04V464Z" style="vector-effect: none; opacity: 1; stroke-width: 0px; fill: rgb(114, 9, 183); fill-opacity: 1;"/></g><g class="point"><path d="M258.88,464V449.15H261.43V464Z" style="vector-effect: none; opacity: 1; stroke-width: 0px; fill: rgb(114, 9, 183); fill-opacity: 1;"/></g><g class="point"><path d="M265.27,464V449.55H267.82V464Z" style="vector-effect: none; opacity: 1; stroke-width: 0px; fill: rgb(114, 9, 183); fill-opacity: 1;"/></g><g class="point"><path d="M271.66,464V451.55H274.22V464Z" style="vector-effect: none; opacity: 1; stroke-width: 0px; fill: rgb(114, 9, 183); fill-opacity: 1;"/></g><g class="point"><path d="M278.05,464V462.39H280.61V464Z" style="vector-effect: none; opacity: 1; stroke-width: 0px; fill: rgb(114, 9, 183); fill-opacity: 1;"/></g><g class="point"><path d="M284.44,464V444.33H287V464Z" style="vector-effect: none; opacity: 1; stroke-width: 0px; fill: rgb(114, 9, 183); fill-opacity: 1;"/></g><g class="point"><path d="M290.84,464V461.19H293.39V464Z" style="vector-effect: none; opacity: 1; stroke-width: 0px; fill: rgb(114, 9, 183); fill-opacity: 1;"/></g><g class="point"><path d="M297.23,464V446.74H299.78V464Z" style="vector-effect: none; opacity: 1; stroke-width: 0px; fill: rgb(114, 9, 183); fill-opacity: 1;"/></g><g class="point"><path d="M303.62,464V462.8H306.18V464Z" style="vector-effect: none; opacity: 1; stroke-width: 0px; fill: rgb(114, 9, 183); fill-opacity: 1;"/></g><g class="point"><path d="M310.01,464V455.57H312.57V464Z" style="vector-effect: none; opacity: 1; stroke-width: 0px; fill: rgb(114, 9, 183); fill-opacity: 1;"/></g><g class="point"><path d="M316.4,464V459.58H318.96V464Z" style="vector-effect: none; opacity: 1; stroke-width: 0px; fill: rgb(114, 9, 183); fill-opacity: 1;"/></g><g class="point"><path d="M322.8,464V453.16H325.35V464Z" style="vector-effect: none; opacity: 1; stroke-width: 0px; fill: rgb(114, 9, 183); fill-opacity: 1;"/></g><g class="point"><path d="M329.19,464V458.78H331.74V464Z" style="vector-effect: none; opacity: 1; stroke-width: 0px; fill: rgb(114, 9, 183); fill-opacity: 1;"/></g><g class="point"><path d="M335.58,464V456.77H338.14V464Z" style="vector-effect: none; opacity: 1; stroke-width: 0px; fill: rgb(114, 9, 183); fill-opacity: 1;"/></g><g class="point"><path d="M341.97,464V454.37H344.53V464Z" style="vector-effect: none; opacity: 1; stroke-width: 0px; fill: rgb(114, 9, 183); fill-opacity: 1;"/></g><g class="point"><path d="M348.36,464V463.6H350.92V464Z" style="vector-effect: none; opacity: 1; stroke-width: 0px; fill: rgb(114, 9, 183); fill-opacity: 1;"/></g><g class="point"><path d="M354.76,464V457.58H357.31V464Z" style="vector-effect: none; opacity: 1; stroke-width: 0px; fill: rgb(114, 9, 183); fill-opacity: 1;"/></g><g class="point"><path d="M361.15,464V463.6H363.7V464Z" style="vector-effect: none; opacity: 1; stroke-width: 0px; fill: rgb(114, 9, 183); fill-opacity: 1;"/></g><g class="point"><path d="M367.54,464V447.54H370.1V464Z" style="vector-effect: none; opacity: 1; stroke-width: 0px; fill: rgb(114, 9, 183); fill-opacity: 1;"/></g><g class="point"><path d="M373.93,464V446.34H376.49V464Z" style="vector-effect: none; opacity: 1; stroke-width: 0px; fill: rgb(114, 9, 183); fill-opacity: 1;"/></g><g class="point"><path d="M380.32,464V460.79H382.88V464Z" style="vector-effect: none; opacity: 1; stroke-width: 0px; fill: rgb(114, 9, 183); fill-opacity: 1;"/></g><g class="point"><path d="M386.72,464V448.74H389.27V464Z" style="vector-effect: none; opacity: 1; stroke-width: 0px; fill: rgb(114, 9, 183); fill-opacity: 1;"/></g><g class="point"><path d="M393.11,464V450.75H395.66V464Z" style="vector-effect: none; opacity: 1; stroke-width: 0px; fill: rgb(114, 9, 183); fill-opacity: 1;"/></g><g class="point"><path d="M399.5,464V449.15H402.06V464Z" style="vector-effect: none; opacity: 1; stroke-width: 0px; fill: rgb(114, 9, 183); fill-opacity: 1;"/></g><g class="point"><path d="M405.89,464V447.54H408.45V464Z" style="vector-effect: none; opacity: 1; stroke-width: 0px; fill: rgb(114, 9, 183); fill-opacity: 1;"/></g><g class="point"><path d="M412.28,464V454.77H414.84V464Z" style="vector-effect: none; opacity: 1; stroke-width: 0px; fill: rgb(114, 9, 183); fill-opacity: 1;"/></g><g class="point"><path d="M418.68,464V449.15H421.23V464Z" style="vector-effect: none; opacity: 1; stroke-width: 0px; fill: rgb(114, 9, 183); fill-opacity: 1;"/></g><g class="point"><path d="M425.07,464V453.16H427.62V464Z" style="vector-effect: none; opacity: 1; stroke-width: 0px; fill: rgb(114, 9, 183); fill-opacity: 1;"/></g><g class="point"><path d="M431.46,464V446.34H434.02V464Z" style="vector-effect: none; opacity: 1; stroke-width: 0px; fill: rgb(114, 9, 183); fill-opacity: 1;"/></g><g class="point"><path d="M437.85,464V451.96H440.41V464Z" style="vector-effect: none; opacity: 1; stroke-width: 0px; fill: rgb(114, 9, 183); fill-opacity: 1;"/></g><g class="point"><path d="M444.24,464V450.75H446.8V464Z" style="vector-effect: none; opacity: 1; stroke-width: 0px; fill: rgb(114, 9, 183); fill-opacity: 1;"/></g><g class="point"><path d="M450.64,464V445.13H453.19V464Z" style="vector-effect: none; opacity: 1; stroke-width: 0px; fill: rgb(114, 9, 183); fill-opacity: 1;"/></g><g class="point"><path d="M457.03,464V460.39H459.58V464Z" style="vector-effect: none; opacity: 1; stroke-width: 0px; fill: rgb(114, 9, 183); fill-opacity: 1;"/></g><g class="point"><path d="M463.42,464V461.19H465.98V464Z" style="vector-effect: none; opacity: 1; stroke-width: 0px; fill: rgb(114, 9, 183); fill-opacity: 1;"/></g><g class="point"><path d="M469.81,464V449.55H472.37V464Z" style="vector-effect: none; opacity: 1; stroke-width: 0px; fill: rgb(114, 9, 183); fill-opacity: 1;"/></g><g class="point"><path d="M476.2,464V457.58H478.76V464Z" style="vector-effect: none; opacity: 1; stroke-width: 0px; fill: rgb(114, 9, 183); fill-opacity: 1;"/></g><g class="point"><path d="M482.6,464V451.15H485.15V464Z" style="vector-effect: none; opacity: 1; stroke-width: 0px; fill: rgb(114, 9, 183); fill-opacity: 1;"/></g><g class="point"><path d="M488.99,464V449.15H491.54V464Z" style="vector-effect: none; opacity: 1; stroke-width: 0px; fill: rgb(114, 9, 183); fill-opacity: 1;"/></g><g class="point"><path d="M495.38,464V453.96H497.94V464Z" style="vector-effect: none; opacity: 1; stroke-width: 0px; fill: rgb(114, 9, 183); fill-opacity: 1;"/></g><g class="point"><path d="M0,0Z" style="vector-effect: none; opacity: 1; stroke-width: 0px; fill: rgb(114, 9, 183); fill-opacity: 1;"/></g><g class="point"><path d="M508.16,464V444.73H510.72V464Z" style="vector-effect: none; opacity: 1; stroke-width: 0px; fill: rgb(114, 9, 183); fill-opacity: 1;"/></g><g class="point"><path d="M514.56,464V447.54H517.11V464Z" style="vector-effect: none; opacity: 1; stroke-width: 0px; fill: rgb(114, 9, 183); fill-opacity: 1;"/></g><g class="point"><path d="M520.95,464V453.16H523.5V464Z" style="vector-effect: none; opacity: 1; stroke-width: 0px; fill: rgb(114, 9, 183); fill-opacity: 1;"/></g><g class="point"><path d="M527.34,464V457.18H529.9V464Z" style="vector-effect: none; opacity: 1; stroke-width: 0px; fill: rgb(114, 9, 183); fill-opacity: 1;"/></g><g class="point"><path d="M533.73,464V461.99H536.29V464Z" style="vector-effect: none; opacity: 1; stroke-width: 0px; fill: rgb(114, 9, 183); fill-opacity: 1;"/></g><g class="point"><path d="M540.12,464V446.74H542.68V464Z" style="vector-effect: none; opacity: 1; stroke-width: 0px; fill: rgb(114, 9, 183); fill-opacity: 1;"/></g><g class="point"><path d="M546.52,464V450.35H549.07V464Z" style="vector-effect: none; opacity: 1; stroke-width: 0px; fill: rgb(114, 9, 183); fill-opacity: 1;"/></g><g class="point"><path d="M552.91,464V449.55H555.46V464Z" style="vector-effect: none; opacity: 1; stroke-width: 0px; fill: rgb(114, 9, 183); fill-opacity: 1;"/></g><g class="point"><path d="M559.3,464V448.74H561.86V464Z" style="vector-effect: none; opacity: 1; stroke-width: 0px; fill: rgb(114, 9, 183); fill-opacity: 1;"/></g><g class="point"><path d="M565.69,464V446.74H568.25V464Z" style="vector-effect: none; opacity: 1; stroke-width: 0px; fill: rgb(114, 9, 183); fill-opacity: 1;"/></g><g class="point"><path d="M572.08,464V447.54H574.64V464Z" style="vector-effect: none; opacity: 1; stroke-width: 0px; fill: rgb(114, 9, 183); fill-opacity: 1;"/></g><g class="point"><path d="M578.48,464V458.78H581.03V464Z" style="vector-effect: none; opacity: 1; stroke-width: 0px; fill: rgb(114, 9, 183); fill-opacity: 1;"/></g><g class="point"><path d="M584.87,464V456.37H587.42V464Z" style="vector-effect: none; opacity: 1; stroke-width: 0px; fill: rgb(114, 9, 183); fill-opacity: 1;"/></g><g class="point"><path d="M591.26,464V462.39H593.82V464Z" style="vector-effect: none; opacity: 1; stroke-width: 0px; fill: rgb(114, 9, 183); fill-opacity: 1;"/></g><g class="point"><path d="M597.65,464V460.39H600.21V464Z" style="vector-effect: none; opacity: 1; stroke-width: 0px; fill: rgb(114, 9, 183); fill-opacity: 1;"/></g><g class="point"><path d="M604.04,464V458.38H606.6V464Z" style="vector-effect: none; opacity: 1; stroke-width: 0px; fill: rgb(114, 9, 183); fill-opacity: 1;"/></g><g class="point"><path d="M610.44,464V461.99H612.99V464Z" style="vector-effect: none; opacity: 1; stroke-width: 0px; fill: rgb(114, 9, 183); fill-opacity: 1;"/></g><g class="point"><path d="M616.83,464V451.15H619.38V464Z" style="vector-effect: none; opacity: 1; stroke-width: 0px; fill: rgb(114, 9, 183); fill-opacity: 1;"/></g><g class="point"><path d="M623.22,464V459.18H625.78V464Z" style="vector-effect: none; opacity: 1; stroke-width: 0px; fill: rgb(114, 9, 183); fill-opacity: 1;"/></g><g class="point"><path d="M629.61,464V451.96H632.17V464Z" style="vector-effect: none; opacity: 1; stroke-width: 0px; fill: rgb(114, 9, 183); fill-opacity: 1;"/></g><g class="point"><path d="M636,464V458.78H638.56V464Z" style="vector-effect: none; opacity: 1; stroke-width: 0px; fill: rgb(114, 9, 183); fill-opacity: 1;"/></g></g></g></g></g><g class="xy2" transform="translate(10,26)" clip-path="url(#clipee8011xy2plot)"><g class="scatterlayer mlayer"><g class="trace scatter trace6c0022" style="stroke-miterlimit: 2; opacity: 1;"><g class="fills"/><g class="errorbars"/><g class="lines"><path class="js-line" d="M3.2,81.66L9.59,39.9L15.98,123.42L22.37,390.69L28.76,215.3L35.16,173.54L41.55,399.04L47.94,123.42L54.33,373.98L60.72,340.58L67.12,106.72L73.51,407.39L79.9,23.2L86.29,198.59L92.68,432.45L99.08,123.42L105.47,407.39L111.86,140.13L118.25,232L124.64,81.66L131.04,39.9L137.43,399.04L143.82,307.17L150.21,240.35L156.6,64.96L163,148.48L169.39,415.74L175.78,115.07L182.17,232L188.56,415.74L194.96,424.1L201.35,90.02L207.74,332.22L214.13,165.18L220.52,390.69L226.92,31.55L233.31,365.63L239.7,340.58L246.09,248.7L252.48,315.52L258.88,148.48L265.27,440.8L271.66,39.9L278.05,348.93L284.44,39.9L290.84,307.17L297.23,282.11L303.62,73.31L310.01,181.89L316.4,290.46L322.8,215.3L329.19,390.69L335.58,357.28L341.97,31.55L348.36,257.06L354.76,365.63L361.15,307.17L367.54,165.18L373.93,298.82L380.32,415.74L386.72,232L393.11,357.28L399.5,399.04L405.89,440.8L412.28,399.04L418.68,357.28L425.07,39.9L431.46,48.26L437.85,206.94L444.24,39.9L450.64,98.37L457.03,131.78L463.42,240.35L469.81,23.2L476.2,298.82L482.6,140.13L488.99,298.82L495.38,273.76L501.77,390.69L508.16,140.13L514.56,165.18L520.95,173.54L527.34,173.54L533.73,56.61L540.12,156.83L546.52,365.63L552.91,248.7L559.3,373.98L565.69,48.26L572.08,415.74L578.48,90.02L584.87,440.8L591.26,357.28L597.65,173.54L604.04,332.22L610.44,307.17L616.83,190.24L623.22,407.39L629.61,365.63L636,48.26" style="vector-effect: none; fill: none; stroke: rgb(58, 12, 163); stroke-opacity: 1; stroke-width: 2px; opacity: 1;"/></g><g class="points"/><g class="text"/></g></g></g></g><path class="xlines-above crisp" d="M0,0" style="fill: none;"/><path class="ylines-above crisp" d="M0,0" style="fill: none;"/><g class="overlines-above"><path class="xy2-x crisp" d="M0,0" style="fill: none;"/><path class="xy2-y crisp" d="M0,0" style="fill: none;"/></g><g class="xaxislayer-above"/><g class="yaxislayer-above"/><g class="overaxes-above"><g class="xy2-x"/><g class="xy2-y"/></g></g><g class="subplot xy2"/></g><g class="polarlayer"/><g class="smithlayer"/><g class="ternarylayer"/><g class="geolayer"/><g class="funnelarealayer"/><g class="pielayer"/><g class="iciclelayer"/><g class="treemaplayer"/><g class="sunburstlayer"/><g class="glimages"/><defs id="topdefs-ee8011"><g class="clips"/></defs><g class="layer-above"><g class="imagelayer"/><g class="shapelayer"/></g><g class="infolayer"><g class="g-gtitle"/></g></svg>