<svg class="main-svg" xmlns="http://www.w3.org/2000/svg" xmlns:xlink="http://www.w3.org/1999/xlink" width="700" height="500" style="" viewBox="0 0 700 500"><rect x="0" y="0" width="700" height="500" style="fill: rgb(255, 255, 255); fill-opacity: 1;"/><defs id="defs-4367e4"><g class="clips"><clipPath id="clip4367e4xyplot" class="plotclip"><rect width="639.1999999999999" height="464"/></clipPath><clipPath id="clip4367e4xy2plot" class="plotclip"><rect width="639.1999999999999" height="464"/></clipPath><clipPath class="axesclip" id="clip4367e4x"><rect x="10" y="0" width="639.1999999999999" height="500"/></clipPath><clipPath class="axesclip" id="clip4367e4y"><rect x="0" y="26" width="700" height="464"/></clipPath><clipPath class="axesclip" id="clip4367e4xy"><rect x="10" y="26" width="639.1999999999999" height="464"/></clipPath><clipPath class="axesclip" id="clip4367e4y2"><rect x="0" y="26" width="700" height="464"/></clipPath><clipPath class="axesclip" id="clip4367e4xy2"><rect x="10" y="26" width="639.1999999999999" height="464"/></clipPath></g><g class="gradients"/><g class="patterns"/></defs><g class="bglayer"/><g class="layer-below"><g class="imagelayer"/><g class="shapelayer"/></g><g class="cartesianlayer"><g class="subplot xy"><g class="layer-subplot"><g class="shapelayer"/><g class="imagelayer"/></g><g class="minor-gridlayer"><g class="x"/><g class="y"/><g class="y2"/></g><g class="gridlayer"><g class="x"/><g class="y"/><g class="y2"/></g><g class="zerolinelayer"/><g class="layer-between"><g class="shapelayer"/><g class="imagelayer"/></g><path class="xlines-below"/><path class="ylines-below"/><g class="overlines-below"><path class="xy2-x"/><path class="xy2-y"/></g><g class="xaxislayer-below"/><g class="yaxislayer-below"/><g class="overaxes-below"><g class="xy2-x"/><g class="xy2-y"/></g><g class="overplot"><g class="xy" transform="translate(10,26)" clip-path="url(#clip4367e4xyplot)"><g class="barlayer mlayer"><g class="trace bars" style="opacity: 1;"><g class="points"><g class="point"><path d="M0,463.54V461.68H338.05V463.54Z" style="vector-effect: none; opacity: 1; stroke-width: 0px; fill: rgb(247, 37, 133); fill-opacity: 1;"/></g><g class="point"><path d="M0,458.9V457.04H281.71V458.9Z" style="vector-effect: none; opacity: 1; stroke-width: 0px; fill: rgb(247, 37, 133); fill-opacity: 1;"/></g><g class="point"><path d="M0,454.26V452.4H569.68V454.26Z" style="vector-effect: none; opacity: 1; stroke-width: 0px; fill: rgb(247, 37, 133); fill-opacity: 1;"/></g><g class="point"><path d="M0,449.62V447.76H557.16V449.62Z" style="vector-effect: none; opacity: 1; stroke-width: 0px; fill: rgb(247, 37, 133); fill-opacity: 1;"/></g><g class="point"><path d="M0,444.98V443.12H319.27V444.98Z" style="vector-effect: none; opacity: 1; stroke-width: 0px; fill: rgb(247, 37, 133); fill-opacity: 1;"/></g><g class="point"><path d="M0,440.34V438.48H563.42V440.34Z" style="vector-effect: none; opacity: 1; stroke-width: 0px; fill: rgb(247, 37, 133); fill-opacity: 1;"/></g><g class="point"><path d="M0,435.7V433.84H262.93V435.7Z" style="vector-effect: none; opacity: 1; stroke-width: 0px; fill: rgb(247, 37, 133); fill-opacity: 1;"/></g><g class="point"><path d="M0,431.06V429.2H607.24V431.06Z" style="vector-effect: none; opacity: 1; stroke-width: 0px; fill: rgb(247, 37, 133); fill-opacity: 1;"/></g><g class="point"><path d="M0,426.42V424.56H262.93V426.42Z" style="vector-effect: none; opacity: 1; stroke-width: 0px; fill: rgb(247, 37, 133); fill-opacity: 1;"/></g><g class="point"><path d="M0,421.78V419.92H532.12V421.78Z" style="vector-effect: none; opacity: 1; stroke-width: 0px; fill: rgb(247, 37, 133); fill-opacity: 1;"/></g><g class="point"><path d="M0,417.14V415.28H162.77V417.14Z" style="vector-effect: none; opacity: 1; stroke-width: 0px; fill: rgb(247, 37, 133); fill-opacity: 1;"/></g><g class="point"><path d="M0,412.5V410.64H187.81V412.5Z" style="vector-effect: none; opacity: 1; stroke-width: 0px; fill: rgb(247, 37, 133); fill-opacity: 1;"/></g><g class="point"><path d="M0,407.86V406H550.9V407.86Z" style="vector-effect: none; opacity: 1; stroke-width: 0px; fill: rgb(247, 37, 133); fill-opacity: 1;"/></g><g class="point"><path d="M0,403.22V401.36H294.23V403.22Z" style="vector-effect: none; opacity: 1; stroke-width: 0px; fill: rgb(247, 37, 133); fill-opacity: 1;"/></g><g class="point"><path d="M0,398.58V396.72H457V398.58Z" style="vector-effect: none; opacity: 1; stroke-width: 0px; fill: rgb(247, 37, 133); fill-opacity: 1;"/></g><g class="point"><path d="M0,393.94V392.08H582.2V393.94Z" style="vector-effect: none; opacity: 1; stroke-width: 0px; fill: rgb(247, 37, 133); fill-opacity: 1;"/></g><g class="point"><path d="M0,389.3V387.44H319.27V389.3Z" style="vector-effect: none; opacity: 1; stroke-width: 0px; fill: rgb(247, 37, 133); fill-opacity: 1;"/></g><g class="point"><path d="M0,384.66V382.8H394.39V384.66Z" style="vector-effect: none; opacity: 1; stroke-width: 0px; fill: rgb(247, 37, 133); fill-opacity: 1;"/></g><g class="point"><path d="M0,380.02V378.16H112.68V380.02Z" style="vector-effect: none; opacity: 1; stroke-width: 0px; fill: rgb(247, 37, 133); fill-opacity: 1;"/></g><g class="point"><path d="M0,375.38V373.52H162.77V375.38Z" style="vector-effect: none; opacity: 1; stroke-width: 0px; fill: rgb(247, 37, 133); fill-opacity: 1;"/></g><g class="point"><path d="M0,370.74V368.88H519.6V370.74Z" style="vector-effect: none; opacity: 1; stroke-width: 0px; fill: rgb(247, 37, 133); fill-opacity: 1;"/></g><g class="point"><path d="M0,366.1V364.24H388.13V366.1Z" style="vector-effect: none; opacity: 1; stroke-width: 0px; fill: rgb(247, 37, 133); fill-opacity: 1;"/></g><g class="point"><path d="M0,361.46V359.6H482.04V361.46Z" style="vector-effect: none; opacity: 1; stroke-width: 0px; fill: rgb(247, 37, 133); fill-opacity: 1;"/></g><g class="point"><path d="M0,356.82V354.96H181.55V356.82Z" style="vector-effect: none; opacity: 1; stroke-width: 0px; fill: rgb(247, 37, 133); fill-opacity: 1;"/></g><g class="point"><path d="M0,352.18V350.32H62.6V352.18Z" style="vector-effect: none; opacity: 1; stroke-width: 0px; fill: rgb(247, 37, 133); fill-opacity: 1;"/></g><g class="point"><path d="M0,347.54V345.68H25.04V347.54Z" style="vector-effect: none; opacity: 1; stroke-width: 0px; fill: rgb(247, 37, 133); fill-opacity: 1;"/></g><g class="point"><path d="M0,342.9V341.04H463.26V342.9Z" style="vector-effect: none; opacity: 1; stroke-width: 0px; fill: rgb(247, 37, 133); fill-opacity: 1;"/></g><g class="point"><path d="M0,338.26V336.4H281.71V338.26Z" style="vector-effect: none; opacity: 1; stroke-width: 0px; fill: rgb(247, 37, 133); fill-opacity: 1;"/></g><g class="point"><path d="M0,333.62V331.76H200.33V333.62Z" style="vector-effect: none; opacity: 1; stroke-width: 0px; fill: rgb(247, 37, 133); fill-opacity: 1;"/></g><g class="point"><path d="M0,328.98V327.12H544.64V328.98Z" style="vector-effect: none; opacity: 1; stroke-width: 0px; fill: rgb(247, 37, 133); fill-opacity: 1;"/></g><g class="point"><path d="M0,324.34V322.48H43.82V324.34Z" style="vector-effect: none; opacity: 1; stroke-width: 0px; fill: rgb(247, 37, 133); fill-opacity: 1;"/></g><g class="point"><path d="M0,319.7V317.84H450.73V319.7Z" style="vector-effect: none; opacity: 1; stroke-width: 0px; fill: rgb(247, 37, 133); fill-opacity: 1;"/></g><g class="point"><path d="M0,315.06V313.2H81.38V315.06Z" style="vector-effect: none; opacity: 1; stroke-width: 0px; fill: rgb(247, 37, 133); fill-opacity: 1;"/></g><g class="point"><path d="M0,310.42V308.56H450.73V310.42Z" style="vector-effect: none; opacity: 1; stroke-width: 0px; fill: rgb(247, 37, 133); fill-opacity: 1;"/></g><g class="point"><path d="M0,305.78V303.92H25.04V305.78Z" style="vector-effect: none; opacity: 1; stroke-width: 0px; fill: rgb(247, 37, 133); fill-opacity: 1;"/></g><g class="point"><path d="M0,301.14V299.28H313.01V301.14Z" style="vector-effect: none; opacity: 1; stroke-width: 0px; fill: rgb(247, 37, 133); fill-opacity: 1;"/></g><g class="point"><path d="M0,296.5V294.64H475.78V296.5Z" style="vector-effect: none; opacity: 1; stroke-width: 0px; fill: rgb(247, 37, 133); fill-opacity: 1;"/></g><g class="point"><path d="M0,291.86V290H31.3V291.86Z" style="vector-effect: none; opacity: 1; stroke-width: 0px; fill: rgb(247, 37, 133); fill-opacity: 1;"/></g><g class="point"><path d="M0,287.22V285.36H594.72V287.22Z" style="vector-effect: none; opacity: 1; stroke-width: 0px; fill: rgb(247, 37, 133); fill-opacity: 1;"/></g><g class="point"><path d="M0,282.58V280.72H75.12V282.58Z" style="vector-effect: none; opacity: 1; stroke-width: 0px; fill: rgb(247, 37, 133); fill-opacity: 1;"/></g><g class="point"><path d="M0,277.94V276.08H425.69V277.94Z" style="vector-effect: none; opacity: 1; stroke-width: 0px; fill: rgb(247, 37, 133); fill-opacity: 1;"/></g><g class="point"><path d="M0,273.3V271.44H244.15V273.3Z" style="vector-effect: none; opacity: 1; stroke-width: 0px; fill: rgb(247, 37, 133); fill-opacity: 1;"/></g><g class="point"><path d="M0,268.66V266.8H363.09V268.66Z" style="vector-effect: none; opacity: 1; stroke-width: 0px; fill: rgb(247, 37, 133); fill-opacity: 1;"/></g><g class="point"><path d="M0,264.02V262.16H313.01V264.02Z" style="vector-effect: none; opacity: 1; stroke-width: 0px; fill: rgb(247, 37, 133); fill-opacity: 1;"/></g><g class="point"><path d="M0,259.38V257.52H162.77V259.38Z" style="vector-effect: none; opacity: 1; stroke-width: 0px; fill: rgb(247, 37, 133); fill-opacity: 1;"/></g><g class="point"><path d="M0,254.74V252.88H43.82V254.74Z" style="vector-effect: none; opacity: 1; stroke-width: 0px; fill: rgb(247, 37, 133); fill-opacity: 1;"/></g><g class="point"><path d="M0,250.1V248.24H125.2V250.1Z" style="vector-effect: none; opacity: 1; stroke-width: 0px; fill: rgb(247, 37, 133); fill-opacity: 1;"/></g><g class="point"><path d="M0,245.46V243.6H137.72V245.46Z" style="vector-effect: none; opacity: 1; stroke-width: 0px; fill: rgb(247, 37, 133); fill-opacity: 1;"/></g><g class="point"><path d="M0,240.82V238.96H18.78V240.82Z" style="vector-effect: none; opacity: 1; stroke-width: 0px; fill: rgb(247, 37, 133); fill-opacity: 1;"/></g><g class="point"><path d="M0,236.18V234.32H406.91V236.18Z" style="vector-effect: none; opacity: 1; stroke-width: 0px; fill: rgb(247, 37, 133); fill-opacity: 1;"/></g><g class="point"><path d="M0,231.54V229.68H6.26V231.54Z" style="vector-effect: none; opacity: 1; stroke-width: 0px; fill: rgb(247, 37, 133); fill-opacity: 1;"/></g><g class="point"><path d="M0,226.9V225.04H118.94V226.9Z" style="vector-effect: none; opacity: 1; stroke-width: 0px; fill: rgb(247, 37, 133); fill-opacity: 1;"/></g><g class="point"><path d="M0,222.26V220.4H457V222.26Z" style="vector-effect: none; opacity: 1; stroke-width: 0px; fill: rgb(247, 37, 133); fill-opacity: 1;"/></g><g class="point"><path d="M0,217.62V215.76H81.38V217.62Z" style="vector-effect: none; opacity: 1; stroke-width: 0px; fill: rgb(247, 37, 133); fill-opacity: 1;"/></g><g class="point"><path d="M0,0Z" style="vector-effect: none; opacity: 1; stroke-width: 0px; fill: rgb(247, 37, 133); fill-opacity: 1;"/></g><g class="point"><path d="M0,208.34V206.48H244.15V208.34Z" style="vector-effect: none; opacity: 1; stroke-width: 0px; fill: rgb(247, 37, 133); fill-opacity: 1;"/></g><g class="point"><path d="M0,203.7V201.84H25.04V203.7Z" style="vector-effect: none; opacity: 1; stroke-width: 0px; fill: rgb(247, 37, 133); fill-opacity: 1;"/></g><g class="point"><path d="M0,199.06V197.2H75.12V199.06Z" style="vector-effect: none; opacity: 1; stroke-width: 0px; fill: rgb(247, 37, 133); fill-opacity: 1;"/></g><g class="point"><path d="M0,194.42V192.56H594.72V194.42Z" style="vector-effect: none; opacity: 1; stroke-width: 0px; fill: rgb(247, 37, 133); fill-opacity: 1;"/></g><g class="point"><path d="M0,189.78V187.92H475.78V189.78Z" style="vector-effect: none; opacity: 1; stroke-width: 0px; fill: rgb(247, 37, 133); fill-opacity: 1;"/></g><g class="point"><path d="M0,185.14V183.28H406.91V185.14Z" style="vector-effect: none; opacity: 1; stroke-width: 0px; fill: rgb(247, 37, 133); fill-opacity: 1;"/></g><g class="point"><path d="M0,180.5V178.64H162.77V180.5Z" style="vector-effect: none; opacity: 1; stroke-width: 0px; fill: rgb(247, 37, 133); fill-opacity: 1;"/></g><g class="point"><path d="M0,175.86V174H237.89V175.86Z" style="vector-effect: none; opacity: 1; stroke-width: 0px; fill: rgb(247, 37, 133); fill-opacity: 1;"/></g><g class="point"><path d="M0,171.22V169.36H356.83V171.22Z" style="vector-effect: none; opacity: 1; stroke-width: 0px; fill: rgb(247, 37, 133); fill-opacity: 1;"/></g><g class="point"><path d="M0,166.58V164.72H569.68V166.58Z" style="vector-effect: none; opacity: 1; stroke-width: 0px; fill: rgb(247, 37, 133); fill-opacity: 1;"/></g><g class="point"><path d="M0,161.94V160.08H325.53V161.94Z" style="vector-effect: none; opacity: 1; stroke-width: 0px; fill: rgb(247, 37, 133); fill-opacity: 1;"/></g><g class="point"><path d="M0,157.3V155.44H262.93V157.3Z" style="vector-effect: none; opacity: 1; stroke-width: 0px; fill: rgb(247, 37, 133); fill-opacity: 1;"/></g><g class="point"><path d="M0,152.66V150.8H331.79V152.66Z" style="vector-effect: none; opacity: 1; stroke-width: 0px; fill: rgb(247, 37, 133); fill-opacity: 1;"/></g><g class="point"><path d="M0,148.02V146.16H31.3V148.02Z" style="vector-effect: none; opacity: 1; stroke-width: 0px; fill: rgb(247, 37, 133); fill-opacity: 1;"/></g><g class="point"><path d="M0,143.38V141.52H306.75V143.38Z" style="vector-effect: none; opacity: 1; stroke-width: 0px; fill: rgb(247, 37, 133); fill-opacity: 1;"/></g><g class="point"><path d="M0,138.74V136.88H37.56V138.74Z" style="vector-effect: none; opacity: 1; stroke-width: 0px; fill: rgb(247, 37, 133); fill-opacity: 1;"/></g><g class="point"><path d="M0,134.1V132.24H444.47V134.1Z" style="vector-effect: none; opacity: 1; stroke-width: 0px; fill: rgb(247, 37, 133); fill-opacity: 1;"/></g><g class="point"><path d="M0,129.46V127.6H488.3V129.46Z" style="vector-effect: none; opacity: 1; stroke-width: 0px; fill: rgb(247, 37, 133); fill-opacity: 1;"/></g><g class="point"><path d="M0,124.82V122.96H319.27V124.82Z" style="vector-effect: none; opacity: 1; stroke-width: 0px; fill: rgb(247, 37, 133); fill-opacity: 1;"/></g><g class="point"><path d="M0,120.18V118.32H12.52V120.18Z" style="vector-effect: none; opacity: 1; stroke-width: 0px; fill: rgb(247, 37, 133); fill-opacity: 1;"/></g><g class="point"><path d="M0,115.54V113.68H300.49V115.54Z" style="vector-effect: none; opacity: 1; stroke-width: 0px; fill: rgb(247, 37, 133); fill-opacity: 1;"/></g><g class="point"><path d="M0,110.9V109.04H482.04V110.9Z" style="vector-effect: none; opacity: 1; stroke-width: 0px; fill: rgb(247, 37, 133); fill-opacity: 1;"/></g><g class="point"><path d="M0,106.26V104.4H150.24V106.26Z" style="vector-effect: none; opacity: 1; stroke-width: 0px; fill: rgb(247, 37, 133); fill-opacity: 1;"/></g><g class="point"><path d="M0,101.62V99.76H37.56V101.62Z" style="vector-effect: none; opacity: 1; stroke-width: 0px; fill: rgb(247, 37, 133); fill-opacity: 1;"/></g><g class="point"><path d="M0,96.98V95.12H87.64V96.98Z" style="vector-effect: none; opacity: 1; stroke-width: 0px; fill: rgb(247, 37, 133); fill-opacity: 1;"/></g><g class="point"><path d="M0,92.34V90.48H269.19V92.34Z" style="vector-effect: none; opacity: 1; stroke-width: 0px; fill: rgb(247, 37, 133); fill-opacity: 1;"/></g><g class="point"><path d="M0,87.7V85.84H169.03V87.7Z" style="vector-effect: none; opacity: 1; stroke-width: 0px; fill: rgb(247, 37, 133); fill-opacity: 1;"/></g><g class="point"><path d="M0,83.06V81.2H106.42V83.06Z" style="vector-effect: none; opacity: 1; stroke-width: 0px; fill: rgb(247, 37, 133); fill-opacity: 1;"/></g><g class="point"><path d="M0,78.42V76.56H219.11V78.42Z" style="vector-effect: none; opacity: 1; stroke-width: 0px; fill: rgb(247, 37, 133); fill-opacity: 1;"/></g><g class="point"><path d="M0,73.78V71.92H513.34V73.78Z" style="vector-effect: none; opacity: 1; stroke-width: 0px; fill: rgb(247, 37, 133); fill-opacity: 1;"/></g><g class="point"><path d="M0,69.14V67.28H6.26V69.14Z" style="vector-effect: none; opacity: 1; stroke-width: 0px; fill: rgb(247, 37, 133); fill-opacity: 1;"/></g><g class="point"><path d="M0,64.5V62.64H607.24V64.5Z" style="vector-effect: none; opacity: 1; stroke-width: 0px; fill: rgb(247, 37, 133); fill-opacity: 1;"/></g><g class="point"><path d="M0,59.86V58H87.64V59.86Z" style="vector-effect: none; opacity: 1; stroke-width: 0px; fill: rgb(247, 37, 133); fill-opacity: 1;"/></g><g class="point"><path d="M0,55.22V53.36H112.68V55.22Z" style="vector-effect: none; opacity: 1; stroke-width: 0px; fill: rgb(247, 37, 133); fill-opacity: 1;"/></g><g class="point"><path d="M0,50.58V48.72H75.12V50.58Z" style="vector-effect: none; opacity: 1; stroke-width: 0px; fill: rgb(247, 37, 133); fill-opacity: 1;"/></g><g class="point"><path d="M0,45.94V44.08H400.65V45.94Z" style="vector-effect: none; opacity: 1; stroke-width: 0px; fill: rgb(247, 37, 133); fill-opacity: 1;"/></g><g class="point"><path d="M0,41.3V39.44H388.13V41.3Z" style="vector-effect: none; opacity: 1; stroke-width: 0px; fill: rgb(247, 37, 133); fill-opacity: 1;"/></g><g class="point"><path d="M0,36.66V34.8H87.64V36.66Z" style="vector-effect: none; opacity: 1; stroke-width: 0px; fill: rgb(247, 37, 133); fill-opacity: 1;"/></g><g class="point"><path d="M0,32.02V30.16H206.59V32.02Z" style="vector-effect: none; opacity: 1; stroke-width: 0px; fill: rgb(247, 37, 133); fill-opacity: 1;"/></g><g class="point"><path d="M0,27.38V25.52H156.51V27.38Z" style="vector-effect: none; opacity: 1; stroke-width: 0px; fill: rgb(247, 37, 133); fill-opacity: 1;"/></g><g class="point"><path d="M0,22.74V20.88H100.16V22.74Z" style="vector-effect: none; opacity: 1; stroke-width: 0px; fill: rgb(247, 37, 133); fill-opacity: 1;"/></g><g class="point"><path d="M0,18.1V16.24H338.05V18.1Z" style="vector-effect: none; opacity: 1; stroke-width: 0px; fill: rgb(247, 37, 133); fill-opacity: 1;"/></g><g class="point"><path d="M0,13.46V11.6H563.42V13.46Z" style="vector-effect: none; opacity: 1; stroke-width: 0px; fill: rgb(247, 37, 133); fill-opacity: 1;"/></g><g class="point"><path d="M0,8.82V6.96H162.77V8.82Z" style="vector-effect: none; opacity: 1; stroke-width: 0px; fill: rgb(247, 37, 133); fill-opacity: 1;"/></g><g class="point"><path d="M0,4.18V2.32H400.65V4.18Z" style="vector-effect: none; opacity: 1; stroke-width: 0px; fill: rgb(247, 37, 133); fill-opacity: 1;"/></g></g></g><g class="trace bars" style="opacity: 1;"><g class="points"><g class="point"><path d="M0,461.68V459.82H93.9V461.68Z" style="vector-effect: none; opacity: 1; stroke-width: 0px; fill: rgb(114, 9, 183); fill-opacity: 1;"/></g><g class="point"><path d="M0,457.04V455.18H131.46V457.04Z" style="vector-effect: none; opacity: 1; stroke-width: 0px; fill: rgb(114, 9, 183); fill-opacity: 1;"/></g><g class="point"><path d="M0,452.4V450.54H100.16V452.4Z" style="vector-effect: none; opacity: 1; stroke-width: 0px; fill: rgb(114, 9, 183); fill-opacity: 1;"/></g><g class="point"><path d="M0,447.76V445.9H137.72V447.76Z" style="vector-effect: none; opacity: 1; stroke-width: 0px; fill: rgb(114, 9, 183); fill-opacity: 1;"/></g><g class="point"><path d="M0,443.12V441.26H25.04V443.12Z" style="vector-effect: none; opacity: 1; stroke-width: 0px; fill: rgb(114, 9, 183); fill-opacity: 1;"/></g><g class="point"><path d="M0,438.48V436.62H225.37V438.48Z" style="vector-effect: none; opacity: 1; stroke-width: 0px; fill: rgb(114, 9, 183); fill-opacity: 1;"/></g><g class="point"><path d="M0,433.84V431.98H231.63V433.84Z" style="vector-effect: none; opacity: 1; stroke-width: 0px; fill: rgb(114, 9, 183); fill-opacity: 1;"/></g><g class="point"><path d="M0,429.2V427.34H275.45V429.2Z" style="vector-effect: none; opacity: 1; stroke-width: 0px; fill: rgb(114, 9, 183); fill-opacity: 1;"/></g><g class="point"><path d="M0,424.56V422.7H37.56V424.56Z" style="vector-effect: none; opacity: 1; stroke-width: 0px; fill: rgb(114, 9, 183); fill-opacity: 1;"/></g><g class="point"><path d="M0,419.92V418.06H143.98V419.92Z" style="vector-effect: none; opacity: 1; stroke-width: 0px; fill: rgb(114, 9, 183); fill-opacity: 1;"/></g><g class="point"><path d="M0,415.28V413.42H37.56V415.28Z" style="vector-effect: none; opacity: 1; stroke-width: 0px; fill: rgb(114, 9, 183); fill-opacity: 1;"/></g><g class="point"><path d="M0,410.64V408.78H131.46V410.64Z" style="vector-effect: none; opacity: 1; stroke-width: 0px; fill: rgb(114, 9, 183); fill-opacity: 1;"/></g><g class="point"><path d="M0,406V404.14H25.04V406Z" style="vector-effect: none; opacity: 1; stroke-width: 0px; fill: rgb(114, 9, 183); fill-opacity: 1;"/></g><g class="point"><path d="M0,401.36V399.5H294.23V401.36Z" style="vector-effect: none; opacity: 1; stroke-width: 0px; fill: rgb(114, 9, 183); fill-opacity: 1;"/></g><g class="point"><path d="M0,396.72V394.86H294.23V396.72Z" style="vector-effect: none; opacity: 1; stroke-width: 0px; fill: rgb(114, 9, 183); fill-opacity: 1;"/></g><g class="point"><path d="M0,392.08V390.22H31.3V392.08Z" style="vector-effect: none; opacity: 1; stroke-width: 0px; fill: rgb(114, 9, 183); fill-opacity: 1;"/></g><g class="point"><path d="M0,387.44V385.58H187.81V387.44Z" style="vector-effect: none; opacity: 1; stroke-width: 0px; fill: rgb(114, 9, 183); fill-opacity: 1;"/></g><g class="point"><path d="M0,382.8V380.94H206.59V382.8Z" style="vector-effect: none; opacity: 1; stroke-width: 0px; fill: rgb(114, 9, 183); fill-opacity: 1;"/></g><g class="point"><path d="M0,378.16V376.3H50.08V378.16Z" style="vector-effect: none; opacity: 1; stroke-width: 0px; fill: rgb(114, 9, 183); fill-opacity: 1;"/></g><g class="point"><path d="M0,373.52V371.66H150.24V373.52Z" style="vector-effect: none; opacity: 1; stroke-width: 0px; fill: rgb(114, 9, 183); fill-opacity: 1;"/></g><g class="point"><path d="M0,368.88V367.02H181.55V368.88Z" style="vector-effect: none; opacity: 1; stroke-width: 0px; fill: rgb(114, 9, 183); fill-opacity: 1;"/></g><g class="point"><path d="M0,364.24V362.38H294.23V364.24Z" style="vector-effect: none; opacity: 1; stroke-width: 0px; fill: rgb(114, 9, 183); fill-opacity: 1;"/></g><g class="point"><path d="M0,359.6V357.74H37.56V359.6Z" style="vector-effect: none; opacity: 1; stroke-width: 0px; fill: rgb(114, 9, 183); fill-opacity: 1;"/></g><g class="point"><path d="M0,354.96V353.1H237.89V354.96Z" style="vector-effect: none; opacity: 1; stroke-width: 0px; fill: rgb(114, 9, 183); fill-opacity: 1;"/></g><g class="point"><path d="M0,350.32V348.46H50.08V350.32Z" style="vector-effect: none; opacity: 1; stroke-width: 0px; fill: rgb(114, 9, 183); fill-opacity: 1;"/></g><g class="point"><path d="M0,345.68V343.82H231.63V345.68Z" style="vector-effect: none; opacity: 1; stroke-width: 0px; fill: rgb(114, 9, 183); fill-opacity: 1;"/></g><g class="point"><path d="M0,341.04V339.18H256.67V341.04Z" style="vector-effect: none; opacity: 1; stroke-width: 0px; fill: rgb(114, 9, 183); fill-opacity: 1;"/></g><g class="point"><path d="M0,336.4V334.54H43.82V336.4Z" style="vector-effect: none; opacity: 1; stroke-width: 0px; fill: rgb(114, 9, 183); fill-opacity: 1;"/></g><g class="point"><path d="M0,331.76V329.9H137.72V331.76Z" style="vector-effect: none; opacity: 1; stroke-width: 0px; fill: rgb(114, 9, 183); fill-opacity: 1;"/></g><g class="point"><path d="M0,327.12V325.26H237.89V327.12Z" style="vector-effect: none; opacity: 1; stroke-width: 0px; fill: rgb(114, 9, 183); fill-opacity: 1;"/></g><g class="point"><path d="M0,322.48V320.62H162.77V322.48Z" style="vector-effect: none; opacity: 1; stroke-width: 0px; fill: rgb(114, 9, 183); fill-opacity: 1;"/></g><g class="point"><path d="M0,317.84V315.98H175.29V317.84Z" style="vector-effect: none; opacity: 1; stroke-width: 0px; fill: rgb(114, 9, 183); fill-opacity: 1;"/></g><g class="point"><path d="M0,313.2V311.34H68.86V313.2Z" style="vector-effect: none; opacity: 1; stroke-width: 0px; fill: rgb(114, 9, 183); fill-opacity: 1;"/></g><g class="point"><path d="M0,308.56V306.7H256.67V308.56Z" style="vector-effect: none; opacity: 1; stroke-width: 0px; fill: rgb(114, 9, 183); fill-opacity: 1;"/></g><g class="point"><path d="M0,303.92V302.06H100.16V303.92Z" style="vector-effect: none; opacity: 1; stroke-width: 0px; fill: rgb(114, 9, 183); fill-opacity: 1;"/></g><g class="point"><path d="M0,299.28V297.42H313.01V299.28Z" style="vector-effect: none; opacity: 1; stroke-width: 0px; fill: rgb(114, 9, 183); fill-opacity: 1;"/></g><g class="point"><path d="M0,294.64V292.78H87.64V294.64Z" style="vector-effect: none; opacity: 1; stroke-width: 0px; fill: rgb(114, 9, 183); fill-opacity: 1;"/></g><g class="point"><path d="M0,290V288.14H100.16V290Z" style="vector-effect: none; opacity: 1; stroke-width: 0px; fill: rgb(114, 9, 183); fill-opacity: 1;"/></g><g class="point"><path d="M0,285.36V283.5H231.63V285.36Z" style="vector-effect: none; opacity: 1; stroke-width: 0px; fill: rgb(114, 9, 183); fill-opacity: 1;"/></g><g class="point"><path d="M0,280.72V278.86H313.01V280.72Z" style="vector-effect: none; opacity: 1; stroke-width: 0px; fill: rgb(114, 9, 183); fill-opacity: 1;"/></g><g class="point"><path d="M0,276.08V274.22H43.82V276.08Z" style="vector-effect: none; opacity: 1; stroke-width: 0px; fill: rgb(114, 9, 183); fill-opacity: 1;"/></g><g class="point"><path d="M0,271.44V269.58H162.77V271.44Z" style="vector-effect: none; opacity: 1; stroke-width: 0px; fill: rgb(114, 9, 183); fill-opacity: 1;"/></g><g class="point"><path d="M0,266.8V264.94H125.2V266.8Z" style="vector-effect: none; opacity: 1; stroke-width: 0px; fill: rgb(114, 9, 183); fill-opacity: 1;"/></g><g class="point"><path d="M0,262.16V260.3H131.46V262.16Z" style="vector-effect: none; opacity: 1; stroke-width: 0px; fill: rgb(114, 9, 183); fill-opacity: 1;"/></g><g class="point"><path d="M0,257.52V255.66H200.33V257.52Z" style="vector-effect: none; opacity: 1; stroke-width: 0px; fill: rgb(114, 9, 183); fill-opacity: 1;"/></g><g class="point"><path d="M0,252.88V251.02H156.51V252.88Z" style="vector-effect: none; opacity: 1; stroke-width: 0px; fill: rgb(114, 9, 183); fill-opacity: 1;"/></g><g class="point"><path d="M0,248.24V246.38H287.97V248.24Z" style="vector-effect: none; opacity: 1; stroke-width: 0px; fill: rgb(114, 9, 183); fill-opacity: 1;"/></g><g class="point"><path d="M0,243.6V241.74H262.93V243.6Z" style="vector-effect: none; opacity: 1; stroke-width: 0px; fill: rgb(114, 9, 183); fill-opacity: 1;"/></g><g class="point"><path d="M0,238.96V237.1H6.26V238.96Z" style="vector-effect: none; opacity: 1; stroke-width: 0px; fill: rgb(114, 9, 183); fill-opacity: 1;"/></g><g class="point"><path d="M0,234.32V232.46H6.26V234.32Z" style="vector-effect: none; opacity: 1; stroke-width: 0px; fill: rgb(114, 9, 183); fill-opacity: 1;"/></g><g class="point"><path d="M0,229.68V227.82H237.89V229.68Z" style="vector-effect: none; opacity: 1; stroke-width: 0px; fill: rgb(114, 9, 183); fill-opacity: 1;"/></g><g class="point"><path d="M0,225.04V223.18H43.82V225.04Z" style="vector-effect: none; opacity: 1; stroke-width: 0px; fill: rgb(114, 9, 183); fill-opacity: 1;"/></g><g class="point"><path d="M0,220.4V218.54H287.97V220.4Z" style="vector-effect: none; opacity: 1; stroke-width: 0px; fill: rgb(114, 9, 183); fill-opacity: 1;"/></g><g class="point"><path d="M0,215.76V213.9H100.16V215.76Z" style="vector-effect: none; opacity: 1; stroke-width: 0px; fill: rgb(114, 9, 183); fill-opacity: 1;"/></g><g class="point"><path d="M0,211.12V209.26H81.38V211.12Z" style="vector-effect: none; opacity: 1; stroke-width: 0px; fill: rgb(114, 9, 183); fill-opacity: 1;"/></g><g class="point"><path d="M0,206.48V204.62H143.98V206.48Z" style="vector-effect: none; opacity: 1; stroke-width: 0px; fill: rgb(114, 9, 183); fill-opacity: 1;"/></g><g class="point"><path d="M0,201.84V199.98H6.26V201.84Z" style="vector-effect: none; opacity: 1; stroke-width: 0px; fill: rgb(114, 9, 183); fill-opacity: 1;"/></g><g class="point"><path d="M0,197.2V195.34H181.55V197.2Z" style="vector-effect: none; opacity: 1; stroke-width: 0px; fill: rgb(114, 9, 183); fill-opacity: 1;"/></g><g class="point"><path d="M0,192.56V190.7H62.6V192.56Z" style="vector-effect: none; opacity: 1; stroke-width: 0px; fill: rgb(114, 9, 183); fill-opacity: 1;"/></g><g class="point"><path d="M0,187.92V186.06H75.12V187.92Z" style="vector-effect: none; opacity: 1; stroke-width: 0px; fill: rgb(114, 9, 183); fill-opacity: 1;"/></g><g class="point"><path d="M0,183.28V181.42H143.98V183.28Z" style="vector-effect: none; opacity: 1; stroke-width: 0px; fill: rgb(114, 9, 183); fill-opacity: 1;"/></g><g class="point"><path d="M0,178.64V176.78H68.86V178.64Z" style="vector-effect: none; opacity: 1; stroke-width: 0px; fill: rgb(114, 9, 183); fill-opacity: 1;"/></g><g class="point"><path d="M0,174V172.14H269.19V174Z" style="vector-effect: none; opacity: 1; stroke-width: 0px; fill: rgb(114, 9, 183); fill-opacity: 1;"/></g><g class="point"><path d="M0,169.36V167.5H143.98V169.36Z" style="vector-effect: none; opacity: 1; stroke-width: 0px; fill: rgb(114, 9, 183); fill-opacity: 1;"/></g><g class="point"><path d="M0,164.72V162.86H269.19V164.72Z" style="vector-effect: none; opacity: 1; stroke-width: 0px; fill: rgb(114, 9, 183); fill-opacity: 1;"/></g><g class="point"><path d="M0,160.08V158.22H143.98V160.08Z" style="vector-effect: none; opacity: 1; stroke-width: 0px; fill: rgb(114, 9, 183); fill-opacity: 1;"/></g><g class="point"><path d="M0,155.44V153.58H68.86V155.44Z" style="vector-effect: none; opacity: 1; stroke-width: 0px; fill: rgb(114, 9, 183); fill-opacity: 1;"/></g><g class="point"><path d="M0,150.8V148.94H300.49V150.8Z" style="vector-effect: none; opacity: 1; stroke-width: 0px; fill: rgb(114, 9, 183); fill-opacity: 1;"/></g><g class="point"><path d="M0,146.16V144.3H93.9V146.16Z" style="vector-effect: none; opacity: 1; stroke-width: 0px; fill: rgb(114, 9, 183); fill-opacity: 1;"/></g><g class="point"><path d="M0,141.52V139.66H244.15V141.52Z" style="vector-effect: none; opacity: 1; stroke-width: 0px; fill: rgb(114, 9, 183); fill-opacity: 1;"/></g><g class="point"><path d="M0,136.88V135.02H275.45V136.88Z" style="vector-effect: none; opacity: 1; stroke-width: 0px; fill: rgb(114, 9, 183); fill-opacity: 1;"/></g><g class="point"><path d="M0,132.24V130.38H256.67V132.24Z" style="vector-effect: none; opacity: 1; stroke-width: 0px; fill: rgb(114, 9, 183); fill-opacity: 1;"/></g><g class="point"><path d="M0,127.6V125.74H244.15V127.6Z" style="vector-effect: none; opacity: 1; stroke-width: 0px; fill: rgb(114, 9, 183); fill-opacity: 1;"/></g><g class="point"><path d="M0,122.96V121.1H25.04V122.96Z" style="vector-effect: none; opacity: 1; stroke-width: 0px; fill: rgb(114, 9, 183); fill-opacity: 1;"/></g><g class="point"><path d="M0,118.32V116.46H62.6V118.32Z" style="vector-effect: none; opacity: 1; stroke-width: 0px; fill: rgb(114, 9, 183); fill-opacity: 1;"/></g><g class="point"><path d="M0,113.68V111.82H250.41V113.68Z" style="vector-effect: none; opacity: 1; stroke-width: 0px; fill: rgb(114, 9, 183); fill-opacity: 1;"/></g><g class="point"><path d="M0,109.04V107.18H100.16V109.04Z" style="vector-effect: none; opacity: 1; stroke-width: 0px; fill: rgb(114, 9, 183); fill-opacity: 1;"/></g><g class="point"><path d="M0,104.4V102.54H225.37V104.4Z" style="vector-effect: none; opacity: 1; stroke-width: 0px; fill: rgb(114, 9, 183); fill-opacity: 1;"/></g><g class="point"><path d="M0,99.76V97.9H181.55V99.76Z" style="vector-effect: none; opacity: 1; stroke-width: 0px; fill: rgb(114, 9, 183); fill-opacity: 1;"/></g><g class="point"><path d="M0,95.12V93.26H18.78V95.12Z" style="vector-effect: none; opacity: 1; stroke-width: 0px; fill: rgb(114, 9, 183); fill-opacity: 1;"/></g><g class="point"><path d="M0,90.48V88.62H200.33V90.48Z" style="vector-effect: none; opacity: 1; stroke-width: 0px; fill: rgb(114, 9, 183); fill-opacity: 1;"/></g><g class="point"><path d="M0,85.84V83.98H137.72V85.84Z" style="vector-effect: none; opacity: 1; stroke-width: 0px; fill: rgb(114, 9, 183); fill-opacity: 1;"/></g><g class="point"><path d="M0,81.2V79.34H143.98V81.2Z" style="vector-effect: none; opacity: 1; stroke-width: 0px; fill: rgb(114, 9, 183); fill-opacity: 1;"/></g><g class="point"><path d="M0,76.56V74.7H237.89V76.56Z" style="vector-effect: none; opacity: 1; stroke-width: 0px; fill: rgb(114, 9, 183); fill-opacity: 1;"/></g><g class="point"><path d="M0,71.92V70.06H137.72V71.92Z" style="vector-effect: none; opacity: 1; stroke-width: 0px; fill: rgb(114, 9, 183); fill-opacity: 1;"/></g><g class="point"><path d="M0,67.28V65.42H118.94V67.28Z" style="vector-effect: none; opacity: 1; stroke-width: 0px; fill: rgb(114, 9, 183); fill-opacity: 1;"/></g><g class="point"><path d="M0,62.64V60.78H237.89V62.64Z" style="vector-effect: none; opacity: 1; stroke-width: 0px; fill: rgb(114, 9, 183); fill-opacity: 1;"/></g><g class="point"><path d="M0,58V56.14H275.45V58Z" style="vector-effect: none; opacity: 1; stroke-width: 0px; fill: rgb(114, 9, 183); fill-opacity: 1;"/></g><g class="point"><path d="M0,53.36V51.5H281.71V53.36Z" style="vector-effect: none; opacity: 1; stroke-width: 0px; fill: rgb(114, 9, 183); fill-opacity: 1;"/></g><g class="point"><path d="M0,48.72V46.86H6.26V48.72Z" style="vector-effect: none; opacity: 1; stroke-width: 0px; fill: rgb(114, 9, 183); fill-opacity: 1;"/></g><g class="point"><path d="M0,44.08V42.22H194.07V44.08Z" style="vector-effect: none; opacity: 1; stroke-width: 0px; fill: rgb(114, 9, 183); fill-opacity: 1;"/></g><g class="point"><path d="M0,39.44V37.58H18.78V39.44Z" style="vector-effect: none; opacity: 1; stroke-width: 0px; fill: rgb(114, 9, 183); fill-opacity: 1;"/></g><g class="point"><path d="M0,34.8V32.94H56.34V34.8Z" style="vector-effect: none; opacity: 1; stroke-width: 0px; fill: rgb(114, 9, 183); fill-opacity: 1;"/></g><g class="point"><path d="M0,30.16V28.3H62.6V30.16Z" style="vector-effect: none; opacity: 1; stroke-width: 0px; fill: rgb(114, 9, 183); fill-opacity: 1;"/></g><g class="point"><path d="M0,25.52V23.66H100.16V25.52Z" style="vector-effect: none; opacity: 1; stroke-width: 0px; fill: rgb(114, 9, 183); fill-opacity: 1;"/></g><g class="point"><path d="M0,20.88V19.02H106.42V20.88Z" style="vector-effect: none; opacity: 1; stroke-width: 0px; fill: rgb(114, 9, 183); fill-opacity: 1;"/></g><g class="point"><path d="M0,16.24V14.38H219.11V16.24Z" style="vector-effect: none; opacity: 1; stroke-width: 0px; fill: rgb(114, 9, 183); fill-opacity: 1;"/></g><g class="point"><path d="M0,11.6V9.74H143.98V11.6Z" style="vector-effect: none; opacity: 1; stroke-width: 0px; fill: rgb(114, 9, 183); fill-opacity: 1;"/></g><g class="point"><path d="M0,6.96V5.1H237.89V6.96Z" style="vector-effect: none; opacity: 1; stroke-width: 0px; fill: rgb(114, 9, 183); fill-opacity: 1;"/></g><g class="point"><path d="M0,2.32V0.46H250.41V2.32Z" style="vector-effect: none; opacity: 1; stroke-width: 0px; fill: rgb(114, 9, 183); fill-opacity: 1;"/></g></g></g></g></g><g class="xy2" transform="translate(10,26)" clip-path="url(#clip4367e4xy2plot)"><g class="scatterlayer mlayer"><g class="trace scatter trace01a0fc" style="stroke-miterlimit: 2; opacity: 1;"><g class="fills"/><g class="errorbars"/><g class="lines"><path class="js-line" d="M187.81,440.8L6.26,436.58L87.64,432.36L237.89,428.15L313.01,423.93L262.93,419.71L187.81,415.49L187.81,411.27L6.26,407.05L75.12,402.84L169.03,398.62L75.12,394.4L37.56,390.18L37.56,385.96L237.89,381.75L262.93,377.53L156.51,373.31L169.03,369.09L262.93,364.87L244.15,360.65L62.6,356.44L281.71,352.22L219.11,348L269.19,343.78L112.68,339.56L175.29,335.35L169.03,331.13L68.86,326.91L0,322.69L50.08,318.47L231.63,314.25L0,310.04L31.3,305.82L43.82,301.6L281.71,297.38L93.9,293.16L81.38,288.95L287.97,284.73L212.85,280.51L56.34,276.29L237.89,272.07L137.72,267.85L106.42,263.64L313.01,259.42L187.81,255.2L275.45,250.98L275.45,246.76L187.81,242.55L18.78,238.33L18.78,234.11L12.52,229.89L306.75,225.67L6.26,221.45L12.52,217.24L237.89,213.02L56.34,208.8L231.63,204.58L137.72,200.36L0,196.15L143.98,191.93L231.63,187.71L50.08,183.49L231.63,179.27L281.71,175.05L56.34,170.84L12.52,166.62L300.49,162.4L68.86,158.18L93.9,153.96L162.77,149.75L6.26,145.53L287.97,141.31L275.45,137.09L275.45,132.87L18.78,128.65L237.89,124.44L262.93,120.22L237.89,116L118.94,111.78L56.34,107.56L200.33,103.35L75.12,99.13L175.29,94.91L306.75,90.69L43.82,86.47L18.78,82.25L125.2,78.04L118.94,73.82L225.37,69.6L287.97,65.38L287.97,61.16L43.82,56.95L12.52,52.73L12.52,48.51L237.89,44.29L219.11,40.07L0,35.85L262.93,31.64L306.75,27.42L313.01,23.2" style="vector-effect: none; fill: none; stroke: rgb(58, 12, 163); stroke-opacity: 1; stroke-width: 2px; opacity: 1;"/></g><g class="points"/><g class="text"/></g></g></g></g><path class="xlines-above crisp" d="M0,0" style="fill: none;"/><path class="ylines-above crisp" d="M0,0" style="fill: none;"/><g class="overlines-above"><path class="xy2-x crisp" d="M0,0" style="fill: none;"/><path class="xy2-y crisp" d="M0,0" style="fill: none;"/></g><g class="xaxislayer-above"/><g class="yaxislayer-above"/><g class="overaxes-above"><g class="xy2-x"/><g class="xy2-y"/></g></g><g class="subplot xy2"/></g><g class="polarlayer"/><g class="smithlayer"/><g class="ternarylayer"/><g class="geolayer"/><g class="funnelarealayer"/><g class="pielayer"/><g class="iciclelayer"/><g class="treemaplayer"/><g class="sunburstlayer"/><g class="glimages"/><defs id="topdefs-4367e4"><g class="clips"/></defs><g class="layer-above"><g class="imagelayer"/><g class="shapelayer"/></g><g class="infolayer"><g class="g-gtitle"/></g></svg>