<svg class="main-svg" xmlns="http://www.w3.org/2000/svg" xmlns:xlink="http://www.w3.org/1999/xlink" width="700" height="500" style="" viewBox="0 0 700 500"><rect x="0" y="0" width="700" height="500" style="fill: rgb(255, 255, 255); fill-opacity: 1;"/><defs id="defs-1fa8c2"><g class="clips"><clipPath id="clip1fa8c2xyplot" class="plotclip"><rect width="639.1999999999999" height="464"/></clipPath><clipPath id="clip1fa8c2xy2plot" class="plotclip"><rect width="639.1999999999999" height="464"/></clipPath><clipPath class="axesclip" id="clip1fa8c2x"><rect x="10" y="0" width="639.1999999999999" height="500"/></clipPath><clipPath class="axesclip" id="clip1fa8c2y"><rect x="0" y="26" width="700" height="464"/></clipPath><clipPath class="axesclip" id="clip1fa8c2xy"><rect x="10" y="26" width="639.1999999999999" height="464"/></clipPath><clipPath class="axesclip" id="clip1fa8c2y2"><rect x="0" y="26" width="700" height="464"/></clipPath><clipPath class="axesclip" id="clip1fa8c2xy2"><rect x="10" y="26" width="639.1999999999999" height="464"/></clipPath></g><g class="gradients"/><g class="patterns"/></defs><g class="bglayer"/><g class="layer-below"><g class="imagelayer"/><g class="shapelayer"/></g><g class="cartesianlayer"><g class="subplot xy"><g class="layer-subplot"><g class="shapelayer"/><g class="imagelayer"/></g><g class="minor-gridlayer"><g class="x"/><g class="y"/><g class="y2"/></g><g class="gridlayer"><g class="x"/><g class="y"/><g class="y2"/></g><g class="zerolinelayer"/><g class="layer-between"><g class="shapelayer"/><g class="imagelayer"/></g><path class="xlines-below"/><path class="ylines-below"/><g class="overlines-below"><path class="xy2-x"/><path class="xy2-y"/></g><g class="xaxislayer-below"/><g class="yaxislayer-below"/><g class="overaxes-below"><g class="xy2-x"/><g class="xy2-y"/></g><g class="overplot"><g class="xy" transform="translate(10,26)" clip-path="url(#clip1fa8c2xyplot)"><g class="barlayer mlayer"><g class="trace bars" style="opacity: 1;"><g class="points"><g class="point"><path d="M0,463.54V461.68H449.36V463.54Z" style="vector-effect: none; opacity: 1; stroke-width: 0px; fill: rgb(247, 37, 133); fill-opacity: 1;"/></g><g class="point"><path d="M0,458.9V457.04H42.51V458.9Z" style="vector-effect: none; opacity: 1; stroke-width: 0px; fill: rgb(247, 37, 133); fill-opacity: 1;"/></g><g class="point"><path d="M0,454.26V452.4H72.87V454.26Z" style="vector-effect: none; opacity: 1; stroke-width: 0px; fill: rgb(247, 37, 133); fill-opacity: 1;"/></g><g class="point"><path d="M0,449.62V447.76H570.81V449.62Z" style="vector-effect: none; opacity: 1; stroke-width: 0px; fill: rgb(247, 37, 133); fill-opacity: 1;"/></g><g class="point"><path d="M0,444.98V443.12H273.26V444.98Z" style="vector-effect: none; opacity: 1; stroke-width: 0px; fill: rgb(247, 37, 133); fill-opacity: 1;"/></g><g class="point"><path d="M0,440.34V438.48H534.37V440.34Z" style="vector-effect: none; opacity: 1; stroke-width: 0px; fill: rgb(247, 37, 133); fill-opacity: 1;"/></g><g class="point"><path d="M0,435.7V433.84H133.59V435.7Z" style="vector-effect: none; opacity: 1; stroke-width: 0px; fill: rgb(247, 37, 133); fill-opacity: 1;"/></g><g class="point"><path d="M0,431.06V429.2H576.88V431.06Z" style="vector-effect: none; opacity: 1; stroke-width: 0px; fill: rgb(247, 37, 133); fill-opacity: 1;"/></g><g class="point"><path d="M0,426.42V424.56H267.19V426.42Z" style="vector-effect: none; opacity: 1; stroke-width: 0px; fill: rgb(247, 37, 133); fill-opacity: 1;"/></g><g class="point"><path d="M0,421.78V419.92H176.1V421.78Z" style="vector-effect: none; opacity: 1; stroke-width: 0px; fill: rgb(247, 37, 133); fill-opacity: 1;"/></g><g class="point"><path d="M0,417.14V415.28H388.63V417.14Z" style="vector-effect: none; opacity: 1; stroke-width: 0px; fill: rgb(247, 37, 133); fill-opacity: 1;"/></g><g class="point"><path d="M0,412.5V410.64H419V412.5Z" style="vector-effect: none; opacity: 1; stroke-width: 0px; fill: rgb(247, 37, 133); fill-opacity: 1;"/></g><g class="point"><path d="M0,407.86V406H66.8V407.86Z" style="vector-effect: none; opacity: 1; stroke-width: 0px; fill: rgb(247, 37, 133); fill-opacity: 1;"/></g><g class="point"><path d="M0,403.22V401.36H522.23V403.22Z" style="vector-effect: none; opacity: 1; stroke-width: 0px; fill: rgb(247, 37, 133); fill-opacity: 1;"/></g><g class="point"><path d="M0,398.58V396.72H54.65V398.58Z" style="vector-effect: none; opacity: 1; stroke-width: 0px; fill: rgb(247, 37, 133); fill-opacity: 1;"/></g><g class="point"><path d="M0,393.94V392.08H382.56V393.94Z" style="vector-effect: none; opacity: 1; stroke-width: 0px; fill: rgb(247, 37, 133); fill-opacity: 1;"/></g><g class="point"><path d="M0,389.3V387.44H109.3V389.3Z" style="vector-effect: none; opacity: 1; stroke-width: 0px; fill: rgb(247, 37, 133); fill-opacity: 1;"/></g><g class="point"><path d="M0,384.66V382.8H127.52V384.66Z" style="vector-effect: none; opacity: 1; stroke-width: 0px; fill: rgb(247, 37, 133); fill-opacity: 1;"/></g><g class="point"><path d="M0,380.02V378.16H376.49V380.02Z" style="vector-effect: none; opacity: 1; stroke-width: 0px; fill: rgb(247, 37, 133); fill-opacity: 1;"/></g><g class="point"><path d="M0,375.38V373.52H242.9V375.38Z" style="vector-effect: none; opacity: 1; stroke-width: 0px; fill: rgb(247, 37, 133); fill-opacity: 1;"/></g><g class="point"><path d="M0,370.74V368.88H85.01V370.74Z" style="vector-effect: none; opacity: 1; stroke-width: 0px; fill: rgb(247, 37, 133); fill-opacity: 1;"/></g><g class="point"><path d="M0,366.1V364.24H151.81V366.1Z" style="vector-effect: none; opacity: 1; stroke-width: 0px; fill: rgb(247, 37, 133); fill-opacity: 1;"/></g><g class="point"><path d="M0,361.46V359.6H48.58V361.46Z" style="vector-effect: none; opacity: 1; stroke-width: 0px; fill: rgb(247, 37, 133); fill-opacity: 1;"/></g><g class="point"><path d="M0,356.82V354.96H437.21V356.82Z" style="vector-effect: none; opacity: 1; stroke-width: 0px; fill: rgb(247, 37, 133); fill-opacity: 1;"/></g><g class="point"><path d="M0,352.18V350.32H522.23V352.18Z" style="vector-effect: none; opacity: 1; stroke-width: 0px; fill: rgb(247, 37, 133); fill-opacity: 1;"/></g><g class="point"><path d="M0,347.54V345.68H176.1V347.54Z" style="vector-effect: none; opacity: 1; stroke-width: 0px; fill: rgb(247, 37, 133); fill-opacity: 1;"/></g><g class="point"><path d="M0,342.9V341.04H72.87V342.9Z" style="vector-effect: none; opacity: 1; stroke-width: 0px; fill: rgb(247, 37, 133); fill-opacity: 1;"/></g><g class="point"><path d="M0,338.26V336.4H412.92V338.26Z" style="vector-effect: none; opacity: 1; stroke-width: 0px; fill: rgb(247, 37, 133); fill-opacity: 1;"/></g><g class="point"><path d="M0,333.62V331.76H97.16V333.62Z" style="vector-effect: none; opacity: 1; stroke-width: 0px; fill: rgb(247, 37, 133); fill-opacity: 1;"/></g><g class="point"><path d="M0,328.98V327.12H315.76V328.98Z" style="vector-effect: none; opacity: 1; stroke-width: 0px; fill: rgb(247, 37, 133); fill-opacity: 1;"/></g><g class="point"><path d="M0,324.34V322.48H327.91V324.34Z" style="vector-effect: none; opacity: 1; stroke-width: 0px; fill: rgb(247, 37, 133); fill-opacity: 1;"/></g><g class="point"><path d="M0,319.7V317.84H522.23V319.7Z" style="vector-effect: none; opacity: 1; stroke-width: 0px; fill: rgb(247, 37, 133); fill-opacity: 1;"/></g><g class="point"><path d="M0,315.06V313.2H297.55V315.06Z" style="vector-effect: none; opacity: 1; stroke-width: 0px; fill: rgb(247, 37, 133); fill-opacity: 1;"/></g><g class="point"><path d="M0,310.42V308.56H176.1V310.42Z" style="vector-effect: none; opacity: 1; stroke-width: 0px; fill: rgb(247, 37, 133); fill-opacity: 1;"/></g><g class="point"><path d="M0,305.78V303.92H273.26V305.78Z" style="vector-effect: none; opacity: 1; stroke-width: 0px; fill: rgb(247, 37, 133); fill-opacity: 1;"/></g><g class="point"><path d="M0,301.14V299.28H333.98V301.14Z" style="vector-effect: none; opacity: 1; stroke-width: 0px; fill: rgb(247, 37, 133); fill-opacity: 1;"/></g><g class="point"><path d="M0,296.5V294.64H163.95V296.5Z" style="vector-effect: none; opacity: 1; stroke-width: 0px; fill: rgb(247, 37, 133); fill-opacity: 1;"/></g><g class="point"><path d="M0,291.86V290H595.1V291.86Z" style="vector-effect: none; opacity: 1; stroke-width: 0px; fill: rgb(247, 37, 133); fill-opacity: 1;"/></g><g class="point"><path d="M0,287.22V285.36H224.68V287.22Z" style="vector-effect: none; opacity: 1; stroke-width: 0px; fill: rgb(247, 37, 133); fill-opacity: 1;"/></g><g class="point"><path d="M0,282.58V280.72H48.58V282.58Z" style="vector-effect: none; opacity: 1; stroke-width: 0px; fill: rgb(247, 37, 133); fill-opacity: 1;"/></g><g class="point"><path d="M0,277.94V276.08H607.24V277.94Z" style="vector-effect: none; opacity: 1; stroke-width: 0px; fill: rgb(247, 37, 133); fill-opacity: 1;"/></g><g class="point"><path d="M0,273.3V271.44H163.95V273.3Z" style="vector-effect: none; opacity: 1; stroke-width: 0px; fill: rgb(247, 37, 133); fill-opacity: 1;"/></g><g class="point"><path d="M0,268.66V266.8H437.21V268.66Z" style="vector-effect: none; opacity: 1; stroke-width: 0px; fill: rgb(247, 37, 133); fill-opacity: 1;"/></g><g class="point"><path d="M0,264.02V262.16H182.17V264.02Z" style="vector-effect: none; opacity: 1; stroke-width: 0px; fill: rgb(247, 37, 133); fill-opacity: 1;"/></g><g class="point"><path d="M0,259.38V257.52H388.63V259.38Z" style="vector-effect: none; opacity: 1; stroke-width: 0px; fill: rgb(247, 37, 133); fill-opacity: 1;"/></g><g class="point"><path d="M0,254.74V252.88H242.9V254.74Z" style="vector-effect: none; opacity: 1; stroke-width: 0px; fill: rgb(247, 37, 133); fill-opacity: 1;"/></g><g class="point"><path d="M0,250.1V248.24H497.94V250.1Z" style="vector-effect: none; opacity: 1; stroke-width: 0px; fill: rgb(247, 37, 133); fill-opacity: 1;"/></g><g class="point"><path d="M0,245.46V243.6H273.26V245.46Z" style="vector-effect: none; opacity: 1; stroke-width: 0px; fill: rgb(247, 37, 133); fill-opacity: 1;"/></g><g class="point"><path d="M0,240.82V238.96H303.62V240.82Z" style="vector-effect: none; opacity: 1; stroke-width: 0px; fill: rgb(247, 37, 133); fill-opacity: 1;"/></g><g class="point"><path d="M0,236.18V234.32H485.79V236.18Z" style="vector-effect: none; opacity: 1; stroke-width: 0px; fill: rgb(247, 37, 133); fill-opacity: 1;"/></g><g class="point"><path d="M0,231.54V229.68H382.56V231.54Z" style="vector-effect: none; opacity: 1; stroke-width: 0px; fill: rgb(247, 37, 133); fill-opacity: 1;"/></g><g class="point"><path d="M0,226.9V225.04H425.07V226.9Z" style="vector-effect: none; opacity: 1; stroke-width: 0px; fill: rgb(247, 37, 133); fill-opacity: 1;"/></g><g class="point"><path d="M0,222.26V220.4H461.5V222.26Z" style="vector-effect: none; opacity: 1; stroke-width: 0px; fill: rgb(247, 37, 133); fill-opacity: 1;"/></g><g class="point"><path d="M0,217.62V215.76H36.43V217.62Z" style="vector-effect: none; opacity: 1; stroke-width: 0px; fill: rgb(247, 37, 133); fill-opacity: 1;"/></g><g class="point"><path d="M0,212.98V211.12H485.79V212.98Z" style="vector-effect: none; opacity: 1; stroke-width: 0px; fill: rgb(247, 37, 133); fill-opacity: 1;"/></g><g class="point"><path d="M0,208.34V206.48H364.34V208.34Z" style="vector-effect: none; opacity: 1; stroke-width: 0px; fill: rgb(247, 37, 133); fill-opacity: 1;"/></g><g class="point"><path d="M0,203.7V201.84H54.65V203.7Z" style="vector-effect: none; opacity: 1; stroke-width: 0px; fill: rgb(247, 37, 133); fill-opacity: 1;"/></g><g class="point"><path d="M0,199.06V197.2H85.01V199.06Z" style="vector-effect: none; opacity: 1; stroke-width: 0px; fill: rgb(247, 37, 133); fill-opacity: 1;"/></g><g class="point"><path d="M0,194.42V192.56H376.49V194.42Z" style="vector-effect: none; opacity: 1; stroke-width: 0px; fill: rgb(247, 37, 133); fill-opacity: 1;"/></g><g class="point"><path d="M0,189.78V187.92H200.39V189.78Z" style="vector-effect: none; opacity: 1; stroke-width: 0px; fill: rgb(247, 37, 133); fill-opacity: 1;"/></g><g class="point"><path d="M0,185.14V183.28H72.87V185.14Z" style="vector-effect: none; opacity: 1; stroke-width: 0px; fill: rgb(247, 37, 133); fill-opacity: 1;"/></g><g class="point"><path d="M0,180.5V178.64H437.21V180.5Z" style="vector-effect: none; opacity: 1; stroke-width: 0px; fill: rgb(247, 37, 133); fill-opacity: 1;"/></g><g class="point"><path d="M0,175.86V174H516.15V175.86Z" style="vector-effect: none; opacity: 1; stroke-width: 0px; fill: rgb(247, 37, 133); fill-opacity: 1;"/></g><g class="point"><path d="M0,171.22V169.36H12.14V171.22Z" style="vector-effect: none; opacity: 1; stroke-width: 0px; fill: rgb(247, 37, 133); fill-opacity: 1;"/></g><g class="point"><path d="M0,166.58V164.72H327.91V166.58Z" style="vector-effect: none; opacity: 1; stroke-width: 0px; fill: rgb(247, 37, 133); fill-opacity: 1;"/></g><g class="point"><path d="M0,161.94V160.08H394.71V161.94Z" style="vector-effect: none; opacity: 1; stroke-width: 0px; fill: rgb(247, 37, 133); fill-opacity: 1;"/></g><g class="point"><path d="M0,157.3V155.44H461.5V157.3Z" style="vector-effect: none; opacity: 1; stroke-width: 0px; fill: rgb(247, 37, 133); fill-opacity: 1;"/></g><g class="point"><path d="M0,152.66V150.8H273.26V152.66Z" style="vector-effect: none; opacity: 1; stroke-width: 0px; fill: rgb(247, 37, 133); fill-opacity: 1;"/></g><g class="point"><path d="M0,148.02V146.16H109.3V148.02Z" style="vector-effect: none; opacity: 1; stroke-width: 0px; fill: rgb(247, 37, 133); fill-opacity: 1;"/></g><g class="point"><path d="M0,143.38V141.52H546.52V143.38Z" style="vector-effect: none; opacity: 1; stroke-width: 0px; fill: rgb(247, 37, 133); fill-opacity: 1;"/></g><g class="point"><path d="M0,138.74V136.88H139.67V138.74Z" style="vector-effect: none; opacity: 1; stroke-width: 0px; fill: rgb(247, 37, 133); fill-opacity: 1;"/></g><g class="point"><path d="M0,134.1V132.24H412.92V134.1Z" style="vector-effect: none; opacity: 1; stroke-width: 0px; fill: rgb(247, 37, 133); fill-opacity: 1;"/></g><g class="point"><path d="M0,129.46V127.6H255.04V129.46Z" style="vector-effect: none; opacity: 1; stroke-width: 0px; fill: rgb(247, 37, 133); fill-opacity: 1;"/></g><g class="point"><path d="M0,124.82V122.96H364.34V124.82Z" style="vector-effect: none; opacity: 1; stroke-width: 0px; fill: rgb(247, 37, 133); fill-opacity: 1;"/></g><g class="point"><path d="M0,120.18V118.32H218.61V120.18Z" style="vector-effect: none; opacity: 1; stroke-width: 0px; fill: rgb(247, 37, 133); fill-opacity: 1;"/></g><g class="point"><path d="M0,115.54V113.68H582.95V115.54Z" style="vector-effect: none; opacity: 1; stroke-width: 0px; fill: rgb(247, 37, 133); fill-opacity: 1;"/></g><g class="point"><path d="M0,110.9V109.04H443.29V110.9Z" style="vector-effect: none; opacity: 1; stroke-width: 0px; fill: rgb(247, 37, 133); fill-opacity: 1;"/></g><g class="point"><path d="M0,106.26V104.4H297.55V106.26Z" style="vector-effect: none; opacity: 1; stroke-width: 0px; fill: rgb(247, 37, 133); fill-opacity: 1;"/></g><g class="point"><path d="M0,101.62V99.76H576.88V101.62Z" style="vector-effect: none; opacity: 1; stroke-width: 0px; fill: rgb(247, 37, 133); fill-opacity: 1;"/></g><g class="point"><path d="M0,96.98V95.12H267.19V96.98Z" style="vector-effect: none; opacity: 1; stroke-width: 0px; fill: rgb(247, 37, 133); fill-opacity: 1;"/></g><g class="point"><path d="M0,92.34V90.48H109.3V92.34Z" style="vector-effect: none; opacity: 1; stroke-width: 0px; fill: rgb(247, 37, 133); fill-opacity: 1;"/></g><g class="point"><path d="M0,87.7V85.84H48.58V87.7Z" style="vector-effect: none; opacity: 1; stroke-width: 0px; fill: rgb(247, 37, 133); fill-opacity: 1;"/></g><g class="point"><path d="M0,83.06V81.2H18.22V83.06Z" style="vector-effect: none; opacity: 1; stroke-width: 0px; fill: rgb(247, 37, 133); fill-opacity: 1;"/></g><g class="point"><path d="M0,78.42V76.56H449.36V78.42Z" style="vector-effect: none; opacity: 1; stroke-width: 0px; fill: rgb(247, 37, 133); fill-opacity: 1;"/></g><g class="point"><path d="M0,73.78V71.92H194.32V73.78Z" style="vector-effect: none; opacity: 1; stroke-width: 0px; fill: rgb(247, 37, 133); fill-opacity: 1;"/></g><g class="point"><path d="M0,69.14V67.28H273.26V69.14Z" style="vector-effect: none; opacity: 1; stroke-width: 0px; fill: rgb(247, 37, 133); fill-opacity: 1;"/></g><g class="point"><path d="M0,64.5V62.64H406.85V64.5Z" style="vector-effect: none; opacity: 1; stroke-width: 0px; fill: rgb(247, 37, 133); fill-opacity: 1;"/></g><g class="point"><path d="M0,59.86V58H121.45V59.86Z" style="vector-effect: none; opacity: 1; stroke-width: 0px; fill: rgb(247, 37, 133); fill-opacity: 1;"/></g><g class="point"><path d="M0,55.22V53.36H461.5V55.22Z" style="vector-effect: none; opacity: 1; stroke-width: 0px; fill: rgb(247, 37, 133); fill-opacity: 1;"/></g><g class="point"><path d="M0,50.58V48.72H358.27V50.58Z" style="vector-effect: none; opacity: 1; stroke-width: 0px; fill: rgb(247, 37, 133); fill-opacity: 1;"/></g><g class="point"><path d="M0,45.94V44.08H133.59V45.94Z" style="vector-effect: none; opacity: 1; stroke-width: 0px; fill: rgb(247, 37, 133); fill-opacity: 1;"/></g><g class="point"><path d="M0,41.3V39.44H346.13V41.3Z" style="vector-effect: none; opacity: 1; stroke-width: 0px; fill: rgb(247, 37, 133); fill-opacity: 1;"/></g><g class="point"><path d="M0,36.66V34.8H552.59V36.66Z" style="vector-effect: none; opacity: 1; stroke-width: 0px; fill: rgb(247, 37, 133); fill-opacity: 1;"/></g><g class="point"><path d="M0,32.02V30.16H72.87V32.02Z" style="vector-effect: none; opacity: 1; stroke-width: 0px; fill: rgb(247, 37, 133); fill-opacity: 1;"/></g><g class="point"><path d="M0,27.38V25.52H479.72V27.38Z" style="vector-effect: none; opacity: 1; stroke-width: 0px; fill: rgb(247, 37, 133); fill-opacity: 1;"/></g><g class="point"><path d="M0,22.74V20.88H370.42V22.74Z" style="vector-effect: none; opacity: 1; stroke-width: 0px; fill: rgb(247, 37, 133); fill-opacity: 1;"/></g><g class="point"><path d="M0,18.1V16.24H18.22V18.1Z" style="vector-effect: none; opacity: 1; stroke-width: 0px; fill: rgb(247, 37, 133); fill-opacity: 1;"/></g><g class="point"><path d="M0,13.46V11.6H66.8V13.46Z" style="vector-effect: none; opacity: 1; stroke-width: 0px; fill: rgb(247, 37, 133); fill-opacity: 1;"/></g><g class="point"><path d="M0,8.82V6.96H48.58V8.82Z" style="vector-effect: none; opacity: 1; stroke-width: 0px; fill: rgb(247, 37, 133); fill-opacity: 1;"/></g><g class="point"><path d="M0,4.18V2.32H291.48V4.18Z" style="vector-effect: none; opacity: 1; stroke-width: 0px; fill: rgb(247, 37, 133); fill-opacity: 1;"/></g></g></g><g class="trace bars" style="opacity: 1;"><g class="points"><g class="point"><path d="M0,461.68V459.82H182.17V461.68Z" style="vector-effect: none; opacity: 1; stroke-width: 0px; fill: rgb(114, 9, 183); fill-opacity: 1;"/></g><g class="point"><path d="M0,457.04V455.18H194.32V457.04Z" style="vector-effect: none; opacity: 1; stroke-width: 0px; fill: rgb(114, 9, 183); fill-opacity: 1;"/></g><g class="point"><path d="M0,452.4V450.54H54.65V452.4Z" style="vector-effect: none; opacity: 1; stroke-width: 0px; fill: rgb(114, 9, 183); fill-opacity: 1;"/></g><g class="point"><path d="M0,447.76V445.9H206.46V447.76Z" style="vector-effect: none; opacity: 1; stroke-width: 0px; fill: rgb(114, 9, 183); fill-opacity: 1;"/></g><g class="point"><path d="M0,443.12V441.26H145.74V443.12Z" style="vector-effect: none; opacity: 1; stroke-width: 0px; fill: rgb(114, 9, 183); fill-opacity: 1;"/></g><g class="point"><path d="M0,438.48V436.62H242.9V438.48Z" style="vector-effect: none; opacity: 1; stroke-width: 0px; fill: rgb(114, 9, 183); fill-opacity: 1;"/></g><g class="point"><path d="M0,433.84V431.98H206.46V433.84Z" style="vector-effect: none; opacity: 1; stroke-width: 0px; fill: rgb(114, 9, 183); fill-opacity: 1;"/></g><g class="point"><path d="M0,429.2V427.34H115.38V429.2Z" style="vector-effect: none; opacity: 1; stroke-width: 0px; fill: rgb(114, 9, 183); fill-opacity: 1;"/></g><g class="point"><path d="M0,424.56V422.7H12.14V424.56Z" style="vector-effect: none; opacity: 1; stroke-width: 0px; fill: rgb(114, 9, 183); fill-opacity: 1;"/></g><g class="point"><path d="M0,419.92V418.06H182.17V419.92Z" style="vector-effect: none; opacity: 1; stroke-width: 0px; fill: rgb(114, 9, 183); fill-opacity: 1;"/></g><g class="point"><path d="M0,415.28V413.42H66.8V415.28Z" style="vector-effect: none; opacity: 1; stroke-width: 0px; fill: rgb(114, 9, 183); fill-opacity: 1;"/></g><g class="point"><path d="M0,410.64V408.78H139.67V410.64Z" style="vector-effect: none; opacity: 1; stroke-width: 0px; fill: rgb(114, 9, 183); fill-opacity: 1;"/></g><g class="point"><path d="M0,406V404.14H182.17V406Z" style="vector-effect: none; opacity: 1; stroke-width: 0px; fill: rgb(114, 9, 183); fill-opacity: 1;"/></g><g class="point"><path d="M0,401.36V399.5H85.01V401.36Z" style="vector-effect: none; opacity: 1; stroke-width: 0px; fill: rgb(114, 9, 183); fill-opacity: 1;"/></g><g class="point"><path d="M0,396.72V394.86H279.33V396.72Z" style="vector-effect: none; opacity: 1; stroke-width: 0px; fill: rgb(114, 9, 183); fill-opacity: 1;"/></g><g class="point"><path d="M0,392.08V390.22H297.55V392.08Z" style="vector-effect: none; opacity: 1; stroke-width: 0px; fill: rgb(114, 9, 183); fill-opacity: 1;"/></g><g class="point"><path d="M0,387.44V385.58H200.39V387.44Z" style="vector-effect: none; opacity: 1; stroke-width: 0px; fill: rgb(114, 9, 183); fill-opacity: 1;"/></g><g class="point"><path d="M0,382.8V380.94H157.88V382.8Z" style="vector-effect: none; opacity: 1; stroke-width: 0px; fill: rgb(114, 9, 183); fill-opacity: 1;"/></g><g class="point"><path d="M0,378.16V376.3H30.36V378.16Z" style="vector-effect: none; opacity: 1; stroke-width: 0px; fill: rgb(114, 9, 183); fill-opacity: 1;"/></g><g class="point"><path d="M0,373.52V371.66H30.36V373.52Z" style="vector-effect: none; opacity: 1; stroke-width: 0px; fill: rgb(114, 9, 183); fill-opacity: 1;"/></g><g class="point"><path d="M0,368.88V367.02H230.75V368.88Z" style="vector-effect: none; opacity: 1; stroke-width: 0px; fill: rgb(114, 9, 183); fill-opacity: 1;"/></g><g class="point"><path d="M0,364.24V362.38H279.33V364.24Z" style="vector-effect: none; opacity: 1; stroke-width: 0px; fill: rgb(114, 9, 183); fill-opacity: 1;"/></g><g class="point"><path d="M0,359.6V357.74H212.53V359.6Z" style="vector-effect: none; opacity: 1; stroke-width: 0px; fill: rgb(114, 9, 183); fill-opacity: 1;"/></g><g class="point"><path d="M0,354.96V353.1H66.8V354.96Z" style="vector-effect: none; opacity: 1; stroke-width: 0px; fill: rgb(114, 9, 183); fill-opacity: 1;"/></g><g class="point"><path d="M0,350.32V348.46H151.81V350.32Z" style="vector-effect: none; opacity: 1; stroke-width: 0px; fill: rgb(114, 9, 183); fill-opacity: 1;"/></g><g class="point"><path d="M0,345.68V343.82H261.11V345.68Z" style="vector-effect: none; opacity: 1; stroke-width: 0px; fill: rgb(114, 9, 183); fill-opacity: 1;"/></g><g class="point"><path d="M0,0Z" style="vector-effect: none; opacity: 1; stroke-width: 0px; fill: rgb(114, 9, 183); fill-opacity: 1;"/></g><g class="point"><path d="M0,336.4V334.54H236.82V336.4Z" style="vector-effect: none; opacity: 1; stroke-width: 0px; fill: rgb(114, 9, 183); fill-opacity: 1;"/></g><g class="point"><path d="M0,331.76V329.9H230.75V331.76Z" style="vector-effect: none; opacity: 1; stroke-width: 0px; fill: rgb(114, 9, 183); fill-opacity: 1;"/></g><g class="point"><path d="M0,327.12V325.26H230.75V327.12Z" style="vector-effect: none; opacity: 1; stroke-width: 0px; fill: rgb(114, 9, 183); fill-opacity: 1;"/></g><g class="point"><path d="M0,322.48V320.62H206.46V322.48Z" style="vector-effect: none; opacity: 1; stroke-width: 0px; fill: rgb(114, 9, 183); fill-opacity: 1;"/></g><g class="point"><path d="M0,317.84V315.98H85.01V317.84Z" style="vector-effect: none; opacity: 1; stroke-width: 0px; fill: rgb(114, 9, 183); fill-opacity: 1;"/></g><g class="point"><path d="M0,0Z" style="vector-effect: none; opacity: 1; stroke-width: 0px; fill: rgb(114, 9, 183); fill-opacity: 1;"/></g><g class="point"><path d="M0,308.56V306.7H139.67V308.56Z" style="vector-effect: none; opacity: 1; stroke-width: 0px; fill: rgb(114, 9, 183); fill-opacity: 1;"/></g><g class="point"><path d="M0,303.92V302.06H85.01V303.92Z" style="vector-effect: none; opacity: 1; stroke-width: 0px; fill: rgb(114, 9, 183); fill-opacity: 1;"/></g><g class="point"><path d="M0,299.28V297.42H267.19V299.28Z" style="vector-effect: none; opacity: 1; stroke-width: 0px; fill: rgb(114, 9, 183); fill-opacity: 1;"/></g><g class="point"><path d="M0,294.64V292.78H206.46V294.64Z" style="vector-effect: none; opacity: 1; stroke-width: 0px; fill: rgb(114, 9, 183); fill-opacity: 1;"/></g><g class="point"><path d="M0,290V288.14H78.94V290Z" style="vector-effect: none; opacity: 1; stroke-width: 0px; fill: rgb(114, 9, 183); fill-opacity: 1;"/></g><g class="point"><path d="M0,285.36V283.5H218.61V285.36Z" style="vector-effect: none; opacity: 1; stroke-width: 0px; fill: rgb(114, 9, 183); fill-opacity: 1;"/></g><g class="point"><path d="M0,280.72V278.86H91.09V280.72Z" style="vector-effect: none; opacity: 1; stroke-width: 0px; fill: rgb(114, 9, 183); fill-opacity: 1;"/></g><g class="point"><path d="M0,276.08V274.22H121.45V276.08Z" style="vector-effect: none; opacity: 1; stroke-width: 0px; fill: rgb(114, 9, 183); fill-opacity: 1;"/></g><g class="point"><path d="M0,271.44V269.58H42.51V271.44Z" style="vector-effect: none; opacity: 1; stroke-width: 0px; fill: rgb(114, 9, 183); fill-opacity: 1;"/></g><g class="point"><path d="M0,266.8V264.94H242.9V266.8Z" style="vector-effect: none; opacity: 1; stroke-width: 0px; fill: rgb(114, 9, 183); fill-opacity: 1;"/></g><g class="point"><path d="M0,262.16V260.3H206.46V262.16Z" style="vector-effect: none; opacity: 1; stroke-width: 0px; fill: rgb(114, 9, 183); fill-opacity: 1;"/></g><g class="point"><path d="M0,257.52V255.66H255.04V257.52Z" style="vector-effect: none; opacity: 1; stroke-width: 0px; fill: rgb(114, 9, 183); fill-opacity: 1;"/></g><g class="point"><path d="M0,252.88V251.02H42.51V252.88Z" style="vector-effect: none; opacity: 1; stroke-width: 0px; fill: rgb(114, 9, 183); fill-opacity: 1;"/></g><g class="point"><path d="M0,248.24V246.38H273.26V248.24Z" style="vector-effect: none; opacity: 1; stroke-width: 0px; fill: rgb(114, 9, 183); fill-opacity: 1;"/></g><g class="point"><path d="M0,243.6V241.74H85.01V243.6Z" style="vector-effect: none; opacity: 1; stroke-width: 0px; fill: rgb(114, 9, 183); fill-opacity: 1;"/></g><g class="point"><path d="M0,238.96V237.1H127.52V238.96Z" style="vector-effect: none; opacity: 1; stroke-width: 0px; fill: rgb(114, 9, 183); fill-opacity: 1;"/></g><g class="point"><path d="M0,234.32V232.46H42.51V234.32Z" style="vector-effect: none; opacity: 1; stroke-width: 0px; fill: rgb(114, 9, 183); fill-opacity: 1;"/></g><g class="point"><path d="M0,229.68V227.82H285.4V229.68Z" style="vector-effect: none; opacity: 1; stroke-width: 0px; fill: rgb(114, 9, 183); fill-opacity: 1;"/></g><g class="point"><path d="M0,225.04V223.18H145.74V225.04Z" style="vector-effect: none; opacity: 1; stroke-width: 0px; fill: rgb(114, 9, 183); fill-opacity: 1;"/></g><g class="point"><path d="M0,220.4V218.54H91.09V220.4Z" style="vector-effect: none; opacity: 1; stroke-width: 0px; fill: rgb(114, 9, 183); fill-opacity: 1;"/></g><g class="point"><path d="M0,215.76V213.9H176.1V215.76Z" style="vector-effect: none; opacity: 1; stroke-width: 0px; fill: rgb(114, 9, 183); fill-opacity: 1;"/></g><g class="point"><path d="M0,211.12V209.26H139.67V211.12Z" style="vector-effect: none; opacity: 1; stroke-width: 0px; fill: rgb(114, 9, 183); fill-opacity: 1;"/></g><g class="point"><path d="M0,206.48V204.62H291.48V206.48Z" style="vector-effect: none; opacity: 1; stroke-width: 0px; fill: rgb(114, 9, 183); fill-opacity: 1;"/></g><g class="point"><path d="M0,201.84V199.98H145.74V201.84Z" style="vector-effect: none; opacity: 1; stroke-width: 0px; fill: rgb(114, 9, 183); fill-opacity: 1;"/></g><g class="point"><path d="M0,197.2V195.34H157.88V197.2Z" style="vector-effect: none; opacity: 1; stroke-width: 0px; fill: rgb(114, 9, 183); fill-opacity: 1;"/></g><g class="point"><path d="M0,192.56V190.7H236.82V192.56Z" style="vector-effect: none; opacity: 1; stroke-width: 0px; fill: rgb(114, 9, 183); fill-opacity: 1;"/></g><g class="point"><path d="M0,187.92V186.06H273.26V187.92Z" style="vector-effect: none; opacity: 1; stroke-width: 0px; fill: rgb(114, 9, 183); fill-opacity: 1;"/></g><g class="point"><path d="M0,183.28V181.42H30.36V183.28Z" style="vector-effect: none; opacity: 1; stroke-width: 0px; fill: rgb(114, 9, 183); fill-opacity: 1;"/></g><g class="point"><path d="M0,178.64V176.78H194.32V178.64Z" style="vector-effect: none; opacity: 1; stroke-width: 0px; fill: rgb(114, 9, 183); fill-opacity: 1;"/></g><g class="point"><path d="M0,174V172.14H194.32V174Z" style="vector-effect: none; opacity: 1; stroke-width: 0px; fill: rgb(114, 9, 183); fill-opacity: 1;"/></g><g class="point"><path d="M0,169.36V167.5H133.59V169.36Z" style="vector-effect: none; opacity: 1; stroke-width: 0px; fill: rgb(114, 9, 183); fill-opacity: 1;"/></g><g class="point"><path d="M0,164.72V162.86H133.59V164.72Z" style="vector-effect: none; opacity: 1; stroke-width: 0px; fill: rgb(114, 9, 183); fill-opacity: 1;"/></g><g class="point"><path d="M0,160.08V158.22H85.01V160.08Z" style="vector-effect: none; opacity: 1; stroke-width: 0px; fill: rgb(114, 9, 183); fill-opacity: 1;"/></g><g class="point"><path d="M0,155.44V153.58H48.58V155.44Z" style="vector-effect: none; opacity: 1; stroke-width: 0px; fill: rgb(114, 9, 183); fill-opacity: 1;"/></g><g class="point"><path d="M0,150.8V148.94H291.48V150.8Z" style="vector-effect: none; opacity: 1; stroke-width: 0px; fill: rgb(114, 9, 183); fill-opacity: 1;"/></g><g class="point"><path d="M0,146.16V144.3H212.53V146.16Z" style="vector-effect: none; opacity: 1; stroke-width: 0px; fill: rgb(114, 9, 183); fill-opacity: 1;"/></g><g class="point"><path d="M0,141.52V139.66H273.26V141.52Z" style="vector-effect: none; opacity: 1; stroke-width: 0px; fill: rgb(114, 9, 183); fill-opacity: 1;"/></g><g class="point"><path d="M0,136.88V135.02H279.33V136.88Z" style="vector-effect: none; opacity: 1; stroke-width: 0px; fill: rgb(114, 9, 183); fill-opacity: 1;"/></g><g class="point"><path d="M0,132.24V130.38H24.29V132.24Z" style="vector-effect: none; opacity: 1; stroke-width: 0px; fill: rgb(114, 9, 183); fill-opacity: 1;"/></g><g class="point"><path d="M0,127.6V125.74H170.03V127.6Z" style="vector-effect: none; opacity: 1; stroke-width: 0px; fill: rgb(114, 9, 183); fill-opacity: 1;"/></g><g class="point"><path d="M0,122.96V121.1H145.74V122.96Z" style="vector-effect: none; opacity: 1; stroke-width: 0px; fill: rgb(114, 9, 183); fill-opacity: 1;"/></g><g class="point"><path d="M0,118.32V116.46H236.82V118.32Z" style="vector-effect: none; opacity: 1; stroke-width: 0px; fill: rgb(114, 9, 183); fill-opacity: 1;"/></g><g class="point"><path d="M0,113.68V111.82H72.87V113.68Z" style="vector-effect: none; opacity: 1; stroke-width: 0px; fill: rgb(114, 9, 183); fill-opacity: 1;"/></g><g class="point"><path d="M0,109.04V107.18H200.39V109.04Z" style="vector-effect: none; opacity: 1; stroke-width: 0px; fill: rgb(114, 9, 183); fill-opacity: 1;"/></g><g class="point"><path d="M0,104.4V102.54H97.16V104.4Z" style="vector-effect: none; opacity: 1; stroke-width: 0px; fill: rgb(114, 9, 183); fill-opacity: 1;"/></g><g class="point"><path d="M0,99.76V97.9H97.16V99.76Z" style="vector-effect: none; opacity: 1; stroke-width: 0px; fill: rgb(114, 9, 183); fill-opacity: 1;"/></g><g class="point"><path d="M0,95.12V93.26H6.07V95.12Z" style="vector-effect: none; opacity: 1; stroke-width: 0px; fill: rgb(114, 9, 183); fill-opacity: 1;"/></g><g class="point"><path d="M0,90.48V88.62H133.59V90.48Z" style="vector-effect: none; opacity: 1; stroke-width: 0px; fill: rgb(114, 9, 183); fill-opacity: 1;"/></g><g class="point"><path d="M0,85.84V83.98H206.46V85.84Z" style="vector-effect: none; opacity: 1; stroke-width: 0px; fill: rgb(114, 9, 183); fill-opacity: 1;"/></g><g class="point"><path d="M0,81.2V79.34H78.94V81.2Z" style="vector-effect: none; opacity: 1; stroke-width: 0px; fill: rgb(114, 9, 183); fill-opacity: 1;"/></g><g class="point"><path d="M0,76.56V74.7H267.19V76.56Z" style="vector-effect: none; opacity: 1; stroke-width: 0px; fill: rgb(114, 9, 183); fill-opacity: 1;"/></g><g class="point"><path d="M0,71.92V70.06H176.1V71.92Z" style="vector-effect: none; opacity: 1; stroke-width: 0px; fill: rgb(114, 9, 183); fill-opacity: 1;"/></g><g class="point"><path d="M0,67.28V65.42H267.19V67.28Z" style="vector-effect: none; opacity: 1; stroke-width: 0px; fill: rgb(114, 9, 183); fill-opacity: 1;"/></g><g class="point"><path d="M0,62.64V60.78H60.72V62.64Z" style="vector-effect: none; opacity: 1; stroke-width: 0px; fill: rgb(114, 9, 183); fill-opacity: 1;"/></g><g class="point"><path d="M0,58V56.14H139.67V58Z" style="vector-effect: none; opacity: 1; stroke-width: 0px; fill: rgb(114, 9, 183); fill-opacity: 1;"/></g><g class="point"><path d="M0,53.36V51.5H72.87V53.36Z" style="vector-effect: none; opacity: 1; stroke-width: 0px; fill: rgb(114, 9, 183); fill-opacity: 1;"/></g><g class="point"><path d="M0,48.72V46.86H127.52V48.72Z" style="vector-effect: none; opacity: 1; stroke-width: 0px; fill: rgb(114, 9, 183); fill-opacity: 1;"/></g><g class="point"><path d="M0,44.08V42.22H127.52V44.08Z" style="vector-effect: none; opacity: 1; stroke-width: 0px; fill: rgb(114, 9, 183); fill-opacity: 1;"/></g><g class="point"><path d="M0,39.44V37.58H182.17V39.44Z" style="vector-effect: none; opacity: 1; stroke-width: 0px; fill: rgb(114, 9, 183); fill-opacity: 1;"/></g><g class="point"><path d="M0,34.8V32.94H273.26V34.8Z" style="vector-effect: none; opacity: 1; stroke-width: 0px; fill: rgb(114, 9, 183); fill-opacity: 1;"/></g><g class="point"><path d="M0,30.16V28.3H72.87V30.16Z" style="vector-effect: none; opacity: 1; stroke-width: 0px; fill: rgb(114, 9, 183); fill-opacity: 1;"/></g><g class="point"><path d="M0,25.52V23.66H188.24V25.52Z" style="vector-effect: none; opacity: 1; stroke-width: 0px; fill: rgb(114, 9, 183); fill-opacity: 1;"/></g><g class="point"><path d="M0,20.88V19.02H151.81V20.88Z" style="vector-effect: none; opacity: 1; stroke-width: 0px; fill: rgb(114, 9, 183); fill-opacity: 1;"/></g><g class="point"><path d="M0,16.24V14.38H60.72V16.24Z" style="vector-effect: none; opacity: 1; stroke-width: 0px; fill: rgb(114, 9, 183); fill-opacity: 1;"/></g><g class="point"><path d="M0,11.6V9.74H188.24V11.6Z" style="vector-effect: none; opacity: 1; stroke-width: 0px; fill: rgb(114, 9, 183); fill-opacity: 1;"/></g><g class="point"><path d="M0,6.96V5.1H115.38V6.96Z" style="vector-effect: none; opacity: 1; stroke-width: 0px; fill: rgb(114, 9, 183); fill-opacity: 1;"/></g><g class="point"><path d="M0,0Z" style="vector-effect: none; opacity: 1; stroke-width: 0px; fill: rgb(114, 9, 183); fill-opacity: 1;"/></g></g></g></g></g><g class="xy2" transform="translate(10,26)" clip-path="url(#clip1fa8c2xy2plot)"><g class="scatterlayer mlayer"><g class="trace scatter trace99c9d1" style="stroke-miterlimit: 2; opacity: 1;"><g class="fills"/><g class="errorbars"/><g class="lines"><path class="js-line" d="M297.55,440.8L48.58,436.58L133.59,432.36L170.03,428.15L12.14,423.93L91.09,419.71L267.19,415.49L6.07,411.27L0,407.05L12.14,402.84L66.8,398.62L145.74,394.4L42.51,390.18L297.55,385.96L36.43,381.75L255.04,377.53L48.58,373.31L182.17,369.09L212.53,364.87L121.45,360.65L54.65,356.44L261.11,352.22L6.07,348L236.82,343.78L60.72,339.56L236.82,335.35L145.74,331.13L170.03,326.91L18.22,322.69L163.95,318.47L267.19,314.25L60.72,310.04L248.97,305.82L42.51,301.6L194.32,297.38L170.03,293.16L230.75,288.95L285.4,284.73L48.58,280.51L78.94,276.29L200.39,272.07L42.51,267.85L36.43,263.64L303.62,259.42L279.33,255.2L139.67,250.98L30.36,246.76L176.1,242.55L78.94,238.33L54.65,234.11L303.62,229.89L297.55,225.67L97.16,221.45L109.3,217.24L60.72,213.02L200.39,208.8L248.97,204.58L103.23,200.36L194.32,196.15L109.3,191.93L200.39,187.71L267.19,183.49L188.24,179.27L261.11,175.05L48.58,170.84L121.45,166.62L42.51,162.4L303.62,158.18L163.95,153.96L279.33,149.75L72.87,145.53L145.74,141.31L91.09,137.09L163.95,132.87L103.23,128.65L12.14,124.44L30.36,120.22L115.38,116L291.48,111.78L255.04,107.56L42.51,103.35L133.59,99.13L60.72,94.91L176.1,90.69L12.14,86.47L12.14,82.25L97.16,78.04L230.75,73.82L66.8,69.6L273.26,65.38L42.51,61.16L54.65,56.95L285.4,52.73L212.53,48.51L255.04,44.29L42.51,40.07L127.52,35.85L163.95,31.64L230.75,27.42L230.75,23.2" style="vector-effect: none; fill: none; stroke: rgb(58, 12, 163); stroke-opacity: 1; stroke-width: 2px; opacity: 1;"/></g><g class="points"/><g class="text"/></g></g></g></g><path class="xlines-above crisp" d="M0,0" style="fill: none;"/><path class="ylines-above crisp" d="M0,0" style="fill: none;"/><g class="overlines-above"><path class="xy2-x crisp" d="M0,0" style="fill: none;"/><path class="xy2-y crisp" d="M0,0" style="fill: none;"/></g><g class="xaxislayer-above"/><g class="yaxislayer-above"/><g class="overaxes-above"><g class="xy2-x"/><g class="xy2-y"/></g></g><g class="subplot xy2"/></g><g class="polarlayer"/><g class="smithlayer"/><g class="ternarylayer"/><g class="geolayer"/><g class="funnelarealayer"/><g class="pielayer"/><g class="iciclelayer"/><g class="treemaplayer"/><g class="sunburstlayer"/><g class="glimages"/><defs id="topdefs-1fa8c2"><g class="clips"/></defs><g class="layer-above"><g class="imagelayer"/><g class="shapelayer"/></g><g class="infolayer"><g class="g-gtitle"/></g></svg>