<svg class="main-svg" xmlns="http://www.w3.org/2000/svg" xmlns:xlink="http://www.w3.org/1999/xlink" width="700" height="500" style="" viewBox="0 0 700 500"><rect x="0" y="0" width="700" height="500" style="fill: rgb(255, 255, 255); fill-opacity: 1;"/><defs id="defs-903435"><g class="clips"><clipPath id="clip903435xyplot" class="plotclip"><rect width="639.1999999999999" height="464"/></clipPath><clipPath id="clip903435xy2plot" class="plotclip"><rect width="639.1999999999999" height="464"/></clipPath><clipPath class="axesclip" id="clip903435x"><rect x="10" y="0" width="639.1999999999999" height="500"/></clipPath><clipPath class="axesclip" id="clip903435y"><rect x="0" y="26" width="700" height="464"/></clipPath><clipPath class="axesclip" id="clip903435xy"><rect x="10" y="26" width="639.1999999999999" height="464"/></clipPath><clipPath class="axesclip" id="clip903435y2"><rect x="0" y="26" width="700" height="464"/></clipPath><clipPath class="axesclip" id="clip903435xy2"><rect x="10" y="26" width="639.1999999999999" height="464"/></clipPath></g><g class="gradients"/><g class="patterns"/></defs><g class="bglayer"/><g class="layer-below"><g class="imagelayer"/><g class="shapelayer"/></g><g class="cartesianlayer"><g class="subplot xy"><g class="layer-subplot"><g class="shapelayer"/><g class="imagelayer"/></g><g class="minor-gridlayer"><g class="x"/><g class="y"/><g class="y2"/></g><g class="gridlayer"><g class="x"/><g class="y"/><g class="y2"/></g><g class="zerolinelayer"/><g class="layer-between"><g class="shapelayer"/><g class="imagelayer"/></g><path class="xlines-below"/><path class="ylines-below"/><g class="overlines-below"><path class="xy2-x"/><path class="xy2-y"/></g><g class="xaxislayer-below"/><g class="yaxislayer-below"/><g class="overaxes-below"><g class="xy2-x"/><g class="xy2-y"/></g><g class="overplot"><g class="xy" transform="translate(10,26)" clip-path="url(#clip903435xyplot)"><g class="barlayer mlayer"><g class="trace bars" style="opacity: 1;"><g class="points"><g class="point"><path d="M0.64,464V23.6H3.2V464Z" style="vector-effect: none; opacity: 1; stroke-width: 0px; fill: rgb(247, 37, 133); fill-opacity: 1;"/></g><g class="point"><path d="M7.03,464V32.44H9.59V464Z" style="vector-effect: none; opacity: 1; stroke-width: 0px; fill: rgb(247, 37, 133); fill-opacity: 1;"/></g><g class="point"><path d="M13.42,464V39.67H15.98V464Z" style="vector-effect: none; opacity: 1; stroke-width: 0px; fill: rgb(247, 37, 133); fill-opacity: 1;"/></g><g class="point"><path d="M19.82,464V32.44H22.37V464Z" style="vector-effect: none; opacity: 1; stroke-width: 0px; fill: rgb(247, 37, 133); fill-opacity: 1;"/></g><g class="point"><path d="M26.21,464V48.51H28.76V464Z" style="vector-effect: none; opacity: 1; stroke-width: 0px; fill: rgb(247, 37, 133); fill-opacity: 1;"/></g><g class="point"><path d="M32.6,464V34.05H35.16V464Z" style="vector-effect: none; opacity: 1; stroke-width: 0px; fill: rgb(247, 37, 133); fill-opacity: 1;"/></g><g class="point"><path d="M38.99,464V27.22H41.55V464Z" style="vector-effect: none; opacity: 1; stroke-width: 0px; fill: rgb(247, 37, 133); fill-opacity: 1;"/></g><g class="point"><path d="M45.38,464V45.7H47.94V464Z" style="vector-effect: none; opacity: 1; stroke-width: 0px; fill: rgb(247, 37, 133); fill-opacity: 1;"/></g><g class="point"><path d="M51.78,464V34.85H54.33V464Z" style="vector-effect: none; opacity: 1; stroke-width: 0px; fill: rgb(247, 37, 133); fill-opacity: 1;"/></g><g class="point"><path d="M58.17,464V48.11H60.72V464Z" style="vector-effect: none; opacity: 1; stroke-width: 0px; fill: rgb(247, 37, 133); fill-opacity: 1;"/></g><g class="point"><path d="M64.56,464V39.67H67.12V464Z" style="vector-effect: none; opacity: 1; stroke-width: 0px; fill: rgb(247, 37, 133); fill-opacity: 1;"/></g><g class="point"><path d="M70.95,464V26.82H73.51V464Z" style="vector-effect: none; opacity: 1; stroke-width: 0px; fill: rgb(247, 37, 133); fill-opacity: 1;"/></g><g class="point"><path d="M77.34,464V48.51H79.9V464Z" style="vector-effect: none; opacity: 1; stroke-width: 0px; fill: rgb(247, 37, 133); fill-opacity: 1;"/></g><g class="point"><path d="M83.74,464V38.87H86.29V464Z" style="vector-effect: none; opacity: 1; stroke-width: 0px; fill: rgb(247, 37, 133); fill-opacity: 1;"/></g><g class="point"><path d="M90.13,464V40.88H92.68V464Z" style="vector-effect: none; opacity: 1; stroke-width: 0px; fill: rgb(247, 37, 133); fill-opacity: 1;"/></g><g class="point"><path d="M96.52,464V57.76H99.08V464Z" style="vector-effect: none; opacity: 1; stroke-width: 0px; fill: rgb(247, 37, 133); fill-opacity: 1;"/></g><g class="point"><path d="M102.91,464V56.15H105.47V464Z" style="vector-effect: none; opacity: 1; stroke-width: 0px; fill: rgb(247, 37, 133); fill-opacity: 1;"/></g><g class="point"><path d="M109.3,464V49.32H111.86V464Z" style="vector-effect: none; opacity: 1; stroke-width: 0px; fill: rgb(247, 37, 133); fill-opacity: 1;"/></g><g class="point"><path d="M115.7,464V30.03H118.25V464Z" style="vector-effect: none; opacity: 1; stroke-width: 0px; fill: rgb(247, 37, 133); fill-opacity: 1;"/></g><g class="point"><path d="M122.09,464V52.93H124.64V464Z" style="vector-effect: none; opacity: 1; stroke-width: 0px; fill: rgb(247, 37, 133); fill-opacity: 1;"/></g><g class="point"><path d="M128.48,464V43.69H131.04V464Z" style="vector-effect: none; opacity: 1; stroke-width: 0px; fill: rgb(247, 37, 133); fill-opacity: 1;"/></g><g class="point"><path d="M134.87,464V29.23H137.43V464Z" style="vector-effect: none; opacity: 1; stroke-width: 0px; fill: rgb(247, 37, 133); fill-opacity: 1;"/></g><g class="point"><path d="M141.26,464V23.2H143.82V464Z" style="vector-effect: none; opacity: 1; stroke-width: 0px; fill: rgb(247, 37, 133); fill-opacity: 1;"/></g><g class="point"><path d="M147.66,464V28.83H150.21V464Z" style="vector-effect: none; opacity: 1; stroke-width: 0px; fill: rgb(247, 37, 133); fill-opacity: 1;"/></g><g class="point"><path d="M154.05,464V40.08H156.6V464Z" style="vector-effect: none; opacity: 1; stroke-width: 0px; fill: rgb(247, 37, 133); fill-opacity: 1;"/></g><g class="point"><path d="M160.44,464V51.33H163V464Z" style="vector-effect: none; opacity: 1; stroke-width: 0px; fill: rgb(247, 37, 133); fill-opacity: 1;"/></g><g class="point"><path d="M166.83,464V57.35H169.39V464Z" style="vector-effect: none; opacity: 1; stroke-width: 0px; fill: rgb(247, 37, 133); fill-opacity: 1;"/></g><g class="point"><path d="M173.22,464V48.11H175.78V464Z" style="vector-effect: none; opacity: 1; stroke-width: 0px; fill: rgb(247, 37, 133); fill-opacity: 1;"/></g><g class="point"><path d="M179.62,464V28.83H182.17V464Z" style="vector-effect: none; opacity: 1; stroke-width: 0px; fill: rgb(247, 37, 133); fill-opacity: 1;"/></g><g class="point"><path d="M186.01,464V57.76H188.56V464Z" style="vector-effect: none; opacity: 1; stroke-width: 0px; fill: rgb(247, 37, 133); fill-opacity: 1;"/></g><g class="point"><path d="M192.4,464V48.11H194.96V464Z" style="vector-effect: none; opacity: 1; stroke-width: 0px; fill: rgb(247, 37, 133); fill-opacity: 1;"/></g><g class="point"><path d="M198.79,464V23.2H201.35V464Z" style="vector-effect: none; opacity: 1; stroke-width: 0px; fill: rgb(247, 37, 133); fill-opacity: 1;"/></g><g class="point"><path d="M205.18,464V61.78H207.74V464Z" style="vector-effect: none; opacity: 1; stroke-width: 0px; fill: rgb(247, 37, 133); fill-opacity: 1;"/></g><g class="point"><path d="M211.58,464V40.88H214.13V464Z" style="vector-effect: none; opacity: 1; stroke-width: 0px; fill: rgb(247, 37, 133); fill-opacity: 1;"/></g><g class="point"><path d="M217.97,464V54.94H220.52V464Z" style="vector-effect: none; opacity: 1; stroke-width: 0px; fill: rgb(247, 37, 133); fill-opacity: 1;"/></g><g class="point"><path d="M224.36,464V55.35H226.92V464Z" style="vector-effect: none; opacity: 1; stroke-width: 0px; fill: rgb(247, 37, 133); fill-opacity: 1;"/></g><g class="point"><path d="M230.75,464V45.7H233.31V464Z" style="vector-effect: none; opacity: 1; stroke-width: 0px; fill: rgb(247, 37, 133); fill-opacity: 1;"/></g><g class="point"><path d="M237.14,464V34.05H239.7V464Z" style="vector-effect: none; opacity: 1; stroke-width: 0px; fill: rgb(247, 37, 133); fill-opacity: 1;"/></g><g class="point"><path d="M243.54,464V45.7H246.09V464Z" style="vector-effect: none; opacity: 1; stroke-width: 0px; fill: rgb(247, 37, 133); fill-opacity: 1;"/></g><g class="point"><path d="M249.93,464V30.03H252.48V464Z" style="vector-effect: none; opacity: 1; stroke-width: 0px; fill: rgb(247, 37, 133); fill-opacity: 1;"/></g><g class="point"><path d="M256.32,464V44.09H258.88V464Z" style="vector-effect: none; opacity: 1; stroke-width: 0px; fill: rgb(247, 37, 133); fill-opacity: 1;"/></g><g class="point"><path d="M262.71,464V52.53H265.27V464Z" style="vector-effect: none; opacity: 1; stroke-width: 0px; fill: rgb(247, 37, 133); fill-opacity: 1;"/></g><g class="point"><path d="M269.1,464V26.41H271.66V464Z" style="vector-effect: none; opacity: 1; stroke-width: 0px; fill: rgb(247, 37, 133); fill-opacity: 1;"/></g><g class="point"><path d="M275.5,464V35.25H278.05V464Z" style="vector-effect: none; opacity: 1; stroke-width: 0px; fill: rgb(247, 37, 133); fill-opacity: 1;"/></g><g class="point"><path d="M281.89,464V24H284.44V464Z" style="vector-effect: none; opacity: 1; stroke-width: 0px; fill: rgb(247, 37, 133); fill-opacity: 1;"/></g><g class="point"><path d="M288.28,464V32.04H290.84V464Z" style="vector-effect: none; opacity: 1; stroke-width: 0px; fill: rgb(247, 37, 133); fill-opacity: 1;"/></g><g class="point"><path d="M294.67,464V58.16H297.23V464Z" style="vector-effect: none; opacity: 1; stroke-width: 0px; fill: rgb(247, 37, 133); fill-opacity: 1;"/></g><g class="point"><path d="M301.06,464V51.33H303.62V464Z" style="vector-effect: none; opacity: 1; stroke-width: 0px; fill: rgb(247, 37, 133); fill-opacity: 1;"/></g><g class="point"><path d="M307.46,464V34.85H310.01V464Z" style="vector-effect: none; opacity: 1; stroke-width: 0px; fill: rgb(247, 37, 133); fill-opacity: 1;"/></g><g class="point"><path d="M313.85,464V55.75H316.4V464Z" style="vector-effect: none; opacity: 1; stroke-width: 0px; fill: rgb(247, 37, 133); fill-opacity: 1;"/></g><g class="point"><path d="M320.24,464V23.2H322.8V464Z" style="vector-effect: none; opacity: 1; stroke-width: 0px; fill: rgb(247, 37, 133); fill-opacity: 1;"/></g><g class="point"><path d="M326.63,464V28.02H329.19V464Z" style="vector-effect: none; opacity: 1; stroke-width: 0px; fill: rgb(247, 37, 133); fill-opacity: 1;"/></g><g class="point"><path d="M333.02,464V46.91H335.58V464Z" style="vector-effect: none; opacity: 1; stroke-width: 0px; fill: rgb(247, 37, 133); fill-opacity: 1;"/></g><g class="point"><path d="M339.42,464V36.06H341.97V464Z" style="vector-effect: none; opacity: 1; stroke-width: 0px; fill: rgb(247, 37, 133); fill-opacity: 1;"/></g><g class="point"><path d="M345.81,464V57.76H348.36V464Z" style="vector-effect: none; opacity: 1; stroke-width: 0px; fill: rgb(247, 37, 133); fill-opacity: 1;"/></g><g class="point"><path d="M352.2,464V51.73H354.76V464Z" style="vector-effect: none; opacity: 1; stroke-width: 0px; fill: rgb(247, 37, 133); fill-opacity: 1;"/></g><g class="point"><path d="M358.59,464V50.52H361.15V464Z" style="vector-effect: none; opacity: 1; stroke-width: 0px; fill: rgb(247, 37, 133); fill-opacity: 1;"/></g><g class="point"><path d="M364.98,464V50.52H367.54V464Z" style="vector-effect: none; opacity: 1; stroke-width: 0px; fill: rgb(247, 37, 133); fill-opacity: 1;"/></g><g class="point"><path d="M371.38,464V29.63H373.93V464Z" style="vector-effect: none; opacity: 1; stroke-width: 0px; fill: rgb(247, 37, 133); fill-opacity: 1;"/></g><g class="point"><path d="M377.77,464V40.48H380.32V464Z" style="vector-effect: none; opacity: 1; stroke-width: 0px; fill: rgb(247, 37, 133); fill-opacity: 1;"/></g><g class="point"><path d="M384.16,464V52.13H386.72V464Z" style="vector-effect: none; opacity: 1; stroke-width: 0px; fill: rgb(247, 37, 133); fill-opacity: 1;"/></g><g class="point"><path d="M390.55,464V37.67H393.11V464Z" style="vector-effect: none; opacity: 1; stroke-width: 0px; fill: rgb(247, 37, 133); fill-opacity: 1;"/></g><g class="point"><path d="M396.94,464V30.43H399.5V464Z" style="vector-effect: none; opacity: 1; stroke-width: 0px; fill: rgb(247, 37, 133); fill-opacity: 1;"/></g><g class="point"><path d="M403.34,464V38.87H405.89V464Z" style="vector-effect: none; opacity: 1; stroke-width: 0px; fill: rgb(247, 37, 133); fill-opacity: 1;"/></g><g class="point"><path d="M409.73,464V59.77H412.28V464Z" style="vector-effect: none; opacity: 1; stroke-width: 0px; fill: rgb(247, 37, 133); fill-opacity: 1;"/></g><g class="point"><path d="M416.12,464V56.55H418.68V464Z" style="vector-effect: none; opacity: 1; stroke-width: 0px; fill: rgb(247, 37, 133); fill-opacity: 1;"/></g><g class="point"><path d="M422.51,464V30.83H425.07V464Z" style="vector-effect: none; opacity: 1; stroke-width: 0px; fill: rgb(247, 37, 133); fill-opacity: 1;"/></g><g class="point"><path d="M428.9,464V60.17H431.46V464Z" style="vector-effect: none; opacity: 1; stroke-width: 0px; fill: rgb(247, 37, 133); fill-opacity: 1;"/></g><g class="point"><path d="M435.3,464V56.55H437.85V464Z" style="vector-effect: none; opacity: 1; stroke-width: 0px; fill: rgb(247, 37, 133); fill-opacity: 1;"/></g><g class="point"><path d="M441.69,464V49.72H444.24V464Z" style="vector-effect: none; opacity: 1; stroke-width: 0px; fill: rgb(247, 37, 133); fill-opacity: 1;"/></g><g class="point"><path d="M448.08,464V34.05H450.64V464Z" style="vector-effect: none; opacity: 1; stroke-width: 0px; fill: rgb(247, 37, 133); fill-opacity: 1;"/></g><g class="point"><path d="M454.47,464V27.62H457.03V464Z" style="vector-effect: none; opacity: 1; stroke-width: 0px; fill: rgb(247, 37, 133); fill-opacity: 1;"/></g><g class="point"><path d="M460.86,464V34.85H463.42V464Z" style="vector-effect: none; opacity: 1; stroke-width: 0px; fill: rgb(247, 37, 133); fill-opacity: 1;"/></g><g class="point"><path d="M467.26,464V27.22H469.81V464Z" style="vector-effect: none; opacity: 1; stroke-width: 0px; fill: rgb(247, 37, 133); fill-opacity: 1;"/></g><g class="point"><path d="M473.65,464V26.01H476.2V464Z" style="vector-effect: none; opacity: 1; stroke-width: 0px; fill: rgb(247, 37, 133); fill-opacity: 1;"/></g><g class="point"><path d="M480.04,464V44.09H482.6V464Z" style="vector-effect: none; opacity: 1; stroke-width: 0px; fill: rgb(247, 37, 133); fill-opacity: 1;"/></g><g class="point"><path d="M486.43,464V29.63H488.99V464Z" style="vector-effect: none; opacity: 1; stroke-width: 0px; fill: rgb(247, 37, 133); fill-opacity: 1;"/></g><g class="point"><path d="M492.82,464V54.54H495.38V464Z" style="vector-effect: none; opacity: 1; stroke-width: 0px; fill: rgb(247, 37, 133); fill-opacity: 1;"/></g><g class="point"><path d="M499.22,464V54.54H501.77V464Z" style="vector-effect: none; opacity: 1; stroke-width: 0px; fill: rgb(247, 37, 133); fill-opacity: 1;"/></g><g class="point"><path d="M505.61,464V26.01H508.16V464Z" style="vector-effect: none; opacity: 1; stroke-width: 0px; fill: rgb(247, 37, 133); fill-opacity: 1;"/></g><g class="point"><path d="M512,464V34.05H514.56V464Z" style="vector-effect: none; opacity: 1; stroke-width: 0px; fill: rgb(247, 37, 133); fill-opacity: 1;"/></g><g class="point"><path d="M518.39,464V46.1H520.95V464Z" style="vector-effect: none; opacity: 1; stroke-width: 0px; fill: rgb(247, 37, 133); fill-opacity: 1;"/></g><g class="point"><path d="M524.78,464V43.69H527.34V464Z" style="vector-effect: none; opacity: 1; stroke-width: 0px; fill: rgb(247, 37, 133); fill-opacity: 1;"/></g><g class="point"><path d="M531.18,464V60.17H533.73V464Z" style="vector-effect: none; opacity: 1; stroke-width: 0px; fill: rgb(247, 37, 133); fill-opacity: 1;"/></g><g class="point"><path d="M537.57,464V37.67H540.12V464Z" style="vector-effect: none; opacity: 1; stroke-width: 0px; fill: rgb(247, 37, 133); fill-opacity: 1;"/></g><g class="point"><path d="M543.96,464V55.75H546.52V464Z" style="vector-effect: none; opacity: 1; stroke-width: 0px; fill: rgb(247, 37, 133); fill-opacity: 1;"/></g><g class="point"><path d="M550.35,464V51.73H552.91V464Z" style="vector-effect: none; opacity: 1; stroke-width: 0px; fill: rgb(247, 37, 133); fill-opacity: 1;"/></g><g class="point"><path d="M556.74,464V34.45H559.3V464Z" style="vector-effect: none; opacity: 1; stroke-width: 0px; fill: rgb(247, 37, 133); fill-opacity: 1;"/></g><g class="point"><path d="M563.14,464V33.65H565.69V464Z" style="vector-effect: none; opacity: 1; stroke-width: 0px; fill: rgb(247, 37, 133); fill-opacity: 1;"/></g><g class="point"><path d="M569.53,464V60.57H572.08V464Z" style="vector-effect: none; opacity: 1; stroke-width: 0px; fill: rgb(247, 37, 133); fill-opacity: 1;"/></g><g class="point"><path d="M575.92,464V30.03H578.48V464Z" style="vector-effect: none; opacity: 1; stroke-width: 0px; fill: rgb(247, 37, 133); fill-opacity: 1;"/></g><g class="point"><path d="M582.31,464V31.24H584.87V464Z" style="vector-effect: none; opacity: 1; stroke-width: 0px; fill: rgb(247, 37, 133); fill-opacity: 1;"/></g><g class="point"><path d="M588.7,464V40.48H591.26V464Z" style="vector-effect: none; opacity: 1; stroke-width: 0px; fill: rgb(247, 37, 133); fill-opacity: 1;"/></g><g class="point"><path d="M595.1,464V55.75H597.65V464Z" style="vector-effect: none; opacity: 1; stroke-width: 0px; fill: rgb(247, 37, 133); fill-opacity: 1;"/></g><g class="point"><path d="M601.49,464V60.97H604.04V464Z" style="vector-effect: none; opacity: 1; stroke-width: 0px; fill: rgb(247, 37, 133); fill-opacity: 1;"/></g><g class="point"><path d="M607.88,464V56.15H610.44V464Z" style="vector-effect: none; opacity: 1; stroke-width: 0px; fill: rgb(247, 37, 133); fill-opacity: 1;"/></g><g class="point"><path d="M614.27,464V31.24H616.83V464Z" style="vector-effect: none; opacity: 1; stroke-width: 0px; fill: rgb(247, 37, 133); fill-opacity: 1;"/></g><g class="point"><path d="M620.66,464V23.2H623.22V464Z" style="vector-effect: none; opacity: 1; stroke-width: 0px; fill: rgb(247, 37, 133); fill-opacity: 1;"/></g><g class="point"><path d="M627.06,464V43.29H629.61V464Z" style="vector-effect: none; opacity: 1; stroke-width: 0px; fill: rgb(247, 37, 133); fill-opacity: 1;"/></g><g class="point"><path d="M633.45,464V49.72H636V464Z" style="vector-effect: none; opacity: 1; stroke-width: 0px; fill: rgb(247, 37, 133); fill-opacity: 1;"/></g></g></g><g class="trace bars" style="opacity: 1;"><g class="points"><g class="point"><path d="M3.2,464V454.76H5.75V464Z" style="vector-effect: none; opacity: 1; stroke-width: 0px; fill: rgb(114, 9, 183); fill-opacity: 1;"/></g><g class="point"><path d="M9.59,464V453.15H12.14V464Z" style="vector-effect: none; opacity: 1; stroke-width: 0px; fill: rgb(114, 9, 183); fill-opacity: 1;"/></g><g class="point"><path d="M15.98,464V461.99H18.54V464Z" style="vector-effect: none; opacity: 1; stroke-width: 0px; fill: rgb(114, 9, 183); fill-opacity: 1;"/></g><g class="point"><path d="M22.37,464V449.13H24.93V464Z" style="vector-effect: none; opacity: 1; stroke-width: 0px; fill: rgb(114, 9, 183); fill-opacity: 1;"/></g><g class="point"><path d="M28.76,464V462.79H31.32V464Z" style="vector-effect: none; opacity: 1; stroke-width: 0px; fill: rgb(114, 9, 183); fill-opacity: 1;"/></g><g class="point"><path d="M35.16,464V446.72H37.71V464Z" style="vector-effect: none; opacity: 1; stroke-width: 0px; fill: rgb(114, 9, 183); fill-opacity: 1;"/></g><g class="point"><path d="M41.55,464V451.54H44.1V464Z" style="vector-effect: none; opacity: 1; stroke-width: 0px; fill: rgb(114, 9, 183); fill-opacity: 1;"/></g><g class="point"><path d="M47.94,464V461.19H50.5V464Z" style="vector-effect: none; opacity: 1; stroke-width: 0px; fill: rgb(114, 9, 183); fill-opacity: 1;"/></g><g class="point"><path d="M54.33,464V462.39H56.89V464Z" style="vector-effect: none; opacity: 1; stroke-width: 0px; fill: rgb(114, 9, 183); fill-opacity: 1;"/></g><g class="point"><path d="M0,0Z" style="vector-effect: none; opacity: 1; stroke-width: 0px; fill: rgb(114, 9, 183); fill-opacity: 1;"/></g><g class="point"><path d="M67.12,464V460.38H69.67V464Z" style="vector-effect: none; opacity: 1; stroke-width: 0px; fill: rgb(114, 9, 183); fill-opacity: 1;"/></g><g class="point"><path d="M73.51,464V451.95H76.06V464Z" style="vector-effect: none; opacity: 1; stroke-width: 0px; fill: rgb(114, 9, 183); fill-opacity: 1;"/></g><g class="point"><path d="M79.9,464V461.19H82.46V464Z" style="vector-effect: none; opacity: 1; stroke-width: 0px; fill: rgb(114, 9, 183); fill-opacity: 1;"/></g><g class="point"><path d="M86.29,464V460.38H88.85V464Z" style="vector-effect: none; opacity: 1; stroke-width: 0px; fill: rgb(114, 9, 183); fill-opacity: 1;"/></g><g class="point"><path d="M92.68,464V456.37H95.24V464Z" style="vector-effect: none; opacity: 1; stroke-width: 0px; fill: rgb(114, 9, 183); fill-opacity: 1;"/></g><g class="point"><path d="M99.08,464V449.13H101.63V464Z" style="vector-effect: none; opacity: 1; stroke-width: 0px; fill: rgb(114, 9, 183); fill-opacity: 1;"/></g><g class="point"><path d="M105.47,464V452.75H108.02V464Z" style="vector-effect: none; opacity: 1; stroke-width: 0px; fill: rgb(114, 9, 183); fill-opacity: 1;"/></g><g class="point"><path d="M111.86,464V452.35H114.42V464Z" style="vector-effect: none; opacity: 1; stroke-width: 0px; fill: rgb(114, 9, 183); fill-opacity: 1;"/></g><g class="point"><path d="M118.25,464V446.72H120.81V464Z" style="vector-effect: none; opacity: 1; stroke-width: 0px; fill: rgb(114, 9, 183); fill-opacity: 1;"/></g><g class="point"><path d="M124.64,464V463.6H127.2V464Z" style="vector-effect: none; opacity: 1; stroke-width: 0px; fill: rgb(114, 9, 183); fill-opacity: 1;"/></g><g class="point"><path d="M131.04,464V452.75H133.59V464Z" style="vector-effect: none; opacity: 1; stroke-width: 0px; fill: rgb(114, 9, 183); fill-opacity: 1;"/></g><g class="point"><path d="M137.43,464V445.11H139.98V464Z" style="vector-effect: none; opacity: 1; stroke-width: 0px; fill: rgb(114, 9, 183); fill-opacity: 1;"/></g><g class="point"><path d="M143.82,464V446.72H146.38V464Z" style="vector-effect: none; opacity: 1; stroke-width: 0px; fill: rgb(114, 9, 183); fill-opacity: 1;"/></g><g class="point"><path d="M150.21,464V446.72H152.77V464Z" style="vector-effect: none; opacity: 1; stroke-width: 0px; fill: rgb(114, 9, 183); fill-opacity: 1;"/></g><g class="point"><path d="M156.6,464V453.95H159.16V464Z" style="vector-effect: none; opacity: 1; stroke-width: 0px; fill: rgb(114, 9, 183); fill-opacity: 1;"/></g><g class="point"><path d="M163,464V444.71H165.55V464Z" style="vector-effect: none; opacity: 1; stroke-width: 0px; fill: rgb(114, 9, 183); fill-opacity: 1;"/></g><g class="point"><path d="M169.39,464V460.38H171.94V464Z" style="vector-effect: none; opacity: 1; stroke-width: 0px; fill: rgb(114, 9, 183); fill-opacity: 1;"/></g><g class="point"><path d="M175.78,464V457.97H178.34V464Z" style="vector-effect: none; opacity: 1; stroke-width: 0px; fill: rgb(114, 9, 183); fill-opacity: 1;"/></g><g class="point"><path d="M182.17,464V455.96H184.73V464Z" style="vector-effect: none; opacity: 1; stroke-width: 0px; fill: rgb(114, 9, 183); fill-opacity: 1;"/></g><g class="point"><path d="M188.56,464V449.53H191.12V464Z" style="vector-effect: none; opacity: 1; stroke-width: 0px; fill: rgb(114, 9, 183); fill-opacity: 1;"/></g><g class="point"><path d="M194.96,464V448.33H197.51V464Z" style="vector-effect: none; opacity: 1; stroke-width: 0px; fill: rgb(114, 9, 183); fill-opacity: 1;"/></g><g class="point"><path d="M201.35,464V448.73H203.9V464Z" style="vector-effect: none; opacity: 1; stroke-width: 0px; fill: rgb(114, 9, 183); fill-opacity: 1;"/></g><g class="point"><path d="M207.74,464V452.35H210.3V464Z" style="vector-effect: none; opacity: 1; stroke-width: 0px; fill: rgb(114, 9, 183); fill-opacity: 1;"/></g><g class="point"><path d="M214.13,464V445.92H216.69V464Z" style="vector-effect: none; opacity: 1; stroke-width: 0px; fill: rgb(114, 9, 183); fill-opacity: 1;"/></g><g class="point"><path d="M220.52,464V462.39H223.08V464Z" style="vector-effect: none; opacity: 1; stroke-width: 0px; fill: rgb(114, 9, 183); fill-opacity: 1;"/></g><g class="point"><path d="M226.92,464V450.74H229.47V464Z" style="vector-effect: none; opacity: 1; stroke-width: 0px; fill: rgb(114, 9, 183); fill-opacity: 1;"/></g><g class="point"><path d="M233.31,464V443.91H235.86V464Z" style="vector-effect: none; opacity: 1; stroke-width: 0px; fill: rgb(114, 9, 183); fill-opacity: 1;"/></g><g class="point"><path d="M239.7,464V443.91H242.26V464Z" style="vector-effect: none; opacity: 1; stroke-width: 0px; fill: rgb(114, 9, 183); fill-opacity: 1;"/></g><g class="point"><path d="M246.09,464V451.14H248.65V464Z" style="vector-effect: none; opacity: 1; stroke-width: 0px; fill: rgb(114, 9, 183); fill-opacity: 1;"/></g><g class="point"><path d="M252.48,464V452.35H255.04V464Z" style="vector-effect: none; opacity: 1; stroke-width: 0px; fill: rgb(114, 9, 183); fill-opacity: 1;"/></g><g class="point"><path d="M258.88,464V454.36H261.43V464Z" style="vector-effect: none; opacity: 1; stroke-width: 0px; fill: rgb(114, 9, 183); fill-opacity: 1;"/></g><g class="point"><path d="M265.27,464V461.19H267.82V464Z" style="vector-effect: none; opacity: 1; stroke-width: 0px; fill: rgb(114, 9, 183); fill-opacity: 1;"/></g><g class="point"><path d="M271.66,464V450.74H274.22V464Z" style="vector-effect: none; opacity: 1; stroke-width: 0px; fill: rgb(114, 9, 183); fill-opacity: 1;"/></g><g class="point"><path d="M278.05,464V444.31H280.61V464Z" style="vector-effect: none; opacity: 1; stroke-width: 0px; fill: rgb(114, 9, 183); fill-opacity: 1;"/></g><g class="point"><path d="M284.44,464V444.31H287V464Z" style="vector-effect: none; opacity: 1; stroke-width: 0px; fill: rgb(114, 9, 183); fill-opacity: 1;"/></g><g class="point"><path d="M290.84,464V461.19H293.39V464Z" style="vector-effect: none; opacity: 1; stroke-width: 0px; fill: rgb(114, 9, 183); fill-opacity: 1;"/></g><g class="point"><path d="M297.23,464V455.56H299.78V464Z" style="vector-effect: none; opacity: 1; stroke-width: 0px; fill: rgb(114, 9, 183); fill-opacity: 1;"/></g><g class="point"><path d="M303.62,464V448.33H306.18V464Z" style="vector-effect: none; opacity: 1; stroke-width: 0px; fill: rgb(114, 9, 183); fill-opacity: 1;"/></g><g class="point"><path d="M310.01,464V452.35H312.57V464Z" style="vector-effect: none; opacity: 1; stroke-width: 0px; fill: rgb(114, 9, 183); fill-opacity: 1;"/></g><g class="point"><path d="M316.4,464V448.73H318.96V464Z" style="vector-effect: none; opacity: 1; stroke-width: 0px; fill: rgb(114, 9, 183); fill-opacity: 1;"/></g><g class="point"><path d="M322.8,464V457.17H325.35V464Z" style="vector-effect: none; opacity: 1; stroke-width: 0px; fill: rgb(114, 9, 183); fill-opacity: 1;"/></g><g class="point"><path d="M329.19,464V459.58H331.74V464Z" style="vector-effect: none; opacity: 1; stroke-width: 0px; fill: rgb(114, 9, 183); fill-opacity: 1;"/></g><g class="point"><path d="M335.58,464V456.37H338.14V464Z" style="vector-effect: none; opacity: 1; stroke-width: 0px; fill: rgb(114, 9, 183); fill-opacity: 1;"/></g><g class="point"><path d="M341.97,464V455.16H344.53V464Z" style="vector-effect: none; opacity: 1; stroke-width: 0px; fill: rgb(114, 9, 183); fill-opacity: 1;"/></g><g class="point"><path d="M348.36,464V458.37H350.92V464Z" style="vector-effect: none; opacity: 1; stroke-width: 0px; fill: rgb(114, 9, 183); fill-opacity: 1;"/></g><g class="point"><path d="M354.76,464V444.71H357.31V464Z" style="vector-effect: none; opacity: 1; stroke-width: 0px; fill: rgb(114, 9, 183); fill-opacity: 1;"/></g><g class="point"><path d="M361.15,464V461.19H363.7V464Z" style="vector-effect: none; opacity: 1; stroke-width: 0px; fill: rgb(114, 9, 183); fill-opacity: 1;"/></g><g class="point"><path d="M367.54,464V445.52H370.1V464Z" style="vector-effect: none; opacity: 1; stroke-width: 0px; fill: rgb(114, 9, 183); fill-opacity: 1;"/></g><g class="point"><path d="M373.93,464V458.78H376.49V464Z" style="vector-effect: none; opacity: 1; stroke-width: 0px; fill: rgb(114, 9, 183); fill-opacity: 1;"/></g><g class="point"><path d="M380.32,464V455.96H382.88V464Z" style="vector-effect: none; opacity: 1; stroke-width: 0px; fill: rgb(114, 9, 183); fill-opacity: 1;"/></g><g class="point"><path d="M386.72,464V455.56H389.27V464Z" style="vector-effect: none; opacity: 1; stroke-width: 0px; fill: rgb(114, 9, 183); fill-opacity: 1;"/></g><g class="point"><path d="M393.11,464V456.37H395.66V464Z" style="vector-effect: none; opacity: 1; stroke-width: 0px; fill: rgb(114, 9, 183); fill-opacity: 1;"/></g><g class="point"><path d="M399.5,464V455.56H402.06V464Z" style="vector-effect: none; opacity: 1; stroke-width: 0px; fill: rgb(114, 9, 183); fill-opacity: 1;"/></g><g class="point"><path d="M405.89,464V450.74H408.45V464Z" style="vector-effect: none; opacity: 1; stroke-width: 0px; fill: rgb(114, 9, 183); fill-opacity: 1;"/></g><g class="point"><path d="M412.28,464V445.11H414.84V464Z" style="vector-effect: none; opacity: 1; stroke-width: 0px; fill: rgb(114, 9, 183); fill-opacity: 1;"/></g><g class="point"><path d="M418.68,464V445.11H421.23V464Z" style="vector-effect: none; opacity: 1; stroke-width: 0px; fill: rgb(114, 9, 183); fill-opacity: 1;"/></g><g class="point"><path d="M425.07,464V454.76H427.62V464Z" style="vector-effect: none; opacity: 1; stroke-width: 0px; fill: rgb(114, 9, 183); fill-opacity: 1;"/></g><g class="point"><path d="M431.46,464V458.78H434.02V464Z" style="vector-effect: none; opacity: 1; stroke-width: 0px; fill: rgb(114, 9, 183); fill-opacity: 1;"/></g><g class="point"><path d="M437.85,464V459.18H440.41V464Z" style="vector-effect: none; opacity: 1; stroke-width: 0px; fill: rgb(114, 9, 183); fill-opacity: 1;"/></g><g class="point"><path d="M444.24,464V446.32H446.8V464Z" style="vector-effect: none; opacity: 1; stroke-width: 0px; fill: rgb(114, 9, 183); fill-opacity: 1;"/></g><g class="point"><path d="M450.64,464V455.56H453.19V464Z" style="vector-effect: none; opacity: 1; stroke-width: 0px; fill: rgb(114, 9, 183); fill-opacity: 1;"/></g><g class="point"><path d="M457.03,464V445.52H459.58V464Z" style="vector-effect: none; opacity: 1; stroke-width: 0px; fill: rgb(114, 9, 183); fill-opacity: 1;"/></g><g class="point"><path d="M463.42,464V444.71H465.98V464Z" style="vector-effect: none; opacity: 1; stroke-width: 0px; fill: rgb(114, 9, 183); fill-opacity: 1;"/></g><g class="point"><path d="M469.81,464V461.59H472.37V464Z" style="vector-effect: none; opacity: 1; stroke-width: 0px; fill: rgb(114, 9, 183); fill-opacity: 1;"/></g><g class="point"><path d="M476.2,464V452.35H478.76V464Z" style="vector-effect: none; opacity: 1; stroke-width: 0px; fill: rgb(114, 9, 183); fill-opacity: 1;"/></g><g class="point"><path d="M482.6,464V456.37H485.15V464Z" style="vector-effect: none; opacity: 1; stroke-width: 0px; fill: rgb(114, 9, 183); fill-opacity: 1;"/></g><g class="point"><path d="M488.99,464V447.93H491.54V464Z" style="vector-effect: none; opacity: 1; stroke-width: 0px; fill: rgb(114, 9, 183); fill-opacity: 1;"/></g><g class="point"><path d="M495.38,464V447.93H497.94V464Z" style="vector-effect: none; opacity: 1; stroke-width: 0px; fill: rgb(114, 9, 183); fill-opacity: 1;"/></g><g class="point"><path d="M501.77,464V449.94H504.33V464Z" style="vector-effect: none; opacity: 1; stroke-width: 0px; fill: rgb(114, 9, 183); fill-opacity: 1;"/></g><g class="point"><path d="M508.16,464V450.34H510.72V464Z" style="vector-effect: none; opacity: 1; stroke-width: 0px; fill: rgb(114, 9, 183); fill-opacity: 1;"/></g><g class="point"><path d="M514.56,464V459.18H517.11V464Z" style="vector-effect: none; opacity: 1; stroke-width: 0px; fill: rgb(114, 9, 183); fill-opacity: 1;"/></g><g class="point"><path d="M520.95,464V454.76H523.5V464Z" style="vector-effect: none; opacity: 1; stroke-width: 0px; fill: rgb(114, 9, 183); fill-opacity: 1;"/></g><g class="point"><path d="M527.34,464V457.17H529.9V464Z" style="vector-effect: none; opacity: 1; stroke-width: 0px; fill: rgb(114, 9, 183); fill-opacity: 1;"/></g><g class="point"><path d="M533.73,464V445.92H536.29V464Z" style="vector-effect: none; opacity: 1; stroke-width: 0px; fill: rgb(114, 9, 183); fill-opacity: 1;"/></g><g class="point"><path d="M540.12,464V459.58H542.68V464Z" style="vector-effect: none; opacity: 1; stroke-width: 0px; fill: rgb(114, 9, 183); fill-opacity: 1;"/></g><g class="point"><path d="M546.52,464V458.37H549.07V464Z" style="vector-effect: none; opacity: 1; stroke-width: 0px; fill: rgb(114, 9, 183); fill-opacity: 1;"/></g><g class="point"><path d="M552.91,464V443.91H555.46V464Z" style="vector-effect: none; opacity: 1; stroke-width: 0px; fill: rgb(114, 9, 183); fill-opacity: 1;"/></g><g class="point"><path d="M0,0Z" style="vector-effect: none; opacity: 1; stroke-width: 0px; fill: rgb(114, 9, 183); fill-opacity: 1;"/></g><g class="point"><path d="M565.69,464V462.39H568.25V464Z" style="vector-effect: none; opacity: 1; stroke-width: 0px; fill: rgb(114, 9, 183); fill-opacity: 1;"/></g><g class="point"><path d="M572.08,464V457.57H574.64V464Z" style="vector-effect: none; opacity: 1; stroke-width: 0px; fill: rgb(114, 9, 183); fill-opacity: 1;"/></g><g class="point"><path d="M578.48,464V461.99H581.03V464Z" style="vector-effect: none; opacity: 1; stroke-width: 0px; fill: rgb(114, 9, 183); fill-opacity: 1;"/></g><g class="point"><path d="M584.87,464V447.93H587.42V464Z" style="vector-effect: none; opacity: 1; stroke-width: 0px; fill: rgb(114, 9, 183); fill-opacity: 1;"/></g><g class="point"><path d="M591.26,464V455.16H593.82V464Z" style="vector-effect: none; opacity: 1; stroke-width: 0px; fill: rgb(114, 9, 183); fill-opacity: 1;"/></g><g class="point"><path d="M597.65,464V450.34H600.21V464Z" style="vector-effect: none; opacity: 1; stroke-width: 0px; fill: rgb(114, 9, 183); fill-opacity: 1;"/></g><g class="point"><path d="M604.04,464V449.53H606.6V464Z" style="vector-effect: none; opacity: 1; stroke-width: 0px; fill: rgb(114, 9, 183); fill-opacity: 1;"/></g><g class="point"><path d="M610.44,464V446.32H612.99V464Z" style="vector-effect: none; opacity: 1; stroke-width: 0px; fill: rgb(114, 9, 183); fill-opacity: 1;"/></g><g class="point"><path d="M616.83,464V462.79H619.38V464Z" style="vector-effect: none; opacity: 1; stroke-width: 0px; fill: rgb(114, 9, 183); fill-opacity: 1;"/></g><g class="point"><path d="M623.22,464V455.56H625.78V464Z" style="vector-effect: none; opacity: 1; stroke-width: 0px; fill: rgb(114, 9, 183); fill-opacity: 1;"/></g><g class="point"><path d="M629.61,464V452.35H632.17V464Z" style="vector-effect: none; opacity: 1; stroke-width: 0px; fill: rgb(114, 9, 183); fill-opacity: 1;"/></g><g class="point"><path d="M636,464V460.38H638.56V464Z" style="vector-effect: none; opacity: 1; stroke-width: 0px; fill: rgb(114, 9, 183); fill-opacity: 1;"/></g></g></g></g></g><g class="xy2" transform="translate(10,26)" clip-path="url(#clip903435xy2plot)"><g class="scatterlayer mlayer"><g class="trace scatter tracea71d5c" style="stroke-miterlimit: 2; opacity: 1;"><g class="fills"/><g class="errorbars"/><g class="lines"><path class="js-line" d="M3.2,440.8L15.98,115.07L22.37,248.7L28.76,323.87L35.16,39.9L41.55,223.65L47.94,257.06L54.33,81.66L60.72,206.94L67.12,215.3L73.51,190.24L79.9,39.9L86.29,198.59L92.68,382.34L99.08,340.58L105.47,64.96L111.86,315.52L118.25,39.9L124.64,248.7L131.04,106.72L137.43,257.06L143.82,23.2L150.21,257.06L156.6,407.39L163,56.61L169.39,348.93L175.78,298.82L182.17,332.22L188.56,440.8L194.96,340.58L201.35,131.78L207.74,198.59L214.13,73.31L220.52,298.82L226.92,98.37L233.31,307.17L239.7,348.93L246.09,48.26L252.48,365.63L258.88,148.48L265.27,348.93L271.66,232L278.05,148.48L284.44,232L290.84,407.39L297.23,190.24L303.62,290.46L310.01,23.2L316.4,64.96L322.8,156.83L329.19,190.24L335.58,382.34L341.97,315.52L348.36,282.11L354.76,148.48L361.15,98.37L367.54,390.69L373.93,424.1L380.32,106.72L386.72,440.8L393.11,332.22L399.5,348.93L405.89,273.76L412.28,373.98L418.68,23.2L425.07,315.52L431.46,56.61L437.85,298.82L444.24,415.74L450.64,365.63L457.03,240.35L463.42,315.52L469.81,39.9L476.2,223.65L482.6,315.52L488.99,332.22L495.38,290.46L501.77,64.96L508.16,348.93L514.56,382.34L520.95,248.7L527.34,265.41L533.73,156.83L540.12,440.8L546.52,332.22L552.91,165.18L559.3,440.8L572.08,181.89L578.48,181.89L584.87,365.63L591.26,298.82L597.65,424.1L604.04,31.55L610.44,165.18L616.83,81.66L623.22,190.24L629.61,432.45L636,23.2" style="vector-effect: none; fill: none; stroke: rgb(58, 12, 163); stroke-opacity: 1; stroke-width: 2px; opacity: 1;"/></g><g class="points"/><g class="text"/></g></g></g></g><path class="xlines-above crisp" d="M0,0" style="fill: none;"/><path class="ylines-above crisp" d="M0,0" style="fill: none;"/><g class="overlines-above"><path class="xy2-x crisp" d="M0,0" style="fill: none;"/><path class="xy2-y crisp" d="M0,0" style="fill: none;"/></g><g class="xaxislayer-above"/><g class="yaxislayer-above"/><g class="overaxes-above"><g class="xy2-x"/><g class="xy2-y"/></g></g><g class="subplot xy2"/></g><g class="polarlayer"/><g class="smithlayer"/><g class="ternarylayer"/><g class="geolayer"/><g class="funnelarealayer"/><g class="pielayer"/><g class="iciclelayer"/><g class="treemaplayer"/><g class="sunburstlayer"/><g class="glimages"/><defs id="topdefs-903435"><g class="clips"/></defs><g class="layer-above"><g class="imagelayer"/><g class="shapelayer"/></g><g class="infolayer"><g class="g-gtitle"/></g></svg>