<svg class="main-svg" xmlns="http://www.w3.org/2000/svg" xmlns:xlink="http://www.w3.org/1999/xlink" width="700" height="500" style="" viewBox="0 0 700 500"><rect x="0" y="0" width="700" height="500" style="fill: rgb(255, 255, 255); fill-opacity: 1;"/><defs id="defs-044a58"><g class="clips"><clipPath id="clip044a58xyplot" class="plotclip"><rect width="639.1999999999999" height="464"/></clipPath><clipPath class="axesclip" id="clip044a58x"><rect x="10" y="0" width="639.1999999999999" height="500"/></clipPath><clipPath class="axesclip" id="clip044a58y"><rect x="0" y="26" width="700" height="464"/></clipPath><clipPath class="axesclip" id="clip044a58xy"><rect x="10" y="26" width="639.1999999999999" height="464"/></clipPath></g><g class="gradients"/><g class="patterns"/></defs><g class="bglayer"/><g class="layer-below"><g class="imagelayer"/><g class="shapelayer"/></g><g class="cartesianlayer"><g class="subplot xy"><g class="layer-subplot"><g class="shapelayer"/><g class="imagelayer"/></g><g class="minor-gridlayer"><g class="x"/><g class="y"/></g><g class="gridlayer"><g class="x"/><g class="y"/></g><g class="zerolinelayer"/><g class="layer-between"><g class="shapelayer"/><g class="imagelayer"/></g><path class="xlines-below"/><path class="ylines-below"/><g class="overlines-below"/><g class="xaxislayer-below"/><g class="yaxislayer-below"/><g class="overaxes-below"/><g class="overplot"><g class="xy" transform="translate(10,26)" clip-path="url(#clip044a58xyplot)"><g class="barlayer mlayer"><g class="trace bars" style="opacity: 1;"><g class="points"><g class="point"><path d="M0.64,464V27.61H5.75V464Z" style="vector-effect: none; opacity: 1; stroke-width: 0px; fill: rgb(247, 37, 133); fill-opacity: 1;"/></g><g class="point"><path d="M7.03,464V80.5H12.14V464Z" style="vector-effect: none; opacity: 1; stroke-width: 0px; fill: rgb(247, 37, 133); fill-opacity: 1;"/></g><g class="point"><path d="M13.42,464V84.91H18.54V464Z" style="vector-effect: none; opacity: 1; stroke-width: 0px; fill: rgb(247, 37, 133); fill-opacity: 1;"/></g><g class="point"><path d="M19.82,464V67.28H24.93V464Z" style="vector-effect: none; opacity: 1; stroke-width: 0px; fill: rgb(247, 37, 133); fill-opacity: 1;"/></g><g class="point"><path d="M26.21,464V98.14H31.32V464Z" style="vector-effect: none; opacity: 1; stroke-width: 0px; fill: rgb(247, 37, 133); fill-opacity: 1;"/></g><g class="point"><path d="M32.6,464V80.5H37.71V464Z" style="vector-effect: none; opacity: 1; stroke-width: 0px; fill: rgb(247, 37, 133); fill-opacity: 1;"/></g><g class="point"><path d="M38.99,464V23.2H44.1V464Z" style="vector-effect: none; opacity: 1; stroke-width: 0px; fill: rgb(247, 37, 133); fill-opacity: 1;"/></g><g class="point"><path d="M45.38,464V111.36H50.5V464Z" style="vector-effect: none; opacity: 1; stroke-width: 0px; fill: rgb(247, 37, 133); fill-opacity: 1;"/></g><g class="point"><path d="M51.78,464V58.46H56.89V464Z" style="vector-effect: none; opacity: 1; stroke-width: 0px; fill: rgb(247, 37, 133); fill-opacity: 1;"/></g><g class="point"><path d="M58.17,464V106.95H63.28V464Z" style="vector-effect: none; opacity: 1; stroke-width: 0px; fill: rgb(247, 37, 133); fill-opacity: 1;"/></g><g class="point"><path d="M64.56,464V84.91H69.67V464Z" style="vector-effect: none; opacity: 1; stroke-width: 0px; fill: rgb(247, 37, 133); fill-opacity: 1;"/></g><g class="point"><path d="M70.95,464V49.65H76.06V464Z" style="vector-effect: none; opacity: 1; stroke-width: 0px; fill: rgb(247, 37, 133); fill-opacity: 1;"/></g><g class="point"><path d="M77.34,464V32.02H82.46V464Z" style="vector-effect: none; opacity: 1; stroke-width: 0px; fill: rgb(247, 37, 133); fill-opacity: 1;"/></g><g class="point"><path d="M83.74,464V49.65H88.85V464Z" style="vector-effect: none; opacity: 1; stroke-width: 0px; fill: rgb(247, 37, 133); fill-opacity: 1;"/></g><g class="point"><path d="M90.13,464V27.61H95.24V464Z" style="vector-effect: none; opacity: 1; stroke-width: 0px; fill: rgb(247, 37, 133); fill-opacity: 1;"/></g><g class="point"><path d="M96.52,464V98.14H101.63V464Z" style="vector-effect: none; opacity: 1; stroke-width: 0px; fill: rgb(247, 37, 133); fill-opacity: 1;"/></g><g class="point"><path d="M102.91,464V32.02H108.02V464Z" style="vector-effect: none; opacity: 1; stroke-width: 0px; fill: rgb(247, 37, 133); fill-opacity: 1;"/></g><g class="point"><path d="M109.3,464V89.32H114.42V464Z" style="vector-effect: none; opacity: 1; stroke-width: 0px; fill: rgb(247, 37, 133); fill-opacity: 1;"/></g><g class="point"><path d="M115.7,464V111.36H120.81V464Z" style="vector-effect: none; opacity: 1; stroke-width: 0px; fill: rgb(247, 37, 133); fill-opacity: 1;"/></g><g class="point"><path d="M122.09,464V93.73H127.2V464Z" style="vector-effect: none; opacity: 1; stroke-width: 0px; fill: rgb(247, 37, 133); fill-opacity: 1;"/></g><g class="point"><path d="M128.48,464V89.32H133.59V464Z" style="vector-effect: none; opacity: 1; stroke-width: 0px; fill: rgb(247, 37, 133); fill-opacity: 1;"/></g><g class="point"><path d="M134.87,464V71.69H139.98V464Z" style="vector-effect: none; opacity: 1; stroke-width: 0px; fill: rgb(247, 37, 133); fill-opacity: 1;"/></g><g class="point"><path d="M141.26,464V84.91H146.38V464Z" style="vector-effect: none; opacity: 1; stroke-width: 0px; fill: rgb(247, 37, 133); fill-opacity: 1;"/></g><g class="point"><path d="M147.66,464V89.32H152.77V464Z" style="vector-effect: none; opacity: 1; stroke-width: 0px; fill: rgb(247, 37, 133); fill-opacity: 1;"/></g><g class="point"><path d="M154.05,464V49.65H159.16V464Z" style="vector-effect: none; opacity: 1; stroke-width: 0px; fill: rgb(247, 37, 133); fill-opacity: 1;"/></g><g class="point"><path d="M160.44,464V93.73H165.55V464Z" style="vector-effect: none; opacity: 1; stroke-width: 0px; fill: rgb(247, 37, 133); fill-opacity: 1;"/></g><g class="point"><path d="M166.83,464V67.28H171.94V464Z" style="vector-effect: none; opacity: 1; stroke-width: 0px; fill: rgb(247, 37, 133); fill-opacity: 1;"/></g><g class="point"><path d="M173.22,464V89.32H178.34V464Z" style="vector-effect: none; opacity: 1; stroke-width: 0px; fill: rgb(247, 37, 133); fill-opacity: 1;"/></g><g class="point"><path d="M179.62,464V98.14H184.73V464Z" style="vector-effect: none; opacity: 1; stroke-width: 0px; fill: rgb(247, 37, 133); fill-opacity: 1;"/></g><g class="point"><path d="M186.01,464V111.36H191.12V464Z" style="vector-effect: none; opacity: 1; stroke-width: 0px; fill: rgb(247, 37, 133); fill-opacity: 1;"/></g><g class="point"><path d="M192.4,464V71.69H197.51V464Z" style="vector-effect: none; opacity: 1; stroke-width: 0px; fill: rgb(247, 37, 133); fill-opacity: 1;"/></g><g class="point"><path d="M198.79,464V80.5H203.9V464Z" style="vector-effect: none; opacity: 1; stroke-width: 0px; fill: rgb(247, 37, 133); fill-opacity: 1;"/></g><g class="point"><path d="M205.18,464V102.54H210.3V464Z" style="vector-effect: none; opacity: 1; stroke-width: 0px; fill: rgb(247, 37, 133); fill-opacity: 1;"/></g><g class="point"><path d="M211.58,464V49.65H216.69V464Z" style="vector-effect: none; opacity: 1; stroke-width: 0px; fill: rgb(247, 37, 133); fill-opacity: 1;"/></g><g class="point"><path d="M217.97,464V45.24H223.08V464Z" style="vector-effect: none; opacity: 1; stroke-width: 0px; fill: rgb(247, 37, 133); fill-opacity: 1;"/></g><g class="point"><path d="M224.36,464V32.02H229.47V464Z" style="vector-effect: none; opacity: 1; stroke-width: 0px; fill: rgb(247, 37, 133); fill-opacity: 1;"/></g><g class="point"><path d="M230.75,464V54.06H235.86V464Z" style="vector-effect: none; opacity: 1; stroke-width: 0px; fill: rgb(247, 37, 133); fill-opacity: 1;"/></g><g class="point"><path d="M237.14,464V45.24H242.26V464Z" style="vector-effect: none; opacity: 1; stroke-width: 0px; fill: rgb(247, 37, 133); fill-opacity: 1;"/></g><g class="point"><path d="M243.54,464V71.69H248.65V464Z" style="vector-effect: none; opacity: 1; stroke-width: 0px; fill: rgb(247, 37, 133); fill-opacity: 1;"/></g><g class="point"><path d="M249.93,464V40.83H255.04V464Z" style="vector-effect: none; opacity: 1; stroke-width: 0px; fill: rgb(247, 37, 133); fill-opacity: 1;"/></g><g class="point"><path d="M256.32,464V36.42H261.43V464Z" style="vector-effect: none; opacity: 1; stroke-width: 0px; fill: rgb(247, 37, 133); fill-opacity: 1;"/></g><g class="point"><path d="M262.71,464V32.02H267.82V464Z" style="vector-effect: none; opacity: 1; stroke-width: 0px; fill: rgb(247, 37, 133); fill-opacity: 1;"/></g><g class="point"><path d="M269.1,464V89.32H274.22V464Z" style="vector-effect: none; opacity: 1; stroke-width: 0px; fill: rgb(247, 37, 133); fill-opacity: 1;"/></g><g class="point"><path d="M275.5,464V111.36H280.61V464Z" style="vector-effect: none; opacity: 1; stroke-width: 0px; fill: rgb(247, 37, 133); fill-opacity: 1;"/></g><g class="point"><path d="M281.89,464V40.83H287V464Z" style="vector-effect: none; opacity: 1; stroke-width: 0px; fill: rgb(247, 37, 133); fill-opacity: 1;"/></g><g class="point"><path d="M288.28,464V71.69H293.39V464Z" style="vector-effect: none; opacity: 1; stroke-width: 0px; fill: rgb(247, 37, 133); fill-opacity: 1;"/></g><g class="point"><path d="M294.67,464V89.32H299.78V464Z" style="vector-effect: none; opacity: 1; stroke-width: 0px; fill: rgb(247, 37, 133); fill-opacity: 1;"/></g><g class="point"><path d="M301.06,464V89.32H306.18V464Z" style="vector-effect: none; opacity: 1; stroke-width: 0px; fill: rgb(247, 37, 133); fill-opacity: 1;"/></g><g class="point"><path d="M307.46,464V84.91H312.57V464Z" style="vector-effect: none; opacity: 1; stroke-width: 0px; fill: rgb(247, 37, 133); fill-opacity: 1;"/></g><g class="point"><path d="M313.85,464V27.61H318.96V464Z" style="vector-effect: none; opacity: 1; stroke-width: 0px; fill: rgb(247, 37, 133); fill-opacity: 1;"/></g><g class="point"><path d="M320.24,464V106.95H325.35V464Z" style="vector-effect: none; opacity: 1; stroke-width: 0px; fill: rgb(247, 37, 133); fill-opacity: 1;"/></g><g class="point"><path d="M326.63,464V62.87H331.74V464Z" style="vector-effect: none; opacity: 1; stroke-width: 0px; fill: rgb(247, 37, 133); fill-opacity: 1;"/></g><g class="point"><path d="M333.02,464V58.46H338.14V464Z" style="vector-effect: none; opacity: 1; stroke-width: 0px; fill: rgb(247, 37, 133); fill-opacity: 1;"/></g><g class="point"><path d="M339.42,464V89.32H344.53V464Z" style="vector-effect: none; opacity: 1; stroke-width: 0px; fill: rgb(247, 37, 133); fill-opacity: 1;"/></g><g class="point"><path d="M345.81,464V58.46H350.92V464Z" style="vector-effect: none; opacity: 1; stroke-width: 0px; fill: rgb(247, 37, 133); fill-opacity: 1;"/></g><g class="point"><path d="M352.2,464V23.2H357.31V464Z" style="vector-effect: none; opacity: 1; stroke-width: 0px; fill: rgb(247, 37, 133); fill-opacity: 1;"/></g><g class="point"><path d="M358.59,464V76.1H363.7V464Z" style="vector-effect: none; opacity: 1; stroke-width: 0px; fill: rgb(247, 37, 133); fill-opacity: 1;"/></g><g class="point"><path d="M364.98,464V71.69H370.1V464Z" style="vector-effect: none; opacity: 1; stroke-width: 0px; fill: rgb(247, 37, 133); fill-opacity: 1;"/></g><g class="point"><path d="M371.38,464V36.42H376.49V464Z" style="vector-effect: none; opacity: 1; stroke-width: 0px; fill: rgb(247, 37, 133); fill-opacity: 1;"/></g><g class="point"><path d="M377.77,464V40.83H382.88V464Z" style="vector-effect: none; opacity: 1; stroke-width: 0px; fill: rgb(247, 37, 133); fill-opacity: 1;"/></g><g class="point"><path d="M384.16,464V27.61H389.27V464Z" style="vector-effect: none; opacity: 1; stroke-width: 0px; fill: rgb(247, 37, 133); fill-opacity: 1;"/></g><g class="point"><path d="M390.55,464V71.69H395.66V464Z" style="vector-effect: none; opacity: 1; stroke-width: 0px; fill: rgb(247, 37, 133); fill-opacity: 1;"/></g><g class="point"><path d="M396.94,464V102.54H402.06V464Z" style="vector-effect: none; opacity: 1; stroke-width: 0px; fill: rgb(247, 37, 133); fill-opacity: 1;"/></g><g class="point"><path d="M403.34,464V58.46H408.45V464Z" style="vector-effect: none; opacity: 1; stroke-width: 0px; fill: rgb(247, 37, 133); fill-opacity: 1;"/></g><g class="point"><path d="M409.73,464V89.32H414.84V464Z" style="vector-effect: none; opacity: 1; stroke-width: 0px; fill: rgb(247, 37, 133); fill-opacity: 1;"/></g><g class="point"><path d="M416.12,464V23.2H421.23V464Z" style="vector-effect: none; opacity: 1; stroke-width: 0px; fill: rgb(247, 37, 133); fill-opacity: 1;"/></g><g class="point"><path d="M422.51,464V40.83H427.62V464Z" style="vector-effect: none; opacity: 1; stroke-width: 0px; fill: rgb(247, 37, 133); fill-opacity: 1;"/></g><g class="point"><path d="M428.9,464V84.91H434.02V464Z" style="vector-effect: none; opacity: 1; stroke-width: 0px; fill: rgb(247, 37, 133); fill-opacity: 1;"/></g><g class="point"><path d="M435.3,464V49.65H440.41V464Z" style="vector-effect: none; opacity: 1; stroke-width: 0px; fill: rgb(247, 37, 133); fill-opacity: 1;"/></g><g class="point"><path d="M441.69,464V84.91H446.8V464Z" style="vector-effect: none; opacity: 1; stroke-width: 0px; fill: rgb(247, 37, 133); fill-opacity: 1;"/></g><g class="point"><path d="M448.08,464V32.02H453.19V464Z" style="vector-effect: none; opacity: 1; stroke-width: 0px; fill: rgb(247, 37, 133); fill-opacity: 1;"/></g><g class="point"><path d="M454.47,464V106.95H459.58V464Z" style="vector-effect: none; opacity: 1; stroke-width: 0px; fill: rgb(247, 37, 133); fill-opacity: 1;"/></g><g class="point"><path d="M460.86,464V102.54H465.98V464Z" style="vector-effect: none; opacity: 1; stroke-width: 0px; fill: rgb(247, 37, 133); fill-opacity: 1;"/></g><g class="point"><path d="M467.26,464V106.95H472.37V464Z" style="vector-effect: none; opacity: 1; stroke-width: 0px; fill: rgb(247, 37, 133); fill-opacity: 1;"/></g><g class="point"><path d="M473.65,464V71.69H478.76V464Z" style="vector-effect: none; opacity: 1; stroke-width: 0px; fill: rgb(247, 37, 133); fill-opacity: 1;"/></g><g class="point"><path d="M480.04,464V49.65H485.15V464Z" style="vector-effect: none; opacity: 1; stroke-width: 0px; fill: rgb(247, 37, 133); fill-opacity: 1;"/></g><g class="point"><path d="M486.43,464V93.73H491.54V464Z" style="vector-effect: none; opacity: 1; stroke-width: 0px; fill: rgb(247, 37, 133); fill-opacity: 1;"/></g><g class="point"><path d="M492.82,464V84.91H497.94V464Z" style="vector-effect: none; opacity: 1; stroke-width: 0px; fill: rgb(247, 37, 133); fill-opacity: 1;"/></g><g class="point"><path d="M499.22,464V93.73H504.33V464Z" style="vector-effect: none; opacity: 1; stroke-width: 0px; fill: rgb(247, 37, 133); fill-opacity: 1;"/></g><g class="point"><path d="M505.61,464V98.14H510.72V464Z" style="vector-effect: none; opacity: 1; stroke-width: 0px; fill: rgb(247, 37, 133); fill-opacity: 1;"/></g><g class="point"><path d="M512,464V71.69H517.11V464Z" style="vector-effect: none; opacity: 1; stroke-width: 0px; fill: rgb(247, 37, 133); fill-opacity: 1;"/></g><g class="point"><path d="M518.39,464V27.61H523.5V464Z" style="vector-effect: none; opacity: 1; stroke-width: 0px; fill: rgb(247, 37, 133); fill-opacity: 1;"/></g><g class="point"><path d="M524.78,464V40.83H529.9V464Z" style="vector-effect: none; opacity: 1; stroke-width: 0px; fill: rgb(247, 37, 133); fill-opacity: 1;"/></g><g class="point"><path d="M531.18,464V45.24H536.29V464Z" style="vector-effect: none; opacity: 1; stroke-width: 0px; fill: rgb(247, 37, 133); fill-opacity: 1;"/></g><g class="point"><path d="M537.57,464V71.69H542.68V464Z" style="vector-effect: none; opacity: 1; stroke-width: 0px; fill: rgb(247, 37, 133); fill-opacity: 1;"/></g><g class="point"><path d="M543.96,464V80.5H549.07V464Z" style="vector-effect: none; opacity: 1; stroke-width: 0px; fill: rgb(247, 37, 133); fill-opacity: 1;"/></g><g class="point"><path d="M550.35,464V54.06H555.46V464Z" style="vector-effect: none; opacity: 1; stroke-width: 0px; fill: rgb(247, 37, 133); fill-opacity: 1;"/></g><g class="point"><path d="M556.74,464V23.2H561.86V464Z" style="vector-effect: none; opacity: 1; stroke-width: 0px; fill: rgb(247, 37, 133); fill-opacity: 1;"/></g><g class="point"><path d="M563.14,464V98.14H568.25V464Z" style="vector-effect: none; opacity: 1; stroke-width: 0px; fill: rgb(247, 37, 133); fill-opacity: 1;"/></g><g class="point"><path d="M569.53,464V80.5H574.64V464Z" style="vector-effect: none; opacity: 1; stroke-width: 0px; fill: rgb(247, 37, 133); fill-opacity: 1;"/></g><g class="point"><path d="M575.92,464V98.14H581.03V464Z" style="vector-effect: none; opacity: 1; stroke-width: 0px; fill: rgb(247, 37, 133); fill-opacity: 1;"/></g><g class="point"><path d="M582.31,464V62.87H587.42V464Z" style="vector-effect: none; opacity: 1; stroke-width: 0px; fill: rgb(247, 37, 133); fill-opacity: 1;"/></g><g class="point"><path d="M588.7,464V23.2H593.82V464Z" style="vector-effect: none; opacity: 1; stroke-width: 0px; fill: rgb(247, 37, 133); fill-opacity: 1;"/></g><g class="point"><path d="M595.1,464V32.02H600.21V464Z" style="vector-effect: none; opacity: 1; stroke-width: 0px; fill: rgb(247, 37, 133); fill-opacity: 1;"/></g><g class="point"><path d="M601.49,464V111.36H606.6V464Z" style="vector-effect: none; opacity: 1; stroke-width: 0px; fill: rgb(247, 37, 133); fill-opacity: 1;"/></g><g class="point"><path d="M607.88,464V111.36H612.99V464Z" style="vector-effect: none; opacity: 1; stroke-width: 0px; fill: rgb(247, 37, 133); fill-opacity: 1;"/></g><g class="point"><path d="M614.27,464V111.36H619.38V464Z" style="vector-effect: none; opacity: 1; stroke-width: 0px; fill: rgb(247, 37, 133); fill-opacity: 1;"/></g><g class="point"><path d="M620.66,464V40.83H625.78V464Z" style="vector-effect: none; opacity: 1; stroke-width: 0px; fill: rgb(247, 37, 133); fill-opacity: 1;"/></g><g class="point"><path d="M627.06,464V32.02H632.17V464Z" style="vector-effect: none; opacity: 1; stroke-width: 0px; fill: rgb(247, 37, 133); fill-opacity: 1;"/></g><g class="point"><path d="M633.45,464V80.5H638.56V464Z" style="vector-effect: none; opacity: 1; stroke-width: 0px; fill: rgb(247, 37, 133); fill-opacity: 1;"/></g></g></g></g><g class="scatterlayer mlayer"><g class="trace scatter trace0b7c6e" style="stroke-miterlimit: 2; opacity: 1;"><g class="fills"/><g class="errorbars"/><g class="lines"><path class="js-line" d="M3.2,27.61L9.59,54.06L15.98,64.34L22.37,65.08L28.76,71.69L35.16,73.16L41.55,66.02L47.94,71.69L54.33,70.22L60.72,73.89L67.12,74.89L73.51,72.79L79.9,69.65L86.29,68.22L92.68,65.52L99.08,70.22L105.47,66.99L111.86,67.28L118.25,70.22L124.64,69.92L131.04,70.51L137.43,73.75L143.82,71.98L150.21,74.04L156.6,70.22L169.39,71.98L175.78,75.8L182.17,79.03L188.56,84.62L194.96,82.85L201.35,86.09L207.74,86.97L214.13,82.85L226.92,75.8L233.31,74.63L239.7,71.98L246.09,70.81L252.48,70.22L258.88,66.4L265.27,64.05L271.66,64.05L278.05,64.93L284.44,60.23L297.23,60.81L303.62,59.93L310.01,62.28L316.4,61.11L322.8,66.1L329.19,66.69L348.36,69.92L354.76,69.04L361.15,71.98L367.54,70.81L373.93,65.81L380.32,65.81L386.72,62.87L393.11,61.7L399.5,62.58L405.89,60.81L412.28,64.93L418.68,59.35L425.07,57.88L431.46,59.64L437.85,56.99L444.24,58.76L450.64,59.35L457.03,61.4L463.42,63.46L469.81,68.16L482.6,71.69L488.99,73.16L495.38,71.98L501.77,74.33L508.16,74.92L514.56,78.15L520.95,77.27L527.34,74.33L540.12,73.16L546.52,76.39L552.91,72.86L559.3,67.57L565.69,66.99L572.08,67.57L578.48,70.81L584.87,68.75L597.65,60.52L604.04,61.4L610.44,64.05L616.83,69.63L623.22,69.63L629.61,68.75L636,69.34" style="vector-effect: none; fill: none; stroke: rgb(114, 9, 183); stroke-opacity: 1; stroke-width: 2px; opacity: 1;"/></g><g class="points"/><g class="text"/></g></g></g></g><path class="xlines-above crisp" d="M0,0" style="fill: none;"/><path class="ylines-above crisp" d="M0,0" style="fill: none;"/><g class="overlines-above"/><g class="xaxislayer-above"/><g class="yaxislayer-above"/><g class="overaxes-above"/></g></g><g class="polarlayer"/><g class="smithlayer"/><g class="ternarylayer"/><g class="geolayer"/><g class="funnelarealayer"/><g class="pielayer"/><g class="iciclelayer"/><g class="treemaplayer"/><g class="sunburstlayer"/><g class="glimages"/><defs id="topdefs-044a58"><g class="clips"/></defs><g class="layer-above"><g class="imagelayer"/><g class="shapelayer"/></g><g class="infolayer"><g class="g-gtitle"/></g></svg>