<svg class="main-svg" xmlns="http://www.w3.org/2000/svg" xmlns:xlink="http://www.w3.org/1999/xlink" width="700" height="500" style="" viewBox="0 0 700 500"><rect x="0" y="0" width="700" height="500" style="fill: rgb(255, 255, 255); fill-opacity: 1;"/><defs id="defs-912775"><g class="clips"><clipPath id="clip912775xyplot" class="plotclip"><rect width="639.1999999999999" height="464"/></clipPath><clipPath class="axesclip" id="clip912775x"><rect x="10" y="0" width="639.1999999999999" height="500"/></clipPath><clipPath class="axesclip" id="clip912775y"><rect x="0" y="26" width="700" height="464"/></clipPath><clipPath class="axesclip" id="clip912775xy"><rect x="10" y="26" width="639.1999999999999" height="464"/></clipPath></g><g class="gradients"/><g class="patterns"/></defs><g class="bglayer"/><g class="layer-below"><g class="imagelayer"/><g class="shapelayer"/></g><g class="cartesianlayer"><g class="subplot xy"><g class="layer-subplot"><g class="shapelayer"/><g class="imagelayer"/></g><g class="minor-gridlayer"><g class="x"/><g class="y"/></g><g class="gridlayer"><g class="x"/><g class="y"/></g><g class="zerolinelayer"/><g class="layer-between"><g class="shapelayer"/><g class="imagelayer"/></g><path class="xlines-below"/><path class="ylines-below"/><g class="overlines-below"/><g class="xaxislayer-below"/><g class="yaxislayer-below"/><g class="overaxes-below"/><g class="overplot"><g class="xy" transform="translate(10,26)" clip-path="url(#clip912775xyplot)"><g class="scatterlayer mlayer"><g class="trace scatter tracec17b27" style="stroke-miterlimit: 2; opacity: 1;"><g class="fills"/><g class="errorbars"/><g class="lines"><path class="js-line" d="M35.71,81.63L41.45,67.96L47.18,67.96L52.92,47.46L58.65,61.13L64.39,40.62L70.12,47.46L75.86,26.95L81.59,47.46L87.33,67.96L93.06,26.95L98.8,54.29L104.53,95.3L110.27,67.96L116,74.8L121.74,61.13L127.47,61.13L133.21,47.46L138.94,61.13L144.68,61.13L150.41,47.46L156.15,47.46L161.88,33.78L167.62,40.62L173.35,81.63L179.09,88.47L184.82,33.78L190.56,47.46L196.29,33.78L207.76,74.8L213.5,33.78L219.23,40.62L224.97,54.29L230.71,26.95L236.44,88.47L242.18,95.3L247.91,54.29L253.65,74.8L259.38,88.47L265.12,61.13L270.85,88.47L276.59,33.78L282.32,40.62L288.06,61.13L293.79,40.62L299.53,61.13L305.26,33.78L311,61.13L316.73,26.95L322.47,47.46L328.2,61.13L333.94,26.95L339.67,67.96L345.41,33.78L351.14,95.3L356.88,88.47L362.61,61.13L368.35,47.46L374.08,26.95L379.82,67.96L385.55,61.13L391.29,95.3L397.02,54.29L402.76,54.29L408.49,61.13L414.23,26.95L419.97,47.46L425.7,47.46L431.44,54.29L442.91,81.63L448.64,81.63L454.38,67.96L460.11,40.62L465.85,26.95L471.58,54.29L477.32,95.3L483.05,61.13L488.79,40.62L494.52,95.3L500.26,74.8L505.99,95.3L511.73,67.96L517.46,74.8L523.2,47.46L528.93,95.3L534.67,95.3L540.4,47.46L546.14,26.95L551.87,74.8L557.61,54.29L563.34,61.13L569.08,95.3L574.81,74.8L580.55,74.8L586.28,26.95L592.02,61.13L597.75,40.62L603.49,47.46" style="vector-effect: none; fill: none; stroke: rgb(247, 37, 133); stroke-opacity: 1; stroke-width: 2px; opacity: 1;"/></g><g class="points"><path class="point" transform="translate(35.71,81.63)" d="M3,0A3,3 0 1,1 0,-3A3,3 0 0,1 3,0Z" style="opacity: 1; stroke-width: 0px; fill: rgb(247, 37, 133); fill-opacity: 1;"/><path class="point" transform="translate(41.45,67.96)" d="M3,0A3,3 0 1,1 0,-3A3,3 0 0,1 3,0Z" style="opacity: 1; stroke-width: 0px; fill: rgb(247, 37, 133); fill-opacity: 1;"/><path class="point" transform="translate(47.18,67.96)" d="M3,0A3,3 0 1,1 0,-3A3,3 0 0,1 3,0Z" style="opacity: 1; stroke-width: 0px; fill: rgb(247, 37, 133); fill-opacity: 1;"/><path class="point" transform="translate(52.92,47.46)" d="M3,0A3,3 0 1,1 0,-3A3,3 0 0,1 3,0Z" style="opacity: 1; stroke-width: 0px; fill: rgb(247, 37, 133); fill-opacity: 1;"/><path class="point" transform="translate(58.65,61.13)" d="M3,0A3,3 0 1,1 0,-3A3,3 0 0,1 3,0Z" style="opacity: 1; stroke-width: 0px; fill: rgb(247, 37, 133); fill-opacity: 1;"/><path class="point" transform="translate(64.39,40.62)" d="M3,0A3,3 0 1,1 0,-3A3,3 0 0,1 3,0Z" style="opacity: 1; stroke-width: 0px; fill: rgb(247, 37, 133); fill-opacity: 1;"/><path class="point" transform="translate(70.12,47.46)" d="M3,0A3,3 0 1,1 0,-3A3,3 0 0,1 3,0Z" style="opacity: 1; stroke-width: 0px; fill: rgb(247, 37, 133); fill-opacity: 1;"/><path class="point" transform="translate(75.86,26.95)" d="M3,0A3,3 0 1,1 0,-3A3,3 0 0,1 3,0Z" style="opacity: 1; stroke-width: 0px; fill: rgb(247, 37, 133); fill-opacity: 1;"/><path class="point" transform="translate(81.59,47.46)" d="M3,0A3,3 0 1,1 0,-3A3,3 0 0,1 3,0Z" style="opacity: 1; stroke-width: 0px; fill: rgb(247, 37, 133); fill-opacity: 1;"/><path class="point" transform="translate(87.33,67.96)" d="M3,0A3,3 0 1,1 0,-3A3,3 0 0,1 3,0Z" style="opacity: 1; stroke-width: 0px; fill: rgb(247, 37, 133); fill-opacity: 1;"/><path class="point" transform="translate(93.06,26.95)" d="M3,0A3,3 0 1,1 0,-3A3,3 0 0,1 3,0Z" style="opacity: 1; stroke-width: 0px; fill: rgb(247, 37, 133); fill-opacity: 1;"/><path class="point" transform="translate(98.8,54.29)" d="M3,0A3,3 0 1,1 0,-3A3,3 0 0,1 3,0Z" style="opacity: 1; stroke-width: 0px; fill: rgb(247, 37, 133); fill-opacity: 1;"/><path class="point" transform="translate(104.53,95.3)" d="M3,0A3,3 0 1,1 0,-3A3,3 0 0,1 3,0Z" style="opacity: 1; stroke-width: 0px; fill: rgb(247, 37, 133); fill-opacity: 1;"/><path class="point" transform="translate(110.27,67.96)" d="M3,0A3,3 0 1,1 0,-3A3,3 0 0,1 3,0Z" style="opacity: 1; stroke-width: 0px; fill: rgb(247, 37, 133); fill-opacity: 1;"/><path class="point" transform="translate(116,74.8)" d="M3,0A3,3 0 1,1 0,-3A3,3 0 0,1 3,0Z" style="opacity: 1; stroke-width: 0px; fill: rgb(247, 37, 133); fill-opacity: 1;"/><path class="point" transform="translate(121.74,61.13)" d="M3,0A3,3 0 1,1 0,-3A3,3 0 0,1 3,0Z" style="opacity: 1; stroke-width: 0px; fill: rgb(247, 37, 133); fill-opacity: 1;"/><path class="point" transform="translate(127.47,61.13)" d="M3,0A3,3 0 1,1 0,-3A3,3 0 0,1 3,0Z" style="opacity: 1; stroke-width: 0px; fill: rgb(247, 37, 133); fill-opacity: 1;"/><path class="point" transform="translate(133.21,47.46)" d="M3,0A3,3 0 1,1 0,-3A3,3 0 0,1 3,0Z" style="opacity: 1; stroke-width: 0px; fill: rgb(247, 37, 133); fill-opacity: 1;"/><path class="point" transform="translate(138.94,61.13)" d="M3,0A3,3 0 1,1 0,-3A3,3 0 0,1 3,0Z" style="opacity: 1; stroke-width: 0px; fill: rgb(247, 37, 133); fill-opacity: 1;"/><path class="point" transform="translate(144.68,61.13)" d="M3,0A3,3 0 1,1 0,-3A3,3 0 0,1 3,0Z" style="opacity: 1; stroke-width: 0px; fill: rgb(247, 37, 133); fill-opacity: 1;"/><path class="point" transform="translate(150.41,47.46)" d="M3,0A3,3 0 1,1 0,-3A3,3 0 0,1 3,0Z" style="opacity: 1; stroke-width: 0px; fill: rgb(247, 37, 133); fill-opacity: 1;"/><path class="point" transform="translate(156.15,47.46)" d="M3,0A3,3 0 1,1 0,-3A3,3 0 0,1 3,0Z" style="opacity: 1; stroke-width: 0px; fill: rgb(247, 37, 133); fill-opacity: 1;"/><path class="point" transform="translate(161.88,33.78)" d="M3,0A3,3 0 1,1 0,-3A3,3 0 0,1 3,0Z" style="opacity: 1; stroke-width: 0px; fill: rgb(247, 37, 133); fill-opacity: 1;"/><path class="point" transform="translate(167.62,40.62)" d="M3,0A3,3 0 1,1 0,-3A3,3 0 0,1 3,0Z" style="opacity: 1; stroke-width: 0px; fill: rgb(247, 37, 133); fill-opacity: 1;"/><path class="point" transform="translate(173.35,81.63)" d="M3,0A3,3 0 1,1 0,-3A3,3 0 0,1 3,0Z" style="opacity: 1; stroke-width: 0px; fill: rgb(247, 37, 133); fill-opacity: 1;"/><path class="point" transform="translate(179.09,88.47)" d="M3,0A3,3 0 1,1 0,-3A3,3 0 0,1 3,0Z" style="opacity: 1; stroke-width: 0px; fill: rgb(247, 37, 133); fill-opacity: 1;"/><path class="point" transform="translate(184.82,33.78)" d="M3,0A3,3 0 1,1 0,-3A3,3 0 0,1 3,0Z" style="opacity: 1; stroke-width: 0px; fill: rgb(247, 37, 133); fill-opacity: 1;"/><path class="point" transform="translate(190.56,47.46)" d="M3,0A3,3 0 1,1 0,-3A3,3 0 0,1 3,0Z" style="opacity: 1; stroke-width: 0px; fill: rgb(247, 37, 133); fill-opacity: 1;"/><path class="point" transform="translate(196.29,33.78)" d="M3,0A3,3 0 1,1 0,-3A3,3 0 0,1 3,0Z" style="opacity: 1; stroke-width: 0px; fill: rgb(247, 37, 133); fill-opacity: 1;"/><path class="point" transform="translate(202.03,54.29)" d="M3,0A3,3 0 1,1 0,-3A3,3 0 0,1 3,0Z" style="opacity: 1; stroke-width: 0px; fill: rgb(247, 37, 133); fill-opacity: 1;"/><path class="point" transform="translate(207.76,74.8)" d="M3,0A3,3 0 1,1 0,-3A3,3 0 0,1 3,0Z" style="opacity: 1; stroke-width: 0px; fill: rgb(247, 37, 133); fill-opacity: 1;"/><path class="point" transform="translate(213.5,33.78)" d="M3,0A3,3 0 1,1 0,-3A3,3 0 0,1 3,0Z" style="opacity: 1; stroke-width: 0px; fill: rgb(247, 37, 133); fill-opacity: 1;"/><path class="point" transform="translate(219.23,40.62)" d="M3,0A3,3 0 1,1 0,-3A3,3 0 0,1 3,0Z" style="opacity: 1; stroke-width: 0px; fill: rgb(247, 37, 133); fill-opacity: 1;"/><path class="point" transform="translate(224.97,54.29)" d="M3,0A3,3 0 1,1 0,-3A3,3 0 0,1 3,0Z" style="opacity: 1; stroke-width: 0px; fill: rgb(247, 37, 133); fill-opacity: 1;"/><path class="point" transform="translate(230.71,26.95)" d="M3,0A3,3 0 1,1 0,-3A3,3 0 0,1 3,0Z" style="opacity: 1; stroke-width: 0px; fill: rgb(247, 37, 133); fill-opacity: 1;"/><path class="point" transform="translate(236.44,88.47)" d="M3,0A3,3 0 1,1 0,-3A3,3 0 0,1 3,0Z" style="opacity: 1; stroke-width: 0px; fill: rgb(247, 37, 133); fill-opacity: 1;"/><path class="point" transform="translate(242.18,95.3)" d="M3,0A3,3 0 1,1 0,-3A3,3 0 0,1 3,0Z" style="opacity: 1; stroke-width: 0px; fill: rgb(247, 37, 133); fill-opacity: 1;"/><path class="point" transform="translate(247.91,54.29)" d="M3,0A3,3 0 1,1 0,-3A3,3 0 0,1 3,0Z" style="opacity: 1; stroke-width: 0px; fill: rgb(247, 37, 133); fill-opacity: 1;"/><path class="point" transform="translate(253.65,74.8)" d="M3,0A3,3 0 1,1 0,-3A3,3 0 0,1 3,0Z" style="opacity: 1; stroke-width: 0px; fill: rgb(247, 37, 133); fill-opacity: 1;"/><path class="point" transform="translate(259.38,88.47)" d="M3,0A3,3 0 1,1 0,-3A3,3 0 0,1 3,0Z" style="opacity: 1; stroke-width: 0px; fill: rgb(247, 37, 133); fill-opacity: 1;"/><path class="point" transform="translate(265.12,61.13)" d="M3,0A3,3 0 1,1 0,-3A3,3 0 0,1 3,0Z" style="opacity: 1; stroke-width: 0px; fill: rgb(247, 37, 133); fill-opacity: 1;"/><path class="point" transform="translate(270.85,88.47)" d="M3,0A3,3 0 1,1 0,-3A3,3 0 0,1 3,0Z" style="opacity: 1; stroke-width: 0px; fill: rgb(247, 37, 133); fill-opacity: 1;"/><path class="point" transform="translate(276.59,33.78)" d="M3,0A3,3 0 1,1 0,-3A3,3 0 0,1 3,0Z" style="opacity: 1; stroke-width: 0px; fill: rgb(247, 37, 133); fill-opacity: 1;"/><path class="point" transform="translate(282.32,40.62)" d="M3,0A3,3 0 1,1 0,-3A3,3 0 0,1 3,0Z" style="opacity: 1; stroke-width: 0px; fill: rgb(247, 37, 133); fill-opacity: 1;"/><path class="point" transform="translate(288.06,61.13)" d="M3,0A3,3 0 1,1 0,-3A3,3 0 0,1 3,0Z" style="opacity: 1; stroke-width: 0px; fill: rgb(247, 37, 133); fill-opacity: 1;"/><path class="point" transform="translate(293.79,40.62)" d="M3,0A3,3 0 1,1 0,-3A3,3 0 0,1 3,0Z" style="opacity: 1; stroke-width: 0px; fill: rgb(247, 37, 133); fill-opacity: 1;"/><path class="point" transform="translate(299.53,61.13)" d="M3,0A3,3 0 1,1 0,-3A3,3 0 0,1 3,0Z" style="opacity: 1; stroke-width: 0px; fill: rgb(247, 37, 133); fill-opacity: 1;"/><path class="point" transform="translate(305.26,33.78)" d="M3,0A3,3 0 1,1 0,-3A3,3 0 0,1 3,0Z" style="opacity: 1; stroke-width: 0px; fill: rgb(247, 37, 133); fill-opacity: 1;"/><path class="point" transform="translate(311,61.13)" d="M3,0A3,3 0 1,1 0,-3A3,3 0 0,1 3,0Z" style="opacity: 1; stroke-width: 0px; fill: rgb(247, 37, 133); fill-opacity: 1;"/><path class="point" transform="translate(316.73,26.95)" d="M3,0A3,3 0 1,1 0,-3A3,3 0 0,1 3,0Z" style="opacity: 1; stroke-width: 0px; fill: rgb(247, 37, 133); fill-opacity: 1;"/><path class="point" transform="translate(322.47,47.46)" d="M3,0A3,3 0 1,1 0,-3A3,3 0 0,1 3,0Z" style="opacity: 1; stroke-width: 0px; fill: rgb(247, 37, 133); fill-opacity: 1;"/><path class="point" transform="translate(328.2,61.13)" d="M3,0A3,3 0 1,1 0,-3A3,3 0 0,1 3,0Z" style="opacity: 1; stroke-width: 0px; fill: rgb(247, 37, 133); fill-opacity: 1;"/><path class="point" transform="translate(333.94,26.95)" d="M3,0A3,3 0 1,1 0,-3A3,3 0 0,1 3,0Z" style="opacity: 1; stroke-width: 0px; fill: rgb(247, 37, 133); fill-opacity: 1;"/><path class="point" transform="translate(339.67,67.96)" d="M3,0A3,3 0 1,1 0,-3A3,3 0 0,1 3,0Z" style="opacity: 1; stroke-width: 0px; fill: rgb(247, 37, 133); fill-opacity: 1;"/><path class="point" transform="translate(345.41,33.78)" d="M3,0A3,3 0 1,1 0,-3A3,3 0 0,1 3,0Z" style="opacity: 1; stroke-width: 0px; fill: rgb(247, 37, 133); fill-opacity: 1;"/><path class="point" transform="translate(351.14,95.3)" d="M3,0A3,3 0 1,1 0,-3A3,3 0 0,1 3,0Z" style="opacity: 1; stroke-width: 0px; fill: rgb(247, 37, 133); fill-opacity: 1;"/><path class="point" transform="translate(356.88,88.47)" d="M3,0A3,3 0 1,1 0,-3A3,3 0 0,1 3,0Z" style="opacity: 1; stroke-width: 0px; fill: rgb(247, 37, 133); fill-opacity: 1;"/><path class="point" transform="translate(362.61,61.13)" d="M3,0A3,3 0 1,1 0,-3A3,3 0 0,1 3,0Z" style="opacity: 1; stroke-width: 0px; fill: rgb(247, 37, 133); fill-opacity: 1;"/><path class="point" transform="translate(368.35,47.46)" d="M3,0A3,3 0 1,1 0,-3A3,3 0 0,1 3,0Z" style="opacity: 1; stroke-width: 0px; fill: rgb(247, 37, 133); fill-opacity: 1;"/><path class="point" transform="translate(374.08,26.95)" d="M3,0A3,3 0 1,1 0,-3A3,3 0 0,1 3,0Z" style="opacity: 1; stroke-width: 0px; fill: rgb(247, 37, 133); fill-opacity: 1;"/><path class="point" transform="translate(379.82,67.96)" d="M3,0A3,3 0 1,1 0,-3A3,3 0 0,1 3,0Z" style="opacity: 1; stroke-width: 0px; fill: rgb(247, 37, 133); fill-opacity: 1;"/><path class="point" transform="translate(385.55,61.13)" d="M3,0A3,3 0 1,1 0,-3A3,3 0 0,1 3,0Z" style="opacity: 1; stroke-width: 0px; fill: rgb(247, 37, 133); fill-opacity: 1;"/><path class="point" transform="translate(391.29,95.3)" d="M3,0A3,3 0 1,1 0,-3A3,3 0 0,1 3,0Z" style="opacity: 1; stroke-width: 0px; fill: rgb(247, 37, 133); fill-opacity: 1;"/><path class="point" transform="translate(397.02,54.29)" d="M3,0A3,3 0 1,1 0,-3A3,3 0 0,1 3,0Z" style="opacity: 1; stroke-width: 0px; fill: rgb(247, 37, 133); fill-opacity: 1;"/><path class="point" transform="translate(402.76,54.29)" d="M3,0A3,3 0 1,1 0,-3A3,3 0 0,1 3,0Z" style="opacity: 1; stroke-width: 0px; fill: rgb(247, 37, 133); fill-opacity: 1;"/><path class="point" transform="translate(408.49,61.13)" d="M3,0A3,3 0 1,1 0,-3A3,3 0 0,1 3,0Z" style="opacity: 1; stroke-width: 0px; fill: rgb(247, 37, 133); fill-opacity: 1;"/><path class="point" transform="translate(414.23,26.95)" d="M3,0A3,3 0 1,1 0,-3A3,3 0 0,1 3,0Z" style="opacity: 1; stroke-width: 0px; fill: rgb(247, 37, 133); fill-opacity: 1;"/><path class="point" transform="translate(419.97,47.46)" d="M3,0A3,3 0 1,1 0,-3A3,3 0 0,1 3,0Z" style="opacity: 1; stroke-width: 0px; fill: rgb(247, 37, 133); fill-opacity: 1;"/><path class="point" transform="translate(425.7,47.46)" d="M3,0A3,3 0 1,1 0,-3A3,3 0 0,1 3,0Z" style="opacity: 1; stroke-width: 0px; fill: rgb(247, 37, 133); fill-opacity: 1;"/><path class="point" transform="translate(431.44,54.29)" d="M3,0A3,3 0 1,1 0,-3A3,3 0 0,1 3,0Z" style="opacity: 1; stroke-width: 0px; fill: rgb(247, 37, 133); fill-opacity: 1;"/><path class="point" transform="translate(437.17,67.96)" d="M3,0A3,3 0 1,1 0,-3A3,3 0 0,1 3,0Z" style="opacity: 1; stroke-width: 0px; fill: rgb(247, 37, 133); fill-opacity: 1;"/><path class="point" transform="translate(442.91,81.63)" d="M3,0A3,3 0 1,1 0,-3A3,3 0 0,1 3,0Z" style="opacity: 1; stroke-width: 0px; fill: rgb(247, 37, 133); fill-opacity: 1;"/><path class="point" transform="translate(448.64,81.63)" d="M3,0A3,3 0 1,1 0,-3A3,3 0 0,1 3,0Z" style="opacity: 1; stroke-width: 0px; fill: rgb(247, 37, 133); fill-opacity: 1;"/><path class="point" transform="translate(454.38,67.96)" d="M3,0A3,3 0 1,1 0,-3A3,3 0 0,1 3,0Z" style="opacity: 1; stroke-width: 0px; fill: rgb(247, 37, 133); fill-opacity: 1;"/><path class="point" transform="translate(460.11,40.62)" d="M3,0A3,3 0 1,1 0,-3A3,3 0 0,1 3,0Z" style="opacity: 1; stroke-width: 0px; fill: rgb(247, 37, 133); fill-opacity: 1;"/><path class="point" transform="translate(465.85,26.95)" d="M3,0A3,3 0 1,1 0,-3A3,3 0 0,1 3,0Z" style="opacity: 1; stroke-width: 0px; fill: rgb(247, 37, 133); fill-opacity: 1;"/><path class="point" transform="translate(471.58,54.29)" d="M3,0A3,3 0 1,1 0,-3A3,3 0 0,1 3,0Z" style="opacity: 1; stroke-width: 0px; fill: rgb(247, 37, 133); fill-opacity: 1;"/><path class="point" transform="translate(477.32,95.3)" d="M3,0A3,3 0 1,1 0,-3A3,3 0 0,1 3,0Z" style="opacity: 1; stroke-width: 0px; fill: rgb(247, 37, 133); fill-opacity: 1;"/><path class="point" transform="translate(483.05,61.13)" d="M3,0A3,3 0 1,1 0,-3A3,3 0 0,1 3,0Z" style="opacity: 1; stroke-width: 0px; fill: rgb(247, 37, 133); fill-opacity: 1;"/><path class="point" transform="translate(488.79,40.62)" d="M3,0A3,3 0 1,1 0,-3A3,3 0 0,1 3,0Z" style="opacity: 1; stroke-width: 0px; fill: rgb(247, 37, 133); fill-opacity: 1;"/><path class="point" transform="translate(494.52,95.3)" d="M3,0A3,3 0 1,1 0,-3A3,3 0 0,1 3,0Z" style="opacity: 1; stroke-width: 0px; fill: rgb(247, 37, 133); fill-opacity: 1;"/><path class="point" transform="translate(500.26,74.8)" d="M3,0A3,3 0 1,1 0,-3A3,3 0 0,1 3,0Z" style="opacity: 1; stroke-width: 0px; fill: rgb(247, 37, 133); fill-opacity: 1;"/><path class="point" transform="translate(505.99,95.3)" d="M3,0A3,3 0 1,1 0,-3A3,3 0 0,1 3,0Z" style="opacity: 1; stroke-width: 0px; fill: rgb(247, 37, 133); fill-opacity: 1;"/><path class="point" transform="translate(511.73,67.96)" d="M3,0A3,3 0 1,1 0,-3A3,3 0 0,1 3,0Z" style="opacity: 1; stroke-width: 0px; fill: rgb(247, 37, 133); fill-opacity: 1;"/><path class="point" transform="translate(517.46,74.8)" d="M3,0A3,3 0 1,1 0,-3A3,3 0 0,1 3,0Z" style="opacity: 1; stroke-width: 0px; fill: rgb(247, 37, 133); fill-opacity: 1;"/><path class="point" transform="translate(523.2,47.46)" d="M3,0A3,3 0 1,1 0,-3A3,3 0 0,1 3,0Z" style="opacity: 1; stroke-width: 0px; fill: rgb(247, 37, 133); fill-opacity: 1;"/><path class="point" transform="translate(528.93,95.3)" d="M3,0A3,3 0 1,1 0,-3A3,3 0 0,1 3,0Z" style="opacity: 1; stroke-width: 0px; fill: rgb(247, 37, 133); fill-opacity: 1;"/><path class="point" transform="translate(534.67,95.3)" d="M3,0A3,3 0 1,1 0,-3A3,3 0 0,1 3,0Z" style="opacity: 1; stroke-width: 0px; fill: rgb(247, 37, 133); fill-opacity: 1;"/><path class="point" transform="translate(540.4,47.46)" d="M3,0A3,3 0 1,1 0,-3A3,3 0 0,1 3,0Z" style="opacity: 1; stroke-width: 0px; fill: rgb(247, 37, 133); fill-opacity: 1;"/><path class="point" transform="translate(546.14,26.95)" d="M3,0A3,3 0 1,1 0,-3A3,3 0 0,1 3,0Z" style="opacity: 1; stroke-width: 0px; fill: rgb(247, 37, 133); fill-opacity: 1;"/><path class="point" transform="translate(551.87,74.8)" d="M3,0A3,3 0 1,1 0,-3A3,3 0 0,1 3,0Z" style="opacity: 1; stroke-width: 0px; fill: rgb(247, 37, 133); fill-opacity: 1;"/><path class="point" transform="translate(557.61,54.29)" d="M3,0A3,3 0 1,1 0,-3A3,3 0 0,1 3,0Z" style="opacity: 1; stroke-width: 0px; fill: rgb(247, 37, 133); fill-opacity: 1;"/><path class="point" transform="translate(563.34,61.13)" d="M3,0A3,3 0 1,1 0,-3A3,3 0 0,1 3,0Z" style="opacity: 1; stroke-width: 0px; fill: rgb(247, 37, 133); fill-opacity: 1;"/><path class="point" transform="translate(569.08,95.3)" d="M3,0A3,3 0 1,1 0,-3A3,3 0 0,1 3,0Z" style="opacity: 1; stroke-width: 0px; fill: rgb(247, 37, 133); fill-opacity: 1;"/><path class="point" transform="translate(574.81,74.8)" d="M3,0A3,3 0 1,1 0,-3A3,3 0 0,1 3,0Z" style="opacity: 1; stroke-width: 0px; fill: rgb(247, 37, 133); fill-opacity: 1;"/><path class="point" transform="translate(580.55,74.8)" d="M3,0A3,3 0 1,1 0,-3A3,3 0 0,1 3,0Z" style="opacity: 1; stroke-width: 0px; fill: rgb(247, 37, 133); fill-opacity: 1;"/><path class="point" transform="translate(586.28,26.95)" d="M3,0A3,3 0 1,1 0,-3A3,3 0 0,1 3,0Z" style="opacity: 1; stroke-width: 0px; fill: rgb(247, 37, 133); fill-opacity: 1;"/><path class="point" transform="translate(592.02,61.13)" d="M3,0A3,3 0 1,1 0,-3A3,3 0 0,1 3,0Z" style="opacity: 1; stroke-width: 0px; fill: rgb(247, 37, 133); fill-opacity: 1;"/><path class="point" transform="translate(597.75,40.62)" d="M3,0A3,3 0 1,1 0,-3A3,3 0 0,1 3,0Z" style="opacity: 1; stroke-width: 0px; fill: rgb(247, 37, 133); fill-opacity: 1;"/><path class="point" transform="translate(603.49,47.46)" d="M3,0A3,3 0 1,1 0,-3A3,3 0 0,1 3,0Z" style="opacity: 1; stroke-width: 0px; fill: rgb(247, 37, 133); fill-opacity: 1;"/></g><g class="text"/></g><g class="trace scatter trace8165e1" style="stroke-miterlimit: 2; opacity: 1;"><g class="fills"/><g class="errorbars"/><g class="lines"/><g class="points"><path class="point" transform="translate(35.71,402.88)" d="M3,0A3,3 0 1,1 0,-3A3,3 0 0,1 3,0Z" style="opacity: 1; stroke-width: 0px; fill: rgb(114, 9, 183); fill-opacity: 1;"/><path class="point" transform="translate(41.45,382.37)" d="M3,0A3,3 0 1,1 0,-3A3,3 0 0,1 3,0Z" style="opacity: 1; stroke-width: 0px; fill: rgb(114, 9, 183); fill-opacity: 1;"/><path class="point" transform="translate(47.18,402.88)" d="M3,0A3,3 0 1,1 0,-3A3,3 0 0,1 3,0Z" style="opacity: 1; stroke-width: 0px; fill: rgb(114, 9, 183); fill-opacity: 1;"/><path class="point" transform="translate(52.92,389.21)" d="M3,0A3,3 0 1,1 0,-3A3,3 0 0,1 3,0Z" style="opacity: 1; stroke-width: 0px; fill: rgb(114, 9, 183); fill-opacity: 1;"/><path class="point" transform="translate(58.65,416.54)" d="M3,0A3,3 0 1,1 0,-3A3,3 0 0,1 3,0Z" style="opacity: 1; stroke-width: 0px; fill: rgb(114, 9, 183); fill-opacity: 1;"/><path class="point" transform="translate(64.39,382.37)" d="M3,0A3,3 0 1,1 0,-3A3,3 0 0,1 3,0Z" style="opacity: 1; stroke-width: 0px; fill: rgb(114, 9, 183); fill-opacity: 1;"/><path class="point" transform="translate(70.12,437.05)" d="M3,0A3,3 0 1,1 0,-3A3,3 0 0,1 3,0Z" style="opacity: 1; stroke-width: 0px; fill: rgb(114, 9, 183); fill-opacity: 1;"/><path class="point" transform="translate(75.86,402.88)" d="M3,0A3,3 0 1,1 0,-3A3,3 0 0,1 3,0Z" style="opacity: 1; stroke-width: 0px; fill: rgb(114, 9, 183); fill-opacity: 1;"/><path class="point" transform="translate(81.59,396.04)" d="M3,0A3,3 0 1,1 0,-3A3,3 0 0,1 3,0Z" style="opacity: 1; stroke-width: 0px; fill: rgb(114, 9, 183); fill-opacity: 1;"/><path class="point" transform="translate(87.33,430.22)" d="M3,0A3,3 0 1,1 0,-3A3,3 0 0,1 3,0Z" style="opacity: 1; stroke-width: 0px; fill: rgb(114, 9, 183); fill-opacity: 1;"/><path class="point" transform="translate(93.06,368.7)" d="M3,0A3,3 0 1,1 0,-3A3,3 0 0,1 3,0Z" style="opacity: 1; stroke-width: 0px; fill: rgb(114, 9, 183); fill-opacity: 1;"/><path class="point" transform="translate(98.8,409.71)" d="M3,0A3,3 0 1,1 0,-3A3,3 0 0,1 3,0Z" style="opacity: 1; stroke-width: 0px; fill: rgb(114, 9, 183); fill-opacity: 1;"/><path class="point" transform="translate(104.53,416.54)" d="M3,0A3,3 0 1,1 0,-3A3,3 0 0,1 3,0Z" style="opacity: 1; stroke-width: 0px; fill: rgb(114, 9, 183); fill-opacity: 1;"/><path class="point" transform="translate(110.27,396.04)" d="M3,0A3,3 0 1,1 0,-3A3,3 0 0,1 3,0Z" style="opacity: 1; stroke-width: 0px; fill: rgb(114, 9, 183); fill-opacity: 1;"/><path class="point" transform="translate(116,402.88)" d="M3,0A3,3 0 1,1 0,-3A3,3 0 0,1 3,0Z" style="opacity: 1; stroke-width: 0px; fill: rgb(114, 9, 183); fill-opacity: 1;"/><path class="point" transform="translate(121.74,396.04)" d="M3,0A3,3 0 1,1 0,-3A3,3 0 0,1 3,0Z" style="opacity: 1; stroke-width: 0px; fill: rgb(114, 9, 183); fill-opacity: 1;"/><path class="point" transform="translate(127.47,423.38)" d="M3,0A3,3 0 1,1 0,-3A3,3 0 0,1 3,0Z" style="opacity: 1; stroke-width: 0px; fill: rgb(114, 9, 183); fill-opacity: 1;"/><path class="point" transform="translate(133.21,416.54)" d="M3,0A3,3 0 1,1 0,-3A3,3 0 0,1 3,0Z" style="opacity: 1; stroke-width: 0px; fill: rgb(114, 9, 183); fill-opacity: 1;"/><path class="point" transform="translate(138.94,382.37)" d="M3,0A3,3 0 1,1 0,-3A3,3 0 0,1 3,0Z" style="opacity: 1; stroke-width: 0px; fill: rgb(114, 9, 183); fill-opacity: 1;"/><path class="point" transform="translate(144.68,389.21)" d="M3,0A3,3 0 1,1 0,-3A3,3 0 0,1 3,0Z" style="opacity: 1; stroke-width: 0px; fill: rgb(114, 9, 183); fill-opacity: 1;"/><path class="point" transform="translate(150.41,389.21)" d="M3,0A3,3 0 1,1 0,-3A3,3 0 0,1 3,0Z" style="opacity: 1; stroke-width: 0px; fill: rgb(114, 9, 183); fill-opacity: 1;"/><path class="point" transform="translate(156.15,416.54)" d="M3,0A3,3 0 1,1 0,-3A3,3 0 0,1 3,0Z" style="opacity: 1; stroke-width: 0px; fill: rgb(114, 9, 183); fill-opacity: 1;"/><path class="point" transform="translate(161.88,382.37)" d="M3,0A3,3 0 1,1 0,-3A3,3 0 0,1 3,0Z" style="opacity: 1; stroke-width: 0px; fill: rgb(114, 9, 183); fill-opacity: 1;"/><path class="point" transform="translate(167.62,389.21)" d="M3,0A3,3 0 1,1 0,-3A3,3 0 0,1 3,0Z" style="opacity: 1; stroke-width: 0px; fill: rgb(114, 9, 183); fill-opacity: 1;"/><path class="point" transform="translate(173.35,382.37)" d="M3,0A3,3 0 1,1 0,-3A3,3 0 0,1 3,0Z" style="opacity: 1; stroke-width: 0px; fill: rgb(114, 9, 183); fill-opacity: 1;"/><path class="point" transform="translate(179.09,409.71)" d="M3,0A3,3 0 1,1 0,-3A3,3 0 0,1 3,0Z" style="opacity: 1; stroke-width: 0px; fill: rgb(114, 9, 183); fill-opacity: 1;"/><path class="point" transform="translate(184.82,402.88)" d="M3,0A3,3 0 1,1 0,-3A3,3 0 0,1 3,0Z" style="opacity: 1; stroke-width: 0px; fill: rgb(114, 9, 183); fill-opacity: 1;"/><path class="point" transform="translate(190.56,375.54)" d="M3,0A3,3 0 1,1 0,-3A3,3 0 0,1 3,0Z" style="opacity: 1; stroke-width: 0px; fill: rgb(114, 9, 183); fill-opacity: 1;"/><path class="point" transform="translate(196.29,375.54)" d="M3,0A3,3 0 1,1 0,-3A3,3 0 0,1 3,0Z" style="opacity: 1; stroke-width: 0px; fill: rgb(114, 9, 183); fill-opacity: 1;"/><path class="point" transform="translate(202.03,368.7)" d="M3,0A3,3 0 1,1 0,-3A3,3 0 0,1 3,0Z" style="opacity: 1; stroke-width: 0px; fill: rgb(114, 9, 183); fill-opacity: 1;"/><path class="point" transform="translate(207.76,430.22)" d="M3,0A3,3 0 1,1 0,-3A3,3 0 0,1 3,0Z" style="opacity: 1; stroke-width: 0px; fill: rgb(114, 9, 183); fill-opacity: 1;"/><path class="point" transform="translate(213.5,375.54)" d="M3,0A3,3 0 1,1 0,-3A3,3 0 0,1 3,0Z" style="opacity: 1; stroke-width: 0px; fill: rgb(114, 9, 183); fill-opacity: 1;"/><path class="point" transform="translate(219.23,402.88)" d="M3,0A3,3 0 1,1 0,-3A3,3 0 0,1 3,0Z" style="opacity: 1; stroke-width: 0px; fill: rgb(114, 9, 183); fill-opacity: 1;"/><path class="point" transform="translate(224.97,423.38)" d="M3,0A3,3 0 1,1 0,-3A3,3 0 0,1 3,0Z" style="opacity: 1; stroke-width: 0px; fill: rgb(114, 9, 183); fill-opacity: 1;"/><path class="point" transform="translate(230.71,368.7)" d="M3,0A3,3 0 1,1 0,-3A3,3 0 0,1 3,0Z" style="opacity: 1; stroke-width: 0px; fill: rgb(114, 9, 183); fill-opacity: 1;"/><path class="point" transform="translate(236.44,402.88)" d="M3,0A3,3 0 1,1 0,-3A3,3 0 0,1 3,0Z" style="opacity: 1; stroke-width: 0px; fill: rgb(114, 9, 183); fill-opacity: 1;"/><path class="point" transform="translate(242.18,437.05)" d="M3,0A3,3 0 1,1 0,-3A3,3 0 0,1 3,0Z" style="opacity: 1; stroke-width: 0px; fill: rgb(114, 9, 183); fill-opacity: 1;"/><path class="point" transform="translate(247.91,375.54)" d="M3,0A3,3 0 1,1 0,-3A3,3 0 0,1 3,0Z" style="opacity: 1; stroke-width: 0px; fill: rgb(114, 9, 183); fill-opacity: 1;"/><path class="point" transform="translate(253.65,437.05)" d="M3,0A3,3 0 1,1 0,-3A3,3 0 0,1 3,0Z" style="opacity: 1; stroke-width: 0px; fill: rgb(114, 9, 183); fill-opacity: 1;"/><path class="point" transform="translate(259.38,409.71)" d="M3,0A3,3 0 1,1 0,-3A3,3 0 0,1 3,0Z" style="opacity: 1; stroke-width: 0px; fill: rgb(114, 9, 183); fill-opacity: 1;"/><path class="point" transform="translate(265.12,437.05)" d="M3,0A3,3 0 1,1 0,-3A3,3 0 0,1 3,0Z" style="opacity: 1; stroke-width: 0px; fill: rgb(114, 9, 183); fill-opacity: 1;"/><path class="point" transform="translate(270.85,375.54)" d="M3,0A3,3 0 1,1 0,-3A3,3 0 0,1 3,0Z" style="opacity: 1; stroke-width: 0px; fill: rgb(114, 9, 183); fill-opacity: 1;"/><path class="point" transform="translate(276.59,437.05)" d="M3,0A3,3 0 1,1 0,-3A3,3 0 0,1 3,0Z" style="opacity: 1; stroke-width: 0px; fill: rgb(114, 9, 183); fill-opacity: 1;"/><path class="point" transform="translate(282.32,402.88)" d="M3,0A3,3 0 1,1 0,-3A3,3 0 0,1 3,0Z" style="opacity: 1; stroke-width: 0px; fill: rgb(114, 9, 183); fill-opacity: 1;"/><path class="point" transform="translate(288.06,437.05)" d="M3,0A3,3 0 1,1 0,-3A3,3 0 0,1 3,0Z" style="opacity: 1; stroke-width: 0px; fill: rgb(114, 9, 183); fill-opacity: 1;"/><path class="point" transform="translate(293.79,409.71)" d="M3,0A3,3 0 1,1 0,-3A3,3 0 0,1 3,0Z" style="opacity: 1; stroke-width: 0px; fill: rgb(114, 9, 183); fill-opacity: 1;"/><path class="point" transform="translate(299.53,416.54)" d="M3,0A3,3 0 1,1 0,-3A3,3 0 0,1 3,0Z" style="opacity: 1; stroke-width: 0px; fill: rgb(114, 9, 183); fill-opacity: 1;"/><path class="point" transform="translate(305.26,423.38)" d="M3,0A3,3 0 1,1 0,-3A3,3 0 0,1 3,0Z" style="opacity: 1; stroke-width: 0px; fill: rgb(114, 9, 183); fill-opacity: 1;"/><path class="point" transform="translate(311,409.71)" d="M3,0A3,3 0 1,1 0,-3A3,3 0 0,1 3,0Z" style="opacity: 1; stroke-width: 0px; fill: rgb(114, 9, 183); fill-opacity: 1;"/><path class="point" transform="translate(316.73,375.54)" d="M3,0A3,3 0 1,1 0,-3A3,3 0 0,1 3,0Z" style="opacity: 1; stroke-width: 0px; fill: rgb(114, 9, 183); fill-opacity: 1;"/><path class="point" transform="translate(322.47,368.7)" d="M3,0A3,3 0 1,1 0,-3A3,3 0 0,1 3,0Z" style="opacity: 1; stroke-width: 0px; fill: rgb(114, 9, 183); fill-opacity: 1;"/><path class="point" transform="translate(328.2,396.04)" d="M3,0A3,3 0 1,1 0,-3A3,3 0 0,1 3,0Z" style="opacity: 1; stroke-width: 0px; fill: rgb(114, 9, 183); fill-opacity: 1;"/><path class="point" transform="translate(333.94,382.37)" d="M3,0A3,3 0 1,1 0,-3A3,3 0 0,1 3,0Z" style="opacity: 1; stroke-width: 0px; fill: rgb(114, 9, 183); fill-opacity: 1;"/><path class="point" transform="translate(339.67,375.54)" d="M3,0A3,3 0 1,1 0,-3A3,3 0 0,1 3,0Z" style="opacity: 1; stroke-width: 0px; fill: rgb(114, 9, 183); fill-opacity: 1;"/><path class="point" transform="translate(345.41,375.54)" d="M3,0A3,3 0 1,1 0,-3A3,3 0 0,1 3,0Z" style="opacity: 1; stroke-width: 0px; fill: rgb(114, 9, 183); fill-opacity: 1;"/><path class="point" transform="translate(351.14,375.54)" d="M3,0A3,3 0 1,1 0,-3A3,3 0 0,1 3,0Z" style="opacity: 1; stroke-width: 0px; fill: rgb(114, 9, 183); fill-opacity: 1;"/><path class="point" transform="translate(356.88,409.71)" d="M3,0A3,3 0 1,1 0,-3A3,3 0 0,1 3,0Z" style="opacity: 1; stroke-width: 0px; fill: rgb(114, 9, 183); fill-opacity: 1;"/><path class="point" transform="translate(362.61,382.37)" d="M3,0A3,3 0 1,1 0,-3A3,3 0 0,1 3,0Z" style="opacity: 1; stroke-width: 0px; fill: rgb(114, 9, 183); fill-opacity: 1;"/><path class="point" transform="translate(368.35,382.37)" d="M3,0A3,3 0 1,1 0,-3A3,3 0 0,1 3,0Z" style="opacity: 1; stroke-width: 0px; fill: rgb(114, 9, 183); fill-opacity: 1;"/><path class="point" transform="translate(374.08,389.21)" d="M3,0A3,3 0 1,1 0,-3A3,3 0 0,1 3,0Z" style="opacity: 1; stroke-width: 0px; fill: rgb(114, 9, 183); fill-opacity: 1;"/><path class="point" transform="translate(379.82,430.22)" d="M3,0A3,3 0 1,1 0,-3A3,3 0 0,1 3,0Z" style="opacity: 1; stroke-width: 0px; fill: rgb(114, 9, 183); fill-opacity: 1;"/><path class="point" transform="translate(385.55,389.21)" d="M3,0A3,3 0 1,1 0,-3A3,3 0 0,1 3,0Z" style="opacity: 1; stroke-width: 0px; fill: rgb(114, 9, 183); fill-opacity: 1;"/><path class="point" transform="translate(391.29,402.88)" d="M3,0A3,3 0 1,1 0,-3A3,3 0 0,1 3,0Z" style="opacity: 1; stroke-width: 0px; fill: rgb(114, 9, 183); fill-opacity: 1;"/><path class="point" transform="translate(397.02,396.04)" d="M3,0A3,3 0 1,1 0,-3A3,3 0 0,1 3,0Z" style="opacity: 1; stroke-width: 0px; fill: rgb(114, 9, 183); fill-opacity: 1;"/><path class="point" transform="translate(402.76,430.22)" d="M3,0A3,3 0 1,1 0,-3A3,3 0 0,1 3,0Z" style="opacity: 1; stroke-width: 0px; fill: rgb(114, 9, 183); fill-opacity: 1;"/><path class="point" transform="translate(408.49,389.21)" d="M3,0A3,3 0 1,1 0,-3A3,3 0 0,1 3,0Z" style="opacity: 1; stroke-width: 0px; fill: rgb(114, 9, 183); fill-opacity: 1;"/><path class="point" transform="translate(414.23,409.71)" d="M3,0A3,3 0 1,1 0,-3A3,3 0 0,1 3,0Z" style="opacity: 1; stroke-width: 0px; fill: rgb(114, 9, 183); fill-opacity: 1;"/><path class="point" transform="translate(419.97,396.04)" d="M3,0A3,3 0 1,1 0,-3A3,3 0 0,1 3,0Z" style="opacity: 1; stroke-width: 0px; fill: rgb(114, 9, 183); fill-opacity: 1;"/><path class="point" transform="translate(425.7,437.05)" d="M3,0A3,3 0 1,1 0,-3A3,3 0 0,1 3,0Z" style="opacity: 1; stroke-width: 0px; fill: rgb(114, 9, 183); fill-opacity: 1;"/><path class="point" transform="translate(431.44,396.04)" d="M3,0A3,3 0 1,1 0,-3A3,3 0 0,1 3,0Z" style="opacity: 1; stroke-width: 0px; fill: rgb(114, 9, 183); fill-opacity: 1;"/><path class="point" transform="translate(437.17,409.71)" d="M3,0A3,3 0 1,1 0,-3A3,3 0 0,1 3,0Z" style="opacity: 1; stroke-width: 0px; fill: rgb(114, 9, 183); fill-opacity: 1;"/><path class="point" transform="translate(442.91,430.22)" d="M3,0A3,3 0 1,1 0,-3A3,3 0 0,1 3,0Z" style="opacity: 1; stroke-width: 0px; fill: rgb(114, 9, 183); fill-opacity: 1;"/><path class="point" transform="translate(448.64,423.38)" d="M3,0A3,3 0 1,1 0,-3A3,3 0 0,1 3,0Z" style="opacity: 1; stroke-width: 0px; fill: rgb(114, 9, 183); fill-opacity: 1;"/><path class="point" transform="translate(454.38,396.04)" d="M3,0A3,3 0 1,1 0,-3A3,3 0 0,1 3,0Z" style="opacity: 1; stroke-width: 0px; fill: rgb(114, 9, 183); fill-opacity: 1;"/><path class="point" transform="translate(460.11,437.05)" d="M3,0A3,3 0 1,1 0,-3A3,3 0 0,1 3,0Z" style="opacity: 1; stroke-width: 0px; fill: rgb(114, 9, 183); fill-opacity: 1;"/><path class="point" transform="translate(465.85,409.71)" d="M3,0A3,3 0 1,1 0,-3A3,3 0 0,1 3,0Z" style="opacity: 1; stroke-width: 0px; fill: rgb(114, 9, 183); fill-opacity: 1;"/><path class="point" transform="translate(471.58,416.54)" d="M3,0A3,3 0 1,1 0,-3A3,3 0 0,1 3,0Z" style="opacity: 1; stroke-width: 0px; fill: rgb(114, 9, 183); fill-opacity: 1;"/><path class="point" transform="translate(477.32,402.88)" d="M3,0A3,3 0 1,1 0,-3A3,3 0 0,1 3,0Z" style="opacity: 1; stroke-width: 0px; fill: rgb(114, 9, 183); fill-opacity: 1;"/><path class="point" transform="translate(483.05,423.38)" d="M3,0A3,3 0 1,1 0,-3A3,3 0 0,1 3,0Z" style="opacity: 1; stroke-width: 0px; fill: rgb(114, 9, 183); fill-opacity: 1;"/><path class="point" transform="translate(488.79,402.88)" d="M3,0A3,3 0 1,1 0,-3A3,3 0 0,1 3,0Z" style="opacity: 1; stroke-width: 0px; fill: rgb(114, 9, 183); fill-opacity: 1;"/><path class="point" transform="translate(494.52,437.05)" d="M3,0A3,3 0 1,1 0,-3A3,3 0 0,1 3,0Z" style="opacity: 1; stroke-width: 0px; fill: rgb(114, 9, 183); fill-opacity: 1;"/><path class="point" transform="translate(500.26,416.54)" d="M3,0A3,3 0 1,1 0,-3A3,3 0 0,1 3,0Z" style="opacity: 1; stroke-width: 0px; fill: rgb(114, 9, 183); fill-opacity: 1;"/><path class="point" transform="translate(505.99,396.04)" d="M3,0A3,3 0 1,1 0,-3A3,3 0 0,1 3,0Z" style="opacity: 1; stroke-width: 0px; fill: rgb(114, 9, 183); fill-opacity: 1;"/><path class="point" transform="translate(511.73,409.71)" d="M3,0A3,3 0 1,1 0,-3A3,3 0 0,1 3,0Z" style="opacity: 1; stroke-width: 0px; fill: rgb(114, 9, 183); fill-opacity: 1;"/><path class="point" transform="translate(517.46,396.04)" d="M3,0A3,3 0 1,1 0,-3A3,3 0 0,1 3,0Z" style="opacity: 1; stroke-width: 0px; fill: rgb(114, 9, 183); fill-opacity: 1;"/><path class="point" transform="translate(523.2,430.22)" d="M3,0A3,3 0 1,1 0,-3A3,3 0 0,1 3,0Z" style="opacity: 1; stroke-width: 0px; fill: rgb(114, 9, 183); fill-opacity: 1;"/><path class="point" transform="translate(528.93,409.71)" d="M3,0A3,3 0 1,1 0,-3A3,3 0 0,1 3,0Z" style="opacity: 1; stroke-width: 0px; fill: rgb(114, 9, 183); fill-opacity: 1;"/><path class="point" transform="translate(534.67,382.37)" d="M3,0A3,3 0 1,1 0,-3A3,3 0 0,1 3,0Z" style="opacity: 1; stroke-width: 0px; fill: rgb(114, 9, 183); fill-opacity: 1;"/><path class="point" transform="translate(540.4,382.37)" d="M3,0A3,3 0 1,1 0,-3A3,3 0 0,1 3,0Z" style="opacity: 1; stroke-width: 0px; fill: rgb(114, 9, 183); fill-opacity: 1;"/><path class="point" transform="translate(546.14,368.7)" d="M3,0A3,3 0 1,1 0,-3A3,3 0 0,1 3,0Z" style="opacity: 1; stroke-width: 0px; fill: rgb(114, 9, 183); fill-opacity: 1;"/><path class="point" transform="translate(551.87,402.88)" d="M3,0A3,3 0 1,1 0,-3A3,3 0 0,1 3,0Z" style="opacity: 1; stroke-width: 0px; fill: rgb(114, 9, 183); fill-opacity: 1;"/><path class="point" transform="translate(557.61,437.05)" d="M3,0A3,3 0 1,1 0,-3A3,3 0 0,1 3,0Z" style="opacity: 1; stroke-width: 0px; fill: rgb(114, 9, 183); fill-opacity: 1;"/><path class="point" transform="translate(563.34,402.88)" d="M3,0A3,3 0 1,1 0,-3A3,3 0 0,1 3,0Z" style="opacity: 1; stroke-width: 0px; fill: rgb(114, 9, 183); fill-opacity: 1;"/><path class="point" transform="translate(569.08,437.05)" d="M3,0A3,3 0 1,1 0,-3A3,3 0 0,1 3,0Z" style="opacity: 1; stroke-width: 0px; fill: rgb(114, 9, 183); fill-opacity: 1;"/><path class="point" transform="translate(574.81,430.22)" d="M3,0A3,3 0 1,1 0,-3A3,3 0 0,1 3,0Z" style="opacity: 1; stroke-width: 0px; fill: rgb(114, 9, 183); fill-opacity: 1;"/><path class="point" transform="translate(580.55,402.88)" d="M3,0A3,3 0 1,1 0,-3A3,3 0 0,1 3,0Z" style="opacity: 1; stroke-width: 0px; fill: rgb(114, 9, 183); fill-opacity: 1;"/><path class="point" transform="translate(586.28,396.04)" d="M3,0A3,3 0 1,1 0,-3A3,3 0 0,1 3,0Z" style="opacity: 1; stroke-width: 0px; fill: rgb(114, 9, 183); fill-opacity: 1;"/><path class="point" transform="translate(592.02,382.37)" d="M3,0A3,3 0 1,1 0,-3A3,3 0 0,1 3,0Z" style="opacity: 1; stroke-width: 0px; fill: rgb(114, 9, 183); fill-opacity: 1;"/><path class="point" transform="translate(597.75,416.54)" d="M3,0A3,3 0 1,1 0,-3A3,3 0 0,1 3,0Z" style="opacity: 1; stroke-width: 0px; fill: rgb(114, 9, 183); fill-opacity: 1;"/><path class="point" transform="translate(603.49,423.38)" d="M3,0A3,3 0 1,1 0,-3A3,3 0 0,1 3,0Z" style="opacity: 1; stroke-width: 0px; fill: rgb(114, 9, 183); fill-opacity: 1;"/></g><g class="text"/></g></g></g></g><path class="xlines-above crisp" d="M0,0" style="fill: none;"/><path class="ylines-above crisp" d="M0,0" style="fill: none;"/><g class="overlines-above"/><g class="xaxislayer-above"/><g class="yaxislayer-above"/><g class="overaxes-above"/></g></g><g class="polarlayer"/><g class="smithlayer"/><g class="ternarylayer"/><g class="geolayer"/><g class="funnelarealayer"/><g class="pielayer"/><g class="iciclelayer"/><g class="treemaplayer"/><g class="sunburstlayer"/><g class="glimages"/><defs id="topdefs-912775"><g class="clips"/></defs><g class="layer-above"><g class="imagelayer"/><g class="shapelayer"/></g><g class="infolayer"><g class="g-gtitle"/></g></svg>