<svg class="main-svg" xmlns="http://www.w3.org/2000/svg" xmlns:xlink="http://www.w3.org/1999/xlink" width="700" height="500" style="" viewBox="0 0 700 500"><rect x="0" y="0" width="700" height="500" style="fill: rgb(255, 255, 255); fill-opacity: 1;"/><defs id="defs-cef574"><g class="clips"><clipPath id="clipcef574xyplot" class="plotclip"><rect width="639.1999999999999" height="464"/></clipPath><clipPath class="axesclip" id="clipcef574x"><rect x="10" y="0" width="639.1999999999999" height="500"/></clipPath><clipPath class="axesclip" id="clipcef574y"><rect x="0" y="26" width="700" height="464"/></clipPath><clipPath class="axesclip" id="clipcef574xy"><rect x="10" y="26" width="639.1999999999999" height="464"/></clipPath></g><g class="gradients"/><g class="patterns"/></defs><g class="bglayer"/><g class="layer-below"><g class="imagelayer"/><g class="shapelayer"/></g><g class="cartesianlayer"><g class="subplot xy"><g class="layer-subplot"><g class="shapelayer"/><g class="imagelayer"/></g><g class="minor-gridlayer"><g class="x"/><g class="y"/></g><g class="gridlayer"><g class="x"/><g class="y"/></g><g class="zerolinelayer"/><g class="layer-between"><g class="shapelayer"/><g class="imagelayer"/></g><path class="xlines-below"/><path class="ylines-below"/><g class="overlines-below"/><g class="xaxislayer-below"/><g class="yaxislayer-below"/><g class="overaxes-below"/><g class="overplot"><g class="xy" transform="translate(10,26)" clip-path="url(#clipcef574xyplot)"><g class="scatterlayer mlayer"><g class="trace scatter tracead9948" style="stroke-miterlimit: 2; opacity: 1;"><g class="fills"/><g class="errorbars"/><g class="lines"><path class="js-line" d="M35.71,40.75L41.45,95.93L47.18,54.54L52.92,26.95L58.65,61.44L64.39,82.13L70.12,26.95L75.86,26.95L81.59,82.13L87.33,47.64L93.06,82.13L98.8,47.64L104.53,47.64L110.27,82.13L116,82.13L121.74,95.93L127.47,33.85L133.21,40.75L138.94,75.23L150.41,61.44L156.15,40.75L161.88,26.95L167.62,75.23L173.35,26.95L179.09,95.93L184.82,33.85L190.56,95.93L196.29,82.13L202.03,33.85L207.76,61.44L213.5,33.85L219.23,75.23L224.97,68.34L230.71,95.93L236.44,82.13L242.18,89.03L247.91,68.34L253.65,47.64L259.38,89.03L265.12,33.85L270.85,54.54L276.59,89.03L282.32,89.03L288.06,61.44L293.79,26.95L299.53,68.34L305.26,89.03L311,89.03L316.73,26.95L322.47,89.03L328.2,54.54L333.94,82.13L339.67,26.95L345.41,26.95L351.14,89.03L356.88,54.54L362.61,40.75L368.35,82.13L374.08,40.75L379.82,61.44L385.55,54.54L391.29,54.54L397.02,68.34L402.76,82.13L408.49,33.85L414.23,75.23L419.97,75.23L425.7,89.03L431.44,68.34L437.17,68.34L442.91,54.54L454.38,54.54L460.11,47.64L465.85,82.13L471.58,54.54L477.32,61.44L483.05,40.75L488.79,75.23L494.52,95.93L500.26,89.03L505.99,61.44L511.73,82.13L517.46,82.13L523.2,33.85L528.93,54.54L534.67,82.13L540.4,89.03L546.14,40.75L551.87,95.93L557.61,40.75L563.34,75.23L569.08,89.03L574.81,33.85L580.55,33.85L586.28,54.54L592.02,47.64L597.75,68.34L603.49,82.13" style="vector-effect: none; fill: none; stroke: rgb(247, 37, 133); stroke-opacity: 1; stroke-width: 2px; opacity: 1;"/></g><g class="points"><path class="point" transform="translate(35.71,40.75)" d="M3,0A3,3 0 1,1 0,-3A3,3 0 0,1 3,0Z" style="opacity: 1; stroke-width: 0px; fill: rgb(247, 37, 133); fill-opacity: 1;"/><path class="point" transform="translate(41.45,95.93)" d="M3,0A3,3 0 1,1 0,-3A3,3 0 0,1 3,0Z" style="opacity: 1; stroke-width: 0px; fill: rgb(247, 37, 133); fill-opacity: 1;"/><path class="point" transform="translate(47.18,54.54)" d="M3,0A3,3 0 1,1 0,-3A3,3 0 0,1 3,0Z" style="opacity: 1; stroke-width: 0px; fill: rgb(247, 37, 133); fill-opacity: 1;"/><path class="point" transform="translate(52.92,26.95)" d="M3,0A3,3 0 1,1 0,-3A3,3 0 0,1 3,0Z" style="opacity: 1; stroke-width: 0px; fill: rgb(247, 37, 133); fill-opacity: 1;"/><path class="point" transform="translate(58.65,61.44)" d="M3,0A3,3 0 1,1 0,-3A3,3 0 0,1 3,0Z" style="opacity: 1; stroke-width: 0px; fill: rgb(247, 37, 133); fill-opacity: 1;"/><path class="point" transform="translate(64.39,82.13)" d="M3,0A3,3 0 1,1 0,-3A3,3 0 0,1 3,0Z" style="opacity: 1; stroke-width: 0px; fill: rgb(247, 37, 133); fill-opacity: 1;"/><path class="point" transform="translate(70.12,26.95)" d="M3,0A3,3 0 1,1 0,-3A3,3 0 0,1 3,0Z" style="opacity: 1; stroke-width: 0px; fill: rgb(247, 37, 133); fill-opacity: 1;"/><path class="point" transform="translate(75.86,26.95)" d="M3,0A3,3 0 1,1 0,-3A3,3 0 0,1 3,0Z" style="opacity: 1; stroke-width: 0px; fill: rgb(247, 37, 133); fill-opacity: 1;"/><path class="point" transform="translate(81.59,82.13)" d="M3,0A3,3 0 1,1 0,-3A3,3 0 0,1 3,0Z" style="opacity: 1; stroke-width: 0px; fill: rgb(247, 37, 133); fill-opacity: 1;"/><path class="point" transform="translate(87.33,47.64)" d="M3,0A3,3 0 1,1 0,-3A3,3 0 0,1 3,0Z" style="opacity: 1; stroke-width: 0px; fill: rgb(247, 37, 133); fill-opacity: 1;"/><path class="point" transform="translate(93.06,82.13)" d="M3,0A3,3 0 1,1 0,-3A3,3 0 0,1 3,0Z" style="opacity: 1; stroke-width: 0px; fill: rgb(247, 37, 133); fill-opacity: 1;"/><path class="point" transform="translate(98.8,47.64)" d="M3,0A3,3 0 1,1 0,-3A3,3 0 0,1 3,0Z" style="opacity: 1; stroke-width: 0px; fill: rgb(247, 37, 133); fill-opacity: 1;"/><path class="point" transform="translate(104.53,47.64)" d="M3,0A3,3 0 1,1 0,-3A3,3 0 0,1 3,0Z" style="opacity: 1; stroke-width: 0px; fill: rgb(247, 37, 133); fill-opacity: 1;"/><path class="point" transform="translate(110.27,82.13)" d="M3,0A3,3 0 1,1 0,-3A3,3 0 0,1 3,0Z" style="opacity: 1; stroke-width: 0px; fill: rgb(247, 37, 133); fill-opacity: 1;"/><path class="point" transform="translate(116,82.13)" d="M3,0A3,3 0 1,1 0,-3A3,3 0 0,1 3,0Z" style="opacity: 1; stroke-width: 0px; fill: rgb(247, 37, 133); fill-opacity: 1;"/><path class="point" transform="translate(121.74,95.93)" d="M3,0A3,3 0 1,1 0,-3A3,3 0 0,1 3,0Z" style="opacity: 1; stroke-width: 0px; fill: rgb(247, 37, 133); fill-opacity: 1;"/><path class="point" transform="translate(127.47,33.85)" d="M3,0A3,3 0 1,1 0,-3A3,3 0 0,1 3,0Z" style="opacity: 1; stroke-width: 0px; fill: rgb(247, 37, 133); fill-opacity: 1;"/><path class="point" transform="translate(133.21,40.75)" d="M3,0A3,3 0 1,1 0,-3A3,3 0 0,1 3,0Z" style="opacity: 1; stroke-width: 0px; fill: rgb(247, 37, 133); fill-opacity: 1;"/><path class="point" transform="translate(138.94,75.23)" d="M3,0A3,3 0 1,1 0,-3A3,3 0 0,1 3,0Z" style="opacity: 1; stroke-width: 0px; fill: rgb(247, 37, 133); fill-opacity: 1;"/><path class="point" transform="translate(144.68,68.34)" d="M3,0A3,3 0 1,1 0,-3A3,3 0 0,1 3,0Z" style="opacity: 1; stroke-width: 0px; fill: rgb(247, 37, 133); fill-opacity: 1;"/><path class="point" transform="translate(150.41,61.44)" d="M3,0A3,3 0 1,1 0,-3A3,3 0 0,1 3,0Z" style="opacity: 1; stroke-width: 0px; fill: rgb(247, 37, 133); fill-opacity: 1;"/><path class="point" transform="translate(156.15,40.75)" d="M3,0A3,3 0 1,1 0,-3A3,3 0 0,1 3,0Z" style="opacity: 1; stroke-width: 0px; fill: rgb(247, 37, 133); fill-opacity: 1;"/><path class="point" transform="translate(161.88,26.95)" d="M3,0A3,3 0 1,1 0,-3A3,3 0 0,1 3,0Z" style="opacity: 1; stroke-width: 0px; fill: rgb(247, 37, 133); fill-opacity: 1;"/><path class="point" transform="translate(167.62,75.23)" d="M3,0A3,3 0 1,1 0,-3A3,3 0 0,1 3,0Z" style="opacity: 1; stroke-width: 0px; fill: rgb(247, 37, 133); fill-opacity: 1;"/><path class="point" transform="translate(173.35,26.95)" d="M3,0A3,3 0 1,1 0,-3A3,3 0 0,1 3,0Z" style="opacity: 1; stroke-width: 0px; fill: rgb(247, 37, 133); fill-opacity: 1;"/><path class="point" transform="translate(179.09,95.93)" d="M3,0A3,3 0 1,1 0,-3A3,3 0 0,1 3,0Z" style="opacity: 1; stroke-width: 0px; fill: rgb(247, 37, 133); fill-opacity: 1;"/><path class="point" transform="translate(184.82,33.85)" d="M3,0A3,3 0 1,1 0,-3A3,3 0 0,1 3,0Z" style="opacity: 1; stroke-width: 0px; fill: rgb(247, 37, 133); fill-opacity: 1;"/><path class="point" transform="translate(190.56,95.93)" d="M3,0A3,3 0 1,1 0,-3A3,3 0 0,1 3,0Z" style="opacity: 1; stroke-width: 0px; fill: rgb(247, 37, 133); fill-opacity: 1;"/><path class="point" transform="translate(196.29,82.13)" d="M3,0A3,3 0 1,1 0,-3A3,3 0 0,1 3,0Z" style="opacity: 1; stroke-width: 0px; fill: rgb(247, 37, 133); fill-opacity: 1;"/><path class="point" transform="translate(202.03,33.85)" d="M3,0A3,3 0 1,1 0,-3A3,3 0 0,1 3,0Z" style="opacity: 1; stroke-width: 0px; fill: rgb(247, 37, 133); fill-opacity: 1;"/><path class="point" transform="translate(207.76,61.44)" d="M3,0A3,3 0 1,1 0,-3A3,3 0 0,1 3,0Z" style="opacity: 1; stroke-width: 0px; fill: rgb(247, 37, 133); fill-opacity: 1;"/><path class="point" transform="translate(213.5,33.85)" d="M3,0A3,3 0 1,1 0,-3A3,3 0 0,1 3,0Z" style="opacity: 1; stroke-width: 0px; fill: rgb(247, 37, 133); fill-opacity: 1;"/><path class="point" transform="translate(219.23,75.23)" d="M3,0A3,3 0 1,1 0,-3A3,3 0 0,1 3,0Z" style="opacity: 1; stroke-width: 0px; fill: rgb(247, 37, 133); fill-opacity: 1;"/><path class="point" transform="translate(224.97,68.34)" d="M3,0A3,3 0 1,1 0,-3A3,3 0 0,1 3,0Z" style="opacity: 1; stroke-width: 0px; fill: rgb(247, 37, 133); fill-opacity: 1;"/><path class="point" transform="translate(230.71,95.93)" d="M3,0A3,3 0 1,1 0,-3A3,3 0 0,1 3,0Z" style="opacity: 1; stroke-width: 0px; fill: rgb(247, 37, 133); fill-opacity: 1;"/><path class="point" transform="translate(236.44,82.13)" d="M3,0A3,3 0 1,1 0,-3A3,3 0 0,1 3,0Z" style="opacity: 1; stroke-width: 0px; fill: rgb(247, 37, 133); fill-opacity: 1;"/><path class="point" transform="translate(242.18,89.03)" d="M3,0A3,3 0 1,1 0,-3A3,3 0 0,1 3,0Z" style="opacity: 1; stroke-width: 0px; fill: rgb(247, 37, 133); fill-opacity: 1;"/><path class="point" transform="translate(247.91,68.34)" d="M3,0A3,3 0 1,1 0,-3A3,3 0 0,1 3,0Z" style="opacity: 1; stroke-width: 0px; fill: rgb(247, 37, 133); fill-opacity: 1;"/><path class="point" transform="translate(253.65,47.64)" d="M3,0A3,3 0 1,1 0,-3A3,3 0 0,1 3,0Z" style="opacity: 1; stroke-width: 0px; fill: rgb(247, 37, 133); fill-opacity: 1;"/><path class="point" transform="translate(259.38,89.03)" d="M3,0A3,3 0 1,1 0,-3A3,3 0 0,1 3,0Z" style="opacity: 1; stroke-width: 0px; fill: rgb(247, 37, 133); fill-opacity: 1;"/><path class="point" transform="translate(265.12,33.85)" d="M3,0A3,3 0 1,1 0,-3A3,3 0 0,1 3,0Z" style="opacity: 1; stroke-width: 0px; fill: rgb(247, 37, 133); fill-opacity: 1;"/><path class="point" transform="translate(270.85,54.54)" d="M3,0A3,3 0 1,1 0,-3A3,3 0 0,1 3,0Z" style="opacity: 1; stroke-width: 0px; fill: rgb(247, 37, 133); fill-opacity: 1;"/><path class="point" transform="translate(276.59,89.03)" d="M3,0A3,3 0 1,1 0,-3A3,3 0 0,1 3,0Z" style="opacity: 1; stroke-width: 0px; fill: rgb(247, 37, 133); fill-opacity: 1;"/><path class="point" transform="translate(282.32,89.03)" d="M3,0A3,3 0 1,1 0,-3A3,3 0 0,1 3,0Z" style="opacity: 1; stroke-width: 0px; fill: rgb(247, 37, 133); fill-opacity: 1;"/><path class="point" transform="translate(288.06,61.44)" d="M3,0A3,3 0 1,1 0,-3A3,3 0 0,1 3,0Z" style="opacity: 1; stroke-width: 0px; fill: rgb(247, 37, 133); fill-opacity: 1;"/><path class="point" transform="translate(293.79,26.95)" d="M3,0A3,3 0 1,1 0,-3A3,3 0 0,1 3,0Z" style="opacity: 1; stroke-width: 0px; fill: rgb(247, 37, 133); fill-opacity: 1;"/><path class="point" transform="translate(299.53,68.34)" d="M3,0A3,3 0 1,1 0,-3A3,3 0 0,1 3,0Z" style="opacity: 1; stroke-width: 0px; fill: rgb(247, 37, 133); fill-opacity: 1;"/><path class="point" transform="translate(305.26,89.03)" d="M3,0A3,3 0 1,1 0,-3A3,3 0 0,1 3,0Z" style="opacity: 1; stroke-width: 0px; fill: rgb(247, 37, 133); fill-opacity: 1;"/><path class="point" transform="translate(311,89.03)" d="M3,0A3,3 0 1,1 0,-3A3,3 0 0,1 3,0Z" style="opacity: 1; stroke-width: 0px; fill: rgb(247, 37, 133); fill-opacity: 1;"/><path class="point" transform="translate(316.73,26.95)" d="M3,0A3,3 0 1,1 0,-3A3,3 0 0,1 3,0Z" style="opacity: 1; stroke-width: 0px; fill: rgb(247, 37, 133); fill-opacity: 1;"/><path class="point" transform="translate(322.47,89.03)" d="M3,0A3,3 0 1,1 0,-3A3,3 0 0,1 3,0Z" style="opacity: 1; stroke-width: 0px; fill: rgb(247, 37, 133); fill-opacity: 1;"/><path class="point" transform="translate(328.2,54.54)" d="M3,0A3,3 0 1,1 0,-3A3,3 0 0,1 3,0Z" style="opacity: 1; stroke-width: 0px; fill: rgb(247, 37, 133); fill-opacity: 1;"/><path class="point" transform="translate(333.94,82.13)" d="M3,0A3,3 0 1,1 0,-3A3,3 0 0,1 3,0Z" style="opacity: 1; stroke-width: 0px; fill: rgb(247, 37, 133); fill-opacity: 1;"/><path class="point" transform="translate(339.67,26.95)" d="M3,0A3,3 0 1,1 0,-3A3,3 0 0,1 3,0Z" style="opacity: 1; stroke-width: 0px; fill: rgb(247, 37, 133); fill-opacity: 1;"/><path class="point" transform="translate(345.41,26.95)" d="M3,0A3,3 0 1,1 0,-3A3,3 0 0,1 3,0Z" style="opacity: 1; stroke-width: 0px; fill: rgb(247, 37, 133); fill-opacity: 1;"/><path class="point" transform="translate(351.14,89.03)" d="M3,0A3,3 0 1,1 0,-3A3,3 0 0,1 3,0Z" style="opacity: 1; stroke-width: 0px; fill: rgb(247, 37, 133); fill-opacity: 1;"/><path class="point" transform="translate(356.88,54.54)" d="M3,0A3,3 0 1,1 0,-3A3,3 0 0,1 3,0Z" style="opacity: 1; stroke-width: 0px; fill: rgb(247, 37, 133); fill-opacity: 1;"/><path class="point" transform="translate(362.61,40.75)" d="M3,0A3,3 0 1,1 0,-3A3,3 0 0,1 3,0Z" style="opacity: 1; stroke-width: 0px; fill: rgb(247, 37, 133); fill-opacity: 1;"/><path class="point" transform="translate(368.35,82.13)" d="M3,0A3,3 0 1,1 0,-3A3,3 0 0,1 3,0Z" style="opacity: 1; stroke-width: 0px; fill: rgb(247, 37, 133); fill-opacity: 1;"/><path class="point" transform="translate(374.08,40.75)" d="M3,0A3,3 0 1,1 0,-3A3,3 0 0,1 3,0Z" style="opacity: 1; stroke-width: 0px; fill: rgb(247, 37, 133); fill-opacity: 1;"/><path class="point" transform="translate(379.82,61.44)" d="M3,0A3,3 0 1,1 0,-3A3,3 0 0,1 3,0Z" style="opacity: 1; stroke-width: 0px; fill: rgb(247, 37, 133); fill-opacity: 1;"/><path class="point" transform="translate(385.55,54.54)" d="M3,0A3,3 0 1,1 0,-3A3,3 0 0,1 3,0Z" style="opacity: 1; stroke-width: 0px; fill: rgb(247, 37, 133); fill-opacity: 1;"/><path class="point" transform="translate(391.29,54.54)" d="M3,0A3,3 0 1,1 0,-3A3,3 0 0,1 3,0Z" style="opacity: 1; stroke-width: 0px; fill: rgb(247, 37, 133); fill-opacity: 1;"/><path class="point" transform="translate(397.02,68.34)" d="M3,0A3,3 0 1,1 0,-3A3,3 0 0,1 3,0Z" style="opacity: 1; stroke-width: 0px; fill: rgb(247, 37, 133); fill-opacity: 1;"/><path class="point" transform="translate(402.76,82.13)" d="M3,0A3,3 0 1,1 0,-3A3,3 0 0,1 3,0Z" style="opacity: 1; stroke-width: 0px; fill: rgb(247, 37, 133); fill-opacity: 1;"/><path class="point" transform="translate(408.49,33.85)" d="M3,0A3,3 0 1,1 0,-3A3,3 0 0,1 3,0Z" style="opacity: 1; stroke-width: 0px; fill: rgb(247, 37, 133); fill-opacity: 1;"/><path class="point" transform="translate(414.23,75.23)" d="M3,0A3,3 0 1,1 0,-3A3,3 0 0,1 3,0Z" style="opacity: 1; stroke-width: 0px; fill: rgb(247, 37, 133); fill-opacity: 1;"/><path class="point" transform="translate(419.97,75.23)" d="M3,0A3,3 0 1,1 0,-3A3,3 0 0,1 3,0Z" style="opacity: 1; stroke-width: 0px; fill: rgb(247, 37, 133); fill-opacity: 1;"/><path class="point" transform="translate(425.7,89.03)" d="M3,0A3,3 0 1,1 0,-3A3,3 0 0,1 3,0Z" style="opacity: 1; stroke-width: 0px; fill: rgb(247, 37, 133); fill-opacity: 1;"/><path class="point" transform="translate(431.44,68.34)" d="M3,0A3,3 0 1,1 0,-3A3,3 0 0,1 3,0Z" style="opacity: 1; stroke-width: 0px; fill: rgb(247, 37, 133); fill-opacity: 1;"/><path class="point" transform="translate(437.17,68.34)" d="M3,0A3,3 0 1,1 0,-3A3,3 0 0,1 3,0Z" style="opacity: 1; stroke-width: 0px; fill: rgb(247, 37, 133); fill-opacity: 1;"/><path class="point" transform="translate(442.91,54.54)" d="M3,0A3,3 0 1,1 0,-3A3,3 0 0,1 3,0Z" style="opacity: 1; stroke-width: 0px; fill: rgb(247, 37, 133); fill-opacity: 1;"/><path class="point" transform="translate(448.64,54.54)" d="M3,0A3,3 0 1,1 0,-3A3,3 0 0,1 3,0Z" style="opacity: 1; stroke-width: 0px; fill: rgb(247, 37, 133); fill-opacity: 1;"/><path class="point" transform="translate(454.38,54.54)" d="M3,0A3,3 0 1,1 0,-3A3,3 0 0,1 3,0Z" style="opacity: 1; stroke-width: 0px; fill: rgb(247, 37, 133); fill-opacity: 1;"/><path class="point" transform="translate(460.11,47.64)" d="M3,0A3,3 0 1,1 0,-3A3,3 0 0,1 3,0Z" style="opacity: 1; stroke-width: 0px; fill: rgb(247, 37, 133); fill-opacity: 1;"/><path class="point" transform="translate(465.85,82.13)" d="M3,0A3,3 0 1,1 0,-3A3,3 0 0,1 3,0Z" style="opacity: 1; stroke-width: 0px; fill: rgb(247, 37, 133); fill-opacity: 1;"/><path class="point" transform="translate(471.58,54.54)" d="M3,0A3,3 0 1,1 0,-3A3,3 0 0,1 3,0Z" style="opacity: 1; stroke-width: 0px; fill: rgb(247, 37, 133); fill-opacity: 1;"/><path class="point" transform="translate(477.32,61.44)" d="M3,0A3,3 0 1,1 0,-3A3,3 0 0,1 3,0Z" style="opacity: 1; stroke-width: 0px; fill: rgb(247, 37, 133); fill-opacity: 1;"/><path class="point" transform="translate(483.05,40.75)" d="M3,0A3,3 0 1,1 0,-3A3,3 0 0,1 3,0Z" style="opacity: 1; stroke-width: 0px; fill: rgb(247, 37, 133); fill-opacity: 1;"/><path class="point" transform="translate(488.79,75.23)" d="M3,0A3,3 0 1,1 0,-3A3,3 0 0,1 3,0Z" style="opacity: 1; stroke-width: 0px; fill: rgb(247, 37, 133); fill-opacity: 1;"/><path class="point" transform="translate(494.52,95.93)" d="M3,0A3,3 0 1,1 0,-3A3,3 0 0,1 3,0Z" style="opacity: 1; stroke-width: 0px; fill: rgb(247, 37, 133); fill-opacity: 1;"/><path class="point" transform="translate(500.26,89.03)" d="M3,0A3,3 0 1,1 0,-3A3,3 0 0,1 3,0Z" style="opacity: 1; stroke-width: 0px; fill: rgb(247, 37, 133); fill-opacity: 1;"/><path class="point" transform="translate(505.99,61.44)" d="M3,0A3,3 0 1,1 0,-3A3,3 0 0,1 3,0Z" style="opacity: 1; stroke-width: 0px; fill: rgb(247, 37, 133); fill-opacity: 1;"/><path class="point" transform="translate(511.73,82.13)" d="M3,0A3,3 0 1,1 0,-3A3,3 0 0,1 3,0Z" style="opacity: 1; stroke-width: 0px; fill: rgb(247, 37, 133); fill-opacity: 1;"/><path class="point" transform="translate(517.46,82.13)" d="M3,0A3,3 0 1,1 0,-3A3,3 0 0,1 3,0Z" style="opacity: 1; stroke-width: 0px; fill: rgb(247, 37, 133); fill-opacity: 1;"/><path class="point" transform="translate(523.2,33.85)" d="M3,0A3,3 0 1,1 0,-3A3,3 0 0,1 3,0Z" style="opacity: 1; stroke-width: 0px; fill: rgb(247, 37, 133); fill-opacity: 1;"/><path class="point" transform="translate(528.93,54.54)" d="M3,0A3,3 0 1,1 0,-3A3,3 0 0,1 3,0Z" style="opacity: 1; stroke-width: 0px; fill: rgb(247, 37, 133); fill-opacity: 1;"/><path class="point" transform="translate(534.67,82.13)" d="M3,0A3,3 0 1,1 0,-3A3,3 0 0,1 3,0Z" style="opacity: 1; stroke-width: 0px; fill: rgb(247, 37, 133); fill-opacity: 1;"/><path class="point" transform="translate(540.4,89.03)" d="M3,0A3,3 0 1,1 0,-3A3,3 0 0,1 3,0Z" style="opacity: 1; stroke-width: 0px; fill: rgb(247, 37, 133); fill-opacity: 1;"/><path class="point" transform="translate(546.14,40.75)" d="M3,0A3,3 0 1,1 0,-3A3,3 0 0,1 3,0Z" style="opacity: 1; stroke-width: 0px; fill: rgb(247, 37, 133); fill-opacity: 1;"/><path class="point" transform="translate(551.87,95.93)" d="M3,0A3,3 0 1,1 0,-3A3,3 0 0,1 3,0Z" style="opacity: 1; stroke-width: 0px; fill: rgb(247, 37, 133); fill-opacity: 1;"/><path class="point" transform="translate(557.61,40.75)" d="M3,0A3,3 0 1,1 0,-3A3,3 0 0,1 3,0Z" style="opacity: 1; stroke-width: 0px; fill: rgb(247, 37, 133); fill-opacity: 1;"/><path class="point" transform="translate(563.34,75.23)" d="M3,0A3,3 0 1,1 0,-3A3,3 0 0,1 3,0Z" style="opacity: 1; stroke-width: 0px; fill: rgb(247, 37, 133); fill-opacity: 1;"/><path class="point" transform="translate(569.08,89.03)" d="M3,0A3,3 0 1,1 0,-3A3,3 0 0,1 3,0Z" style="opacity: 1; stroke-width: 0px; fill: rgb(247, 37, 133); fill-opacity: 1;"/><path class="point" transform="translate(574.81,33.85)" d="M3,0A3,3 0 1,1 0,-3A3,3 0 0,1 3,0Z" style="opacity: 1; stroke-width: 0px; fill: rgb(247, 37, 133); fill-opacity: 1;"/><path class="point" transform="translate(580.55,33.85)" d="M3,0A3,3 0 1,1 0,-3A3,3 0 0,1 3,0Z" style="opacity: 1; stroke-width: 0px; fill: rgb(247, 37, 133); fill-opacity: 1;"/><path class="point" transform="translate(586.28,54.54)" d="M3,0A3,3 0 1,1 0,-3A3,3 0 0,1 3,0Z" style="opacity: 1; stroke-width: 0px; fill: rgb(247, 37, 133); fill-opacity: 1;"/><path class="point" transform="translate(592.02,47.64)" d="M3,0A3,3 0 1,1 0,-3A3,3 0 0,1 3,0Z" style="opacity: 1; stroke-width: 0px; fill: rgb(247, 37, 133); fill-opacity: 1;"/><path class="point" transform="translate(597.75,68.34)" d="M3,0A3,3 0 1,1 0,-3A3,3 0 0,1 3,0Z" style="opacity: 1; stroke-width: 0px; fill: rgb(247, 37, 133); fill-opacity: 1;"/><path class="point" transform="translate(603.49,82.13)" d="M3,0A3,3 0 1,1 0,-3A3,3 0 0,1 3,0Z" style="opacity: 1; stroke-width: 0px; fill: rgb(247, 37, 133); fill-opacity: 1;"/></g><g class="text"/></g><g class="trace scatter tracee5b3c4" style="stroke-miterlimit: 2; opacity: 1;"><g class="fills"/><g class="errorbars"/><g class="lines"><path class="js-line" d="M35.71,399.42L41.45,433.9L47.18,440.8L52.92,406.31L58.65,399.42L64.39,392.52L70.12,413.21L75.86,433.9L81.59,433.9L87.33,371.83L93.06,378.72L98.8,440.8L104.53,406.31L110.27,440.8L116,433.9L121.74,378.72L127.47,433.9L133.21,420.11L138.94,371.83L144.68,399.42L150.41,378.72L156.15,420.11L161.88,392.52L167.62,392.52L173.35,420.11L179.09,440.8L184.82,433.9L190.56,420.11L196.29,440.8L202.03,406.31L207.76,392.52L213.5,420.11L219.23,371.83L224.97,406.31L230.71,420.11L236.44,406.31L242.18,433.9L247.91,371.83L253.65,440.8L259.38,440.8L265.12,392.52L270.85,440.8L276.59,371.83L282.32,433.9L288.06,420.11L293.79,420.11L299.53,440.8L305.26,413.21L311,406.31L316.73,385.62L322.47,371.83L328.2,392.52L333.94,385.62L339.67,440.8L345.41,392.52L351.14,378.72L356.88,385.62L362.61,433.9L368.35,392.52L374.08,427.01L379.82,371.83L385.55,420.11L391.29,420.11L397.02,413.21L402.76,385.62L408.49,406.31L414.23,433.9L419.97,399.42L425.7,371.83L431.44,420.11L437.17,427.01L442.91,440.8L448.64,420.11L454.38,406.31L460.11,427.01L465.85,440.8L471.58,371.83L477.32,413.21L483.05,427.01L488.79,385.62L494.52,427.01L505.99,371.83L511.73,427.01L517.46,392.52L523.2,385.62L528.93,440.8L534.67,399.42L540.4,385.62L546.14,413.21L551.87,406.31L557.61,440.8L563.34,378.72L569.08,406.31L574.81,406.31L580.55,371.83L586.28,392.52L592.02,392.52L603.49,433.9" style="vector-effect: none; fill: none; stroke: rgb(114, 9, 183); stroke-opacity: 1; stroke-width: 2px; opacity: 1;"/></g><g class="points"/><g class="text"/></g><g class="trace scatter trace948bbf" style="stroke-miterlimit: 2; opacity: 1;"><g class="fills"/><g class="errorbars"/><g class="lines"/><g class="points"><path class="point" transform="translate(35.71,233.88)" d="M3,0A3,3 0 1,1 0,-3A3,3 0 0,1 3,0Z" style="opacity: 1; stroke-width: 0px; fill: rgb(58, 12, 163); fill-opacity: 1;"/><path class="point" transform="translate(41.45,226.98)" d="M3,0A3,3 0 1,1 0,-3A3,3 0 0,1 3,0Z" style="opacity: 1; stroke-width: 0px; fill: rgb(58, 12, 163); fill-opacity: 1;"/><path class="point" transform="translate(47.18,220.08)" d="M3,0A3,3 0 1,1 0,-3A3,3 0 0,1 3,0Z" style="opacity: 1; stroke-width: 0px; fill: rgb(58, 12, 163); fill-opacity: 1;"/><path class="point" transform="translate(52.92,220.08)" d="M3,0A3,3 0 1,1 0,-3A3,3 0 0,1 3,0Z" style="opacity: 1; stroke-width: 0px; fill: rgb(58, 12, 163); fill-opacity: 1;"/><path class="point" transform="translate(58.65,213.18)" d="M3,0A3,3 0 1,1 0,-3A3,3 0 0,1 3,0Z" style="opacity: 1; stroke-width: 0px; fill: rgb(58, 12, 163); fill-opacity: 1;"/><path class="point" transform="translate(64.39,213.18)" d="M3,0A3,3 0 1,1 0,-3A3,3 0 0,1 3,0Z" style="opacity: 1; stroke-width: 0px; fill: rgb(58, 12, 163); fill-opacity: 1;"/><path class="point" transform="translate(70.12,199.39)" d="M3,0A3,3 0 1,1 0,-3A3,3 0 0,1 3,0Z" style="opacity: 1; stroke-width: 0px; fill: rgb(58, 12, 163); fill-opacity: 1;"/><path class="point" transform="translate(75.86,226.98)" d="M3,0A3,3 0 1,1 0,-3A3,3 0 0,1 3,0Z" style="opacity: 1; stroke-width: 0px; fill: rgb(58, 12, 163); fill-opacity: 1;"/><path class="point" transform="translate(81.59,233.88)" d="M3,0A3,3 0 1,1 0,-3A3,3 0 0,1 3,0Z" style="opacity: 1; stroke-width: 0px; fill: rgb(58, 12, 163); fill-opacity: 1;"/><path class="point" transform="translate(87.33,233.88)" d="M3,0A3,3 0 1,1 0,-3A3,3 0 0,1 3,0Z" style="opacity: 1; stroke-width: 0px; fill: rgb(58, 12, 163); fill-opacity: 1;"/><path class="point" transform="translate(93.06,164.9)" d="M3,0A3,3 0 1,1 0,-3A3,3 0 0,1 3,0Z" style="opacity: 1; stroke-width: 0px; fill: rgb(58, 12, 163); fill-opacity: 1;"/><path class="point" transform="translate(98.8,178.7)" d="M3,0A3,3 0 1,1 0,-3A3,3 0 0,1 3,0Z" style="opacity: 1; stroke-width: 0px; fill: rgb(58, 12, 163); fill-opacity: 1;"/><path class="point" transform="translate(104.53,171.8)" d="M3,0A3,3 0 1,1 0,-3A3,3 0 0,1 3,0Z" style="opacity: 1; stroke-width: 0px; fill: rgb(58, 12, 163); fill-opacity: 1;"/><path class="point" transform="translate(110.27,233.88)" d="M3,0A3,3 0 1,1 0,-3A3,3 0 0,1 3,0Z" style="opacity: 1; stroke-width: 0px; fill: rgb(58, 12, 163); fill-opacity: 1;"/><path class="point" transform="translate(116,185.59)" d="M3,0A3,3 0 1,1 0,-3A3,3 0 0,1 3,0Z" style="opacity: 1; stroke-width: 0px; fill: rgb(58, 12, 163); fill-opacity: 1;"/><path class="point" transform="translate(121.74,178.7)" d="M3,0A3,3 0 1,1 0,-3A3,3 0 0,1 3,0Z" style="opacity: 1; stroke-width: 0px; fill: rgb(58, 12, 163); fill-opacity: 1;"/><path class="point" transform="translate(127.47,178.7)" d="M3,0A3,3 0 1,1 0,-3A3,3 0 0,1 3,0Z" style="opacity: 1; stroke-width: 0px; fill: rgb(58, 12, 163); fill-opacity: 1;"/><path class="point" transform="translate(133.21,192.49)" d="M3,0A3,3 0 1,1 0,-3A3,3 0 0,1 3,0Z" style="opacity: 1; stroke-width: 0px; fill: rgb(58, 12, 163); fill-opacity: 1;"/><path class="point" transform="translate(138.94,233.88)" d="M3,0A3,3 0 1,1 0,-3A3,3 0 0,1 3,0Z" style="opacity: 1; stroke-width: 0px; fill: rgb(58, 12, 163); fill-opacity: 1;"/><path class="point" transform="translate(144.68,178.7)" d="M3,0A3,3 0 1,1 0,-3A3,3 0 0,1 3,0Z" style="opacity: 1; stroke-width: 0px; fill: rgb(58, 12, 163); fill-opacity: 1;"/><path class="point" transform="translate(150.41,233.88)" d="M3,0A3,3 0 1,1 0,-3A3,3 0 0,1 3,0Z" style="opacity: 1; stroke-width: 0px; fill: rgb(58, 12, 163); fill-opacity: 1;"/><path class="point" transform="translate(156.15,164.9)" d="M3,0A3,3 0 1,1 0,-3A3,3 0 0,1 3,0Z" style="opacity: 1; stroke-width: 0px; fill: rgb(58, 12, 163); fill-opacity: 1;"/><path class="point" transform="translate(161.88,233.88)" d="M3,0A3,3 0 1,1 0,-3A3,3 0 0,1 3,0Z" style="opacity: 1; stroke-width: 0px; fill: rgb(58, 12, 163); fill-opacity: 1;"/><path class="point" transform="translate(167.62,192.49)" d="M3,0A3,3 0 1,1 0,-3A3,3 0 0,1 3,0Z" style="opacity: 1; stroke-width: 0px; fill: rgb(58, 12, 163); fill-opacity: 1;"/><path class="point" transform="translate(173.35,192.49)" d="M3,0A3,3 0 1,1 0,-3A3,3 0 0,1 3,0Z" style="opacity: 1; stroke-width: 0px; fill: rgb(58, 12, 163); fill-opacity: 1;"/><path class="point" transform="translate(179.09,178.7)" d="M3,0A3,3 0 1,1 0,-3A3,3 0 0,1 3,0Z" style="opacity: 1; stroke-width: 0px; fill: rgb(58, 12, 163); fill-opacity: 1;"/><path class="point" transform="translate(184.82,178.7)" d="M3,0A3,3 0 1,1 0,-3A3,3 0 0,1 3,0Z" style="opacity: 1; stroke-width: 0px; fill: rgb(58, 12, 163); fill-opacity: 1;"/><path class="point" transform="translate(190.56,185.59)" d="M3,0A3,3 0 1,1 0,-3A3,3 0 0,1 3,0Z" style="opacity: 1; stroke-width: 0px; fill: rgb(58, 12, 163); fill-opacity: 1;"/><path class="point" transform="translate(196.29,171.8)" d="M3,0A3,3 0 1,1 0,-3A3,3 0 0,1 3,0Z" style="opacity: 1; stroke-width: 0px; fill: rgb(58, 12, 163); fill-opacity: 1;"/><path class="point" transform="translate(202.03,226.98)" d="M3,0A3,3 0 1,1 0,-3A3,3 0 0,1 3,0Z" style="opacity: 1; stroke-width: 0px; fill: rgb(58, 12, 163); fill-opacity: 1;"/><path class="point" transform="translate(207.76,220.08)" d="M3,0A3,3 0 1,1 0,-3A3,3 0 0,1 3,0Z" style="opacity: 1; stroke-width: 0px; fill: rgb(58, 12, 163); fill-opacity: 1;"/><path class="point" transform="translate(213.5,164.9)" d="M3,0A3,3 0 1,1 0,-3A3,3 0 0,1 3,0Z" style="opacity: 1; stroke-width: 0px; fill: rgb(58, 12, 163); fill-opacity: 1;"/><path class="point" transform="translate(219.23,164.9)" d="M3,0A3,3 0 1,1 0,-3A3,3 0 0,1 3,0Z" style="opacity: 1; stroke-width: 0px; fill: rgb(58, 12, 163); fill-opacity: 1;"/><path class="point" transform="translate(224.97,185.59)" d="M3,0A3,3 0 1,1 0,-3A3,3 0 0,1 3,0Z" style="opacity: 1; stroke-width: 0px; fill: rgb(58, 12, 163); fill-opacity: 1;"/><path class="point" transform="translate(230.71,164.9)" d="M3,0A3,3 0 1,1 0,-3A3,3 0 0,1 3,0Z" style="opacity: 1; stroke-width: 0px; fill: rgb(58, 12, 163); fill-opacity: 1;"/><path class="point" transform="translate(236.44,199.39)" d="M3,0A3,3 0 1,1 0,-3A3,3 0 0,1 3,0Z" style="opacity: 1; stroke-width: 0px; fill: rgb(58, 12, 163); fill-opacity: 1;"/><path class="point" transform="translate(242.18,185.59)" d="M3,0A3,3 0 1,1 0,-3A3,3 0 0,1 3,0Z" style="opacity: 1; stroke-width: 0px; fill: rgb(58, 12, 163); fill-opacity: 1;"/><path class="point" transform="translate(247.91,192.49)" d="M3,0A3,3 0 1,1 0,-3A3,3 0 0,1 3,0Z" style="opacity: 1; stroke-width: 0px; fill: rgb(58, 12, 163); fill-opacity: 1;"/><path class="point" transform="translate(253.65,206.29)" d="M3,0A3,3 0 1,1 0,-3A3,3 0 0,1 3,0Z" style="opacity: 1; stroke-width: 0px; fill: rgb(58, 12, 163); fill-opacity: 1;"/><path class="point" transform="translate(259.38,206.29)" d="M3,0A3,3 0 1,1 0,-3A3,3 0 0,1 3,0Z" style="opacity: 1; stroke-width: 0px; fill: rgb(58, 12, 163); fill-opacity: 1;"/><path class="point" transform="translate(265.12,206.29)" d="M3,0A3,3 0 1,1 0,-3A3,3 0 0,1 3,0Z" style="opacity: 1; stroke-width: 0px; fill: rgb(58, 12, 163); fill-opacity: 1;"/><path class="point" transform="translate(270.85,233.88)" d="M3,0A3,3 0 1,1 0,-3A3,3 0 0,1 3,0Z" style="opacity: 1; stroke-width: 0px; fill: rgb(58, 12, 163); fill-opacity: 1;"/><path class="point" transform="translate(276.59,220.08)" d="M3,0A3,3 0 1,1 0,-3A3,3 0 0,1 3,0Z" style="opacity: 1; stroke-width: 0px; fill: rgb(58, 12, 163); fill-opacity: 1;"/><path class="point" transform="translate(282.32,178.7)" d="M3,0A3,3 0 1,1 0,-3A3,3 0 0,1 3,0Z" style="opacity: 1; stroke-width: 0px; fill: rgb(58, 12, 163); fill-opacity: 1;"/><path class="point" transform="translate(288.06,213.18)" d="M3,0A3,3 0 1,1 0,-3A3,3 0 0,1 3,0Z" style="opacity: 1; stroke-width: 0px; fill: rgb(58, 12, 163); fill-opacity: 1;"/><path class="point" transform="translate(293.79,178.7)" d="M3,0A3,3 0 1,1 0,-3A3,3 0 0,1 3,0Z" style="opacity: 1; stroke-width: 0px; fill: rgb(58, 12, 163); fill-opacity: 1;"/><path class="point" transform="translate(299.53,185.59)" d="M3,0A3,3 0 1,1 0,-3A3,3 0 0,1 3,0Z" style="opacity: 1; stroke-width: 0px; fill: rgb(58, 12, 163); fill-opacity: 1;"/><path class="point" transform="translate(305.26,226.98)" d="M3,0A3,3 0 1,1 0,-3A3,3 0 0,1 3,0Z" style="opacity: 1; stroke-width: 0px; fill: rgb(58, 12, 163); fill-opacity: 1;"/><path class="point" transform="translate(311,213.18)" d="M3,0A3,3 0 1,1 0,-3A3,3 0 0,1 3,0Z" style="opacity: 1; stroke-width: 0px; fill: rgb(58, 12, 163); fill-opacity: 1;"/><path class="point" transform="translate(316.73,178.7)" d="M3,0A3,3 0 1,1 0,-3A3,3 0 0,1 3,0Z" style="opacity: 1; stroke-width: 0px; fill: rgb(58, 12, 163); fill-opacity: 1;"/><path class="point" transform="translate(322.47,171.8)" d="M3,0A3,3 0 1,1 0,-3A3,3 0 0,1 3,0Z" style="opacity: 1; stroke-width: 0px; fill: rgb(58, 12, 163); fill-opacity: 1;"/><path class="point" transform="translate(328.2,178.7)" d="M3,0A3,3 0 1,1 0,-3A3,3 0 0,1 3,0Z" style="opacity: 1; stroke-width: 0px; fill: rgb(58, 12, 163); fill-opacity: 1;"/><path class="point" transform="translate(333.94,206.29)" d="M3,0A3,3 0 1,1 0,-3A3,3 0 0,1 3,0Z" style="opacity: 1; stroke-width: 0px; fill: rgb(58, 12, 163); fill-opacity: 1;"/><path class="point" transform="translate(339.67,220.08)" d="M3,0A3,3 0 1,1 0,-3A3,3 0 0,1 3,0Z" style="opacity: 1; stroke-width: 0px; fill: rgb(58, 12, 163); fill-opacity: 1;"/><path class="point" transform="translate(345.41,192.49)" d="M3,0A3,3 0 1,1 0,-3A3,3 0 0,1 3,0Z" style="opacity: 1; stroke-width: 0px; fill: rgb(58, 12, 163); fill-opacity: 1;"/><path class="point" transform="translate(351.14,178.7)" d="M3,0A3,3 0 1,1 0,-3A3,3 0 0,1 3,0Z" style="opacity: 1; stroke-width: 0px; fill: rgb(58, 12, 163); fill-opacity: 1;"/><path class="point" transform="translate(356.88,192.49)" d="M3,0A3,3 0 1,1 0,-3A3,3 0 0,1 3,0Z" style="opacity: 1; stroke-width: 0px; fill: rgb(58, 12, 163); fill-opacity: 1;"/><path class="point" transform="translate(362.61,164.9)" d="M3,0A3,3 0 1,1 0,-3A3,3 0 0,1 3,0Z" style="opacity: 1; stroke-width: 0px; fill: rgb(58, 12, 163); fill-opacity: 1;"/><path class="point" transform="translate(368.35,185.59)" d="M3,0A3,3 0 1,1 0,-3A3,3 0 0,1 3,0Z" style="opacity: 1; stroke-width: 0px; fill: rgb(58, 12, 163); fill-opacity: 1;"/><path class="point" transform="translate(374.08,192.49)" d="M3,0A3,3 0 1,1 0,-3A3,3 0 0,1 3,0Z" style="opacity: 1; stroke-width: 0px; fill: rgb(58, 12, 163); fill-opacity: 1;"/><path class="point" transform="translate(379.82,233.88)" d="M3,0A3,3 0 1,1 0,-3A3,3 0 0,1 3,0Z" style="opacity: 1; stroke-width: 0px; fill: rgb(58, 12, 163); fill-opacity: 1;"/><path class="point" transform="translate(385.55,220.08)" d="M3,0A3,3 0 1,1 0,-3A3,3 0 0,1 3,0Z" style="opacity: 1; stroke-width: 0px; fill: rgb(58, 12, 163); fill-opacity: 1;"/><path class="point" transform="translate(391.29,192.49)" d="M3,0A3,3 0 1,1 0,-3A3,3 0 0,1 3,0Z" style="opacity: 1; stroke-width: 0px; fill: rgb(58, 12, 163); fill-opacity: 1;"/><path class="point" transform="translate(397.02,185.59)" d="M3,0A3,3 0 1,1 0,-3A3,3 0 0,1 3,0Z" style="opacity: 1; stroke-width: 0px; fill: rgb(58, 12, 163); fill-opacity: 1;"/><path class="point" transform="translate(402.76,171.8)" d="M3,0A3,3 0 1,1 0,-3A3,3 0 0,1 3,0Z" style="opacity: 1; stroke-width: 0px; fill: rgb(58, 12, 163); fill-opacity: 1;"/><path class="point" transform="translate(408.49,164.9)" d="M3,0A3,3 0 1,1 0,-3A3,3 0 0,1 3,0Z" style="opacity: 1; stroke-width: 0px; fill: rgb(58, 12, 163); fill-opacity: 1;"/><path class="point" transform="translate(414.23,185.59)" d="M3,0A3,3 0 1,1 0,-3A3,3 0 0,1 3,0Z" style="opacity: 1; stroke-width: 0px; fill: rgb(58, 12, 163); fill-opacity: 1;"/><path class="point" transform="translate(419.97,206.29)" d="M3,0A3,3 0 1,1 0,-3A3,3 0 0,1 3,0Z" style="opacity: 1; stroke-width: 0px; fill: rgb(58, 12, 163); fill-opacity: 1;"/><path class="point" transform="translate(425.7,164.9)" d="M3,0A3,3 0 1,1 0,-3A3,3 0 0,1 3,0Z" style="opacity: 1; stroke-width: 0px; fill: rgb(58, 12, 163); fill-opacity: 1;"/><path class="point" transform="translate(431.44,171.8)" d="M3,0A3,3 0 1,1 0,-3A3,3 0 0,1 3,0Z" style="opacity: 1; stroke-width: 0px; fill: rgb(58, 12, 163); fill-opacity: 1;"/><path class="point" transform="translate(437.17,192.49)" d="M3,0A3,3 0 1,1 0,-3A3,3 0 0,1 3,0Z" style="opacity: 1; stroke-width: 0px; fill: rgb(58, 12, 163); fill-opacity: 1;"/><path class="point" transform="translate(442.91,171.8)" d="M3,0A3,3 0 1,1 0,-3A3,3 0 0,1 3,0Z" style="opacity: 1; stroke-width: 0px; fill: rgb(58, 12, 163); fill-opacity: 1;"/><path class="point" transform="translate(448.64,199.39)" d="M3,0A3,3 0 1,1 0,-3A3,3 0 0,1 3,0Z" style="opacity: 1; stroke-width: 0px; fill: rgb(58, 12, 163); fill-opacity: 1;"/><path class="point" transform="translate(454.38,192.49)" d="M3,0A3,3 0 1,1 0,-3A3,3 0 0,1 3,0Z" style="opacity: 1; stroke-width: 0px; fill: rgb(58, 12, 163); fill-opacity: 1;"/><path class="point" transform="translate(460.11,206.29)" d="M3,0A3,3 0 1,1 0,-3A3,3 0 0,1 3,0Z" style="opacity: 1; stroke-width: 0px; fill: rgb(58, 12, 163); fill-opacity: 1;"/><path class="point" transform="translate(465.85,233.88)" d="M3,0A3,3 0 1,1 0,-3A3,3 0 0,1 3,0Z" style="opacity: 1; stroke-width: 0px; fill: rgb(58, 12, 163); fill-opacity: 1;"/><path class="point" transform="translate(471.58,192.49)" d="M3,0A3,3 0 1,1 0,-3A3,3 0 0,1 3,0Z" style="opacity: 1; stroke-width: 0px; fill: rgb(58, 12, 163); fill-opacity: 1;"/><path class="point" transform="translate(477.32,171.8)" d="M3,0A3,3 0 1,1 0,-3A3,3 0 0,1 3,0Z" style="opacity: 1; stroke-width: 0px; fill: rgb(58, 12, 163); fill-opacity: 1;"/><path class="point" transform="translate(483.05,233.88)" d="M3,0A3,3 0 1,1 0,-3A3,3 0 0,1 3,0Z" style="opacity: 1; stroke-width: 0px; fill: rgb(58, 12, 163); fill-opacity: 1;"/><path class="point" transform="translate(488.79,233.88)" d="M3,0A3,3 0 1,1 0,-3A3,3 0 0,1 3,0Z" style="opacity: 1; stroke-width: 0px; fill: rgb(58, 12, 163); fill-opacity: 1;"/><path class="point" transform="translate(494.52,220.08)" d="M3,0A3,3 0 1,1 0,-3A3,3 0 0,1 3,0Z" style="opacity: 1; stroke-width: 0px; fill: rgb(58, 12, 163); fill-opacity: 1;"/><path class="point" transform="translate(500.26,192.49)" d="M3,0A3,3 0 1,1 0,-3A3,3 0 0,1 3,0Z" style="opacity: 1; stroke-width: 0px; fill: rgb(58, 12, 163); fill-opacity: 1;"/><path class="point" transform="translate(505.99,164.9)" d="M3,0A3,3 0 1,1 0,-3A3,3 0 0,1 3,0Z" style="opacity: 1; stroke-width: 0px; fill: rgb(58, 12, 163); fill-opacity: 1;"/><path class="point" transform="translate(511.73,185.59)" d="M3,0A3,3 0 1,1 0,-3A3,3 0 0,1 3,0Z" style="opacity: 1; stroke-width: 0px; fill: rgb(58, 12, 163); fill-opacity: 1;"/><path class="point" transform="translate(517.46,185.59)" d="M3,0A3,3 0 1,1 0,-3A3,3 0 0,1 3,0Z" style="opacity: 1; stroke-width: 0px; fill: rgb(58, 12, 163); fill-opacity: 1;"/><path class="point" transform="translate(523.2,185.59)" d="M3,0A3,3 0 1,1 0,-3A3,3 0 0,1 3,0Z" style="opacity: 1; stroke-width: 0px; fill: rgb(58, 12, 163); fill-opacity: 1;"/><path class="point" transform="translate(528.93,192.49)" d="M3,0A3,3 0 1,1 0,-3A3,3 0 0,1 3,0Z" style="opacity: 1; stroke-width: 0px; fill: rgb(58, 12, 163); fill-opacity: 1;"/><path class="point" transform="translate(534.67,178.7)" d="M3,0A3,3 0 1,1 0,-3A3,3 0 0,1 3,0Z" style="opacity: 1; stroke-width: 0px; fill: rgb(58, 12, 163); fill-opacity: 1;"/><path class="point" transform="translate(540.4,178.7)" d="M3,0A3,3 0 1,1 0,-3A3,3 0 0,1 3,0Z" style="opacity: 1; stroke-width: 0px; fill: rgb(58, 12, 163); fill-opacity: 1;"/><path class="point" transform="translate(546.14,164.9)" d="M3,0A3,3 0 1,1 0,-3A3,3 0 0,1 3,0Z" style="opacity: 1; stroke-width: 0px; fill: rgb(58, 12, 163); fill-opacity: 1;"/><path class="point" transform="translate(551.87,164.9)" d="M3,0A3,3 0 1,1 0,-3A3,3 0 0,1 3,0Z" style="opacity: 1; stroke-width: 0px; fill: rgb(58, 12, 163); fill-opacity: 1;"/><path class="point" transform="translate(557.61,206.29)" d="M3,0A3,3 0 1,1 0,-3A3,3 0 0,1 3,0Z" style="opacity: 1; stroke-width: 0px; fill: rgb(58, 12, 163); fill-opacity: 1;"/><path class="point" transform="translate(563.34,226.98)" d="M3,0A3,3 0 1,1 0,-3A3,3 0 0,1 3,0Z" style="opacity: 1; stroke-width: 0px; fill: rgb(58, 12, 163); fill-opacity: 1;"/><path class="point" transform="translate(569.08,178.7)" d="M3,0A3,3 0 1,1 0,-3A3,3 0 0,1 3,0Z" style="opacity: 1; stroke-width: 0px; fill: rgb(58, 12, 163); fill-opacity: 1;"/><path class="point" transform="translate(574.81,213.18)" d="M3,0A3,3 0 1,1 0,-3A3,3 0 0,1 3,0Z" style="opacity: 1; stroke-width: 0px; fill: rgb(58, 12, 163); fill-opacity: 1;"/><path class="point" transform="translate(580.55,178.7)" d="M3,0A3,3 0 1,1 0,-3A3,3 0 0,1 3,0Z" style="opacity: 1; stroke-width: 0px; fill: rgb(58, 12, 163); fill-opacity: 1;"/><path class="point" transform="translate(586.28,164.9)" d="M3,0A3,3 0 1,1 0,-3A3,3 0 0,1 3,0Z" style="opacity: 1; stroke-width: 0px; fill: rgb(58, 12, 163); fill-opacity: 1;"/><path class="point" transform="translate(592.02,192.49)" d="M3,0A3,3 0 1,1 0,-3A3,3 0 0,1 3,0Z" style="opacity: 1; stroke-width: 0px; fill: rgb(58, 12, 163); fill-opacity: 1;"/><path class="point" transform="translate(597.75,206.29)" d="M3,0A3,3 0 1,1 0,-3A3,3 0 0,1 3,0Z" style="opacity: 1; stroke-width: 0px; fill: rgb(58, 12, 163); fill-opacity: 1;"/><path class="point" transform="translate(603.49,164.9)" d="M3,0A3,3 0 1,1 0,-3A3,3 0 0,1 3,0Z" style="opacity: 1; stroke-width: 0px; fill: rgb(58, 12, 163); fill-opacity: 1;"/></g><g class="text"/></g></g></g></g><path class="xlines-above crisp" d="M0,0" style="fill: none;"/><path class="ylines-above crisp" d="M0,0" style="fill: none;"/><g class="overlines-above"/><g class="xaxislayer-above"/><g class="yaxislayer-above"/><g class="overaxes-above"/></g></g><g class="polarlayer"/><g class="smithlayer"/><g class="ternarylayer"/><g class="geolayer"/><g class="funnelarealayer"/><g class="pielayer"/><g class="iciclelayer"/><g class="treemaplayer"/><g class="sunburstlayer"/><g class="glimages"/><defs id="topdefs-cef574"><g class="clips"/></defs><g class="layer-above"><g class="imagelayer"/><g class="shapelayer"/></g><g class="infolayer"><g class="g-gtitle"/></g></svg>