<svg class="main-svg" xmlns="http://www.w3.org/2000/svg" xmlns:xlink="http://www.w3.org/1999/xlink" width="700" height="500" style="" viewBox="0 0 700 500"><rect x="0" y="0" width="700" height="500" style="fill: rgb(255, 255, 255); fill-opacity: 1;"/><defs id="defs-b6fe2f"><g class="clips"><clipPath id="clipb6fe2fxyplot" class="plotclip"><rect width="639.1999999999999" height="464"/></clipPath><clipPath class="axesclip" id="clipb6fe2fx"><rect x="10" y="0" width="639.1999999999999" height="500"/></clipPath><clipPath class="axesclip" id="clipb6fe2fy"><rect x="0" y="26" width="700" height="464"/></clipPath><clipPath class="axesclip" id="clipb6fe2fxy"><rect x="10" y="26" width="639.1999999999999" height="464"/></clipPath></g><g class="gradients"/><g class="patterns"/></defs><g class="bglayer"/><g class="layer-below"><g class="imagelayer"/><g class="shapelayer"/></g><g class="cartesianlayer"><g class="subplot xy"><g class="layer-subplot"><g class="shapelayer"/><g class="imagelayer"/></g><g class="minor-gridlayer"><g class="x"/><g class="y"/></g><g class="gridlayer"><g class="x"/><g class="y"/></g><g class="zerolinelayer"/><g class="layer-between"><g class="shapelayer"/><g class="imagelayer"/></g><path class="xlines-below"/><path class="ylines-below"/><g class="overlines-below"/><g class="xaxislayer-below"/><g class="yaxislayer-below"/><g class="overaxes-below"/><g class="overplot"><g class="xy" transform="translate(10,26)" clip-path="url(#clipb6fe2fxyplot)"><g class="scatterlayer mlayer"><g class="trace scatter tracea363c4" style="stroke-miterlimit: 2; opacity: 1;"><g class="fills"/><g class="errorbars"/><g class="lines"><path class="js-line" d="M35.71,81.63L41.45,33.78L47.18,47.46L52.92,33.78L58.65,26.95L64.39,95.3L70.12,81.63L75.86,74.8L81.59,88.47L87.33,26.95L93.06,88.47L98.8,88.47L104.53,33.78L110.27,74.8L116,74.8L121.74,88.47L127.47,81.63L133.21,26.95L138.94,26.95L144.68,40.62L150.41,95.3L156.15,33.78L161.88,81.63L167.62,26.95L173.35,81.63L179.09,81.63L184.82,74.8L190.56,67.96L196.29,40.62L202.03,33.78L207.76,88.47L213.5,54.29L219.23,95.3L224.97,26.95L230.71,47.46L236.44,26.95L242.18,61.13L247.91,40.62L253.65,88.47L259.38,33.78L265.12,47.46L270.85,26.95L276.59,26.95L282.32,47.46L288.06,47.46L293.79,67.96L299.53,47.46L305.26,47.46L311,88.47L316.73,95.3L322.47,81.63L328.2,33.78L333.94,40.62L339.67,95.3L345.41,81.63L351.14,81.63L356.88,95.3L362.61,47.46L368.35,26.95L374.08,47.46L379.82,88.47L385.55,95.3L391.29,26.95L397.02,47.46L402.76,33.78L408.49,26.95L414.23,67.96L419.97,26.95L425.7,81.63L431.44,74.8L437.17,33.78L442.91,61.13L448.64,74.8L454.38,33.78L460.11,67.96L465.85,61.13L471.58,47.46L477.32,95.3L483.05,88.47L488.79,61.13L494.52,95.3L500.26,54.29L505.99,26.95L511.73,40.62L517.46,33.78L523.2,95.3L528.93,54.29L534.67,33.78L540.4,33.78L546.14,88.47L551.87,88.47L557.61,67.96L563.34,26.95L569.08,95.3L574.81,88.47L580.55,40.62L586.28,81.63L592.02,54.29L597.75,33.78L603.49,47.46" style="vector-effect: none; fill: none; stroke: rgb(247, 37, 133); stroke-opacity: 1; stroke-width: 2px; opacity: 1;"/></g><g class="points"><path class="point" transform="translate(35.71,81.63)" d="M3,0A3,3 0 1,1 0,-3A3,3 0 0,1 3,0Z" style="opacity: 1; stroke-width: 0px; fill: rgb(247, 37, 133); fill-opacity: 1;"/><path class="point" transform="translate(41.45,33.78)" d="M3,0A3,3 0 1,1 0,-3A3,3 0 0,1 3,0Z" style="opacity: 1; stroke-width: 0px; fill: rgb(247, 37, 133); fill-opacity: 1;"/><path class="point" transform="translate(47.18,47.46)" d="M3,0A3,3 0 1,1 0,-3A3,3 0 0,1 3,0Z" style="opacity: 1; stroke-width: 0px; fill: rgb(247, 37, 133); fill-opacity: 1;"/><path class="point" transform="translate(52.92,33.78)" d="M3,0A3,3 0 1,1 0,-3A3,3 0 0,1 3,0Z" style="opacity: 1; stroke-width: 0px; fill: rgb(247, 37, 133); fill-opacity: 1;"/><path class="point" transform="translate(58.65,26.95)" d="M3,0A3,3 0 1,1 0,-3A3,3 0 0,1 3,0Z" style="opacity: 1; stroke-width: 0px; fill: rgb(247, 37, 133); fill-opacity: 1;"/><path class="point" transform="translate(64.39,95.3)" d="M3,0A3,3 0 1,1 0,-3A3,3 0 0,1 3,0Z" style="opacity: 1; stroke-width: 0px; fill: rgb(247, 37, 133); fill-opacity: 1;"/><path class="point" transform="translate(70.12,81.63)" d="M3,0A3,3 0 1,1 0,-3A3,3 0 0,1 3,0Z" style="opacity: 1; stroke-width: 0px; fill: rgb(247, 37, 133); fill-opacity: 1;"/><path class="point" transform="translate(75.86,74.8)" d="M3,0A3,3 0 1,1 0,-3A3,3 0 0,1 3,0Z" style="opacity: 1; stroke-width: 0px; fill: rgb(247, 37, 133); fill-opacity: 1;"/><path class="point" transform="translate(81.59,88.47)" d="M3,0A3,3 0 1,1 0,-3A3,3 0 0,1 3,0Z" style="opacity: 1; stroke-width: 0px; fill: rgb(247, 37, 133); fill-opacity: 1;"/><path class="point" transform="translate(87.33,26.95)" d="M3,0A3,3 0 1,1 0,-3A3,3 0 0,1 3,0Z" style="opacity: 1; stroke-width: 0px; fill: rgb(247, 37, 133); fill-opacity: 1;"/><path class="point" transform="translate(93.06,88.47)" d="M3,0A3,3 0 1,1 0,-3A3,3 0 0,1 3,0Z" style="opacity: 1; stroke-width: 0px; fill: rgb(247, 37, 133); fill-opacity: 1;"/><path class="point" transform="translate(98.8,88.47)" d="M3,0A3,3 0 1,1 0,-3A3,3 0 0,1 3,0Z" style="opacity: 1; stroke-width: 0px; fill: rgb(247, 37, 133); fill-opacity: 1;"/><path class="point" transform="translate(104.53,33.78)" d="M3,0A3,3 0 1,1 0,-3A3,3 0 0,1 3,0Z" style="opacity: 1; stroke-width: 0px; fill: rgb(247, 37, 133); fill-opacity: 1;"/><path class="point" transform="translate(110.27,74.8)" d="M3,0A3,3 0 1,1 0,-3A3,3 0 0,1 3,0Z" style="opacity: 1; stroke-width: 0px; fill: rgb(247, 37, 133); fill-opacity: 1;"/><path class="point" transform="translate(116,74.8)" d="M3,0A3,3 0 1,1 0,-3A3,3 0 0,1 3,0Z" style="opacity: 1; stroke-width: 0px; fill: rgb(247, 37, 133); fill-opacity: 1;"/><path class="point" transform="translate(121.74,88.47)" d="M3,0A3,3 0 1,1 0,-3A3,3 0 0,1 3,0Z" style="opacity: 1; stroke-width: 0px; fill: rgb(247, 37, 133); fill-opacity: 1;"/><path class="point" transform="translate(127.47,81.63)" d="M3,0A3,3 0 1,1 0,-3A3,3 0 0,1 3,0Z" style="opacity: 1; stroke-width: 0px; fill: rgb(247, 37, 133); fill-opacity: 1;"/><path class="point" transform="translate(133.21,26.95)" d="M3,0A3,3 0 1,1 0,-3A3,3 0 0,1 3,0Z" style="opacity: 1; stroke-width: 0px; fill: rgb(247, 37, 133); fill-opacity: 1;"/><path class="point" transform="translate(138.94,26.95)" d="M3,0A3,3 0 1,1 0,-3A3,3 0 0,1 3,0Z" style="opacity: 1; stroke-width: 0px; fill: rgb(247, 37, 133); fill-opacity: 1;"/><path class="point" transform="translate(144.68,40.62)" d="M3,0A3,3 0 1,1 0,-3A3,3 0 0,1 3,0Z" style="opacity: 1; stroke-width: 0px; fill: rgb(247, 37, 133); fill-opacity: 1;"/><path class="point" transform="translate(150.41,95.3)" d="M3,0A3,3 0 1,1 0,-3A3,3 0 0,1 3,0Z" style="opacity: 1; stroke-width: 0px; fill: rgb(247, 37, 133); fill-opacity: 1;"/><path class="point" transform="translate(156.15,33.78)" d="M3,0A3,3 0 1,1 0,-3A3,3 0 0,1 3,0Z" style="opacity: 1; stroke-width: 0px; fill: rgb(247, 37, 133); fill-opacity: 1;"/><path class="point" transform="translate(161.88,81.63)" d="M3,0A3,3 0 1,1 0,-3A3,3 0 0,1 3,0Z" style="opacity: 1; stroke-width: 0px; fill: rgb(247, 37, 133); fill-opacity: 1;"/><path class="point" transform="translate(167.62,26.95)" d="M3,0A3,3 0 1,1 0,-3A3,3 0 0,1 3,0Z" style="opacity: 1; stroke-width: 0px; fill: rgb(247, 37, 133); fill-opacity: 1;"/><path class="point" transform="translate(173.35,81.63)" d="M3,0A3,3 0 1,1 0,-3A3,3 0 0,1 3,0Z" style="opacity: 1; stroke-width: 0px; fill: rgb(247, 37, 133); fill-opacity: 1;"/><path class="point" transform="translate(179.09,81.63)" d="M3,0A3,3 0 1,1 0,-3A3,3 0 0,1 3,0Z" style="opacity: 1; stroke-width: 0px; fill: rgb(247, 37, 133); fill-opacity: 1;"/><path class="point" transform="translate(184.82,74.8)" d="M3,0A3,3 0 1,1 0,-3A3,3 0 0,1 3,0Z" style="opacity: 1; stroke-width: 0px; fill: rgb(247, 37, 133); fill-opacity: 1;"/><path class="point" transform="translate(190.56,67.96)" d="M3,0A3,3 0 1,1 0,-3A3,3 0 0,1 3,0Z" style="opacity: 1; stroke-width: 0px; fill: rgb(247, 37, 133); fill-opacity: 1;"/><path class="point" transform="translate(196.29,40.62)" d="M3,0A3,3 0 1,1 0,-3A3,3 0 0,1 3,0Z" style="opacity: 1; stroke-width: 0px; fill: rgb(247, 37, 133); fill-opacity: 1;"/><path class="point" transform="translate(202.03,33.78)" d="M3,0A3,3 0 1,1 0,-3A3,3 0 0,1 3,0Z" style="opacity: 1; stroke-width: 0px; fill: rgb(247, 37, 133); fill-opacity: 1;"/><path class="point" transform="translate(207.76,88.47)" d="M3,0A3,3 0 1,1 0,-3A3,3 0 0,1 3,0Z" style="opacity: 1; stroke-width: 0px; fill: rgb(247, 37, 133); fill-opacity: 1;"/><path class="point" transform="translate(213.5,54.29)" d="M3,0A3,3 0 1,1 0,-3A3,3 0 0,1 3,0Z" style="opacity: 1; stroke-width: 0px; fill: rgb(247, 37, 133); fill-opacity: 1;"/><path class="point" transform="translate(219.23,95.3)" d="M3,0A3,3 0 1,1 0,-3A3,3 0 0,1 3,0Z" style="opacity: 1; stroke-width: 0px; fill: rgb(247, 37, 133); fill-opacity: 1;"/><path class="point" transform="translate(224.97,26.95)" d="M3,0A3,3 0 1,1 0,-3A3,3 0 0,1 3,0Z" style="opacity: 1; stroke-width: 0px; fill: rgb(247, 37, 133); fill-opacity: 1;"/><path class="point" transform="translate(230.71,47.46)" d="M3,0A3,3 0 1,1 0,-3A3,3 0 0,1 3,0Z" style="opacity: 1; stroke-width: 0px; fill: rgb(247, 37, 133); fill-opacity: 1;"/><path class="point" transform="translate(236.44,26.95)" d="M3,0A3,3 0 1,1 0,-3A3,3 0 0,1 3,0Z" style="opacity: 1; stroke-width: 0px; fill: rgb(247, 37, 133); fill-opacity: 1;"/><path class="point" transform="translate(242.18,61.13)" d="M3,0A3,3 0 1,1 0,-3A3,3 0 0,1 3,0Z" style="opacity: 1; stroke-width: 0px; fill: rgb(247, 37, 133); fill-opacity: 1;"/><path class="point" transform="translate(247.91,40.62)" d="M3,0A3,3 0 1,1 0,-3A3,3 0 0,1 3,0Z" style="opacity: 1; stroke-width: 0px; fill: rgb(247, 37, 133); fill-opacity: 1;"/><path class="point" transform="translate(253.65,88.47)" d="M3,0A3,3 0 1,1 0,-3A3,3 0 0,1 3,0Z" style="opacity: 1; stroke-width: 0px; fill: rgb(247, 37, 133); fill-opacity: 1;"/><path class="point" transform="translate(259.38,33.78)" d="M3,0A3,3 0 1,1 0,-3A3,3 0 0,1 3,0Z" style="opacity: 1; stroke-width: 0px; fill: rgb(247, 37, 133); fill-opacity: 1;"/><path class="point" transform="translate(265.12,47.46)" d="M3,0A3,3 0 1,1 0,-3A3,3 0 0,1 3,0Z" style="opacity: 1; stroke-width: 0px; fill: rgb(247, 37, 133); fill-opacity: 1;"/><path class="point" transform="translate(270.85,26.95)" d="M3,0A3,3 0 1,1 0,-3A3,3 0 0,1 3,0Z" style="opacity: 1; stroke-width: 0px; fill: rgb(247, 37, 133); fill-opacity: 1;"/><path class="point" transform="translate(276.59,26.95)" d="M3,0A3,3 0 1,1 0,-3A3,3 0 0,1 3,0Z" style="opacity: 1; stroke-width: 0px; fill: rgb(247, 37, 133); fill-opacity: 1;"/><path class="point" transform="translate(282.32,47.46)" d="M3,0A3,3 0 1,1 0,-3A3,3 0 0,1 3,0Z" style="opacity: 1; stroke-width: 0px; fill: rgb(247, 37, 133); fill-opacity: 1;"/><path class="point" transform="translate(288.06,47.46)" d="M3,0A3,3 0 1,1 0,-3A3,3 0 0,1 3,0Z" style="opacity: 1; stroke-width: 0px; fill: rgb(247, 37, 133); fill-opacity: 1;"/><path class="point" transform="translate(293.79,67.96)" d="M3,0A3,3 0 1,1 0,-3A3,3 0 0,1 3,0Z" style="opacity: 1; stroke-width: 0px; fill: rgb(247, 37, 133); fill-opacity: 1;"/><path class="point" transform="translate(299.53,47.46)" d="M3,0A3,3 0 1,1 0,-3A3,3 0 0,1 3,0Z" style="opacity: 1; stroke-width: 0px; fill: rgb(247, 37, 133); fill-opacity: 1;"/><path class="point" transform="translate(305.26,47.46)" d="M3,0A3,3 0 1,1 0,-3A3,3 0 0,1 3,0Z" style="opacity: 1; stroke-width: 0px; fill: rgb(247, 37, 133); fill-opacity: 1;"/><path class="point" transform="translate(311,88.47)" d="M3,0A3,3 0 1,1 0,-3A3,3 0 0,1 3,0Z" style="opacity: 1; stroke-width: 0px; fill: rgb(247, 37, 133); fill-opacity: 1;"/><path class="point" transform="translate(316.73,95.3)" d="M3,0A3,3 0 1,1 0,-3A3,3 0 0,1 3,0Z" style="opacity: 1; stroke-width: 0px; fill: rgb(247, 37, 133); fill-opacity: 1;"/><path class="point" transform="translate(322.47,81.63)" d="M3,0A3,3 0 1,1 0,-3A3,3 0 0,1 3,0Z" style="opacity: 1; stroke-width: 0px; fill: rgb(247, 37, 133); fill-opacity: 1;"/><path class="point" transform="translate(328.2,33.78)" d="M3,0A3,3 0 1,1 0,-3A3,3 0 0,1 3,0Z" style="opacity: 1; stroke-width: 0px; fill: rgb(247, 37, 133); fill-opacity: 1;"/><path class="point" transform="translate(333.94,40.62)" d="M3,0A3,3 0 1,1 0,-3A3,3 0 0,1 3,0Z" style="opacity: 1; stroke-width: 0px; fill: rgb(247, 37, 133); fill-opacity: 1;"/><path class="point" transform="translate(339.67,95.3)" d="M3,0A3,3 0 1,1 0,-3A3,3 0 0,1 3,0Z" style="opacity: 1; stroke-width: 0px; fill: rgb(247, 37, 133); fill-opacity: 1;"/><path class="point" transform="translate(345.41,81.63)" d="M3,0A3,3 0 1,1 0,-3A3,3 0 0,1 3,0Z" style="opacity: 1; stroke-width: 0px; fill: rgb(247, 37, 133); fill-opacity: 1;"/><path class="point" transform="translate(351.14,81.63)" d="M3,0A3,3 0 1,1 0,-3A3,3 0 0,1 3,0Z" style="opacity: 1; stroke-width: 0px; fill: rgb(247, 37, 133); fill-opacity: 1;"/><path class="point" transform="translate(356.88,95.3)" d="M3,0A3,3 0 1,1 0,-3A3,3 0 0,1 3,0Z" style="opacity: 1; stroke-width: 0px; fill: rgb(247, 37, 133); fill-opacity: 1;"/><path class="point" transform="translate(362.61,47.46)" d="M3,0A3,3 0 1,1 0,-3A3,3 0 0,1 3,0Z" style="opacity: 1; stroke-width: 0px; fill: rgb(247, 37, 133); fill-opacity: 1;"/><path class="point" transform="translate(368.35,26.95)" d="M3,0A3,3 0 1,1 0,-3A3,3 0 0,1 3,0Z" style="opacity: 1; stroke-width: 0px; fill: rgb(247, 37, 133); fill-opacity: 1;"/><path class="point" transform="translate(374.08,47.46)" d="M3,0A3,3 0 1,1 0,-3A3,3 0 0,1 3,0Z" style="opacity: 1; stroke-width: 0px; fill: rgb(247, 37, 133); fill-opacity: 1;"/><path class="point" transform="translate(379.82,88.47)" d="M3,0A3,3 0 1,1 0,-3A3,3 0 0,1 3,0Z" style="opacity: 1; stroke-width: 0px; fill: rgb(247, 37, 133); fill-opacity: 1;"/><path class="point" transform="translate(385.55,95.3)" d="M3,0A3,3 0 1,1 0,-3A3,3 0 0,1 3,0Z" style="opacity: 1; stroke-width: 0px; fill: rgb(247, 37, 133); fill-opacity: 1;"/><path class="point" transform="translate(391.29,26.95)" d="M3,0A3,3 0 1,1 0,-3A3,3 0 0,1 3,0Z" style="opacity: 1; stroke-width: 0px; fill: rgb(247, 37, 133); fill-opacity: 1;"/><path class="point" transform="translate(397.02,47.46)" d="M3,0A3,3 0 1,1 0,-3A3,3 0 0,1 3,0Z" style="opacity: 1; stroke-width: 0px; fill: rgb(247, 37, 133); fill-opacity: 1;"/><path class="point" transform="translate(402.76,33.78)" d="M3,0A3,3 0 1,1 0,-3A3,3 0 0,1 3,0Z" style="opacity: 1; stroke-width: 0px; fill: rgb(247, 37, 133); fill-opacity: 1;"/><path class="point" transform="translate(408.49,26.95)" d="M3,0A3,3 0 1,1 0,-3A3,3 0 0,1 3,0Z" style="opacity: 1; stroke-width: 0px; fill: rgb(247, 37, 133); fill-opacity: 1;"/><path class="point" transform="translate(414.23,67.96)" d="M3,0A3,3 0 1,1 0,-3A3,3 0 0,1 3,0Z" style="opacity: 1; stroke-width: 0px; fill: rgb(247, 37, 133); fill-opacity: 1;"/><path class="point" transform="translate(419.97,26.95)" d="M3,0A3,3 0 1,1 0,-3A3,3 0 0,1 3,0Z" style="opacity: 1; stroke-width: 0px; fill: rgb(247, 37, 133); fill-opacity: 1;"/><path class="point" transform="translate(425.7,81.63)" d="M3,0A3,3 0 1,1 0,-3A3,3 0 0,1 3,0Z" style="opacity: 1; stroke-width: 0px; fill: rgb(247, 37, 133); fill-opacity: 1;"/><path class="point" transform="translate(431.44,74.8)" d="M3,0A3,3 0 1,1 0,-3A3,3 0 0,1 3,0Z" style="opacity: 1; stroke-width: 0px; fill: rgb(247, 37, 133); fill-opacity: 1;"/><path class="point" transform="translate(437.17,33.78)" d="M3,0A3,3 0 1,1 0,-3A3,3 0 0,1 3,0Z" style="opacity: 1; stroke-width: 0px; fill: rgb(247, 37, 133); fill-opacity: 1;"/><path class="point" transform="translate(442.91,61.13)" d="M3,0A3,3 0 1,1 0,-3A3,3 0 0,1 3,0Z" style="opacity: 1; stroke-width: 0px; fill: rgb(247, 37, 133); fill-opacity: 1;"/><path class="point" transform="translate(448.64,74.8)" d="M3,0A3,3 0 1,1 0,-3A3,3 0 0,1 3,0Z" style="opacity: 1; stroke-width: 0px; fill: rgb(247, 37, 133); fill-opacity: 1;"/><path class="point" transform="translate(454.38,33.78)" d="M3,0A3,3 0 1,1 0,-3A3,3 0 0,1 3,0Z" style="opacity: 1; stroke-width: 0px; fill: rgb(247, 37, 133); fill-opacity: 1;"/><path class="point" transform="translate(460.11,67.96)" d="M3,0A3,3 0 1,1 0,-3A3,3 0 0,1 3,0Z" style="opacity: 1; stroke-width: 0px; fill: rgb(247, 37, 133); fill-opacity: 1;"/><path class="point" transform="translate(465.85,61.13)" d="M3,0A3,3 0 1,1 0,-3A3,3 0 0,1 3,0Z" style="opacity: 1; stroke-width: 0px; fill: rgb(247, 37, 133); fill-opacity: 1;"/><path class="point" transform="translate(471.58,47.46)" d="M3,0A3,3 0 1,1 0,-3A3,3 0 0,1 3,0Z" style="opacity: 1; stroke-width: 0px; fill: rgb(247, 37, 133); fill-opacity: 1;"/><path class="point" transform="translate(477.32,95.3)" d="M3,0A3,3 0 1,1 0,-3A3,3 0 0,1 3,0Z" style="opacity: 1; stroke-width: 0px; fill: rgb(247, 37, 133); fill-opacity: 1;"/><path class="point" transform="translate(483.05,88.47)" d="M3,0A3,3 0 1,1 0,-3A3,3 0 0,1 3,0Z" style="opacity: 1; stroke-width: 0px; fill: rgb(247, 37, 133); fill-opacity: 1;"/><path class="point" transform="translate(488.79,61.13)" d="M3,0A3,3 0 1,1 0,-3A3,3 0 0,1 3,0Z" style="opacity: 1; stroke-width: 0px; fill: rgb(247, 37, 133); fill-opacity: 1;"/><path class="point" transform="translate(494.52,95.3)" d="M3,0A3,3 0 1,1 0,-3A3,3 0 0,1 3,0Z" style="opacity: 1; stroke-width: 0px; fill: rgb(247, 37, 133); fill-opacity: 1;"/><path class="point" transform="translate(500.26,54.29)" d="M3,0A3,3 0 1,1 0,-3A3,3 0 0,1 3,0Z" style="opacity: 1; stroke-width: 0px; fill: rgb(247, 37, 133); fill-opacity: 1;"/><path class="point" transform="translate(505.99,26.95)" d="M3,0A3,3 0 1,1 0,-3A3,3 0 0,1 3,0Z" style="opacity: 1; stroke-width: 0px; fill: rgb(247, 37, 133); fill-opacity: 1;"/><path class="point" transform="translate(511.73,40.62)" d="M3,0A3,3 0 1,1 0,-3A3,3 0 0,1 3,0Z" style="opacity: 1; stroke-width: 0px; fill: rgb(247, 37, 133); fill-opacity: 1;"/><path class="point" transform="translate(517.46,33.78)" d="M3,0A3,3 0 1,1 0,-3A3,3 0 0,1 3,0Z" style="opacity: 1; stroke-width: 0px; fill: rgb(247, 37, 133); fill-opacity: 1;"/><path class="point" transform="translate(523.2,95.3)" d="M3,0A3,3 0 1,1 0,-3A3,3 0 0,1 3,0Z" style="opacity: 1; stroke-width: 0px; fill: rgb(247, 37, 133); fill-opacity: 1;"/><path class="point" transform="translate(528.93,54.29)" d="M3,0A3,3 0 1,1 0,-3A3,3 0 0,1 3,0Z" style="opacity: 1; stroke-width: 0px; fill: rgb(247, 37, 133); fill-opacity: 1;"/><path class="point" transform="translate(534.67,33.78)" d="M3,0A3,3 0 1,1 0,-3A3,3 0 0,1 3,0Z" style="opacity: 1; stroke-width: 0px; fill: rgb(247, 37, 133); fill-opacity: 1;"/><path class="point" transform="translate(540.4,33.78)" d="M3,0A3,3 0 1,1 0,-3A3,3 0 0,1 3,0Z" style="opacity: 1; stroke-width: 0px; fill: rgb(247, 37, 133); fill-opacity: 1;"/><path class="point" transform="translate(546.14,88.47)" d="M3,0A3,3 0 1,1 0,-3A3,3 0 0,1 3,0Z" style="opacity: 1; stroke-width: 0px; fill: rgb(247, 37, 133); fill-opacity: 1;"/><path class="point" transform="translate(551.87,88.47)" d="M3,0A3,3 0 1,1 0,-3A3,3 0 0,1 3,0Z" style="opacity: 1; stroke-width: 0px; fill: rgb(247, 37, 133); fill-opacity: 1;"/><path class="point" transform="translate(557.61,67.96)" d="M3,0A3,3 0 1,1 0,-3A3,3 0 0,1 3,0Z" style="opacity: 1; stroke-width: 0px; fill: rgb(247, 37, 133); fill-opacity: 1;"/><path class="point" transform="translate(563.34,26.95)" d="M3,0A3,3 0 1,1 0,-3A3,3 0 0,1 3,0Z" style="opacity: 1; stroke-width: 0px; fill: rgb(247, 37, 133); fill-opacity: 1;"/><path class="point" transform="translate(569.08,95.3)" d="M3,0A3,3 0 1,1 0,-3A3,3 0 0,1 3,0Z" style="opacity: 1; stroke-width: 0px; fill: rgb(247, 37, 133); fill-opacity: 1;"/><path class="point" transform="translate(574.81,88.47)" d="M3,0A3,3 0 1,1 0,-3A3,3 0 0,1 3,0Z" style="opacity: 1; stroke-width: 0px; fill: rgb(247, 37, 133); fill-opacity: 1;"/><path class="point" transform="translate(580.55,40.62)" d="M3,0A3,3 0 1,1 0,-3A3,3 0 0,1 3,0Z" style="opacity: 1; stroke-width: 0px; fill: rgb(247, 37, 133); fill-opacity: 1;"/><path class="point" transform="translate(586.28,81.63)" d="M3,0A3,3 0 1,1 0,-3A3,3 0 0,1 3,0Z" style="opacity: 1; stroke-width: 0px; fill: rgb(247, 37, 133); fill-opacity: 1;"/><path class="point" transform="translate(592.02,54.29)" d="M3,0A3,3 0 1,1 0,-3A3,3 0 0,1 3,0Z" style="opacity: 1; stroke-width: 0px; fill: rgb(247, 37, 133); fill-opacity: 1;"/><path class="point" transform="translate(597.75,33.78)" d="M3,0A3,3 0 1,1 0,-3A3,3 0 0,1 3,0Z" style="opacity: 1; stroke-width: 0px; fill: rgb(247, 37, 133); fill-opacity: 1;"/><path class="point" transform="translate(603.49,47.46)" d="M3,0A3,3 0 1,1 0,-3A3,3 0 0,1 3,0Z" style="opacity: 1; stroke-width: 0px; fill: rgb(247, 37, 133); fill-opacity: 1;"/></g><g class="text"/></g><g class="trace scatter trace3a25e0" style="stroke-miterlimit: 2; opacity: 1;"><g class="fills"/><g class="errorbars"/><g class="lines"/><g class="points"><path class="point" transform="translate(35.71,389.21)" d="M3,0A3,3 0 1,1 0,-3A3,3 0 0,1 3,0Z" style="opacity: 1; stroke-width: 0px; fill: rgb(114, 9, 183); fill-opacity: 1;"/><path class="point" transform="translate(41.45,423.38)" d="M3,0A3,3 0 1,1 0,-3A3,3 0 0,1 3,0Z" style="opacity: 1; stroke-width: 0px; fill: rgb(114, 9, 183); fill-opacity: 1;"/><path class="point" transform="translate(47.18,368.7)" d="M3,0A3,3 0 1,1 0,-3A3,3 0 0,1 3,0Z" style="opacity: 1; stroke-width: 0px; fill: rgb(114, 9, 183); fill-opacity: 1;"/><path class="point" transform="translate(52.92,430.22)" d="M3,0A3,3 0 1,1 0,-3A3,3 0 0,1 3,0Z" style="opacity: 1; stroke-width: 0px; fill: rgb(114, 9, 183); fill-opacity: 1;"/><path class="point" transform="translate(58.65,402.88)" d="M3,0A3,3 0 1,1 0,-3A3,3 0 0,1 3,0Z" style="opacity: 1; stroke-width: 0px; fill: rgb(114, 9, 183); fill-opacity: 1;"/><path class="point" transform="translate(64.39,430.22)" d="M3,0A3,3 0 1,1 0,-3A3,3 0 0,1 3,0Z" style="opacity: 1; stroke-width: 0px; fill: rgb(114, 9, 183); fill-opacity: 1;"/><path class="point" transform="translate(70.12,396.04)" d="M3,0A3,3 0 1,1 0,-3A3,3 0 0,1 3,0Z" style="opacity: 1; stroke-width: 0px; fill: rgb(114, 9, 183); fill-opacity: 1;"/><path class="point" transform="translate(75.86,375.54)" d="M3,0A3,3 0 1,1 0,-3A3,3 0 0,1 3,0Z" style="opacity: 1; stroke-width: 0px; fill: rgb(114, 9, 183); fill-opacity: 1;"/><path class="point" transform="translate(81.59,368.7)" d="M3,0A3,3 0 1,1 0,-3A3,3 0 0,1 3,0Z" style="opacity: 1; stroke-width: 0px; fill: rgb(114, 9, 183); fill-opacity: 1;"/><path class="point" transform="translate(87.33,430.22)" d="M3,0A3,3 0 1,1 0,-3A3,3 0 0,1 3,0Z" style="opacity: 1; stroke-width: 0px; fill: rgb(114, 9, 183); fill-opacity: 1;"/><path class="point" transform="translate(93.06,409.71)" d="M3,0A3,3 0 1,1 0,-3A3,3 0 0,1 3,0Z" style="opacity: 1; stroke-width: 0px; fill: rgb(114, 9, 183); fill-opacity: 1;"/><path class="point" transform="translate(98.8,382.37)" d="M3,0A3,3 0 1,1 0,-3A3,3 0 0,1 3,0Z" style="opacity: 1; stroke-width: 0px; fill: rgb(114, 9, 183); fill-opacity: 1;"/><path class="point" transform="translate(104.53,382.37)" d="M3,0A3,3 0 1,1 0,-3A3,3 0 0,1 3,0Z" style="opacity: 1; stroke-width: 0px; fill: rgb(114, 9, 183); fill-opacity: 1;"/><path class="point" transform="translate(110.27,389.21)" d="M3,0A3,3 0 1,1 0,-3A3,3 0 0,1 3,0Z" style="opacity: 1; stroke-width: 0px; fill: rgb(114, 9, 183); fill-opacity: 1;"/><path class="point" transform="translate(116,389.21)" d="M3,0A3,3 0 1,1 0,-3A3,3 0 0,1 3,0Z" style="opacity: 1; stroke-width: 0px; fill: rgb(114, 9, 183); fill-opacity: 1;"/><path class="point" transform="translate(121.74,375.54)" d="M3,0A3,3 0 1,1 0,-3A3,3 0 0,1 3,0Z" style="opacity: 1; stroke-width: 0px; fill: rgb(114, 9, 183); fill-opacity: 1;"/><path class="point" transform="translate(127.47,396.04)" d="M3,0A3,3 0 1,1 0,-3A3,3 0 0,1 3,0Z" style="opacity: 1; stroke-width: 0px; fill: rgb(114, 9, 183); fill-opacity: 1;"/><path class="point" transform="translate(133.21,409.71)" d="M3,0A3,3 0 1,1 0,-3A3,3 0 0,1 3,0Z" style="opacity: 1; stroke-width: 0px; fill: rgb(114, 9, 183); fill-opacity: 1;"/><path class="point" transform="translate(138.94,402.88)" d="M3,0A3,3 0 1,1 0,-3A3,3 0 0,1 3,0Z" style="opacity: 1; stroke-width: 0px; fill: rgb(114, 9, 183); fill-opacity: 1;"/><path class="point" transform="translate(144.68,368.7)" d="M3,0A3,3 0 1,1 0,-3A3,3 0 0,1 3,0Z" style="opacity: 1; stroke-width: 0px; fill: rgb(114, 9, 183); fill-opacity: 1;"/><path class="point" transform="translate(150.41,382.37)" d="M3,0A3,3 0 1,1 0,-3A3,3 0 0,1 3,0Z" style="opacity: 1; stroke-width: 0px; fill: rgb(114, 9, 183); fill-opacity: 1;"/><path class="point" transform="translate(156.15,416.54)" d="M3,0A3,3 0 1,1 0,-3A3,3 0 0,1 3,0Z" style="opacity: 1; stroke-width: 0px; fill: rgb(114, 9, 183); fill-opacity: 1;"/><path class="point" transform="translate(161.88,423.38)" d="M3,0A3,3 0 1,1 0,-3A3,3 0 0,1 3,0Z" style="opacity: 1; stroke-width: 0px; fill: rgb(114, 9, 183); fill-opacity: 1;"/><path class="point" transform="translate(167.62,402.88)" d="M3,0A3,3 0 1,1 0,-3A3,3 0 0,1 3,0Z" style="opacity: 1; stroke-width: 0px; fill: rgb(114, 9, 183); fill-opacity: 1;"/><path class="point" transform="translate(173.35,368.7)" d="M3,0A3,3 0 1,1 0,-3A3,3 0 0,1 3,0Z" style="opacity: 1; stroke-width: 0px; fill: rgb(114, 9, 183); fill-opacity: 1;"/><path class="point" transform="translate(179.09,382.37)" d="M3,0A3,3 0 1,1 0,-3A3,3 0 0,1 3,0Z" style="opacity: 1; stroke-width: 0px; fill: rgb(114, 9, 183); fill-opacity: 1;"/><path class="point" transform="translate(184.82,423.38)" d="M3,0A3,3 0 1,1 0,-3A3,3 0 0,1 3,0Z" style="opacity: 1; stroke-width: 0px; fill: rgb(114, 9, 183); fill-opacity: 1;"/><path class="point" transform="translate(190.56,368.7)" d="M3,0A3,3 0 1,1 0,-3A3,3 0 0,1 3,0Z" style="opacity: 1; stroke-width: 0px; fill: rgb(114, 9, 183); fill-opacity: 1;"/><path class="point" transform="translate(196.29,389.21)" d="M3,0A3,3 0 1,1 0,-3A3,3 0 0,1 3,0Z" style="opacity: 1; stroke-width: 0px; fill: rgb(114, 9, 183); fill-opacity: 1;"/><path class="point" transform="translate(202.03,409.71)" d="M3,0A3,3 0 1,1 0,-3A3,3 0 0,1 3,0Z" style="opacity: 1; stroke-width: 0px; fill: rgb(114, 9, 183); fill-opacity: 1;"/><path class="point" transform="translate(207.76,368.7)" d="M3,0A3,3 0 1,1 0,-3A3,3 0 0,1 3,0Z" style="opacity: 1; stroke-width: 0px; fill: rgb(114, 9, 183); fill-opacity: 1;"/><path class="point" transform="translate(213.5,382.37)" d="M3,0A3,3 0 1,1 0,-3A3,3 0 0,1 3,0Z" style="opacity: 1; stroke-width: 0px; fill: rgb(114, 9, 183); fill-opacity: 1;"/><path class="point" transform="translate(219.23,416.54)" d="M3,0A3,3 0 1,1 0,-3A3,3 0 0,1 3,0Z" style="opacity: 1; stroke-width: 0px; fill: rgb(114, 9, 183); fill-opacity: 1;"/><path class="point" transform="translate(224.97,437.05)" d="M3,0A3,3 0 1,1 0,-3A3,3 0 0,1 3,0Z" style="opacity: 1; stroke-width: 0px; fill: rgb(114, 9, 183); fill-opacity: 1;"/><path class="point" transform="translate(230.71,368.7)" d="M3,0A3,3 0 1,1 0,-3A3,3 0 0,1 3,0Z" style="opacity: 1; stroke-width: 0px; fill: rgb(114, 9, 183); fill-opacity: 1;"/><path class="point" transform="translate(236.44,382.37)" d="M3,0A3,3 0 1,1 0,-3A3,3 0 0,1 3,0Z" style="opacity: 1; stroke-width: 0px; fill: rgb(114, 9, 183); fill-opacity: 1;"/><path class="point" transform="translate(242.18,416.54)" d="M3,0A3,3 0 1,1 0,-3A3,3 0 0,1 3,0Z" style="opacity: 1; stroke-width: 0px; fill: rgb(114, 9, 183); fill-opacity: 1;"/><path class="point" transform="translate(247.91,368.7)" d="M3,0A3,3 0 1,1 0,-3A3,3 0 0,1 3,0Z" style="opacity: 1; stroke-width: 0px; fill: rgb(114, 9, 183); fill-opacity: 1;"/><path class="point" transform="translate(253.65,430.22)" d="M3,0A3,3 0 1,1 0,-3A3,3 0 0,1 3,0Z" style="opacity: 1; stroke-width: 0px; fill: rgb(114, 9, 183); fill-opacity: 1;"/><path class="point" transform="translate(259.38,430.22)" d="M3,0A3,3 0 1,1 0,-3A3,3 0 0,1 3,0Z" style="opacity: 1; stroke-width: 0px; fill: rgb(114, 9, 183); fill-opacity: 1;"/><path class="point" transform="translate(265.12,396.04)" d="M3,0A3,3 0 1,1 0,-3A3,3 0 0,1 3,0Z" style="opacity: 1; stroke-width: 0px; fill: rgb(114, 9, 183); fill-opacity: 1;"/><path class="point" transform="translate(270.85,416.54)" d="M3,0A3,3 0 1,1 0,-3A3,3 0 0,1 3,0Z" style="opacity: 1; stroke-width: 0px; fill: rgb(114, 9, 183); fill-opacity: 1;"/><path class="point" transform="translate(276.59,437.05)" d="M3,0A3,3 0 1,1 0,-3A3,3 0 0,1 3,0Z" style="opacity: 1; stroke-width: 0px; fill: rgb(114, 9, 183); fill-opacity: 1;"/><path class="point" transform="translate(282.32,437.05)" d="M3,0A3,3 0 1,1 0,-3A3,3 0 0,1 3,0Z" style="opacity: 1; stroke-width: 0px; fill: rgb(114, 9, 183); fill-opacity: 1;"/><path class="point" transform="translate(288.06,396.04)" d="M3,0A3,3 0 1,1 0,-3A3,3 0 0,1 3,0Z" style="opacity: 1; stroke-width: 0px; fill: rgb(114, 9, 183); fill-opacity: 1;"/><path class="point" transform="translate(293.79,416.54)" d="M3,0A3,3 0 1,1 0,-3A3,3 0 0,1 3,0Z" style="opacity: 1; stroke-width: 0px; fill: rgb(114, 9, 183); fill-opacity: 1;"/><path class="point" transform="translate(299.53,368.7)" d="M3,0A3,3 0 1,1 0,-3A3,3 0 0,1 3,0Z" style="opacity: 1; stroke-width: 0px; fill: rgb(114, 9, 183); fill-opacity: 1;"/><path class="point" transform="translate(305.26,402.88)" d="M3,0A3,3 0 1,1 0,-3A3,3 0 0,1 3,0Z" style="opacity: 1; stroke-width: 0px; fill: rgb(114, 9, 183); fill-opacity: 1;"/><path class="point" transform="translate(311,375.54)" d="M3,0A3,3 0 1,1 0,-3A3,3 0 0,1 3,0Z" style="opacity: 1; stroke-width: 0px; fill: rgb(114, 9, 183); fill-opacity: 1;"/><path class="point" transform="translate(316.73,402.88)" d="M3,0A3,3 0 1,1 0,-3A3,3 0 0,1 3,0Z" style="opacity: 1; stroke-width: 0px; fill: rgb(114, 9, 183); fill-opacity: 1;"/><path class="point" transform="translate(322.47,402.88)" d="M3,0A3,3 0 1,1 0,-3A3,3 0 0,1 3,0Z" style="opacity: 1; stroke-width: 0px; fill: rgb(114, 9, 183); fill-opacity: 1;"/><path class="point" transform="translate(328.2,375.54)" d="M3,0A3,3 0 1,1 0,-3A3,3 0 0,1 3,0Z" style="opacity: 1; stroke-width: 0px; fill: rgb(114, 9, 183); fill-opacity: 1;"/><path class="point" transform="translate(333.94,423.38)" d="M3,0A3,3 0 1,1 0,-3A3,3 0 0,1 3,0Z" style="opacity: 1; stroke-width: 0px; fill: rgb(114, 9, 183); fill-opacity: 1;"/><path class="point" transform="translate(339.67,416.54)" d="M3,0A3,3 0 1,1 0,-3A3,3 0 0,1 3,0Z" style="opacity: 1; stroke-width: 0px; fill: rgb(114, 9, 183); fill-opacity: 1;"/><path class="point" transform="translate(345.41,409.71)" d="M3,0A3,3 0 1,1 0,-3A3,3 0 0,1 3,0Z" style="opacity: 1; stroke-width: 0px; fill: rgb(114, 9, 183); fill-opacity: 1;"/><path class="point" transform="translate(351.14,396.04)" d="M3,0A3,3 0 1,1 0,-3A3,3 0 0,1 3,0Z" style="opacity: 1; stroke-width: 0px; fill: rgb(114, 9, 183); fill-opacity: 1;"/><path class="point" transform="translate(356.88,396.04)" d="M3,0A3,3 0 1,1 0,-3A3,3 0 0,1 3,0Z" style="opacity: 1; stroke-width: 0px; fill: rgb(114, 9, 183); fill-opacity: 1;"/><path class="point" transform="translate(362.61,368.7)" d="M3,0A3,3 0 1,1 0,-3A3,3 0 0,1 3,0Z" style="opacity: 1; stroke-width: 0px; fill: rgb(114, 9, 183); fill-opacity: 1;"/><path class="point" transform="translate(368.35,430.22)" d="M3,0A3,3 0 1,1 0,-3A3,3 0 0,1 3,0Z" style="opacity: 1; stroke-width: 0px; fill: rgb(114, 9, 183); fill-opacity: 1;"/><path class="point" transform="translate(374.08,416.54)" d="M3,0A3,3 0 1,1 0,-3A3,3 0 0,1 3,0Z" style="opacity: 1; stroke-width: 0px; fill: rgb(114, 9, 183); fill-opacity: 1;"/><path class="point" transform="translate(379.82,382.37)" d="M3,0A3,3 0 1,1 0,-3A3,3 0 0,1 3,0Z" style="opacity: 1; stroke-width: 0px; fill: rgb(114, 9, 183); fill-opacity: 1;"/><path class="point" transform="translate(385.55,416.54)" d="M3,0A3,3 0 1,1 0,-3A3,3 0 0,1 3,0Z" style="opacity: 1; stroke-width: 0px; fill: rgb(114, 9, 183); fill-opacity: 1;"/><path class="point" transform="translate(391.29,396.04)" d="M3,0A3,3 0 1,1 0,-3A3,3 0 0,1 3,0Z" style="opacity: 1; stroke-width: 0px; fill: rgb(114, 9, 183); fill-opacity: 1;"/><path class="point" transform="translate(397.02,368.7)" d="M3,0A3,3 0 1,1 0,-3A3,3 0 0,1 3,0Z" style="opacity: 1; stroke-width: 0px; fill: rgb(114, 9, 183); fill-opacity: 1;"/><path class="point" transform="translate(402.76,389.21)" d="M3,0A3,3 0 1,1 0,-3A3,3 0 0,1 3,0Z" style="opacity: 1; stroke-width: 0px; fill: rgb(114, 9, 183); fill-opacity: 1;"/><path class="point" transform="translate(408.49,375.54)" d="M3,0A3,3 0 1,1 0,-3A3,3 0 0,1 3,0Z" style="opacity: 1; stroke-width: 0px; fill: rgb(114, 9, 183); fill-opacity: 1;"/><path class="point" transform="translate(414.23,375.54)" d="M3,0A3,3 0 1,1 0,-3A3,3 0 0,1 3,0Z" style="opacity: 1; stroke-width: 0px; fill: rgb(114, 9, 183); fill-opacity: 1;"/><path class="point" transform="translate(419.97,430.22)" d="M3,0A3,3 0 1,1 0,-3A3,3 0 0,1 3,0Z" style="opacity: 1; stroke-width: 0px; fill: rgb(114, 9, 183); fill-opacity: 1;"/><path class="point" transform="translate(425.7,368.7)" d="M3,0A3,3 0 1,1 0,-3A3,3 0 0,1 3,0Z" style="opacity: 1; stroke-width: 0px; fill: rgb(114, 9, 183); fill-opacity: 1;"/><path class="point" transform="translate(431.44,437.05)" d="M3,0A3,3 0 1,1 0,-3A3,3 0 0,1 3,0Z" style="opacity: 1; stroke-width: 0px; fill: rgb(114, 9, 183); fill-opacity: 1;"/><path class="point" transform="translate(437.17,402.88)" d="M3,0A3,3 0 1,1 0,-3A3,3 0 0,1 3,0Z" style="opacity: 1; stroke-width: 0px; fill: rgb(114, 9, 183); fill-opacity: 1;"/><path class="point" transform="translate(442.91,382.37)" d="M3,0A3,3 0 1,1 0,-3A3,3 0 0,1 3,0Z" style="opacity: 1; stroke-width: 0px; fill: rgb(114, 9, 183); fill-opacity: 1;"/><path class="point" transform="translate(448.64,437.05)" d="M3,0A3,3 0 1,1 0,-3A3,3 0 0,1 3,0Z" style="opacity: 1; stroke-width: 0px; fill: rgb(114, 9, 183); fill-opacity: 1;"/><path class="point" transform="translate(454.38,375.54)" d="M3,0A3,3 0 1,1 0,-3A3,3 0 0,1 3,0Z" style="opacity: 1; stroke-width: 0px; fill: rgb(114, 9, 183); fill-opacity: 1;"/><path class="point" transform="translate(460.11,409.71)" d="M3,0A3,3 0 1,1 0,-3A3,3 0 0,1 3,0Z" style="opacity: 1; stroke-width: 0px; fill: rgb(114, 9, 183); fill-opacity: 1;"/><path class="point" transform="translate(465.85,409.71)" d="M3,0A3,3 0 1,1 0,-3A3,3 0 0,1 3,0Z" style="opacity: 1; stroke-width: 0px; fill: rgb(114, 9, 183); fill-opacity: 1;"/><path class="point" transform="translate(471.58,430.22)" d="M3,0A3,3 0 1,1 0,-3A3,3 0 0,1 3,0Z" style="opacity: 1; stroke-width: 0px; fill: rgb(114, 9, 183); fill-opacity: 1;"/><path class="point" transform="translate(477.32,416.54)" d="M3,0A3,3 0 1,1 0,-3A3,3 0 0,1 3,0Z" style="opacity: 1; stroke-width: 0px; fill: rgb(114, 9, 183); fill-opacity: 1;"/><path class="point" transform="translate(483.05,396.04)" d="M3,0A3,3 0 1,1 0,-3A3,3 0 0,1 3,0Z" style="opacity: 1; stroke-width: 0px; fill: rgb(114, 9, 183); fill-opacity: 1;"/><path class="point" transform="translate(488.79,430.22)" d="M3,0A3,3 0 1,1 0,-3A3,3 0 0,1 3,0Z" style="opacity: 1; stroke-width: 0px; fill: rgb(114, 9, 183); fill-opacity: 1;"/><path class="point" transform="translate(494.52,382.37)" d="M3,0A3,3 0 1,1 0,-3A3,3 0 0,1 3,0Z" style="opacity: 1; stroke-width: 0px; fill: rgb(114, 9, 183); fill-opacity: 1;"/><path class="point" transform="translate(500.26,368.7)" d="M3,0A3,3 0 1,1 0,-3A3,3 0 0,1 3,0Z" style="opacity: 1; stroke-width: 0px; fill: rgb(114, 9, 183); fill-opacity: 1;"/><path class="point" transform="translate(505.99,430.22)" d="M3,0A3,3 0 1,1 0,-3A3,3 0 0,1 3,0Z" style="opacity: 1; stroke-width: 0px; fill: rgb(114, 9, 183); fill-opacity: 1;"/><path class="point" transform="translate(511.73,402.88)" d="M3,0A3,3 0 1,1 0,-3A3,3 0 0,1 3,0Z" style="opacity: 1; stroke-width: 0px; fill: rgb(114, 9, 183); fill-opacity: 1;"/><path class="point" transform="translate(517.46,437.05)" d="M3,0A3,3 0 1,1 0,-3A3,3 0 0,1 3,0Z" style="opacity: 1; stroke-width: 0px; fill: rgb(114, 9, 183); fill-opacity: 1;"/><path class="point" transform="translate(523.2,402.88)" d="M3,0A3,3 0 1,1 0,-3A3,3 0 0,1 3,0Z" style="opacity: 1; stroke-width: 0px; fill: rgb(114, 9, 183); fill-opacity: 1;"/><path class="point" transform="translate(528.93,368.7)" d="M3,0A3,3 0 1,1 0,-3A3,3 0 0,1 3,0Z" style="opacity: 1; stroke-width: 0px; fill: rgb(114, 9, 183); fill-opacity: 1;"/><path class="point" transform="translate(534.67,402.88)" d="M3,0A3,3 0 1,1 0,-3A3,3 0 0,1 3,0Z" style="opacity: 1; stroke-width: 0px; fill: rgb(114, 9, 183); fill-opacity: 1;"/><path class="point" transform="translate(540.4,409.71)" d="M3,0A3,3 0 1,1 0,-3A3,3 0 0,1 3,0Z" style="opacity: 1; stroke-width: 0px; fill: rgb(114, 9, 183); fill-opacity: 1;"/><path class="point" transform="translate(546.14,409.71)" d="M3,0A3,3 0 1,1 0,-3A3,3 0 0,1 3,0Z" style="opacity: 1; stroke-width: 0px; fill: rgb(114, 9, 183); fill-opacity: 1;"/><path class="point" transform="translate(551.87,368.7)" d="M3,0A3,3 0 1,1 0,-3A3,3 0 0,1 3,0Z" style="opacity: 1; stroke-width: 0px; fill: rgb(114, 9, 183); fill-opacity: 1;"/><path class="point" transform="translate(557.61,382.37)" d="M3,0A3,3 0 1,1 0,-3A3,3 0 0,1 3,0Z" style="opacity: 1; stroke-width: 0px; fill: rgb(114, 9, 183); fill-opacity: 1;"/><path class="point" transform="translate(563.34,402.88)" d="M3,0A3,3 0 1,1 0,-3A3,3 0 0,1 3,0Z" style="opacity: 1; stroke-width: 0px; fill: rgb(114, 9, 183); fill-opacity: 1;"/><path class="point" transform="translate(569.08,416.54)" d="M3,0A3,3 0 1,1 0,-3A3,3 0 0,1 3,0Z" style="opacity: 1; stroke-width: 0px; fill: rgb(114, 9, 183); fill-opacity: 1;"/><path class="point" transform="translate(574.81,402.88)" d="M3,0A3,3 0 1,1 0,-3A3,3 0 0,1 3,0Z" style="opacity: 1; stroke-width: 0px; fill: rgb(114, 9, 183); fill-opacity: 1;"/><path class="point" transform="translate(580.55,430.22)" d="M3,0A3,3 0 1,1 0,-3A3,3 0 0,1 3,0Z" style="opacity: 1; stroke-width: 0px; fill: rgb(114, 9, 183); fill-opacity: 1;"/><path class="point" transform="translate(586.28,409.71)" d="M3,0A3,3 0 1,1 0,-3A3,3 0 0,1 3,0Z" style="opacity: 1; stroke-width: 0px; fill: rgb(114, 9, 183); fill-opacity: 1;"/><path class="point" transform="translate(592.02,375.54)" d="M3,0A3,3 0 1,1 0,-3A3,3 0 0,1 3,0Z" style="opacity: 1; stroke-width: 0px; fill: rgb(114, 9, 183); fill-opacity: 1;"/><path class="point" transform="translate(597.75,368.7)" d="M3,0A3,3 0 1,1 0,-3A3,3 0 0,1 3,0Z" style="opacity: 1; stroke-width: 0px; fill: rgb(114, 9, 183); fill-opacity: 1;"/><path class="point" transform="translate(603.49,368.7)" d="M3,0A3,3 0 1,1 0,-3A3,3 0 0,1 3,0Z" style="opacity: 1; stroke-width: 0px; fill: rgb(114, 9, 183); fill-opacity: 1;"/></g><g class="text"/></g></g></g></g><path class="xlines-above crisp" d="M0,0" style="fill: none;"/><path class="ylines-above crisp" d="M0,0" style="fill: none;"/><g class="overlines-above"/><g class="xaxislayer-above"/><g class="yaxislayer-above"/><g class="overaxes-above"/></g></g><g class="polarlayer"/><g class="smithlayer"/><g class="ternarylayer"/><g class="geolayer"/><g class="funnelarealayer"/><g class="pielayer"/><g class="iciclelayer"/><g class="treemaplayer"/><g class="sunburstlayer"/><g class="glimages"/><defs id="topdefs-b6fe2f"><g class="clips"/></defs><g class="layer-above"><g class="imagelayer"/><g class="shapelayer"/></g><g class="infolayer"><g class="g-gtitle"/></g></svg>