<svg class="main-svg" xmlns="http://www.w3.org/2000/svg" xmlns:xlink="http://www.w3.org/1999/xlink" width="700" height="500" style="" viewBox="0 0 700 500"><rect x="0" y="0" width="700" height="500" style="fill: rgb(255, 255, 255); fill-opacity: 1;"/><defs id="defs-886d0e"><g class="clips"><clipPath id="clip886d0exyplot" class="plotclip"><rect width="639.1999999999999" height="464"/></clipPath><clipPath class="axesclip" id="clip886d0ex"><rect x="10" y="0" width="639.1999999999999" height="500"/></clipPath><clipPath class="axesclip" id="clip886d0ey"><rect x="0" y="26" width="700" height="464"/></clipPath><clipPath class="axesclip" id="clip886d0exy"><rect x="10" y="26" width="639.1999999999999" height="464"/></clipPath></g><g class="gradients"/><g class="patterns"/></defs><g class="bglayer"/><g class="layer-below"><g class="imagelayer"/><g class="shapelayer"/></g><g class="cartesianlayer"><g class="subplot xy"><g class="layer-subplot"><g class="shapelayer"/><g class="imagelayer"/></g><g class="minor-gridlayer"><g class="x"/><g class="y"/></g><g class="gridlayer"><g class="x"/><g class="y"/></g><g class="zerolinelayer"/><g class="layer-between"><g class="shapelayer"/><g class="imagelayer"/></g><path class="xlines-below"/><path class="ylines-below"/><g class="overlines-below"/><g class="xaxislayer-below"/><g class="yaxislayer-below"/><g class="overaxes-below"/><g class="overplot"><g class="xy" transform="translate(10,26)" clip-path="url(#clip886d0exyplot)"><g class="scatterlayer mlayer"><g class="trace scatter tracebf5ec5" style="stroke-miterlimit: 2; opacity: 1;"><g class="fills"/><g class="errorbars"/><g class="lines"><path class="js-line" d="M35.71,89.03L41.45,95.93L47.18,95.93L58.65,82.13L64.39,33.85L70.12,95.93L75.86,33.85L81.59,26.95L87.33,47.64L93.06,89.03L98.8,68.34L104.53,95.93L110.27,47.64L116,61.44L121.74,33.85L127.47,47.64L133.21,89.03L138.94,54.54L144.68,75.23L150.41,26.95L156.15,68.34L167.62,82.13L173.35,95.93L184.82,26.95L190.56,40.75L196.29,26.95L202.03,82.13L207.76,61.44L213.5,26.95L219.23,89.03L224.97,54.54L230.71,54.54L236.44,47.64L242.18,95.93L247.91,33.85L253.65,95.93L259.38,33.85L265.12,61.44L270.85,95.93L276.59,75.23L282.32,75.23L288.06,33.85L293.79,82.13L299.53,40.75L305.26,82.13L311,95.93L316.73,33.85L328.2,33.85L333.94,26.95L339.67,89.03L345.41,40.75L351.14,95.93L356.88,68.34L362.61,75.23L368.35,33.85L374.08,54.54L379.82,89.03L385.55,75.23L391.29,95.93L397.02,47.64L402.76,54.54L408.49,75.23L414.23,82.13L419.97,47.64L425.7,82.13L431.44,33.85L437.17,95.93L442.91,75.23L448.64,33.85L454.38,54.54L460.11,26.95L465.85,75.23L471.58,68.34L477.32,89.03L483.05,95.93L488.79,61.44L494.52,75.23L500.26,75.23L505.99,33.85L511.73,75.23L517.46,40.75L523.2,47.64L528.93,26.95L534.67,47.64L540.4,75.23L546.14,26.95L551.87,61.44L557.61,95.93L563.34,26.95L569.08,89.03L574.81,61.44L580.55,82.13L586.28,26.95L592.02,40.75L597.75,95.93L603.49,61.44" style="vector-effect: none; fill: none; stroke: rgb(247, 37, 133); stroke-opacity: 1; stroke-width: 2px; opacity: 1;"/></g><g class="points"><path class="point" transform="translate(35.71,89.03)" d="M3,0A3,3 0 1,1 0,-3A3,3 0 0,1 3,0Z" style="opacity: 1; stroke-width: 0px; fill: rgb(247, 37, 133); fill-opacity: 1;"/><path class="point" transform="translate(41.45,95.93)" d="M3,0A3,3 0 1,1 0,-3A3,3 0 0,1 3,0Z" style="opacity: 1; stroke-width: 0px; fill: rgb(247, 37, 133); fill-opacity: 1;"/><path class="point" transform="translate(47.18,95.93)" d="M3,0A3,3 0 1,1 0,-3A3,3 0 0,1 3,0Z" style="opacity: 1; stroke-width: 0px; fill: rgb(247, 37, 133); fill-opacity: 1;"/><path class="point" transform="translate(52.92,89.03)" d="M3,0A3,3 0 1,1 0,-3A3,3 0 0,1 3,0Z" style="opacity: 1; stroke-width: 0px; fill: rgb(247, 37, 133); fill-opacity: 1;"/><path class="point" transform="translate(58.65,82.13)" d="M3,0A3,3 0 1,1 0,-3A3,3 0 0,1 3,0Z" style="opacity: 1; stroke-width: 0px; fill: rgb(247, 37, 133); fill-opacity: 1;"/><path class="point" transform="translate(64.39,33.85)" d="M3,0A3,3 0 1,1 0,-3A3,3 0 0,1 3,0Z" style="opacity: 1; stroke-width: 0px; fill: rgb(247, 37, 133); fill-opacity: 1;"/><path class="point" transform="translate(70.12,95.93)" d="M3,0A3,3 0 1,1 0,-3A3,3 0 0,1 3,0Z" style="opacity: 1; stroke-width: 0px; fill: rgb(247, 37, 133); fill-opacity: 1;"/><path class="point" transform="translate(75.86,33.85)" d="M3,0A3,3 0 1,1 0,-3A3,3 0 0,1 3,0Z" style="opacity: 1; stroke-width: 0px; fill: rgb(247, 37, 133); fill-opacity: 1;"/><path class="point" transform="translate(81.59,26.95)" d="M3,0A3,3 0 1,1 0,-3A3,3 0 0,1 3,0Z" style="opacity: 1; stroke-width: 0px; fill: rgb(247, 37, 133); fill-opacity: 1;"/><path class="point" transform="translate(87.33,47.64)" d="M3,0A3,3 0 1,1 0,-3A3,3 0 0,1 3,0Z" style="opacity: 1; stroke-width: 0px; fill: rgb(247, 37, 133); fill-opacity: 1;"/><path class="point" transform="translate(93.06,89.03)" d="M3,0A3,3 0 1,1 0,-3A3,3 0 0,1 3,0Z" style="opacity: 1; stroke-width: 0px; fill: rgb(247, 37, 133); fill-opacity: 1;"/><path class="point" transform="translate(98.8,68.34)" d="M3,0A3,3 0 1,1 0,-3A3,3 0 0,1 3,0Z" style="opacity: 1; stroke-width: 0px; fill: rgb(247, 37, 133); fill-opacity: 1;"/><path class="point" transform="translate(104.53,95.93)" d="M3,0A3,3 0 1,1 0,-3A3,3 0 0,1 3,0Z" style="opacity: 1; stroke-width: 0px; fill: rgb(247, 37, 133); fill-opacity: 1;"/><path class="point" transform="translate(110.27,47.64)" d="M3,0A3,3 0 1,1 0,-3A3,3 0 0,1 3,0Z" style="opacity: 1; stroke-width: 0px; fill: rgb(247, 37, 133); fill-opacity: 1;"/><path class="point" transform="translate(116,61.44)" d="M3,0A3,3 0 1,1 0,-3A3,3 0 0,1 3,0Z" style="opacity: 1; stroke-width: 0px; fill: rgb(247, 37, 133); fill-opacity: 1;"/><path class="point" transform="translate(121.74,33.85)" d="M3,0A3,3 0 1,1 0,-3A3,3 0 0,1 3,0Z" style="opacity: 1; stroke-width: 0px; fill: rgb(247, 37, 133); fill-opacity: 1;"/><path class="point" transform="translate(127.47,47.64)" d="M3,0A3,3 0 1,1 0,-3A3,3 0 0,1 3,0Z" style="opacity: 1; stroke-width: 0px; fill: rgb(247, 37, 133); fill-opacity: 1;"/><path class="point" transform="translate(133.21,89.03)" d="M3,0A3,3 0 1,1 0,-3A3,3 0 0,1 3,0Z" style="opacity: 1; stroke-width: 0px; fill: rgb(247, 37, 133); fill-opacity: 1;"/><path class="point" transform="translate(138.94,54.54)" d="M3,0A3,3 0 1,1 0,-3A3,3 0 0,1 3,0Z" style="opacity: 1; stroke-width: 0px; fill: rgb(247, 37, 133); fill-opacity: 1;"/><path class="point" transform="translate(144.68,75.23)" d="M3,0A3,3 0 1,1 0,-3A3,3 0 0,1 3,0Z" style="opacity: 1; stroke-width: 0px; fill: rgb(247, 37, 133); fill-opacity: 1;"/><path class="point" transform="translate(150.41,26.95)" d="M3,0A3,3 0 1,1 0,-3A3,3 0 0,1 3,0Z" style="opacity: 1; stroke-width: 0px; fill: rgb(247, 37, 133); fill-opacity: 1;"/><path class="point" transform="translate(156.15,68.34)" d="M3,0A3,3 0 1,1 0,-3A3,3 0 0,1 3,0Z" style="opacity: 1; stroke-width: 0px; fill: rgb(247, 37, 133); fill-opacity: 1;"/><path class="point" transform="translate(161.88,75.23)" d="M3,0A3,3 0 1,1 0,-3A3,3 0 0,1 3,0Z" style="opacity: 1; stroke-width: 0px; fill: rgb(247, 37, 133); fill-opacity: 1;"/><path class="point" transform="translate(167.62,82.13)" d="M3,0A3,3 0 1,1 0,-3A3,3 0 0,1 3,0Z" style="opacity: 1; stroke-width: 0px; fill: rgb(247, 37, 133); fill-opacity: 1;"/><path class="point" transform="translate(173.35,95.93)" d="M3,0A3,3 0 1,1 0,-3A3,3 0 0,1 3,0Z" style="opacity: 1; stroke-width: 0px; fill: rgb(247, 37, 133); fill-opacity: 1;"/><path class="point" transform="translate(179.09,61.44)" d="M3,0A3,3 0 1,1 0,-3A3,3 0 0,1 3,0Z" style="opacity: 1; stroke-width: 0px; fill: rgb(247, 37, 133); fill-opacity: 1;"/><path class="point" transform="translate(184.82,26.95)" d="M3,0A3,3 0 1,1 0,-3A3,3 0 0,1 3,0Z" style="opacity: 1; stroke-width: 0px; fill: rgb(247, 37, 133); fill-opacity: 1;"/><path class="point" transform="translate(190.56,40.75)" d="M3,0A3,3 0 1,1 0,-3A3,3 0 0,1 3,0Z" style="opacity: 1; stroke-width: 0px; fill: rgb(247, 37, 133); fill-opacity: 1;"/><path class="point" transform="translate(196.29,26.95)" d="M3,0A3,3 0 1,1 0,-3A3,3 0 0,1 3,0Z" style="opacity: 1; stroke-width: 0px; fill: rgb(247, 37, 133); fill-opacity: 1;"/><path class="point" transform="translate(202.03,82.13)" d="M3,0A3,3 0 1,1 0,-3A3,3 0 0,1 3,0Z" style="opacity: 1; stroke-width: 0px; fill: rgb(247, 37, 133); fill-opacity: 1;"/><path class="point" transform="translate(207.76,61.44)" d="M3,0A3,3 0 1,1 0,-3A3,3 0 0,1 3,0Z" style="opacity: 1; stroke-width: 0px; fill: rgb(247, 37, 133); fill-opacity: 1;"/><path class="point" transform="translate(213.5,26.95)" d="M3,0A3,3 0 1,1 0,-3A3,3 0 0,1 3,0Z" style="opacity: 1; stroke-width: 0px; fill: rgb(247, 37, 133); fill-opacity: 1;"/><path class="point" transform="translate(219.23,89.03)" d="M3,0A3,3 0 1,1 0,-3A3,3 0 0,1 3,0Z" style="opacity: 1; stroke-width: 0px; fill: rgb(247, 37, 133); fill-opacity: 1;"/><path class="point" transform="translate(224.97,54.54)" d="M3,0A3,3 0 1,1 0,-3A3,3 0 0,1 3,0Z" style="opacity: 1; stroke-width: 0px; fill: rgb(247, 37, 133); fill-opacity: 1;"/><path class="point" transform="translate(230.71,54.54)" d="M3,0A3,3 0 1,1 0,-3A3,3 0 0,1 3,0Z" style="opacity: 1; stroke-width: 0px; fill: rgb(247, 37, 133); fill-opacity: 1;"/><path class="point" transform="translate(236.44,47.64)" d="M3,0A3,3 0 1,1 0,-3A3,3 0 0,1 3,0Z" style="opacity: 1; stroke-width: 0px; fill: rgb(247, 37, 133); fill-opacity: 1;"/><path class="point" transform="translate(242.18,95.93)" d="M3,0A3,3 0 1,1 0,-3A3,3 0 0,1 3,0Z" style="opacity: 1; stroke-width: 0px; fill: rgb(247, 37, 133); fill-opacity: 1;"/><path class="point" transform="translate(247.91,33.85)" d="M3,0A3,3 0 1,1 0,-3A3,3 0 0,1 3,0Z" style="opacity: 1; stroke-width: 0px; fill: rgb(247, 37, 133); fill-opacity: 1;"/><path class="point" transform="translate(253.65,95.93)" d="M3,0A3,3 0 1,1 0,-3A3,3 0 0,1 3,0Z" style="opacity: 1; stroke-width: 0px; fill: rgb(247, 37, 133); fill-opacity: 1;"/><path class="point" transform="translate(259.38,33.85)" d="M3,0A3,3 0 1,1 0,-3A3,3 0 0,1 3,0Z" style="opacity: 1; stroke-width: 0px; fill: rgb(247, 37, 133); fill-opacity: 1;"/><path class="point" transform="translate(265.12,61.44)" d="M3,0A3,3 0 1,1 0,-3A3,3 0 0,1 3,0Z" style="opacity: 1; stroke-width: 0px; fill: rgb(247, 37, 133); fill-opacity: 1;"/><path class="point" transform="translate(270.85,95.93)" d="M3,0A3,3 0 1,1 0,-3A3,3 0 0,1 3,0Z" style="opacity: 1; stroke-width: 0px; fill: rgb(247, 37, 133); fill-opacity: 1;"/><path class="point" transform="translate(276.59,75.23)" d="M3,0A3,3 0 1,1 0,-3A3,3 0 0,1 3,0Z" style="opacity: 1; stroke-width: 0px; fill: rgb(247, 37, 133); fill-opacity: 1;"/><path class="point" transform="translate(282.32,75.23)" d="M3,0A3,3 0 1,1 0,-3A3,3 0 0,1 3,0Z" style="opacity: 1; stroke-width: 0px; fill: rgb(247, 37, 133); fill-opacity: 1;"/><path class="point" transform="translate(288.06,33.85)" d="M3,0A3,3 0 1,1 0,-3A3,3 0 0,1 3,0Z" style="opacity: 1; stroke-width: 0px; fill: rgb(247, 37, 133); fill-opacity: 1;"/><path class="point" transform="translate(293.79,82.13)" d="M3,0A3,3 0 1,1 0,-3A3,3 0 0,1 3,0Z" style="opacity: 1; stroke-width: 0px; fill: rgb(247, 37, 133); fill-opacity: 1;"/><path class="point" transform="translate(299.53,40.75)" d="M3,0A3,3 0 1,1 0,-3A3,3 0 0,1 3,0Z" style="opacity: 1; stroke-width: 0px; fill: rgb(247, 37, 133); fill-opacity: 1;"/><path class="point" transform="translate(305.26,82.13)" d="M3,0A3,3 0 1,1 0,-3A3,3 0 0,1 3,0Z" style="opacity: 1; stroke-width: 0px; fill: rgb(247, 37, 133); fill-opacity: 1;"/><path class="point" transform="translate(311,95.93)" d="M3,0A3,3 0 1,1 0,-3A3,3 0 0,1 3,0Z" style="opacity: 1; stroke-width: 0px; fill: rgb(247, 37, 133); fill-opacity: 1;"/><path class="point" transform="translate(316.73,33.85)" d="M3,0A3,3 0 1,1 0,-3A3,3 0 0,1 3,0Z" style="opacity: 1; stroke-width: 0px; fill: rgb(247, 37, 133); fill-opacity: 1;"/><path class="point" transform="translate(322.47,33.85)" d="M3,0A3,3 0 1,1 0,-3A3,3 0 0,1 3,0Z" style="opacity: 1; stroke-width: 0px; fill: rgb(247, 37, 133); fill-opacity: 1;"/><path class="point" transform="translate(328.2,33.85)" d="M3,0A3,3 0 1,1 0,-3A3,3 0 0,1 3,0Z" style="opacity: 1; stroke-width: 0px; fill: rgb(247, 37, 133); fill-opacity: 1;"/><path class="point" transform="translate(333.94,26.95)" d="M3,0A3,3 0 1,1 0,-3A3,3 0 0,1 3,0Z" style="opacity: 1; stroke-width: 0px; fill: rgb(247, 37, 133); fill-opacity: 1;"/><path class="point" transform="translate(339.67,89.03)" d="M3,0A3,3 0 1,1 0,-3A3,3 0 0,1 3,0Z" style="opacity: 1; stroke-width: 0px; fill: rgb(247, 37, 133); fill-opacity: 1;"/><path class="point" transform="translate(345.41,40.75)" d="M3,0A3,3 0 1,1 0,-3A3,3 0 0,1 3,0Z" style="opacity: 1; stroke-width: 0px; fill: rgb(247, 37, 133); fill-opacity: 1;"/><path class="point" transform="translate(351.14,95.93)" d="M3,0A3,3 0 1,1 0,-3A3,3 0 0,1 3,0Z" style="opacity: 1; stroke-width: 0px; fill: rgb(247, 37, 133); fill-opacity: 1;"/><path class="point" transform="translate(356.88,68.34)" d="M3,0A3,3 0 1,1 0,-3A3,3 0 0,1 3,0Z" style="opacity: 1; stroke-width: 0px; fill: rgb(247, 37, 133); fill-opacity: 1;"/><path class="point" transform="translate(362.61,75.23)" d="M3,0A3,3 0 1,1 0,-3A3,3 0 0,1 3,0Z" style="opacity: 1; stroke-width: 0px; fill: rgb(247, 37, 133); fill-opacity: 1;"/><path class="point" transform="translate(368.35,33.85)" d="M3,0A3,3 0 1,1 0,-3A3,3 0 0,1 3,0Z" style="opacity: 1; stroke-width: 0px; fill: rgb(247, 37, 133); fill-opacity: 1;"/><path class="point" transform="translate(374.08,54.54)" d="M3,0A3,3 0 1,1 0,-3A3,3 0 0,1 3,0Z" style="opacity: 1; stroke-width: 0px; fill: rgb(247, 37, 133); fill-opacity: 1;"/><path class="point" transform="translate(379.82,89.03)" d="M3,0A3,3 0 1,1 0,-3A3,3 0 0,1 3,0Z" style="opacity: 1; stroke-width: 0px; fill: rgb(247, 37, 133); fill-opacity: 1;"/><path class="point" transform="translate(385.55,75.23)" d="M3,0A3,3 0 1,1 0,-3A3,3 0 0,1 3,0Z" style="opacity: 1; stroke-width: 0px; fill: rgb(247, 37, 133); fill-opacity: 1;"/><path class="point" transform="translate(391.29,95.93)" d="M3,0A3,3 0 1,1 0,-3A3,3 0 0,1 3,0Z" style="opacity: 1; stroke-width: 0px; fill: rgb(247, 37, 133); fill-opacity: 1;"/><path class="point" transform="translate(397.02,47.64)" d="M3,0A3,3 0 1,1 0,-3A3,3 0 0,1 3,0Z" style="opacity: 1; stroke-width: 0px; fill: rgb(247, 37, 133); fill-opacity: 1;"/><path class="point" transform="translate(402.76,54.54)" d="M3,0A3,3 0 1,1 0,-3A3,3 0 0,1 3,0Z" style="opacity: 1; stroke-width: 0px; fill: rgb(247, 37, 133); fill-opacity: 1;"/><path class="point" transform="translate(408.49,75.23)" d="M3,0A3,3 0 1,1 0,-3A3,3 0 0,1 3,0Z" style="opacity: 1; stroke-width: 0px; fill: rgb(247, 37, 133); fill-opacity: 1;"/><path class="point" transform="translate(414.23,82.13)" d="M3,0A3,3 0 1,1 0,-3A3,3 0 0,1 3,0Z" style="opacity: 1; stroke-width: 0px; fill: rgb(247, 37, 133); fill-opacity: 1;"/><path class="point" transform="translate(419.97,47.64)" d="M3,0A3,3 0 1,1 0,-3A3,3 0 0,1 3,0Z" style="opacity: 1; stroke-width: 0px; fill: rgb(247, 37, 133); fill-opacity: 1;"/><path class="point" transform="translate(425.7,82.13)" d="M3,0A3,3 0 1,1 0,-3A3,3 0 0,1 3,0Z" style="opacity: 1; stroke-width: 0px; fill: rgb(247, 37, 133); fill-opacity: 1;"/><path class="point" transform="translate(431.44,33.85)" d="M3,0A3,3 0 1,1 0,-3A3,3 0 0,1 3,0Z" style="opacity: 1; stroke-width: 0px; fill: rgb(247, 37, 133); fill-opacity: 1;"/><path class="point" transform="translate(437.17,95.93)" d="M3,0A3,3 0 1,1 0,-3A3,3 0 0,1 3,0Z" style="opacity: 1; stroke-width: 0px; fill: rgb(247, 37, 133); fill-opacity: 1;"/><path class="point" transform="translate(442.91,75.23)" d="M3,0A3,3 0 1,1 0,-3A3,3 0 0,1 3,0Z" style="opacity: 1; stroke-width: 0px; fill: rgb(247, 37, 133); fill-opacity: 1;"/><path class="point" transform="translate(448.64,33.85)" d="M3,0A3,3 0 1,1 0,-3A3,3 0 0,1 3,0Z" style="opacity: 1; stroke-width: 0px; fill: rgb(247, 37, 133); fill-opacity: 1;"/><path class="point" transform="translate(454.38,54.54)" d="M3,0A3,3 0 1,1 0,-3A3,3 0 0,1 3,0Z" style="opacity: 1; stroke-width: 0px; fill: rgb(247, 37, 133); fill-opacity: 1;"/><path class="point" transform="translate(460.11,26.95)" d="M3,0A3,3 0 1,1 0,-3A3,3 0 0,1 3,0Z" style="opacity: 1; stroke-width: 0px; fill: rgb(247, 37, 133); fill-opacity: 1;"/><path class="point" transform="translate(465.85,75.23)" d="M3,0A3,3 0 1,1 0,-3A3,3 0 0,1 3,0Z" style="opacity: 1; stroke-width: 0px; fill: rgb(247, 37, 133); fill-opacity: 1;"/><path class="point" transform="translate(471.58,68.34)" d="M3,0A3,3 0 1,1 0,-3A3,3 0 0,1 3,0Z" style="opacity: 1; stroke-width: 0px; fill: rgb(247, 37, 133); fill-opacity: 1;"/><path class="point" transform="translate(477.32,89.03)" d="M3,0A3,3 0 1,1 0,-3A3,3 0 0,1 3,0Z" style="opacity: 1; stroke-width: 0px; fill: rgb(247, 37, 133); fill-opacity: 1;"/><path class="point" transform="translate(483.05,95.93)" d="M3,0A3,3 0 1,1 0,-3A3,3 0 0,1 3,0Z" style="opacity: 1; stroke-width: 0px; fill: rgb(247, 37, 133); fill-opacity: 1;"/><path class="point" transform="translate(488.79,61.44)" d="M3,0A3,3 0 1,1 0,-3A3,3 0 0,1 3,0Z" style="opacity: 1; stroke-width: 0px; fill: rgb(247, 37, 133); fill-opacity: 1;"/><path class="point" transform="translate(494.52,75.23)" d="M3,0A3,3 0 1,1 0,-3A3,3 0 0,1 3,0Z" style="opacity: 1; stroke-width: 0px; fill: rgb(247, 37, 133); fill-opacity: 1;"/><path class="point" transform="translate(500.26,75.23)" d="M3,0A3,3 0 1,1 0,-3A3,3 0 0,1 3,0Z" style="opacity: 1; stroke-width: 0px; fill: rgb(247, 37, 133); fill-opacity: 1;"/><path class="point" transform="translate(505.99,33.85)" d="M3,0A3,3 0 1,1 0,-3A3,3 0 0,1 3,0Z" style="opacity: 1; stroke-width: 0px; fill: rgb(247, 37, 133); fill-opacity: 1;"/><path class="point" transform="translate(511.73,75.23)" d="M3,0A3,3 0 1,1 0,-3A3,3 0 0,1 3,0Z" style="opacity: 1; stroke-width: 0px; fill: rgb(247, 37, 133); fill-opacity: 1;"/><path class="point" transform="translate(517.46,40.75)" d="M3,0A3,3 0 1,1 0,-3A3,3 0 0,1 3,0Z" style="opacity: 1; stroke-width: 0px; fill: rgb(247, 37, 133); fill-opacity: 1;"/><path class="point" transform="translate(523.2,47.64)" d="M3,0A3,3 0 1,1 0,-3A3,3 0 0,1 3,0Z" style="opacity: 1; stroke-width: 0px; fill: rgb(247, 37, 133); fill-opacity: 1;"/><path class="point" transform="translate(528.93,26.95)" d="M3,0A3,3 0 1,1 0,-3A3,3 0 0,1 3,0Z" style="opacity: 1; stroke-width: 0px; fill: rgb(247, 37, 133); fill-opacity: 1;"/><path class="point" transform="translate(534.67,47.64)" d="M3,0A3,3 0 1,1 0,-3A3,3 0 0,1 3,0Z" style="opacity: 1; stroke-width: 0px; fill: rgb(247, 37, 133); fill-opacity: 1;"/><path class="point" transform="translate(540.4,75.23)" d="M3,0A3,3 0 1,1 0,-3A3,3 0 0,1 3,0Z" style="opacity: 1; stroke-width: 0px; fill: rgb(247, 37, 133); fill-opacity: 1;"/><path class="point" transform="translate(546.14,26.95)" d="M3,0A3,3 0 1,1 0,-3A3,3 0 0,1 3,0Z" style="opacity: 1; stroke-width: 0px; fill: rgb(247, 37, 133); fill-opacity: 1;"/><path class="point" transform="translate(551.87,61.44)" d="M3,0A3,3 0 1,1 0,-3A3,3 0 0,1 3,0Z" style="opacity: 1; stroke-width: 0px; fill: rgb(247, 37, 133); fill-opacity: 1;"/><path class="point" transform="translate(557.61,95.93)" d="M3,0A3,3 0 1,1 0,-3A3,3 0 0,1 3,0Z" style="opacity: 1; stroke-width: 0px; fill: rgb(247, 37, 133); fill-opacity: 1;"/><path class="point" transform="translate(563.34,26.95)" d="M3,0A3,3 0 1,1 0,-3A3,3 0 0,1 3,0Z" style="opacity: 1; stroke-width: 0px; fill: rgb(247, 37, 133); fill-opacity: 1;"/><path class="point" transform="translate(569.08,89.03)" d="M3,0A3,3 0 1,1 0,-3A3,3 0 0,1 3,0Z" style="opacity: 1; stroke-width: 0px; fill: rgb(247, 37, 133); fill-opacity: 1;"/><path class="point" transform="translate(574.81,61.44)" d="M3,0A3,3 0 1,1 0,-3A3,3 0 0,1 3,0Z" style="opacity: 1; stroke-width: 0px; fill: rgb(247, 37, 133); fill-opacity: 1;"/><path class="point" transform="translate(580.55,82.13)" d="M3,0A3,3 0 1,1 0,-3A3,3 0 0,1 3,0Z" style="opacity: 1; stroke-width: 0px; fill: rgb(247, 37, 133); fill-opacity: 1;"/><path class="point" transform="translate(586.28,26.95)" d="M3,0A3,3 0 1,1 0,-3A3,3 0 0,1 3,0Z" style="opacity: 1; stroke-width: 0px; fill: rgb(247, 37, 133); fill-opacity: 1;"/><path class="point" transform="translate(592.02,40.75)" d="M3,0A3,3 0 1,1 0,-3A3,3 0 0,1 3,0Z" style="opacity: 1; stroke-width: 0px; fill: rgb(247, 37, 133); fill-opacity: 1;"/><path class="point" transform="translate(597.75,95.93)" d="M3,0A3,3 0 1,1 0,-3A3,3 0 0,1 3,0Z" style="opacity: 1; stroke-width: 0px; fill: rgb(247, 37, 133); fill-opacity: 1;"/><path class="point" transform="translate(603.49,61.44)" d="M3,0A3,3 0 1,1 0,-3A3,3 0 0,1 3,0Z" style="opacity: 1; stroke-width: 0px; fill: rgb(247, 37, 133); fill-opacity: 1;"/></g><g class="text"/></g><g class="trace scatter trace42b64a" style="stroke-miterlimit: 2; opacity: 1;"><g class="fills"/><g class="errorbars"/><g class="lines"><path class="js-line" d="M35.71,406.31L41.45,371.83L47.18,420.11L52.92,427.01L58.65,413.21L64.39,371.83L70.12,433.9L75.86,371.83L81.59,413.21L87.33,378.72L93.06,406.31L98.8,420.11L104.53,378.72L110.27,433.9L116,420.11L121.74,371.83L127.47,413.21L133.21,392.52L138.94,420.11L144.68,392.52L150.41,385.62L156.15,427.01L161.88,378.72L167.62,427.01L173.35,385.62L179.09,399.42L184.82,378.72L190.56,385.62L196.29,385.62L202.03,371.83L207.76,413.21L213.5,440.8L219.23,371.83L224.97,406.31L230.71,385.62L236.44,392.52L242.18,406.31L247.91,385.62L253.65,385.62L259.38,385.62L265.12,420.11L270.85,392.52L276.59,378.72L282.32,413.21L288.06,392.52L293.79,420.11L299.53,413.21L305.26,378.72L311,392.52L316.73,371.83L322.47,378.72L328.2,427.01L333.94,385.62L339.67,392.52L345.41,433.9L351.14,433.9L356.88,413.21L362.61,371.83L368.35,420.11L374.08,406.31L379.82,427.01L385.55,433.9L391.29,427.01L397.02,378.72L402.76,392.52L408.49,406.31L414.23,440.8L419.97,371.83L425.7,413.21L431.44,392.52L437.17,378.72L442.91,440.8L448.64,406.31L454.38,371.83L460.11,385.62L465.85,420.11L471.58,371.83L477.32,413.21L483.05,392.52L488.79,433.9L494.52,399.42L500.26,420.11L505.99,413.21L511.73,371.83L517.46,433.9L523.2,406.31L528.93,440.8L534.67,371.83L540.4,378.72L546.14,440.8L551.87,371.83L557.61,406.31L563.34,385.62L574.81,440.8L580.55,413.21L586.28,399.42L592.02,420.11L597.75,378.72L603.49,413.21" style="vector-effect: none; fill: none; stroke: rgb(114, 9, 183); stroke-opacity: 1; stroke-width: 2px; opacity: 1;"/></g><g class="points"/><g class="text"/></g><g class="trace scatter trace115baf" style="stroke-miterlimit: 2; opacity: 1;"><g class="fills"/><g class="errorbars"/><g class="lines"/><g class="points"><path class="point" transform="translate(35.71,192.49)" d="M3,0A3,3 0 1,1 0,-3A3,3 0 0,1 3,0Z" style="opacity: 1; stroke-width: 0px; fill: rgb(58, 12, 163); fill-opacity: 1;"/><path class="point" transform="translate(41.45,199.39)" d="M3,0A3,3 0 1,1 0,-3A3,3 0 0,1 3,0Z" style="opacity: 1; stroke-width: 0px; fill: rgb(58, 12, 163); fill-opacity: 1;"/><path class="point" transform="translate(47.18,213.18)" d="M3,0A3,3 0 1,1 0,-3A3,3 0 0,1 3,0Z" style="opacity: 1; stroke-width: 0px; fill: rgb(58, 12, 163); fill-opacity: 1;"/><path class="point" transform="translate(52.92,171.8)" d="M3,0A3,3 0 1,1 0,-3A3,3 0 0,1 3,0Z" style="opacity: 1; stroke-width: 0px; fill: rgb(58, 12, 163); fill-opacity: 1;"/><path class="point" transform="translate(58.65,192.49)" d="M3,0A3,3 0 1,1 0,-3A3,3 0 0,1 3,0Z" style="opacity: 1; stroke-width: 0px; fill: rgb(58, 12, 163); fill-opacity: 1;"/><path class="point" transform="translate(64.39,164.9)" d="M3,0A3,3 0 1,1 0,-3A3,3 0 0,1 3,0Z" style="opacity: 1; stroke-width: 0px; fill: rgb(58, 12, 163); fill-opacity: 1;"/><path class="point" transform="translate(70.12,192.49)" d="M3,0A3,3 0 1,1 0,-3A3,3 0 0,1 3,0Z" style="opacity: 1; stroke-width: 0px; fill: rgb(58, 12, 163); fill-opacity: 1;"/><path class="point" transform="translate(75.86,226.98)" d="M3,0A3,3 0 1,1 0,-3A3,3 0 0,1 3,0Z" style="opacity: 1; stroke-width: 0px; fill: rgb(58, 12, 163); fill-opacity: 1;"/><path class="point" transform="translate(81.59,233.88)" d="M3,0A3,3 0 1,1 0,-3A3,3 0 0,1 3,0Z" style="opacity: 1; stroke-width: 0px; fill: rgb(58, 12, 163); fill-opacity: 1;"/><path class="point" transform="translate(87.33,226.98)" d="M3,0A3,3 0 1,1 0,-3A3,3 0 0,1 3,0Z" style="opacity: 1; stroke-width: 0px; fill: rgb(58, 12, 163); fill-opacity: 1;"/><path class="point" transform="translate(93.06,226.98)" d="M3,0A3,3 0 1,1 0,-3A3,3 0 0,1 3,0Z" style="opacity: 1; stroke-width: 0px; fill: rgb(58, 12, 163); fill-opacity: 1;"/><path class="point" transform="translate(98.8,171.8)" d="M3,0A3,3 0 1,1 0,-3A3,3 0 0,1 3,0Z" style="opacity: 1; stroke-width: 0px; fill: rgb(58, 12, 163); fill-opacity: 1;"/><path class="point" transform="translate(104.53,220.08)" d="M3,0A3,3 0 1,1 0,-3A3,3 0 0,1 3,0Z" style="opacity: 1; stroke-width: 0px; fill: rgb(58, 12, 163); fill-opacity: 1;"/><path class="point" transform="translate(110.27,213.18)" d="M3,0A3,3 0 1,1 0,-3A3,3 0 0,1 3,0Z" style="opacity: 1; stroke-width: 0px; fill: rgb(58, 12, 163); fill-opacity: 1;"/><path class="point" transform="translate(116,226.98)" d="M3,0A3,3 0 1,1 0,-3A3,3 0 0,1 3,0Z" style="opacity: 1; stroke-width: 0px; fill: rgb(58, 12, 163); fill-opacity: 1;"/><path class="point" transform="translate(121.74,178.7)" d="M3,0A3,3 0 1,1 0,-3A3,3 0 0,1 3,0Z" style="opacity: 1; stroke-width: 0px; fill: rgb(58, 12, 163); fill-opacity: 1;"/><path class="point" transform="translate(127.47,185.59)" d="M3,0A3,3 0 1,1 0,-3A3,3 0 0,1 3,0Z" style="opacity: 1; stroke-width: 0px; fill: rgb(58, 12, 163); fill-opacity: 1;"/><path class="point" transform="translate(133.21,192.49)" d="M3,0A3,3 0 1,1 0,-3A3,3 0 0,1 3,0Z" style="opacity: 1; stroke-width: 0px; fill: rgb(58, 12, 163); fill-opacity: 1;"/><path class="point" transform="translate(138.94,233.88)" d="M3,0A3,3 0 1,1 0,-3A3,3 0 0,1 3,0Z" style="opacity: 1; stroke-width: 0px; fill: rgb(58, 12, 163); fill-opacity: 1;"/><path class="point" transform="translate(144.68,226.98)" d="M3,0A3,3 0 1,1 0,-3A3,3 0 0,1 3,0Z" style="opacity: 1; stroke-width: 0px; fill: rgb(58, 12, 163); fill-opacity: 1;"/><path class="point" transform="translate(150.41,185.59)" d="M3,0A3,3 0 1,1 0,-3A3,3 0 0,1 3,0Z" style="opacity: 1; stroke-width: 0px; fill: rgb(58, 12, 163); fill-opacity: 1;"/><path class="point" transform="translate(156.15,206.29)" d="M3,0A3,3 0 1,1 0,-3A3,3 0 0,1 3,0Z" style="opacity: 1; stroke-width: 0px; fill: rgb(58, 12, 163); fill-opacity: 1;"/><path class="point" transform="translate(161.88,164.9)" d="M3,0A3,3 0 1,1 0,-3A3,3 0 0,1 3,0Z" style="opacity: 1; stroke-width: 0px; fill: rgb(58, 12, 163); fill-opacity: 1;"/><path class="point" transform="translate(167.62,220.08)" d="M3,0A3,3 0 1,1 0,-3A3,3 0 0,1 3,0Z" style="opacity: 1; stroke-width: 0px; fill: rgb(58, 12, 163); fill-opacity: 1;"/><path class="point" transform="translate(173.35,178.7)" d="M3,0A3,3 0 1,1 0,-3A3,3 0 0,1 3,0Z" style="opacity: 1; stroke-width: 0px; fill: rgb(58, 12, 163); fill-opacity: 1;"/><path class="point" transform="translate(179.09,199.39)" d="M3,0A3,3 0 1,1 0,-3A3,3 0 0,1 3,0Z" style="opacity: 1; stroke-width: 0px; fill: rgb(58, 12, 163); fill-opacity: 1;"/><path class="point" transform="translate(184.82,206.29)" d="M3,0A3,3 0 1,1 0,-3A3,3 0 0,1 3,0Z" style="opacity: 1; stroke-width: 0px; fill: rgb(58, 12, 163); fill-opacity: 1;"/><path class="point" transform="translate(190.56,213.18)" d="M3,0A3,3 0 1,1 0,-3A3,3 0 0,1 3,0Z" style="opacity: 1; stroke-width: 0px; fill: rgb(58, 12, 163); fill-opacity: 1;"/><path class="point" transform="translate(196.29,233.88)" d="M3,0A3,3 0 1,1 0,-3A3,3 0 0,1 3,0Z" style="opacity: 1; stroke-width: 0px; fill: rgb(58, 12, 163); fill-opacity: 1;"/><path class="point" transform="translate(202.03,171.8)" d="M3,0A3,3 0 1,1 0,-3A3,3 0 0,1 3,0Z" style="opacity: 1; stroke-width: 0px; fill: rgb(58, 12, 163); fill-opacity: 1;"/><path class="point" transform="translate(207.76,233.88)" d="M3,0A3,3 0 1,1 0,-3A3,3 0 0,1 3,0Z" style="opacity: 1; stroke-width: 0px; fill: rgb(58, 12, 163); fill-opacity: 1;"/><path class="point" transform="translate(213.5,226.98)" d="M3,0A3,3 0 1,1 0,-3A3,3 0 0,1 3,0Z" style="opacity: 1; stroke-width: 0px; fill: rgb(58, 12, 163); fill-opacity: 1;"/><path class="point" transform="translate(219.23,220.08)" d="M3,0A3,3 0 1,1 0,-3A3,3 0 0,1 3,0Z" style="opacity: 1; stroke-width: 0px; fill: rgb(58, 12, 163); fill-opacity: 1;"/><path class="point" transform="translate(224.97,213.18)" d="M3,0A3,3 0 1,1 0,-3A3,3 0 0,1 3,0Z" style="opacity: 1; stroke-width: 0px; fill: rgb(58, 12, 163); fill-opacity: 1;"/><path class="point" transform="translate(230.71,233.88)" d="M3,0A3,3 0 1,1 0,-3A3,3 0 0,1 3,0Z" style="opacity: 1; stroke-width: 0px; fill: rgb(58, 12, 163); fill-opacity: 1;"/><path class="point" transform="translate(236.44,199.39)" d="M3,0A3,3 0 1,1 0,-3A3,3 0 0,1 3,0Z" style="opacity: 1; stroke-width: 0px; fill: rgb(58, 12, 163); fill-opacity: 1;"/><path class="point" transform="translate(242.18,164.9)" d="M3,0A3,3 0 1,1 0,-3A3,3 0 0,1 3,0Z" style="opacity: 1; stroke-width: 0px; fill: rgb(58, 12, 163); fill-opacity: 1;"/><path class="point" transform="translate(247.91,178.7)" d="M3,0A3,3 0 1,1 0,-3A3,3 0 0,1 3,0Z" style="opacity: 1; stroke-width: 0px; fill: rgb(58, 12, 163); fill-opacity: 1;"/><path class="point" transform="translate(253.65,199.39)" d="M3,0A3,3 0 1,1 0,-3A3,3 0 0,1 3,0Z" style="opacity: 1; stroke-width: 0px; fill: rgb(58, 12, 163); fill-opacity: 1;"/><path class="point" transform="translate(259.38,199.39)" d="M3,0A3,3 0 1,1 0,-3A3,3 0 0,1 3,0Z" style="opacity: 1; stroke-width: 0px; fill: rgb(58, 12, 163); fill-opacity: 1;"/><path class="point" transform="translate(265.12,233.88)" d="M3,0A3,3 0 1,1 0,-3A3,3 0 0,1 3,0Z" style="opacity: 1; stroke-width: 0px; fill: rgb(58, 12, 163); fill-opacity: 1;"/><path class="point" transform="translate(270.85,178.7)" d="M3,0A3,3 0 1,1 0,-3A3,3 0 0,1 3,0Z" style="opacity: 1; stroke-width: 0px; fill: rgb(58, 12, 163); fill-opacity: 1;"/><path class="point" transform="translate(276.59,233.88)" d="M3,0A3,3 0 1,1 0,-3A3,3 0 0,1 3,0Z" style="opacity: 1; stroke-width: 0px; fill: rgb(58, 12, 163); fill-opacity: 1;"/><path class="point" transform="translate(282.32,178.7)" d="M3,0A3,3 0 1,1 0,-3A3,3 0 0,1 3,0Z" style="opacity: 1; stroke-width: 0px; fill: rgb(58, 12, 163); fill-opacity: 1;"/><path class="point" transform="translate(288.06,213.18)" d="M3,0A3,3 0 1,1 0,-3A3,3 0 0,1 3,0Z" style="opacity: 1; stroke-width: 0px; fill: rgb(58, 12, 163); fill-opacity: 1;"/><path class="point" transform="translate(293.79,178.7)" d="M3,0A3,3 0 1,1 0,-3A3,3 0 0,1 3,0Z" style="opacity: 1; stroke-width: 0px; fill: rgb(58, 12, 163); fill-opacity: 1;"/><path class="point" transform="translate(299.53,171.8)" d="M3,0A3,3 0 1,1 0,-3A3,3 0 0,1 3,0Z" style="opacity: 1; stroke-width: 0px; fill: rgb(58, 12, 163); fill-opacity: 1;"/><path class="point" transform="translate(305.26,178.7)" d="M3,0A3,3 0 1,1 0,-3A3,3 0 0,1 3,0Z" style="opacity: 1; stroke-width: 0px; fill: rgb(58, 12, 163); fill-opacity: 1;"/><path class="point" transform="translate(311,233.88)" d="M3,0A3,3 0 1,1 0,-3A3,3 0 0,1 3,0Z" style="opacity: 1; stroke-width: 0px; fill: rgb(58, 12, 163); fill-opacity: 1;"/><path class="point" transform="translate(316.73,171.8)" d="M3,0A3,3 0 1,1 0,-3A3,3 0 0,1 3,0Z" style="opacity: 1; stroke-width: 0px; fill: rgb(58, 12, 163); fill-opacity: 1;"/><path class="point" transform="translate(322.47,178.7)" d="M3,0A3,3 0 1,1 0,-3A3,3 0 0,1 3,0Z" style="opacity: 1; stroke-width: 0px; fill: rgb(58, 12, 163); fill-opacity: 1;"/><path class="point" transform="translate(328.2,171.8)" d="M3,0A3,3 0 1,1 0,-3A3,3 0 0,1 3,0Z" style="opacity: 1; stroke-width: 0px; fill: rgb(58, 12, 163); fill-opacity: 1;"/><path class="point" transform="translate(333.94,164.9)" d="M3,0A3,3 0 1,1 0,-3A3,3 0 0,1 3,0Z" style="opacity: 1; stroke-width: 0px; fill: rgb(58, 12, 163); fill-opacity: 1;"/><path class="point" transform="translate(339.67,171.8)" d="M3,0A3,3 0 1,1 0,-3A3,3 0 0,1 3,0Z" style="opacity: 1; stroke-width: 0px; fill: rgb(58, 12, 163); fill-opacity: 1;"/><path class="point" transform="translate(345.41,171.8)" d="M3,0A3,3 0 1,1 0,-3A3,3 0 0,1 3,0Z" style="opacity: 1; stroke-width: 0px; fill: rgb(58, 12, 163); fill-opacity: 1;"/><path class="point" transform="translate(351.14,206.29)" d="M3,0A3,3 0 1,1 0,-3A3,3 0 0,1 3,0Z" style="opacity: 1; stroke-width: 0px; fill: rgb(58, 12, 163); fill-opacity: 1;"/><path class="point" transform="translate(356.88,220.08)" d="M3,0A3,3 0 1,1 0,-3A3,3 0 0,1 3,0Z" style="opacity: 1; stroke-width: 0px; fill: rgb(58, 12, 163); fill-opacity: 1;"/><path class="point" transform="translate(362.61,171.8)" d="M3,0A3,3 0 1,1 0,-3A3,3 0 0,1 3,0Z" style="opacity: 1; stroke-width: 0px; fill: rgb(58, 12, 163); fill-opacity: 1;"/><path class="point" transform="translate(368.35,226.98)" d="M3,0A3,3 0 1,1 0,-3A3,3 0 0,1 3,0Z" style="opacity: 1; stroke-width: 0px; fill: rgb(58, 12, 163); fill-opacity: 1;"/><path class="point" transform="translate(374.08,233.88)" d="M3,0A3,3 0 1,1 0,-3A3,3 0 0,1 3,0Z" style="opacity: 1; stroke-width: 0px; fill: rgb(58, 12, 163); fill-opacity: 1;"/><path class="point" transform="translate(379.82,213.18)" d="M3,0A3,3 0 1,1 0,-3A3,3 0 0,1 3,0Z" style="opacity: 1; stroke-width: 0px; fill: rgb(58, 12, 163); fill-opacity: 1;"/><path class="point" transform="translate(385.55,192.49)" d="M3,0A3,3 0 1,1 0,-3A3,3 0 0,1 3,0Z" style="opacity: 1; stroke-width: 0px; fill: rgb(58, 12, 163); fill-opacity: 1;"/><path class="point" transform="translate(391.29,178.7)" d="M3,0A3,3 0 1,1 0,-3A3,3 0 0,1 3,0Z" style="opacity: 1; stroke-width: 0px; fill: rgb(58, 12, 163); fill-opacity: 1;"/><path class="point" transform="translate(397.02,185.59)" d="M3,0A3,3 0 1,1 0,-3A3,3 0 0,1 3,0Z" style="opacity: 1; stroke-width: 0px; fill: rgb(58, 12, 163); fill-opacity: 1;"/><path class="point" transform="translate(402.76,164.9)" d="M3,0A3,3 0 1,1 0,-3A3,3 0 0,1 3,0Z" style="opacity: 1; stroke-width: 0px; fill: rgb(58, 12, 163); fill-opacity: 1;"/><path class="point" transform="translate(408.49,185.59)" d="M3,0A3,3 0 1,1 0,-3A3,3 0 0,1 3,0Z" style="opacity: 1; stroke-width: 0px; fill: rgb(58, 12, 163); fill-opacity: 1;"/><path class="point" transform="translate(414.23,171.8)" d="M3,0A3,3 0 1,1 0,-3A3,3 0 0,1 3,0Z" style="opacity: 1; stroke-width: 0px; fill: rgb(58, 12, 163); fill-opacity: 1;"/><path class="point" transform="translate(419.97,226.98)" d="M3,0A3,3 0 1,1 0,-3A3,3 0 0,1 3,0Z" style="opacity: 1; stroke-width: 0px; fill: rgb(58, 12, 163); fill-opacity: 1;"/><path class="point" transform="translate(425.7,206.29)" d="M3,0A3,3 0 1,1 0,-3A3,3 0 0,1 3,0Z" style="opacity: 1; stroke-width: 0px; fill: rgb(58, 12, 163); fill-opacity: 1;"/><path class="point" transform="translate(431.44,164.9)" d="M3,0A3,3 0 1,1 0,-3A3,3 0 0,1 3,0Z" style="opacity: 1; stroke-width: 0px; fill: rgb(58, 12, 163); fill-opacity: 1;"/><path class="point" transform="translate(437.17,226.98)" d="M3,0A3,3 0 1,1 0,-3A3,3 0 0,1 3,0Z" style="opacity: 1; stroke-width: 0px; fill: rgb(58, 12, 163); fill-opacity: 1;"/><path class="point" transform="translate(442.91,220.08)" d="M3,0A3,3 0 1,1 0,-3A3,3 0 0,1 3,0Z" style="opacity: 1; stroke-width: 0px; fill: rgb(58, 12, 163); fill-opacity: 1;"/><path class="point" transform="translate(448.64,206.29)" d="M3,0A3,3 0 1,1 0,-3A3,3 0 0,1 3,0Z" style="opacity: 1; stroke-width: 0px; fill: rgb(58, 12, 163); fill-opacity: 1;"/><path class="point" transform="translate(454.38,199.39)" d="M3,0A3,3 0 1,1 0,-3A3,3 0 0,1 3,0Z" style="opacity: 1; stroke-width: 0px; fill: rgb(58, 12, 163); fill-opacity: 1;"/><path class="point" transform="translate(460.11,226.98)" d="M3,0A3,3 0 1,1 0,-3A3,3 0 0,1 3,0Z" style="opacity: 1; stroke-width: 0px; fill: rgb(58, 12, 163); fill-opacity: 1;"/><path class="point" transform="translate(465.85,199.39)" d="M3,0A3,3 0 1,1 0,-3A3,3 0 0,1 3,0Z" style="opacity: 1; stroke-width: 0px; fill: rgb(58, 12, 163); fill-opacity: 1;"/><path class="point" transform="translate(471.58,171.8)" d="M3,0A3,3 0 1,1 0,-3A3,3 0 0,1 3,0Z" style="opacity: 1; stroke-width: 0px; fill: rgb(58, 12, 163); fill-opacity: 1;"/><path class="point" transform="translate(477.32,206.29)" d="M3,0A3,3 0 1,1 0,-3A3,3 0 0,1 3,0Z" style="opacity: 1; stroke-width: 0px; fill: rgb(58, 12, 163); fill-opacity: 1;"/><path class="point" transform="translate(483.05,199.39)" d="M3,0A3,3 0 1,1 0,-3A3,3 0 0,1 3,0Z" style="opacity: 1; stroke-width: 0px; fill: rgb(58, 12, 163); fill-opacity: 1;"/><path class="point" transform="translate(488.79,178.7)" d="M3,0A3,3 0 1,1 0,-3A3,3 0 0,1 3,0Z" style="opacity: 1; stroke-width: 0px; fill: rgb(58, 12, 163); fill-opacity: 1;"/><path class="point" transform="translate(494.52,233.88)" d="M3,0A3,3 0 1,1 0,-3A3,3 0 0,1 3,0Z" style="opacity: 1; stroke-width: 0px; fill: rgb(58, 12, 163); fill-opacity: 1;"/><path class="point" transform="translate(500.26,220.08)" d="M3,0A3,3 0 1,1 0,-3A3,3 0 0,1 3,0Z" style="opacity: 1; stroke-width: 0px; fill: rgb(58, 12, 163); fill-opacity: 1;"/><path class="point" transform="translate(505.99,178.7)" d="M3,0A3,3 0 1,1 0,-3A3,3 0 0,1 3,0Z" style="opacity: 1; stroke-width: 0px; fill: rgb(58, 12, 163); fill-opacity: 1;"/><path class="point" transform="translate(511.73,226.98)" d="M3,0A3,3 0 1,1 0,-3A3,3 0 0,1 3,0Z" style="opacity: 1; stroke-width: 0px; fill: rgb(58, 12, 163); fill-opacity: 1;"/><path class="point" transform="translate(517.46,213.18)" d="M3,0A3,3 0 1,1 0,-3A3,3 0 0,1 3,0Z" style="opacity: 1; stroke-width: 0px; fill: rgb(58, 12, 163); fill-opacity: 1;"/><path class="point" transform="translate(523.2,199.39)" d="M3,0A3,3 0 1,1 0,-3A3,3 0 0,1 3,0Z" style="opacity: 1; stroke-width: 0px; fill: rgb(58, 12, 163); fill-opacity: 1;"/><path class="point" transform="translate(528.93,171.8)" d="M3,0A3,3 0 1,1 0,-3A3,3 0 0,1 3,0Z" style="opacity: 1; stroke-width: 0px; fill: rgb(58, 12, 163); fill-opacity: 1;"/><path class="point" transform="translate(534.67,178.7)" d="M3,0A3,3 0 1,1 0,-3A3,3 0 0,1 3,0Z" style="opacity: 1; stroke-width: 0px; fill: rgb(58, 12, 163); fill-opacity: 1;"/><path class="point" transform="translate(540.4,199.39)" d="M3,0A3,3 0 1,1 0,-3A3,3 0 0,1 3,0Z" style="opacity: 1; stroke-width: 0px; fill: rgb(58, 12, 163); fill-opacity: 1;"/><path class="point" transform="translate(546.14,178.7)" d="M3,0A3,3 0 1,1 0,-3A3,3 0 0,1 3,0Z" style="opacity: 1; stroke-width: 0px; fill: rgb(58, 12, 163); fill-opacity: 1;"/><path class="point" transform="translate(551.87,226.98)" d="M3,0A3,3 0 1,1 0,-3A3,3 0 0,1 3,0Z" style="opacity: 1; stroke-width: 0px; fill: rgb(58, 12, 163); fill-opacity: 1;"/><path class="point" transform="translate(557.61,220.08)" d="M3,0A3,3 0 1,1 0,-3A3,3 0 0,1 3,0Z" style="opacity: 1; stroke-width: 0px; fill: rgb(58, 12, 163); fill-opacity: 1;"/><path class="point" transform="translate(563.34,233.88)" d="M3,0A3,3 0 1,1 0,-3A3,3 0 0,1 3,0Z" style="opacity: 1; stroke-width: 0px; fill: rgb(58, 12, 163); fill-opacity: 1;"/><path class="point" transform="translate(569.08,171.8)" d="M3,0A3,3 0 1,1 0,-3A3,3 0 0,1 3,0Z" style="opacity: 1; stroke-width: 0px; fill: rgb(58, 12, 163); fill-opacity: 1;"/><path class="point" transform="translate(574.81,171.8)" d="M3,0A3,3 0 1,1 0,-3A3,3 0 0,1 3,0Z" style="opacity: 1; stroke-width: 0px; fill: rgb(58, 12, 163); fill-opacity: 1;"/><path class="point" transform="translate(580.55,233.88)" d="M3,0A3,3 0 1,1 0,-3A3,3 0 0,1 3,0Z" style="opacity: 1; stroke-width: 0px; fill: rgb(58, 12, 163); fill-opacity: 1;"/><path class="point" transform="translate(586.28,164.9)" d="M3,0A3,3 0 1,1 0,-3A3,3 0 0,1 3,0Z" style="opacity: 1; stroke-width: 0px; fill: rgb(58, 12, 163); fill-opacity: 1;"/><path class="point" transform="translate(592.02,226.98)" d="M3,0A3,3 0 1,1 0,-3A3,3 0 0,1 3,0Z" style="opacity: 1; stroke-width: 0px; fill: rgb(58, 12, 163); fill-opacity: 1;"/><path class="point" transform="translate(597.75,171.8)" d="M3,0A3,3 0 1,1 0,-3A3,3 0 0,1 3,0Z" style="opacity: 1; stroke-width: 0px; fill: rgb(58, 12, 163); fill-opacity: 1;"/><path class="point" transform="translate(603.49,192.49)" d="M3,0A3,3 0 1,1 0,-3A3,3 0 0,1 3,0Z" style="opacity: 1; stroke-width: 0px; fill: rgb(58, 12, 163); fill-opacity: 1;"/></g><g class="text"/></g></g></g></g><path class="xlines-above crisp" d="M0,0" style="fill: none;"/><path class="ylines-above crisp" d="M0,0" style="fill: none;"/><g class="overlines-above"/><g class="xaxislayer-above"/><g class="yaxislayer-above"/><g class="overaxes-above"/></g></g><g class="polarlayer"/><g class="smithlayer"/><g class="ternarylayer"/><g class="geolayer"/><g class="funnelarealayer"/><g class="pielayer"/><g class="iciclelayer"/><g class="treemaplayer"/><g class="sunburstlayer"/><g class="glimages"/><defs id="topdefs-886d0e"><g class="clips"/></defs><g class="layer-above"><g class="imagelayer"/><g class="shapelayer"/></g><g class="infolayer"><g class="g-gtitle"/></g></svg>