<svg class="main-svg" xmlns="http://www.w3.org/2000/svg" xmlns:xlink="http://www.w3.org/1999/xlink" width="700" height="500" style="" viewBox="0 0 700 500"><rect x="0" y="0" width="700" height="500" style="fill: rgb(255, 255, 255); fill-opacity: 1;"/><defs id="defs-b65a7f"><g class="clips"><clipPath id="clipb65a7fxyplot" class="plotclip"><rect width="639.1999999999999" height="464"/></clipPath><clipPath class="axesclip" id="clipb65a7fx"><rect x="10" y="0" width="639.1999999999999" height="500"/></clipPath><clipPath class="axesclip" id="clipb65a7fy"><rect x="0" y="26" width="700" height="464"/></clipPath><clipPath class="axesclip" id="clipb65a7fxy"><rect x="10" y="26" width="639.1999999999999" height="464"/></clipPath></g><g class="gradients"/><g class="patterns"/></defs><g class="bglayer"/><g class="layer-below"><g class="imagelayer"/><g class="shapelayer"/></g><g class="cartesianlayer"><g class="subplot xy"><g class="layer-subplot"><g class="shapelayer"/><g class="imagelayer"/></g><g class="minor-gridlayer"><g class="x"/><g class="y"/></g><g class="gridlayer"><g class="x"/><g class="y"/></g><g class="zerolinelayer"/><g class="layer-between"><g class="shapelayer"/><g class="imagelayer"/></g><path class="xlines-below"/><path class="ylines-below"/><g class="overlines-below"/><g class="xaxislayer-below"/><g class="yaxislayer-below"/><g class="overaxes-below"/><g class="overplot"><g class="xy" transform="translate(10,26)" clip-path="url(#clipb65a7fxyplot)"><g class="barlayer mlayer"><g class="trace bars" style="opacity: 1;"><g class="points"><g class="point"><path d="M0.64,464V270.05H5.75V464Z" style="vector-effect: none; opacity: 1; stroke-width: 0px; fill: rgb(29, 149, 221); fill-opacity: 1;"/></g><g class="point"><path d="M7.03,464V402.29H12.14V464Z" style="vector-effect: none; opacity: 1; stroke-width: 0px; fill: rgb(29, 149, 221); fill-opacity: 1;"/></g><g class="point"><path d="M13.42,464V62.87H18.54V464Z" style="vector-effect: none; opacity: 1; stroke-width: 0px; fill: rgb(29, 149, 221); fill-opacity: 1;"/></g><g class="point"><path d="M19.82,464V142.22H24.93V464Z" style="vector-effect: none; opacity: 1; stroke-width: 0px; fill: rgb(29, 149, 221); fill-opacity: 1;"/></g><g class="point"><path d="M26.21,464V389.06H31.32V464Z" style="vector-effect: none; opacity: 1; stroke-width: 0px; fill: rgb(29, 149, 221); fill-opacity: 1;"/></g><g class="point"><path d="M32.6,464V265.64H37.71V464Z" style="vector-effect: none; opacity: 1; stroke-width: 0px; fill: rgb(29, 149, 221); fill-opacity: 1;"/></g><g class="point"><path d="M38.99,464V181.89H44.1V464Z" style="vector-effect: none; opacity: 1; stroke-width: 0px; fill: rgb(29, 149, 221); fill-opacity: 1;"/></g><g class="point"><path d="M45.38,464V120.18H50.5V464Z" style="vector-effect: none; opacity: 1; stroke-width: 0px; fill: rgb(29, 149, 221); fill-opacity: 1;"/></g><g class="point"><path d="M51.78,464V455.18H56.89V464Z" style="vector-effect: none; opacity: 1; stroke-width: 0px; fill: rgb(29, 149, 221); fill-opacity: 1;"/></g><g class="point"><path d="M58.17,464V415.51H63.28V464Z" style="vector-effect: none; opacity: 1; stroke-width: 0px; fill: rgb(29, 149, 221); fill-opacity: 1;"/></g><g class="point"><path d="M64.56,464V120.18H69.67V464Z" style="vector-effect: none; opacity: 1; stroke-width: 0px; fill: rgb(29, 149, 221); fill-opacity: 1;"/></g><g class="point"><path d="M70.95,464V455.18H76.06V464Z" style="vector-effect: none; opacity: 1; stroke-width: 0px; fill: rgb(29, 149, 221); fill-opacity: 1;"/></g><g class="point"><path d="M77.34,464V115.77H82.46V464Z" style="vector-effect: none; opacity: 1; stroke-width: 0px; fill: rgb(29, 149, 221); fill-opacity: 1;"/></g><g class="point"><path d="M83.74,464V314.13H88.85V464Z" style="vector-effect: none; opacity: 1; stroke-width: 0px; fill: rgb(29, 149, 221); fill-opacity: 1;"/></g><g class="point"><path d="M90.13,464V111.36H95.24V464Z" style="vector-effect: none; opacity: 1; stroke-width: 0px; fill: rgb(29, 149, 221); fill-opacity: 1;"/></g><g class="point"><path d="M96.52,464V309.72H101.63V464Z" style="vector-effect: none; opacity: 1; stroke-width: 0px; fill: rgb(29, 149, 221); fill-opacity: 1;"/></g><g class="point"><path d="M102.91,464V336.17H108.02V464Z" style="vector-effect: none; opacity: 1; stroke-width: 0px; fill: rgb(29, 149, 221); fill-opacity: 1;"/></g><g class="point"><path d="M109.3,464V450.78H114.42V464Z" style="vector-effect: none; opacity: 1; stroke-width: 0px; fill: rgb(29, 149, 221); fill-opacity: 1;"/></g><g class="point"><path d="M115.7,464V371.43H120.81V464Z" style="vector-effect: none; opacity: 1; stroke-width: 0px; fill: rgb(29, 149, 221); fill-opacity: 1;"/></g><g class="point"><path d="M122.09,464V402.29H127.2V464Z" style="vector-effect: none; opacity: 1; stroke-width: 0px; fill: rgb(29, 149, 221); fill-opacity: 1;"/></g><g class="point"><path d="M128.48,464V234.78H133.59V464Z" style="vector-effect: none; opacity: 1; stroke-width: 0px; fill: rgb(29, 149, 221); fill-opacity: 1;"/></g><g class="point"><path d="M134.87,464V84.91H139.98V464Z" style="vector-effect: none; opacity: 1; stroke-width: 0px; fill: rgb(29, 149, 221); fill-opacity: 1;"/></g><g class="point"><path d="M141.26,464V159.85H146.38V464Z" style="vector-effect: none; opacity: 1; stroke-width: 0px; fill: rgb(29, 149, 221); fill-opacity: 1;"/></g><g class="point"><path d="M147.66,464V287.68H152.77V464Z" style="vector-effect: none; opacity: 1; stroke-width: 0px; fill: rgb(29, 149, 221); fill-opacity: 1;"/></g><g class="point"><path d="M154.05,464V406.7H159.16V464Z" style="vector-effect: none; opacity: 1; stroke-width: 0px; fill: rgb(29, 149, 221); fill-opacity: 1;"/></g><g class="point"><path d="M160.44,464V362.62H165.55V464Z" style="vector-effect: none; opacity: 1; stroke-width: 0px; fill: rgb(29, 149, 221); fill-opacity: 1;"/></g><g class="point"><path d="M166.83,464V415.51H171.94V464Z" style="vector-effect: none; opacity: 1; stroke-width: 0px; fill: rgb(29, 149, 221); fill-opacity: 1;"/></g><g class="point"><path d="M173.22,464V309.72H178.34V464Z" style="vector-effect: none; opacity: 1; stroke-width: 0px; fill: rgb(29, 149, 221); fill-opacity: 1;"/></g><g class="point"><path d="M179.62,464V217.15H184.73V464Z" style="vector-effect: none; opacity: 1; stroke-width: 0px; fill: rgb(29, 149, 221); fill-opacity: 1;"/></g><g class="point"><path d="M186.01,464V168.66H191.12V464Z" style="vector-effect: none; opacity: 1; stroke-width: 0px; fill: rgb(29, 149, 221); fill-opacity: 1;"/></g><g class="point"><path d="M192.4,464V367.02H197.51V464Z" style="vector-effect: none; opacity: 1; stroke-width: 0px; fill: rgb(29, 149, 221); fill-opacity: 1;"/></g><g class="point"><path d="M198.79,464V314.13H203.9V464Z" style="vector-effect: none; opacity: 1; stroke-width: 0px; fill: rgb(29, 149, 221); fill-opacity: 1;"/></g><g class="point"><path d="M205.18,464V27.61H210.3V464Z" style="vector-effect: none; opacity: 1; stroke-width: 0px; fill: rgb(29, 149, 221); fill-opacity: 1;"/></g><g class="point"><path d="M211.58,464V274.46H216.69V464Z" style="vector-effect: none; opacity: 1; stroke-width: 0px; fill: rgb(29, 149, 221); fill-opacity: 1;"/></g><g class="point"><path d="M217.97,464V362.62H223.08V464Z" style="vector-effect: none; opacity: 1; stroke-width: 0px; fill: rgb(29, 149, 221); fill-opacity: 1;"/></g><g class="point"><path d="M224.36,464V437.55H229.47V464Z" style="vector-effect: none; opacity: 1; stroke-width: 0px; fill: rgb(29, 149, 221); fill-opacity: 1;"/></g><g class="point"><path d="M230.75,464V203.93H235.86V464Z" style="vector-effect: none; opacity: 1; stroke-width: 0px; fill: rgb(29, 149, 221); fill-opacity: 1;"/></g><g class="point"><path d="M237.14,464V212.74H242.26V464Z" style="vector-effect: none; opacity: 1; stroke-width: 0px; fill: rgb(29, 149, 221); fill-opacity: 1;"/></g><g class="point"><path d="M243.54,464V270.05H248.65V464Z" style="vector-effect: none; opacity: 1; stroke-width: 0px; fill: rgb(29, 149, 221); fill-opacity: 1;"/></g><g class="point"><path d="M249.93,464V344.98H255.04V464Z" style="vector-effect: none; opacity: 1; stroke-width: 0px; fill: rgb(29, 149, 221); fill-opacity: 1;"/></g><g class="point"><path d="M256.32,464V173.07H261.43V464Z" style="vector-effect: none; opacity: 1; stroke-width: 0px; fill: rgb(29, 149, 221); fill-opacity: 1;"/></g><g class="point"><path d="M262.71,464V287.68H267.82V464Z" style="vector-effect: none; opacity: 1; stroke-width: 0px; fill: rgb(29, 149, 221); fill-opacity: 1;"/></g><g class="point"><path d="M269.1,464V415.51H274.22V464Z" style="vector-effect: none; opacity: 1; stroke-width: 0px; fill: rgb(29, 149, 221); fill-opacity: 1;"/></g><g class="point"><path d="M275.5,464V159.85H280.61V464Z" style="vector-effect: none; opacity: 1; stroke-width: 0px; fill: rgb(29, 149, 221); fill-opacity: 1;"/></g><g class="point"><path d="M281.89,464V274.46H287V464Z" style="vector-effect: none; opacity: 1; stroke-width: 0px; fill: rgb(29, 149, 221); fill-opacity: 1;"/></g><g class="point"><path d="M288.28,464V67.28H293.39V464Z" style="vector-effect: none; opacity: 1; stroke-width: 0px; fill: rgb(29, 149, 221); fill-opacity: 1;"/></g><g class="point"><path d="M294.67,464V327.35H299.78V464Z" style="vector-effect: none; opacity: 1; stroke-width: 0px; fill: rgb(29, 149, 221); fill-opacity: 1;"/></g><g class="point"><path d="M301.06,464V98.14H306.18V464Z" style="vector-effect: none; opacity: 1; stroke-width: 0px; fill: rgb(29, 149, 221); fill-opacity: 1;"/></g><g class="point"><path d="M307.46,464V133.4H312.57V464Z" style="vector-effect: none; opacity: 1; stroke-width: 0px; fill: rgb(29, 149, 221); fill-opacity: 1;"/></g><g class="point"><path d="M313.85,464V419.92H318.96V464Z" style="vector-effect: none; opacity: 1; stroke-width: 0px; fill: rgb(29, 149, 221); fill-opacity: 1;"/></g><g class="point"><path d="M320.24,464V106.95H325.35V464Z" style="vector-effect: none; opacity: 1; stroke-width: 0px; fill: rgb(29, 149, 221); fill-opacity: 1;"/></g><g class="point"><path d="M326.63,464V195.11H331.74V464Z" style="vector-effect: none; opacity: 1; stroke-width: 0px; fill: rgb(29, 149, 221); fill-opacity: 1;"/></g><g class="point"><path d="M333.02,464V384.66H338.14V464Z" style="vector-effect: none; opacity: 1; stroke-width: 0px; fill: rgb(29, 149, 221); fill-opacity: 1;"/></g><g class="point"><path d="M339.42,464V265.64H344.53V464Z" style="vector-effect: none; opacity: 1; stroke-width: 0px; fill: rgb(29, 149, 221); fill-opacity: 1;"/></g><g class="point"><path d="M345.81,464V375.84H350.92V464Z" style="vector-effect: none; opacity: 1; stroke-width: 0px; fill: rgb(29, 149, 221); fill-opacity: 1;"/></g><g class="point"><path d="M352.2,464V283.27H357.31V464Z" style="vector-effect: none; opacity: 1; stroke-width: 0px; fill: rgb(29, 149, 221); fill-opacity: 1;"/></g><g class="point"><path d="M358.59,464V159.85H363.7V464Z" style="vector-effect: none; opacity: 1; stroke-width: 0px; fill: rgb(29, 149, 221); fill-opacity: 1;"/></g><g class="point"><path d="M364.98,464V111.36H370.1V464Z" style="vector-effect: none; opacity: 1; stroke-width: 0px; fill: rgb(29, 149, 221); fill-opacity: 1;"/></g><g class="point"><path d="M371.38,464V71.69H376.49V464Z" style="vector-effect: none; opacity: 1; stroke-width: 0px; fill: rgb(29, 149, 221); fill-opacity: 1;"/></g><g class="point"><path d="M377.77,464V23.2H382.88V464Z" style="vector-effect: none; opacity: 1; stroke-width: 0px; fill: rgb(29, 149, 221); fill-opacity: 1;"/></g><g class="point"><path d="M384.16,464V327.35H389.27V464Z" style="vector-effect: none; opacity: 1; stroke-width: 0px; fill: rgb(29, 149, 221); fill-opacity: 1;"/></g><g class="point"><path d="M390.55,464V437.55H395.66V464Z" style="vector-effect: none; opacity: 1; stroke-width: 0px; fill: rgb(29, 149, 221); fill-opacity: 1;"/></g><g class="point"><path d="M396.94,464V278.86H402.06V464Z" style="vector-effect: none; opacity: 1; stroke-width: 0px; fill: rgb(29, 149, 221); fill-opacity: 1;"/></g><g class="point"><path d="M403.34,464V375.84H408.45V464Z" style="vector-effect: none; opacity: 1; stroke-width: 0px; fill: rgb(29, 149, 221); fill-opacity: 1;"/></g><g class="point"><path d="M409.73,464V177.48H414.84V464Z" style="vector-effect: none; opacity: 1; stroke-width: 0px; fill: rgb(29, 149, 221); fill-opacity: 1;"/></g><g class="point"><path d="M416.12,464V89.32H421.23V464Z" style="vector-effect: none; opacity: 1; stroke-width: 0px; fill: rgb(29, 149, 221); fill-opacity: 1;"/></g><g class="point"><path d="M422.51,464V89.32H427.62V464Z" style="vector-effect: none; opacity: 1; stroke-width: 0px; fill: rgb(29, 149, 221); fill-opacity: 1;"/></g><g class="point"><path d="M428.9,464V93.73H434.02V464Z" style="vector-effect: none; opacity: 1; stroke-width: 0px; fill: rgb(29, 149, 221); fill-opacity: 1;"/></g><g class="point"><path d="M435.3,464V270.05H440.41V464Z" style="vector-effect: none; opacity: 1; stroke-width: 0px; fill: rgb(29, 149, 221); fill-opacity: 1;"/></g><g class="point"><path d="M441.69,464V54.06H446.8V464Z" style="vector-effect: none; opacity: 1; stroke-width: 0px; fill: rgb(29, 149, 221); fill-opacity: 1;"/></g><g class="point"><path d="M448.08,464V239.19H453.19V464Z" style="vector-effect: none; opacity: 1; stroke-width: 0px; fill: rgb(29, 149, 221); fill-opacity: 1;"/></g><g class="point"><path d="M454.47,464V375.84H459.58V464Z" style="vector-effect: none; opacity: 1; stroke-width: 0px; fill: rgb(29, 149, 221); fill-opacity: 1;"/></g><g class="point"><path d="M460.86,464V437.55H465.98V464Z" style="vector-effect: none; opacity: 1; stroke-width: 0px; fill: rgb(29, 149, 221); fill-opacity: 1;"/></g><g class="point"><path d="M467.26,464V32.02H472.37V464Z" style="vector-effect: none; opacity: 1; stroke-width: 0px; fill: rgb(29, 149, 221); fill-opacity: 1;"/></g><g class="point"><path d="M473.65,464V84.91H478.76V464Z" style="vector-effect: none; opacity: 1; stroke-width: 0px; fill: rgb(29, 149, 221); fill-opacity: 1;"/></g><g class="point"><path d="M480.04,464V199.52H485.15V464Z" style="vector-effect: none; opacity: 1; stroke-width: 0px; fill: rgb(29, 149, 221); fill-opacity: 1;"/></g><g class="point"><path d="M486.43,464V45.24H491.54V464Z" style="vector-effect: none; opacity: 1; stroke-width: 0px; fill: rgb(29, 149, 221); fill-opacity: 1;"/></g><g class="point"><path d="M492.82,464V459.59H497.94V464Z" style="vector-effect: none; opacity: 1; stroke-width: 0px; fill: rgb(29, 149, 221); fill-opacity: 1;"/></g><g class="point"><path d="M499.22,464V137.81H504.33V464Z" style="vector-effect: none; opacity: 1; stroke-width: 0px; fill: rgb(29, 149, 221); fill-opacity: 1;"/></g><g class="point"><path d="M505.61,464V239.19H510.72V464Z" style="vector-effect: none; opacity: 1; stroke-width: 0px; fill: rgb(29, 149, 221); fill-opacity: 1;"/></g><g class="point"><path d="M512,464V120.18H517.11V464Z" style="vector-effect: none; opacity: 1; stroke-width: 0px; fill: rgb(29, 149, 221); fill-opacity: 1;"/></g><g class="point"><path d="M518.39,464V402.29H523.5V464Z" style="vector-effect: none; opacity: 1; stroke-width: 0px; fill: rgb(29, 149, 221); fill-opacity: 1;"/></g><g class="point"><path d="M524.78,464V159.85H529.9V464Z" style="vector-effect: none; opacity: 1; stroke-width: 0px; fill: rgb(29, 149, 221); fill-opacity: 1;"/></g><g class="point"><path d="M531.18,464V278.86H536.29V464Z" style="vector-effect: none; opacity: 1; stroke-width: 0px; fill: rgb(29, 149, 221); fill-opacity: 1;"/></g><g class="point"><path d="M537.57,464V419.92H542.68V464Z" style="vector-effect: none; opacity: 1; stroke-width: 0px; fill: rgb(29, 149, 221); fill-opacity: 1;"/></g><g class="point"><path d="M543.96,464V428.74H549.07V464Z" style="vector-effect: none; opacity: 1; stroke-width: 0px; fill: rgb(29, 149, 221); fill-opacity: 1;"/></g><g class="point"><path d="M550.35,464V393.47H555.46V464Z" style="vector-effect: none; opacity: 1; stroke-width: 0px; fill: rgb(29, 149, 221); fill-opacity: 1;"/></g><g class="point"><path d="M556.74,464V45.24H561.86V464Z" style="vector-effect: none; opacity: 1; stroke-width: 0px; fill: rgb(29, 149, 221); fill-opacity: 1;"/></g><g class="point"><path d="M563.14,464V164.26H568.25V464Z" style="vector-effect: none; opacity: 1; stroke-width: 0px; fill: rgb(29, 149, 221); fill-opacity: 1;"/></g><g class="point"><path d="M569.53,464V76.1H574.64V464Z" style="vector-effect: none; opacity: 1; stroke-width: 0px; fill: rgb(29, 149, 221); fill-opacity: 1;"/></g><g class="point"><path d="M575.92,464V265.64H581.03V464Z" style="vector-effect: none; opacity: 1; stroke-width: 0px; fill: rgb(29, 149, 221); fill-opacity: 1;"/></g><g class="point"><path d="M582.31,464V199.52H587.42V464Z" style="vector-effect: none; opacity: 1; stroke-width: 0px; fill: rgb(29, 149, 221); fill-opacity: 1;"/></g><g class="point"><path d="M588.7,464V270.05H593.82V464Z" style="vector-effect: none; opacity: 1; stroke-width: 0px; fill: rgb(29, 149, 221); fill-opacity: 1;"/></g><g class="point"><path d="M595.1,464V190.7H600.21V464Z" style="vector-effect: none; opacity: 1; stroke-width: 0px; fill: rgb(29, 149, 221); fill-opacity: 1;"/></g><g class="point"><path d="M601.49,464V428.74H606.6V464Z" style="vector-effect: none; opacity: 1; stroke-width: 0px; fill: rgb(29, 149, 221); fill-opacity: 1;"/></g><g class="point"><path d="M607.88,464V393.47H612.99V464Z" style="vector-effect: none; opacity: 1; stroke-width: 0px; fill: rgb(29, 149, 221); fill-opacity: 1;"/></g><g class="point"><path d="M614.27,464V415.51H619.38V464Z" style="vector-effect: none; opacity: 1; stroke-width: 0px; fill: rgb(29, 149, 221); fill-opacity: 1;"/></g><g class="point"><path d="M620.66,464V186.3H625.78V464Z" style="vector-effect: none; opacity: 1; stroke-width: 0px; fill: rgb(29, 149, 221); fill-opacity: 1;"/></g><g class="point"><path d="M627.06,464V450.78H632.17V464Z" style="vector-effect: none; opacity: 1; stroke-width: 0px; fill: rgb(29, 149, 221); fill-opacity: 1;"/></g><g class="point"><path d="M633.45,464V287.68H638.56V464Z" style="vector-effect: none; opacity: 1; stroke-width: 0px; fill: rgb(29, 149, 221); fill-opacity: 1;"/></g></g></g></g></g></g><path class="xlines-above crisp" d="M0,0" style="fill: none;"/><path class="ylines-above crisp" d="M0,0" style="fill: none;"/><g class="overlines-above"/><g class="xaxislayer-above"/><g class="yaxislayer-above"/><g class="overaxes-above"/></g></g><g class="polarlayer"/><g class="smithlayer"/><g class="ternarylayer"/><g class="geolayer"/><g class="funnelarealayer"/><g class="pielayer"/><g class="iciclelayer"/><g class="treemaplayer"/><g class="sunburstlayer"/><g class="glimages"/><defs id="topdefs-b65a7f"><g class="clips"/></defs><g class="layer-above"><g class="imagelayer"/><g class="shapelayer"/></g><g class="infolayer"><g class="g-gtitle"/></g></svg>