<svg class="main-svg" xmlns="http://www.w3.org/2000/svg" xmlns:xlink="http://www.w3.org/1999/xlink" width="700" height="500" style="" viewBox="0 0 700 500"><rect x="0" y="0" width="700" height="500" style="fill: rgb(255, 255, 255); fill-opacity: 1;"/><defs id="defs-669ca9"><g class="clips"><clipPath id="clip669ca9xyplot" class="plotclip"><rect width="639.1999999999999" height="464"/></clipPath><clipPath class="axesclip" id="clip669ca9x"><rect x="10" y="0" width="639.1999999999999" height="500"/></clipPath><clipPath class="axesclip" id="clip669ca9y"><rect x="0" y="26" width="700" height="464"/></clipPath><clipPath class="axesclip" id="clip669ca9xy"><rect x="10" y="26" width="639.1999999999999" height="464"/></clipPath></g><g class="gradients"/><g class="patterns"/></defs><g class="bglayer"/><g class="layer-below"><g class="imagelayer"/><g class="shapelayer"/></g><g class="cartesianlayer"><g class="subplot xy"><g class="layer-subplot"><g class="shapelayer"/><g class="imagelayer"/></g><g class="minor-gridlayer"><g class="x"/><g class="y"/></g><g class="gridlayer"><g class="x"/><g class="y"/></g><g class="zerolinelayer"/><g class="layer-between"><g class="shapelayer"/><g class="imagelayer"/></g><path class="xlines-below"/><path class="ylines-below"/><g class="overlines-below"/><g class="xaxislayer-below"/><g class="yaxislayer-below"/><g class="overaxes-below"/><g class="overplot"><g class="xy" transform="translate(10,26)" clip-path="url(#clip669ca9xyplot)"><g class="barlayer mlayer"><g class="trace bars" style="opacity: 1;"><g class="points"><g class="point"><path d="M0.64,464V265.64H5.75V464Z" style="vector-effect: none; opacity: 1; stroke-width: 0px; fill: rgb(29, 149, 221); fill-opacity: 1;"/></g><g class="point"><path d="M7.03,464V76.1H12.14V464Z" style="vector-effect: none; opacity: 1; stroke-width: 0px; fill: rgb(29, 149, 221); fill-opacity: 1;"/></g><g class="point"><path d="M13.42,464V120.18H18.54V464Z" style="vector-effect: none; opacity: 1; stroke-width: 0px; fill: rgb(29, 149, 221); fill-opacity: 1;"/></g><g class="point"><path d="M19.82,464V274.46H24.93V464Z" style="vector-effect: none; opacity: 1; stroke-width: 0px; fill: rgb(29, 149, 221); fill-opacity: 1;"/></g><g class="point"><path d="M26.21,464V415.51H31.32V464Z" style="vector-effect: none; opacity: 1; stroke-width: 0px; fill: rgb(29, 149, 221); fill-opacity: 1;"/></g><g class="point"><path d="M32.6,464V270.05H37.71V464Z" style="vector-effect: none; opacity: 1; stroke-width: 0px; fill: rgb(29, 149, 221); fill-opacity: 1;"/></g><g class="point"><path d="M38.99,464V164.26H44.1V464Z" style="vector-effect: none; opacity: 1; stroke-width: 0px; fill: rgb(29, 149, 221); fill-opacity: 1;"/></g><g class="point"><path d="M45.38,464V358.21H50.5V464Z" style="vector-effect: none; opacity: 1; stroke-width: 0px; fill: rgb(29, 149, 221); fill-opacity: 1;"/></g><g class="point"><path d="M51.78,464V318.54H56.89V464Z" style="vector-effect: none; opacity: 1; stroke-width: 0px; fill: rgb(29, 149, 221); fill-opacity: 1;"/></g><g class="point"><path d="M58.17,464V437.55H63.28V464Z" style="vector-effect: none; opacity: 1; stroke-width: 0px; fill: rgb(29, 149, 221); fill-opacity: 1;"/></g><g class="point"><path d="M0,0Z" style="vector-effect: none; opacity: 1; stroke-width: 0px; fill: rgb(29, 149, 221); fill-opacity: 1;"/></g><g class="point"><path d="M70.95,464V397.88H76.06V464Z" style="vector-effect: none; opacity: 1; stroke-width: 0px; fill: rgb(29, 149, 221); fill-opacity: 1;"/></g><g class="point"><path d="M0,0Z" style="vector-effect: none; opacity: 1; stroke-width: 0px; fill: rgb(29, 149, 221); fill-opacity: 1;"/></g><g class="point"><path d="M83.74,464V305.31H88.85V464Z" style="vector-effect: none; opacity: 1; stroke-width: 0px; fill: rgb(29, 149, 221); fill-opacity: 1;"/></g><g class="point"><path d="M90.13,464V411.1H95.24V464Z" style="vector-effect: none; opacity: 1; stroke-width: 0px; fill: rgb(29, 149, 221); fill-opacity: 1;"/></g><g class="point"><path d="M96.52,464V252.42H101.63V464Z" style="vector-effect: none; opacity: 1; stroke-width: 0px; fill: rgb(29, 149, 221); fill-opacity: 1;"/></g><g class="point"><path d="M102.91,464V446.37H108.02V464Z" style="vector-effect: none; opacity: 1; stroke-width: 0px; fill: rgb(29, 149, 221); fill-opacity: 1;"/></g><g class="point"><path d="M109.3,464V58.46H114.42V464Z" style="vector-effect: none; opacity: 1; stroke-width: 0px; fill: rgb(29, 149, 221); fill-opacity: 1;"/></g><g class="point"><path d="M115.7,464V331.76H120.81V464Z" style="vector-effect: none; opacity: 1; stroke-width: 0px; fill: rgb(29, 149, 221); fill-opacity: 1;"/></g><g class="point"><path d="M122.09,464V195.11H127.2V464Z" style="vector-effect: none; opacity: 1; stroke-width: 0px; fill: rgb(29, 149, 221); fill-opacity: 1;"/></g><g class="point"><path d="M128.48,464V256.82H133.59V464Z" style="vector-effect: none; opacity: 1; stroke-width: 0px; fill: rgb(29, 149, 221); fill-opacity: 1;"/></g><g class="point"><path d="M134.87,464V151.03H139.98V464Z" style="vector-effect: none; opacity: 1; stroke-width: 0px; fill: rgb(29, 149, 221); fill-opacity: 1;"/></g><g class="point"><path d="M141.26,464V142.22H146.38V464Z" style="vector-effect: none; opacity: 1; stroke-width: 0px; fill: rgb(29, 149, 221); fill-opacity: 1;"/></g><g class="point"><path d="M147.66,464V344.98H152.77V464Z" style="vector-effect: none; opacity: 1; stroke-width: 0px; fill: rgb(29, 149, 221); fill-opacity: 1;"/></g><g class="point"><path d="M154.05,464V375.84H159.16V464Z" style="vector-effect: none; opacity: 1; stroke-width: 0px; fill: rgb(29, 149, 221); fill-opacity: 1;"/></g><g class="point"><path d="M160.44,464V146.62H165.55V464Z" style="vector-effect: none; opacity: 1; stroke-width: 0px; fill: rgb(29, 149, 221); fill-opacity: 1;"/></g><g class="point"><path d="M166.83,464V142.22H171.94V464Z" style="vector-effect: none; opacity: 1; stroke-width: 0px; fill: rgb(29, 149, 221); fill-opacity: 1;"/></g><g class="point"><path d="M173.22,464V195.11H178.34V464Z" style="vector-effect: none; opacity: 1; stroke-width: 0px; fill: rgb(29, 149, 221); fill-opacity: 1;"/></g><g class="point"><path d="M179.62,464V84.91H184.73V464Z" style="vector-effect: none; opacity: 1; stroke-width: 0px; fill: rgb(29, 149, 221); fill-opacity: 1;"/></g><g class="point"><path d="M186.01,464V36.42H191.12V464Z" style="vector-effect: none; opacity: 1; stroke-width: 0px; fill: rgb(29, 149, 221); fill-opacity: 1;"/></g><g class="point"><path d="M192.4,464V367.02H197.51V464Z" style="vector-effect: none; opacity: 1; stroke-width: 0px; fill: rgb(29, 149, 221); fill-opacity: 1;"/></g><g class="point"><path d="M198.79,464V137.81H203.9V464Z" style="vector-effect: none; opacity: 1; stroke-width: 0px; fill: rgb(29, 149, 221); fill-opacity: 1;"/></g><g class="point"><path d="M205.18,464V49.65H210.3V464Z" style="vector-effect: none; opacity: 1; stroke-width: 0px; fill: rgb(29, 149, 221); fill-opacity: 1;"/></g><g class="point"><path d="M211.58,464V309.72H216.69V464Z" style="vector-effect: none; opacity: 1; stroke-width: 0px; fill: rgb(29, 149, 221); fill-opacity: 1;"/></g><g class="point"><path d="M217.97,464V441.96H223.08V464Z" style="vector-effect: none; opacity: 1; stroke-width: 0px; fill: rgb(29, 149, 221); fill-opacity: 1;"/></g><g class="point"><path d="M224.36,464V243.6H229.47V464Z" style="vector-effect: none; opacity: 1; stroke-width: 0px; fill: rgb(29, 149, 221); fill-opacity: 1;"/></g><g class="point"><path d="M230.75,464V155.44H235.86V464Z" style="vector-effect: none; opacity: 1; stroke-width: 0px; fill: rgb(29, 149, 221); fill-opacity: 1;"/></g><g class="point"><path d="M237.14,464V406.7H242.26V464Z" style="vector-effect: none; opacity: 1; stroke-width: 0px; fill: rgb(29, 149, 221); fill-opacity: 1;"/></g><g class="point"><path d="M243.54,464V98.14H248.65V464Z" style="vector-effect: none; opacity: 1; stroke-width: 0px; fill: rgb(29, 149, 221); fill-opacity: 1;"/></g><g class="point"><path d="M249.93,464V155.44H255.04V464Z" style="vector-effect: none; opacity: 1; stroke-width: 0px; fill: rgb(29, 149, 221); fill-opacity: 1;"/></g><g class="point"><path d="M256.32,464V428.74H261.43V464Z" style="vector-effect: none; opacity: 1; stroke-width: 0px; fill: rgb(29, 149, 221); fill-opacity: 1;"/></g><g class="point"><path d="M262.71,464V234.78H267.82V464Z" style="vector-effect: none; opacity: 1; stroke-width: 0px; fill: rgb(29, 149, 221); fill-opacity: 1;"/></g><g class="point"><path d="M269.1,464V155.44H274.22V464Z" style="vector-effect: none; opacity: 1; stroke-width: 0px; fill: rgb(29, 149, 221); fill-opacity: 1;"/></g><g class="point"><path d="M275.5,464V76.1H280.61V464Z" style="vector-effect: none; opacity: 1; stroke-width: 0px; fill: rgb(29, 149, 221); fill-opacity: 1;"/></g><g class="point"><path d="M281.89,464V322.94H287V464Z" style="vector-effect: none; opacity: 1; stroke-width: 0px; fill: rgb(29, 149, 221); fill-opacity: 1;"/></g><g class="point"><path d="M288.28,464V54.06H293.39V464Z" style="vector-effect: none; opacity: 1; stroke-width: 0px; fill: rgb(29, 149, 221); fill-opacity: 1;"/></g><g class="point"><path d="M294.67,464V67.28H299.78V464Z" style="vector-effect: none; opacity: 1; stroke-width: 0px; fill: rgb(29, 149, 221); fill-opacity: 1;"/></g><g class="point"><path d="M301.06,464V256.82H306.18V464Z" style="vector-effect: none; opacity: 1; stroke-width: 0px; fill: rgb(29, 149, 221); fill-opacity: 1;"/></g><g class="point"><path d="M307.46,464V252.42H312.57V464Z" style="vector-effect: none; opacity: 1; stroke-width: 0px; fill: rgb(29, 149, 221); fill-opacity: 1;"/></g><g class="point"><path d="M313.85,464V358.21H318.96V464Z" style="vector-effect: none; opacity: 1; stroke-width: 0px; fill: rgb(29, 149, 221); fill-opacity: 1;"/></g><g class="point"><path d="M320.24,464V327.35H325.35V464Z" style="vector-effect: none; opacity: 1; stroke-width: 0px; fill: rgb(29, 149, 221); fill-opacity: 1;"/></g><g class="point"><path d="M326.63,464V270.05H331.74V464Z" style="vector-effect: none; opacity: 1; stroke-width: 0px; fill: rgb(29, 149, 221); fill-opacity: 1;"/></g><g class="point"><path d="M333.02,464V151.03H338.14V464Z" style="vector-effect: none; opacity: 1; stroke-width: 0px; fill: rgb(29, 149, 221); fill-opacity: 1;"/></g><g class="point"><path d="M339.42,464V40.83H344.53V464Z" style="vector-effect: none; opacity: 1; stroke-width: 0px; fill: rgb(29, 149, 221); fill-opacity: 1;"/></g><g class="point"><path d="M345.81,464V146.62H350.92V464Z" style="vector-effect: none; opacity: 1; stroke-width: 0px; fill: rgb(29, 149, 221); fill-opacity: 1;"/></g><g class="point"><path d="M352.2,464V199.52H357.31V464Z" style="vector-effect: none; opacity: 1; stroke-width: 0px; fill: rgb(29, 149, 221); fill-opacity: 1;"/></g><g class="point"><path d="M358.59,464V353.8H363.7V464Z" style="vector-effect: none; opacity: 1; stroke-width: 0px; fill: rgb(29, 149, 221); fill-opacity: 1;"/></g><g class="point"><path d="M364.98,464V80.5H370.1V464Z" style="vector-effect: none; opacity: 1; stroke-width: 0px; fill: rgb(29, 149, 221); fill-opacity: 1;"/></g><g class="point"><path d="M371.38,464V76.1H376.49V464Z" style="vector-effect: none; opacity: 1; stroke-width: 0px; fill: rgb(29, 149, 221); fill-opacity: 1;"/></g><g class="point"><path d="M377.77,464V23.2H382.88V464Z" style="vector-effect: none; opacity: 1; stroke-width: 0px; fill: rgb(29, 149, 221); fill-opacity: 1;"/></g><g class="point"><path d="M384.16,464V155.44H389.27V464Z" style="vector-effect: none; opacity: 1; stroke-width: 0px; fill: rgb(29, 149, 221); fill-opacity: 1;"/></g><g class="point"><path d="M390.55,464V36.42H395.66V464Z" style="vector-effect: none; opacity: 1; stroke-width: 0px; fill: rgb(29, 149, 221); fill-opacity: 1;"/></g><g class="point"><path d="M396.94,464V437.55H402.06V464Z" style="vector-effect: none; opacity: 1; stroke-width: 0px; fill: rgb(29, 149, 221); fill-opacity: 1;"/></g><g class="point"><path d="M403.34,464V234.78H408.45V464Z" style="vector-effect: none; opacity: 1; stroke-width: 0px; fill: rgb(29, 149, 221); fill-opacity: 1;"/></g><g class="point"><path d="M409.73,464V375.84H414.84V464Z" style="vector-effect: none; opacity: 1; stroke-width: 0px; fill: rgb(29, 149, 221); fill-opacity: 1;"/></g><g class="point"><path d="M416.12,464V93.73H421.23V464Z" style="vector-effect: none; opacity: 1; stroke-width: 0px; fill: rgb(29, 149, 221); fill-opacity: 1;"/></g><g class="point"><path d="M422.51,464V168.66H427.62V464Z" style="vector-effect: none; opacity: 1; stroke-width: 0px; fill: rgb(29, 149, 221); fill-opacity: 1;"/></g><g class="point"><path d="M428.9,464V362.62H434.02V464Z" style="vector-effect: none; opacity: 1; stroke-width: 0px; fill: rgb(29, 149, 221); fill-opacity: 1;"/></g><g class="point"><path d="M435.3,464V252.42H440.41V464Z" style="vector-effect: none; opacity: 1; stroke-width: 0px; fill: rgb(29, 149, 221); fill-opacity: 1;"/></g><g class="point"><path d="M441.69,464V296.5H446.8V464Z" style="vector-effect: none; opacity: 1; stroke-width: 0px; fill: rgb(29, 149, 221); fill-opacity: 1;"/></g><g class="point"><path d="M448.08,464V168.66H453.19V464Z" style="vector-effect: none; opacity: 1; stroke-width: 0px; fill: rgb(29, 149, 221); fill-opacity: 1;"/></g><g class="point"><path d="M454.47,464V450.78H459.58V464Z" style="vector-effect: none; opacity: 1; stroke-width: 0px; fill: rgb(29, 149, 221); fill-opacity: 1;"/></g><g class="point"><path d="M460.86,464V27.61H465.98V464Z" style="vector-effect: none; opacity: 1; stroke-width: 0px; fill: rgb(29, 149, 221); fill-opacity: 1;"/></g><g class="point"><path d="M467.26,464V225.97H472.37V464Z" style="vector-effect: none; opacity: 1; stroke-width: 0px; fill: rgb(29, 149, 221); fill-opacity: 1;"/></g><g class="point"><path d="M473.65,464V367.02H478.76V464Z" style="vector-effect: none; opacity: 1; stroke-width: 0px; fill: rgb(29, 149, 221); fill-opacity: 1;"/></g><g class="point"><path d="M480.04,464V89.32H485.15V464Z" style="vector-effect: none; opacity: 1; stroke-width: 0px; fill: rgb(29, 149, 221); fill-opacity: 1;"/></g><g class="point"><path d="M486.43,464V292.09H491.54V464Z" style="vector-effect: none; opacity: 1; stroke-width: 0px; fill: rgb(29, 149, 221); fill-opacity: 1;"/></g><g class="point"><path d="M492.82,464V322.94H497.94V464Z" style="vector-effect: none; opacity: 1; stroke-width: 0px; fill: rgb(29, 149, 221); fill-opacity: 1;"/></g><g class="point"><path d="M499.22,464V124.58H504.33V464Z" style="vector-effect: none; opacity: 1; stroke-width: 0px; fill: rgb(29, 149, 221); fill-opacity: 1;"/></g><g class="point"><path d="M505.61,464V76.1H510.72V464Z" style="vector-effect: none; opacity: 1; stroke-width: 0px; fill: rgb(29, 149, 221); fill-opacity: 1;"/></g><g class="point"><path d="M512,464V309.72H517.11V464Z" style="vector-effect: none; opacity: 1; stroke-width: 0px; fill: rgb(29, 149, 221); fill-opacity: 1;"/></g><g class="point"><path d="M518.39,464V441.96H523.5V464Z" style="vector-effect: none; opacity: 1; stroke-width: 0px; fill: rgb(29, 149, 221); fill-opacity: 1;"/></g><g class="point"><path d="M524.78,464V419.92H529.9V464Z" style="vector-effect: none; opacity: 1; stroke-width: 0px; fill: rgb(29, 149, 221); fill-opacity: 1;"/></g><g class="point"><path d="M531.18,464V212.74H536.29V464Z" style="vector-effect: none; opacity: 1; stroke-width: 0px; fill: rgb(29, 149, 221); fill-opacity: 1;"/></g><g class="point"><path d="M537.57,464V362.62H542.68V464Z" style="vector-effect: none; opacity: 1; stroke-width: 0px; fill: rgb(29, 149, 221); fill-opacity: 1;"/></g><g class="point"><path d="M543.96,464V186.3H549.07V464Z" style="vector-effect: none; opacity: 1; stroke-width: 0px; fill: rgb(29, 149, 221); fill-opacity: 1;"/></g><g class="point"><path d="M550.35,464V195.11H555.46V464Z" style="vector-effect: none; opacity: 1; stroke-width: 0px; fill: rgb(29, 149, 221); fill-opacity: 1;"/></g><g class="point"><path d="M556.74,464V128.99H561.86V464Z" style="vector-effect: none; opacity: 1; stroke-width: 0px; fill: rgb(29, 149, 221); fill-opacity: 1;"/></g><g class="point"><path d="M563.14,464V252.42H568.25V464Z" style="vector-effect: none; opacity: 1; stroke-width: 0px; fill: rgb(29, 149, 221); fill-opacity: 1;"/></g><g class="point"><path d="M569.53,464V270.05H574.64V464Z" style="vector-effect: none; opacity: 1; stroke-width: 0px; fill: rgb(29, 149, 221); fill-opacity: 1;"/></g><g class="point"><path d="M575.92,464V415.51H581.03V464Z" style="vector-effect: none; opacity: 1; stroke-width: 0px; fill: rgb(29, 149, 221); fill-opacity: 1;"/></g><g class="point"><path d="M582.31,464V389.06H587.42V464Z" style="vector-effect: none; opacity: 1; stroke-width: 0px; fill: rgb(29, 149, 221); fill-opacity: 1;"/></g><g class="point"><path d="M588.7,464V433.14H593.82V464Z" style="vector-effect: none; opacity: 1; stroke-width: 0px; fill: rgb(29, 149, 221); fill-opacity: 1;"/></g><g class="point"><path d="M595.1,464V397.88H600.21V464Z" style="vector-effect: none; opacity: 1; stroke-width: 0px; fill: rgb(29, 149, 221); fill-opacity: 1;"/></g><g class="point"><path d="M601.49,464V283.27H606.6V464Z" style="vector-effect: none; opacity: 1; stroke-width: 0px; fill: rgb(29, 149, 221); fill-opacity: 1;"/></g><g class="point"><path d="M607.88,464V62.87H612.99V464Z" style="vector-effect: none; opacity: 1; stroke-width: 0px; fill: rgb(29, 149, 221); fill-opacity: 1;"/></g><g class="point"><path d="M614.27,464V270.05H619.38V464Z" style="vector-effect: none; opacity: 1; stroke-width: 0px; fill: rgb(29, 149, 221); fill-opacity: 1;"/></g><g class="point"><path d="M620.66,464V265.64H625.78V464Z" style="vector-effect: none; opacity: 1; stroke-width: 0px; fill: rgb(29, 149, 221); fill-opacity: 1;"/></g><g class="point"><path d="M627.06,464V327.35H632.17V464Z" style="vector-effect: none; opacity: 1; stroke-width: 0px; fill: rgb(29, 149, 221); fill-opacity: 1;"/></g><g class="point"><path d="M633.45,464V67.28H638.56V464Z" style="vector-effect: none; opacity: 1; stroke-width: 0px; fill: rgb(29, 149, 221); fill-opacity: 1;"/></g></g></g></g></g></g><path class="xlines-above crisp" d="M0,0" style="fill: none;"/><path class="ylines-above crisp" d="M0,0" style="fill: none;"/><g class="overlines-above"/><g class="xaxislayer-above"/><g class="yaxislayer-above"/><g class="overaxes-above"/></g></g><g class="polarlayer"/><g class="smithlayer"/><g class="ternarylayer"/><g class="geolayer"/><g class="funnelarealayer"/><g class="pielayer"/><g class="iciclelayer"/><g class="treemaplayer"/><g class="sunburstlayer"/><g class="glimages"/><defs id="topdefs-669ca9"><g class="clips"/></defs><g class="layer-above"><g class="imagelayer"/><g class="shapelayer"/></g><g class="infolayer"><g class="g-gtitle"/></g></svg>